%TF.GenerationSoftware,KiCad,Pcbnew,10.0.1*%
%TF.CreationDate,2026-06-08T13:26:15+01:00*%
%TF.ProjectId,xlzd_xenonnt_amplifier_test,786c7a64-5f78-4656-9e6f-6e6e745f616d,rev?*%
%TF.SameCoordinates,Original*%
%TF.FileFunction,Legend,Top*%
%TF.FilePolarity,Positive*%
%FSLAX46Y46*%
G04 Gerber Fmt 4.6, Leading zero omitted, Abs format (unit mm)*
G04 Created by KiCad (PCBNEW 10.0.1) date 2026-06-08 13:26:15*
%MOMM*%
%LPD*%
G01*
G04 APERTURE LIST*
G04 Aperture macros list*
%AMRoundRect*
0 Rectangle with rounded corners*
0 $1 Rounding radius*
0 $2 $3 $4 $5 $6 $7 $8 $9 X,Y pos of 4 corners*
0 Add a 4 corners polygon primitive as box body*
4,1,4,$2,$3,$4,$5,$6,$7,$8,$9,$2,$3,0*
0 Add four circle primitives for the rounded corners*
1,1,$1+$1,$2,$3*
1,1,$1+$1,$4,$5*
1,1,$1+$1,$6,$7*
1,1,$1+$1,$8,$9*
0 Add four rect primitives between the rounded corners*
20,1,$1+$1,$2,$3,$4,$5,0*
20,1,$1+$1,$4,$5,$6,$7,0*
20,1,$1+$1,$6,$7,$8,$9,0*
20,1,$1+$1,$8,$9,$2,$3,0*%
G04 Aperture macros list end*
%ADD10C,0.150000*%
%ADD11C,0.300000*%
%ADD12C,0.400000*%
%ADD13C,0.120000*%
%ADD14R,5.080000X1.500000*%
%ADD15RoundRect,0.237500X0.237500X-0.250000X0.237500X0.250000X-0.237500X0.250000X-0.237500X-0.250000X0*%
%ADD16RoundRect,0.237500X0.300000X0.237500X-0.300000X0.237500X-0.300000X-0.237500X0.300000X-0.237500X0*%
%ADD17RoundRect,0.237500X-0.250000X-0.237500X0.250000X-0.237500X0.250000X0.237500X-0.250000X0.237500X0*%
%ADD18RoundRect,0.150000X0.512500X0.150000X-0.512500X0.150000X-0.512500X-0.150000X0.512500X-0.150000X0*%
%ADD19RoundRect,0.250000X1.100000X-0.412500X1.100000X0.412500X-1.100000X0.412500X-1.100000X-0.412500X0*%
%ADD20RoundRect,0.150000X-0.512500X-0.150000X0.512500X-0.150000X0.512500X0.150000X-0.512500X0.150000X0*%
%ADD21RoundRect,0.237500X-0.300000X-0.237500X0.300000X-0.237500X0.300000X0.237500X-0.300000X0.237500X0*%
%ADD22RoundRect,0.155000X-0.212500X-0.155000X0.212500X-0.155000X0.212500X0.155000X-0.212500X0.155000X0*%
%ADD23RoundRect,0.237500X-0.237500X0.250000X-0.237500X-0.250000X0.237500X-0.250000X0.237500X0.250000X0*%
%ADD24RoundRect,0.237500X0.250000X0.237500X-0.250000X0.237500X-0.250000X-0.237500X0.250000X-0.237500X0*%
%ADD25RoundRect,0.155000X0.212500X0.155000X-0.212500X0.155000X-0.212500X-0.155000X0.212500X-0.155000X0*%
%ADD26C,1.100000*%
%ADD27RoundRect,0.249999X-0.850001X0.850001X-0.850001X-0.850001X0.850001X-0.850001X0.850001X0.850001X0*%
%ADD28C,2.200000*%
G04 APERTURE END LIST*
D10*
X177002200Y-166007200D02*
X285002200Y-166007200D01*
X285002200Y-198007200D01*
X177002200Y-198007200D01*
X177002200Y-166007200D01*
X10000000Y-10000000D02*
X287002200Y-10000000D01*
X287002200Y-200007200D01*
X10000000Y-200007200D01*
X10000000Y-10000000D01*
X12000000Y-12000000D02*
X285002200Y-12000000D01*
X285002200Y-198007200D01*
X12000000Y-198007200D01*
X12000000Y-12000000D01*
X60000000Y-12000000D02*
X60000000Y-10000000D01*
X110000000Y-12000000D02*
X110000000Y-10000000D01*
X160000000Y-12000000D02*
X160000000Y-10000000D01*
X210000000Y-12000000D02*
X210000000Y-10000000D01*
X260000000Y-12000000D02*
X260000000Y-10000000D01*
X36089160Y-11593604D02*
X35346303Y-11593604D01*
X35717731Y-11593604D02*
X35717731Y-10293604D01*
X35717731Y-10293604D02*
X35593922Y-10479319D01*
X35593922Y-10479319D02*
X35470112Y-10603128D01*
X35470112Y-10603128D02*
X35346303Y-10665033D01*
X85346303Y-10417414D02*
X85408207Y-10355509D01*
X85408207Y-10355509D02*
X85532017Y-10293604D01*
X85532017Y-10293604D02*
X85841541Y-10293604D01*
X85841541Y-10293604D02*
X85965350Y-10355509D01*
X85965350Y-10355509D02*
X86027255Y-10417414D01*
X86027255Y-10417414D02*
X86089160Y-10541223D01*
X86089160Y-10541223D02*
X86089160Y-10665033D01*
X86089160Y-10665033D02*
X86027255Y-10850747D01*
X86027255Y-10850747D02*
X85284398Y-11593604D01*
X85284398Y-11593604D02*
X86089160Y-11593604D01*
X135284398Y-10293604D02*
X136089160Y-10293604D01*
X136089160Y-10293604D02*
X135655826Y-10788842D01*
X135655826Y-10788842D02*
X135841541Y-10788842D01*
X135841541Y-10788842D02*
X135965350Y-10850747D01*
X135965350Y-10850747D02*
X136027255Y-10912652D01*
X136027255Y-10912652D02*
X136089160Y-11036461D01*
X136089160Y-11036461D02*
X136089160Y-11345985D01*
X136089160Y-11345985D02*
X136027255Y-11469795D01*
X136027255Y-11469795D02*
X135965350Y-11531700D01*
X135965350Y-11531700D02*
X135841541Y-11593604D01*
X135841541Y-11593604D02*
X135470112Y-11593604D01*
X135470112Y-11593604D02*
X135346303Y-11531700D01*
X135346303Y-11531700D02*
X135284398Y-11469795D01*
X185965350Y-10726938D02*
X185965350Y-11593604D01*
X185655826Y-10231700D02*
X185346303Y-11160271D01*
X185346303Y-11160271D02*
X186151064Y-11160271D01*
X236027255Y-10293604D02*
X235408207Y-10293604D01*
X235408207Y-10293604D02*
X235346303Y-10912652D01*
X235346303Y-10912652D02*
X235408207Y-10850747D01*
X235408207Y-10850747D02*
X235532017Y-10788842D01*
X235532017Y-10788842D02*
X235841541Y-10788842D01*
X235841541Y-10788842D02*
X235965350Y-10850747D01*
X235965350Y-10850747D02*
X236027255Y-10912652D01*
X236027255Y-10912652D02*
X236089160Y-11036461D01*
X236089160Y-11036461D02*
X236089160Y-11345985D01*
X236089160Y-11345985D02*
X236027255Y-11469795D01*
X236027255Y-11469795D02*
X235965350Y-11531700D01*
X235965350Y-11531700D02*
X235841541Y-11593604D01*
X235841541Y-11593604D02*
X235532017Y-11593604D01*
X235532017Y-11593604D02*
X235408207Y-11531700D01*
X235408207Y-11531700D02*
X235346303Y-11469795D01*
X285965350Y-10293604D02*
X285717731Y-10293604D01*
X285717731Y-10293604D02*
X285593922Y-10355509D01*
X285593922Y-10355509D02*
X285532017Y-10417414D01*
X285532017Y-10417414D02*
X285408207Y-10603128D01*
X285408207Y-10603128D02*
X285346303Y-10850747D01*
X285346303Y-10850747D02*
X285346303Y-11345985D01*
X285346303Y-11345985D02*
X285408207Y-11469795D01*
X285408207Y-11469795D02*
X285470112Y-11531700D01*
X285470112Y-11531700D02*
X285593922Y-11593604D01*
X285593922Y-11593604D02*
X285841541Y-11593604D01*
X285841541Y-11593604D02*
X285965350Y-11531700D01*
X285965350Y-11531700D02*
X286027255Y-11469795D01*
X286027255Y-11469795D02*
X286089160Y-11345985D01*
X286089160Y-11345985D02*
X286089160Y-11036461D01*
X286089160Y-11036461D02*
X286027255Y-10912652D01*
X286027255Y-10912652D02*
X285965350Y-10850747D01*
X285965350Y-10850747D02*
X285841541Y-10788842D01*
X285841541Y-10788842D02*
X285593922Y-10788842D01*
X285593922Y-10788842D02*
X285470112Y-10850747D01*
X285470112Y-10850747D02*
X285408207Y-10912652D01*
X285408207Y-10912652D02*
X285346303Y-11036461D01*
X60000000Y-198007200D02*
X60000000Y-200007200D01*
X110000000Y-198007200D02*
X110000000Y-200007200D01*
X160000000Y-198007200D02*
X160000000Y-200007200D01*
X210000000Y-198007200D02*
X210000000Y-200007200D01*
X260000000Y-198007200D02*
X260000000Y-200007200D01*
X36089160Y-199600804D02*
X35346303Y-199600804D01*
X35717731Y-199600804D02*
X35717731Y-198300804D01*
X35717731Y-198300804D02*
X35593922Y-198486519D01*
X35593922Y-198486519D02*
X35470112Y-198610328D01*
X35470112Y-198610328D02*
X35346303Y-198672233D01*
X85346303Y-198424614D02*
X85408207Y-198362709D01*
X85408207Y-198362709D02*
X85532017Y-198300804D01*
X85532017Y-198300804D02*
X85841541Y-198300804D01*
X85841541Y-198300804D02*
X85965350Y-198362709D01*
X85965350Y-198362709D02*
X86027255Y-198424614D01*
X86027255Y-198424614D02*
X86089160Y-198548423D01*
X86089160Y-198548423D02*
X86089160Y-198672233D01*
X86089160Y-198672233D02*
X86027255Y-198857947D01*
X86027255Y-198857947D02*
X85284398Y-199600804D01*
X85284398Y-199600804D02*
X86089160Y-199600804D01*
X135284398Y-198300804D02*
X136089160Y-198300804D01*
X136089160Y-198300804D02*
X135655826Y-198796042D01*
X135655826Y-198796042D02*
X135841541Y-198796042D01*
X135841541Y-198796042D02*
X135965350Y-198857947D01*
X135965350Y-198857947D02*
X136027255Y-198919852D01*
X136027255Y-198919852D02*
X136089160Y-199043661D01*
X136089160Y-199043661D02*
X136089160Y-199353185D01*
X136089160Y-199353185D02*
X136027255Y-199476995D01*
X136027255Y-199476995D02*
X135965350Y-199538900D01*
X135965350Y-199538900D02*
X135841541Y-199600804D01*
X135841541Y-199600804D02*
X135470112Y-199600804D01*
X135470112Y-199600804D02*
X135346303Y-199538900D01*
X135346303Y-199538900D02*
X135284398Y-199476995D01*
X185965350Y-198734138D02*
X185965350Y-199600804D01*
X185655826Y-198238900D02*
X185346303Y-199167471D01*
X185346303Y-199167471D02*
X186151064Y-199167471D01*
X236027255Y-198300804D02*
X235408207Y-198300804D01*
X235408207Y-198300804D02*
X235346303Y-198919852D01*
X235346303Y-198919852D02*
X235408207Y-198857947D01*
X235408207Y-198857947D02*
X235532017Y-198796042D01*
X235532017Y-198796042D02*
X235841541Y-198796042D01*
X235841541Y-198796042D02*
X235965350Y-198857947D01*
X235965350Y-198857947D02*
X236027255Y-198919852D01*
X236027255Y-198919852D02*
X236089160Y-199043661D01*
X236089160Y-199043661D02*
X236089160Y-199353185D01*
X236089160Y-199353185D02*
X236027255Y-199476995D01*
X236027255Y-199476995D02*
X235965350Y-199538900D01*
X235965350Y-199538900D02*
X235841541Y-199600804D01*
X235841541Y-199600804D02*
X235532017Y-199600804D01*
X235532017Y-199600804D02*
X235408207Y-199538900D01*
X235408207Y-199538900D02*
X235346303Y-199476995D01*
X285965350Y-198300804D02*
X285717731Y-198300804D01*
X285717731Y-198300804D02*
X285593922Y-198362709D01*
X285593922Y-198362709D02*
X285532017Y-198424614D01*
X285532017Y-198424614D02*
X285408207Y-198610328D01*
X285408207Y-198610328D02*
X285346303Y-198857947D01*
X285346303Y-198857947D02*
X285346303Y-199353185D01*
X285346303Y-199353185D02*
X285408207Y-199476995D01*
X285408207Y-199476995D02*
X285470112Y-199538900D01*
X285470112Y-199538900D02*
X285593922Y-199600804D01*
X285593922Y-199600804D02*
X285841541Y-199600804D01*
X285841541Y-199600804D02*
X285965350Y-199538900D01*
X285965350Y-199538900D02*
X286027255Y-199476995D01*
X286027255Y-199476995D02*
X286089160Y-199353185D01*
X286089160Y-199353185D02*
X286089160Y-199043661D01*
X286089160Y-199043661D02*
X286027255Y-198919852D01*
X286027255Y-198919852D02*
X285965350Y-198857947D01*
X285965350Y-198857947D02*
X285841541Y-198796042D01*
X285841541Y-198796042D02*
X285593922Y-198796042D01*
X285593922Y-198796042D02*
X285470112Y-198857947D01*
X285470112Y-198857947D02*
X285408207Y-198919852D01*
X285408207Y-198919852D02*
X285346303Y-199043661D01*
X10000000Y-60000000D02*
X12000000Y-60000000D01*
X10000000Y-110000000D02*
X12000000Y-110000000D01*
X10000000Y-160000000D02*
X12000000Y-160000000D01*
X10690476Y-35222176D02*
X11309523Y-35222176D01*
X10566666Y-35593604D02*
X10999999Y-34293604D01*
X10999999Y-34293604D02*
X11433333Y-35593604D01*
X11092857Y-84912652D02*
X11278571Y-84974557D01*
X11278571Y-84974557D02*
X11340476Y-85036461D01*
X11340476Y-85036461D02*
X11402380Y-85160271D01*
X11402380Y-85160271D02*
X11402380Y-85345985D01*
X11402380Y-85345985D02*
X11340476Y-85469795D01*
X11340476Y-85469795D02*
X11278571Y-85531700D01*
X11278571Y-85531700D02*
X11154761Y-85593604D01*
X11154761Y-85593604D02*
X10659523Y-85593604D01*
X10659523Y-85593604D02*
X10659523Y-84293604D01*
X10659523Y-84293604D02*
X11092857Y-84293604D01*
X11092857Y-84293604D02*
X11216666Y-84355509D01*
X11216666Y-84355509D02*
X11278571Y-84417414D01*
X11278571Y-84417414D02*
X11340476Y-84541223D01*
X11340476Y-84541223D02*
X11340476Y-84665033D01*
X11340476Y-84665033D02*
X11278571Y-84788842D01*
X11278571Y-84788842D02*
X11216666Y-84850747D01*
X11216666Y-84850747D02*
X11092857Y-84912652D01*
X11092857Y-84912652D02*
X10659523Y-84912652D01*
X11402380Y-135469795D02*
X11340476Y-135531700D01*
X11340476Y-135531700D02*
X11154761Y-135593604D01*
X11154761Y-135593604D02*
X11030952Y-135593604D01*
X11030952Y-135593604D02*
X10845238Y-135531700D01*
X10845238Y-135531700D02*
X10721428Y-135407890D01*
X10721428Y-135407890D02*
X10659523Y-135284080D01*
X10659523Y-135284080D02*
X10597619Y-135036461D01*
X10597619Y-135036461D02*
X10597619Y-134850747D01*
X10597619Y-134850747D02*
X10659523Y-134603128D01*
X10659523Y-134603128D02*
X10721428Y-134479319D01*
X10721428Y-134479319D02*
X10845238Y-134355509D01*
X10845238Y-134355509D02*
X11030952Y-134293604D01*
X11030952Y-134293604D02*
X11154761Y-134293604D01*
X11154761Y-134293604D02*
X11340476Y-134355509D01*
X11340476Y-134355509D02*
X11402380Y-134417414D01*
X10659523Y-185593604D02*
X10659523Y-184293604D01*
X10659523Y-184293604D02*
X10969047Y-184293604D01*
X10969047Y-184293604D02*
X11154761Y-184355509D01*
X11154761Y-184355509D02*
X11278571Y-184479319D01*
X11278571Y-184479319D02*
X11340476Y-184603128D01*
X11340476Y-184603128D02*
X11402380Y-184850747D01*
X11402380Y-184850747D02*
X11402380Y-185036461D01*
X11402380Y-185036461D02*
X11340476Y-185284080D01*
X11340476Y-185284080D02*
X11278571Y-185407890D01*
X11278571Y-185407890D02*
X11154761Y-185531700D01*
X11154761Y-185531700D02*
X10969047Y-185593604D01*
X10969047Y-185593604D02*
X10659523Y-185593604D01*
X287002200Y-60000000D02*
X285002200Y-60000000D01*
X287002200Y-110000000D02*
X285002200Y-110000000D01*
X287002200Y-160000000D02*
X285002200Y-160000000D01*
X285692676Y-35222176D02*
X286311723Y-35222176D01*
X285568866Y-35593604D02*
X286002199Y-34293604D01*
X286002199Y-34293604D02*
X286435533Y-35593604D01*
X286095057Y-84912652D02*
X286280771Y-84974557D01*
X286280771Y-84974557D02*
X286342676Y-85036461D01*
X286342676Y-85036461D02*
X286404580Y-85160271D01*
X286404580Y-85160271D02*
X286404580Y-85345985D01*
X286404580Y-85345985D02*
X286342676Y-85469795D01*
X286342676Y-85469795D02*
X286280771Y-85531700D01*
X286280771Y-85531700D02*
X286156961Y-85593604D01*
X286156961Y-85593604D02*
X285661723Y-85593604D01*
X285661723Y-85593604D02*
X285661723Y-84293604D01*
X285661723Y-84293604D02*
X286095057Y-84293604D01*
X286095057Y-84293604D02*
X286218866Y-84355509D01*
X286218866Y-84355509D02*
X286280771Y-84417414D01*
X286280771Y-84417414D02*
X286342676Y-84541223D01*
X286342676Y-84541223D02*
X286342676Y-84665033D01*
X286342676Y-84665033D02*
X286280771Y-84788842D01*
X286280771Y-84788842D02*
X286218866Y-84850747D01*
X286218866Y-84850747D02*
X286095057Y-84912652D01*
X286095057Y-84912652D02*
X285661723Y-84912652D01*
X286404580Y-135469795D02*
X286342676Y-135531700D01*
X286342676Y-135531700D02*
X286156961Y-135593604D01*
X286156961Y-135593604D02*
X286033152Y-135593604D01*
X286033152Y-135593604D02*
X285847438Y-135531700D01*
X285847438Y-135531700D02*
X285723628Y-135407890D01*
X285723628Y-135407890D02*
X285661723Y-135284080D01*
X285661723Y-135284080D02*
X285599819Y-135036461D01*
X285599819Y-135036461D02*
X285599819Y-134850747D01*
X285599819Y-134850747D02*
X285661723Y-134603128D01*
X285661723Y-134603128D02*
X285723628Y-134479319D01*
X285723628Y-134479319D02*
X285847438Y-134355509D01*
X285847438Y-134355509D02*
X286033152Y-134293604D01*
X286033152Y-134293604D02*
X286156961Y-134293604D01*
X286156961Y-134293604D02*
X286342676Y-134355509D01*
X286342676Y-134355509D02*
X286404580Y-134417414D01*
X285661723Y-185593604D02*
X285661723Y-184293604D01*
X285661723Y-184293604D02*
X285971247Y-184293604D01*
X285971247Y-184293604D02*
X286156961Y-184355509D01*
X286156961Y-184355509D02*
X286280771Y-184479319D01*
X286280771Y-184479319D02*
X286342676Y-184603128D01*
X286342676Y-184603128D02*
X286404580Y-184850747D01*
X286404580Y-184850747D02*
X286404580Y-185036461D01*
X286404580Y-185036461D02*
X286342676Y-185284080D01*
X286342676Y-185284080D02*
X286280771Y-185407890D01*
X286280771Y-185407890D02*
X286156961Y-185531700D01*
X286156961Y-185531700D02*
X285971247Y-185593604D01*
X285971247Y-185593604D02*
X285661723Y-185593604D01*
X200458026Y-193793328D02*
X200458026Y-192293328D01*
X200458026Y-192293328D02*
X200815169Y-192293328D01*
X200815169Y-192293328D02*
X201029455Y-192364757D01*
X201029455Y-192364757D02*
X201172312Y-192507614D01*
X201172312Y-192507614D02*
X201243741Y-192650471D01*
X201243741Y-192650471D02*
X201315169Y-192936185D01*
X201315169Y-192936185D02*
X201315169Y-193150471D01*
X201315169Y-193150471D02*
X201243741Y-193436185D01*
X201243741Y-193436185D02*
X201172312Y-193579042D01*
X201172312Y-193579042D02*
X201029455Y-193721900D01*
X201029455Y-193721900D02*
X200815169Y-193793328D01*
X200815169Y-193793328D02*
X200458026Y-193793328D01*
X202600884Y-193793328D02*
X202600884Y-193007614D01*
X202600884Y-193007614D02*
X202529455Y-192864757D01*
X202529455Y-192864757D02*
X202386598Y-192793328D01*
X202386598Y-192793328D02*
X202100884Y-192793328D01*
X202100884Y-192793328D02*
X201958026Y-192864757D01*
X202600884Y-193721900D02*
X202458026Y-193793328D01*
X202458026Y-193793328D02*
X202100884Y-193793328D01*
X202100884Y-193793328D02*
X201958026Y-193721900D01*
X201958026Y-193721900D02*
X201886598Y-193579042D01*
X201886598Y-193579042D02*
X201886598Y-193436185D01*
X201886598Y-193436185D02*
X201958026Y-193293328D01*
X201958026Y-193293328D02*
X202100884Y-193221900D01*
X202100884Y-193221900D02*
X202458026Y-193221900D01*
X202458026Y-193221900D02*
X202600884Y-193150471D01*
X203100884Y-192793328D02*
X203672312Y-192793328D01*
X203315169Y-192293328D02*
X203315169Y-193579042D01*
X203315169Y-193579042D02*
X203386598Y-193721900D01*
X203386598Y-193721900D02*
X203529455Y-193793328D01*
X203529455Y-193793328D02*
X203672312Y-193793328D01*
X204743741Y-193721900D02*
X204600884Y-193793328D01*
X204600884Y-193793328D02*
X204315170Y-193793328D01*
X204315170Y-193793328D02*
X204172312Y-193721900D01*
X204172312Y-193721900D02*
X204100884Y-193579042D01*
X204100884Y-193579042D02*
X204100884Y-193007614D01*
X204100884Y-193007614D02*
X204172312Y-192864757D01*
X204172312Y-192864757D02*
X204315170Y-192793328D01*
X204315170Y-192793328D02*
X204600884Y-192793328D01*
X204600884Y-192793328D02*
X204743741Y-192864757D01*
X204743741Y-192864757D02*
X204815170Y-193007614D01*
X204815170Y-193007614D02*
X204815170Y-193150471D01*
X204815170Y-193150471D02*
X204100884Y-193293328D01*
X205458026Y-193650471D02*
X205529455Y-193721900D01*
X205529455Y-193721900D02*
X205458026Y-193793328D01*
X205458026Y-193793328D02*
X205386598Y-193721900D01*
X205386598Y-193721900D02*
X205458026Y-193650471D01*
X205458026Y-193650471D02*
X205458026Y-193793328D01*
X205458026Y-192864757D02*
X205529455Y-192936185D01*
X205529455Y-192936185D02*
X205458026Y-193007614D01*
X205458026Y-193007614D02*
X205386598Y-192936185D01*
X205386598Y-192936185D02*
X205458026Y-192864757D01*
X205458026Y-192864757D02*
X205458026Y-193007614D01*
X177002200Y-194507200D02*
X285002200Y-194507200D01*
X178458026Y-196593328D02*
X178458026Y-195093328D01*
X179315169Y-196593328D02*
X178672312Y-195736185D01*
X179315169Y-195093328D02*
X178458026Y-195950471D01*
X179958026Y-196593328D02*
X179958026Y-195593328D01*
X179958026Y-195093328D02*
X179886598Y-195164757D01*
X179886598Y-195164757D02*
X179958026Y-195236185D01*
X179958026Y-195236185D02*
X180029455Y-195164757D01*
X180029455Y-195164757D02*
X179958026Y-195093328D01*
X179958026Y-195093328D02*
X179958026Y-195236185D01*
X181529455Y-196450471D02*
X181458027Y-196521900D01*
X181458027Y-196521900D02*
X181243741Y-196593328D01*
X181243741Y-196593328D02*
X181100884Y-196593328D01*
X181100884Y-196593328D02*
X180886598Y-196521900D01*
X180886598Y-196521900D02*
X180743741Y-196379042D01*
X180743741Y-196379042D02*
X180672312Y-196236185D01*
X180672312Y-196236185D02*
X180600884Y-195950471D01*
X180600884Y-195950471D02*
X180600884Y-195736185D01*
X180600884Y-195736185D02*
X180672312Y-195450471D01*
X180672312Y-195450471D02*
X180743741Y-195307614D01*
X180743741Y-195307614D02*
X180886598Y-195164757D01*
X180886598Y-195164757D02*
X181100884Y-195093328D01*
X181100884Y-195093328D02*
X181243741Y-195093328D01*
X181243741Y-195093328D02*
X181458027Y-195164757D01*
X181458027Y-195164757D02*
X181529455Y-195236185D01*
X182815170Y-196593328D02*
X182815170Y-195807614D01*
X182815170Y-195807614D02*
X182743741Y-195664757D01*
X182743741Y-195664757D02*
X182600884Y-195593328D01*
X182600884Y-195593328D02*
X182315170Y-195593328D01*
X182315170Y-195593328D02*
X182172312Y-195664757D01*
X182815170Y-196521900D02*
X182672312Y-196593328D01*
X182672312Y-196593328D02*
X182315170Y-196593328D01*
X182315170Y-196593328D02*
X182172312Y-196521900D01*
X182172312Y-196521900D02*
X182100884Y-196379042D01*
X182100884Y-196379042D02*
X182100884Y-196236185D01*
X182100884Y-196236185D02*
X182172312Y-196093328D01*
X182172312Y-196093328D02*
X182315170Y-196021900D01*
X182315170Y-196021900D02*
X182672312Y-196021900D01*
X182672312Y-196021900D02*
X182815170Y-195950471D01*
X184172313Y-196593328D02*
X184172313Y-195093328D01*
X184172313Y-196521900D02*
X184029455Y-196593328D01*
X184029455Y-196593328D02*
X183743741Y-196593328D01*
X183743741Y-196593328D02*
X183600884Y-196521900D01*
X183600884Y-196521900D02*
X183529455Y-196450471D01*
X183529455Y-196450471D02*
X183458027Y-196307614D01*
X183458027Y-196307614D02*
X183458027Y-195879042D01*
X183458027Y-195879042D02*
X183529455Y-195736185D01*
X183529455Y-195736185D02*
X183600884Y-195664757D01*
X183600884Y-195664757D02*
X183743741Y-195593328D01*
X183743741Y-195593328D02*
X184029455Y-195593328D01*
X184029455Y-195593328D02*
X184172313Y-195664757D01*
X186029455Y-195807614D02*
X186529455Y-195807614D01*
X186743741Y-196593328D02*
X186029455Y-196593328D01*
X186029455Y-196593328D02*
X186029455Y-195093328D01*
X186029455Y-195093328D02*
X186743741Y-195093328D01*
X187386598Y-196450471D02*
X187458027Y-196521900D01*
X187458027Y-196521900D02*
X187386598Y-196593328D01*
X187386598Y-196593328D02*
X187315170Y-196521900D01*
X187315170Y-196521900D02*
X187386598Y-196450471D01*
X187386598Y-196450471D02*
X187386598Y-196593328D01*
X188100884Y-196593328D02*
X188100884Y-195093328D01*
X188100884Y-195093328D02*
X188458027Y-195093328D01*
X188458027Y-195093328D02*
X188672313Y-195164757D01*
X188672313Y-195164757D02*
X188815170Y-195307614D01*
X188815170Y-195307614D02*
X188886599Y-195450471D01*
X188886599Y-195450471D02*
X188958027Y-195736185D01*
X188958027Y-195736185D02*
X188958027Y-195950471D01*
X188958027Y-195950471D02*
X188886599Y-196236185D01*
X188886599Y-196236185D02*
X188815170Y-196379042D01*
X188815170Y-196379042D02*
X188672313Y-196521900D01*
X188672313Y-196521900D02*
X188458027Y-196593328D01*
X188458027Y-196593328D02*
X188100884Y-196593328D01*
X189600884Y-196450471D02*
X189672313Y-196521900D01*
X189672313Y-196521900D02*
X189600884Y-196593328D01*
X189600884Y-196593328D02*
X189529456Y-196521900D01*
X189529456Y-196521900D02*
X189600884Y-196450471D01*
X189600884Y-196450471D02*
X189600884Y-196593328D01*
X190243742Y-196164757D02*
X190958028Y-196164757D01*
X190100885Y-196593328D02*
X190600885Y-195093328D01*
X190600885Y-195093328D02*
X191100885Y-196593328D01*
X191600884Y-196450471D02*
X191672313Y-196521900D01*
X191672313Y-196521900D02*
X191600884Y-196593328D01*
X191600884Y-196593328D02*
X191529456Y-196521900D01*
X191529456Y-196521900D02*
X191600884Y-196450471D01*
X191600884Y-196450471D02*
X191600884Y-196593328D01*
X194243742Y-196593328D02*
X193386599Y-196593328D01*
X193815170Y-196593328D02*
X193815170Y-195093328D01*
X193815170Y-195093328D02*
X193672313Y-195307614D01*
X193672313Y-195307614D02*
X193529456Y-195450471D01*
X193529456Y-195450471D02*
X193386599Y-195521900D01*
X195172313Y-195093328D02*
X195315170Y-195093328D01*
X195315170Y-195093328D02*
X195458027Y-195164757D01*
X195458027Y-195164757D02*
X195529456Y-195236185D01*
X195529456Y-195236185D02*
X195600884Y-195379042D01*
X195600884Y-195379042D02*
X195672313Y-195664757D01*
X195672313Y-195664757D02*
X195672313Y-196021900D01*
X195672313Y-196021900D02*
X195600884Y-196307614D01*
X195600884Y-196307614D02*
X195529456Y-196450471D01*
X195529456Y-196450471D02*
X195458027Y-196521900D01*
X195458027Y-196521900D02*
X195315170Y-196593328D01*
X195315170Y-196593328D02*
X195172313Y-196593328D01*
X195172313Y-196593328D02*
X195029456Y-196521900D01*
X195029456Y-196521900D02*
X194958027Y-196450471D01*
X194958027Y-196450471D02*
X194886598Y-196307614D01*
X194886598Y-196307614D02*
X194815170Y-196021900D01*
X194815170Y-196021900D02*
X194815170Y-195664757D01*
X194815170Y-195664757D02*
X194886598Y-195379042D01*
X194886598Y-195379042D02*
X194958027Y-195236185D01*
X194958027Y-195236185D02*
X195029456Y-195164757D01*
X195029456Y-195164757D02*
X195172313Y-195093328D01*
X196315169Y-196450471D02*
X196386598Y-196521900D01*
X196386598Y-196521900D02*
X196315169Y-196593328D01*
X196315169Y-196593328D02*
X196243741Y-196521900D01*
X196243741Y-196521900D02*
X196315169Y-196450471D01*
X196315169Y-196450471D02*
X196315169Y-196593328D01*
X197315170Y-195093328D02*
X197458027Y-195093328D01*
X197458027Y-195093328D02*
X197600884Y-195164757D01*
X197600884Y-195164757D02*
X197672313Y-195236185D01*
X197672313Y-195236185D02*
X197743741Y-195379042D01*
X197743741Y-195379042D02*
X197815170Y-195664757D01*
X197815170Y-195664757D02*
X197815170Y-196021900D01*
X197815170Y-196021900D02*
X197743741Y-196307614D01*
X197743741Y-196307614D02*
X197672313Y-196450471D01*
X197672313Y-196450471D02*
X197600884Y-196521900D01*
X197600884Y-196521900D02*
X197458027Y-196593328D01*
X197458027Y-196593328D02*
X197315170Y-196593328D01*
X197315170Y-196593328D02*
X197172313Y-196521900D01*
X197172313Y-196521900D02*
X197100884Y-196450471D01*
X197100884Y-196450471D02*
X197029455Y-196307614D01*
X197029455Y-196307614D02*
X196958027Y-196021900D01*
X196958027Y-196021900D02*
X196958027Y-195664757D01*
X196958027Y-195664757D02*
X197029455Y-195379042D01*
X197029455Y-195379042D02*
X197100884Y-195236185D01*
X197100884Y-195236185D02*
X197172313Y-195164757D01*
X197172313Y-195164757D02*
X197315170Y-195093328D01*
X198458026Y-196450471D02*
X198529455Y-196521900D01*
X198529455Y-196521900D02*
X198458026Y-196593328D01*
X198458026Y-196593328D02*
X198386598Y-196521900D01*
X198386598Y-196521900D02*
X198458026Y-196450471D01*
X198458026Y-196450471D02*
X198458026Y-196593328D01*
X199958027Y-196593328D02*
X199100884Y-196593328D01*
X199529455Y-196593328D02*
X199529455Y-195093328D01*
X199529455Y-195093328D02*
X199386598Y-195307614D01*
X199386598Y-195307614D02*
X199243741Y-195450471D01*
X199243741Y-195450471D02*
X199100884Y-195521900D01*
X177002200Y-191507200D02*
X285002200Y-191507200D01*
D11*
X264413853Y-193785528D02*
X263913853Y-193071242D01*
X263556710Y-193785528D02*
X263556710Y-192285528D01*
X263556710Y-192285528D02*
X264128139Y-192285528D01*
X264128139Y-192285528D02*
X264270996Y-192356957D01*
X264270996Y-192356957D02*
X264342425Y-192428385D01*
X264342425Y-192428385D02*
X264413853Y-192571242D01*
X264413853Y-192571242D02*
X264413853Y-192785528D01*
X264413853Y-192785528D02*
X264342425Y-192928385D01*
X264342425Y-192928385D02*
X264270996Y-192999814D01*
X264270996Y-192999814D02*
X264128139Y-193071242D01*
X264128139Y-193071242D02*
X263556710Y-193071242D01*
X265628139Y-193714100D02*
X265485282Y-193785528D01*
X265485282Y-193785528D02*
X265199568Y-193785528D01*
X265199568Y-193785528D02*
X265056710Y-193714100D01*
X265056710Y-193714100D02*
X264985282Y-193571242D01*
X264985282Y-193571242D02*
X264985282Y-192999814D01*
X264985282Y-192999814D02*
X265056710Y-192856957D01*
X265056710Y-192856957D02*
X265199568Y-192785528D01*
X265199568Y-192785528D02*
X265485282Y-192785528D01*
X265485282Y-192785528D02*
X265628139Y-192856957D01*
X265628139Y-192856957D02*
X265699568Y-192999814D01*
X265699568Y-192999814D02*
X265699568Y-193142671D01*
X265699568Y-193142671D02*
X264985282Y-193285528D01*
X266199567Y-192785528D02*
X266556710Y-193785528D01*
X266556710Y-193785528D02*
X266913853Y-192785528D01*
X267485281Y-193642671D02*
X267556710Y-193714100D01*
X267556710Y-193714100D02*
X267485281Y-193785528D01*
X267485281Y-193785528D02*
X267413853Y-193714100D01*
X267413853Y-193714100D02*
X267485281Y-193642671D01*
X267485281Y-193642671D02*
X267485281Y-193785528D01*
X267485281Y-192856957D02*
X267556710Y-192928385D01*
X267556710Y-192928385D02*
X267485281Y-192999814D01*
X267485281Y-192999814D02*
X267413853Y-192928385D01*
X267413853Y-192928385D02*
X267485281Y-192856957D01*
X267485281Y-192856957D02*
X267485281Y-192999814D01*
D10*
X178386598Y-193721900D02*
X178600884Y-193793328D01*
X178600884Y-193793328D02*
X178958026Y-193793328D01*
X178958026Y-193793328D02*
X179100884Y-193721900D01*
X179100884Y-193721900D02*
X179172312Y-193650471D01*
X179172312Y-193650471D02*
X179243741Y-193507614D01*
X179243741Y-193507614D02*
X179243741Y-193364757D01*
X179243741Y-193364757D02*
X179172312Y-193221900D01*
X179172312Y-193221900D02*
X179100884Y-193150471D01*
X179100884Y-193150471D02*
X178958026Y-193079042D01*
X178958026Y-193079042D02*
X178672312Y-193007614D01*
X178672312Y-193007614D02*
X178529455Y-192936185D01*
X178529455Y-192936185D02*
X178458026Y-192864757D01*
X178458026Y-192864757D02*
X178386598Y-192721900D01*
X178386598Y-192721900D02*
X178386598Y-192579042D01*
X178386598Y-192579042D02*
X178458026Y-192436185D01*
X178458026Y-192436185D02*
X178529455Y-192364757D01*
X178529455Y-192364757D02*
X178672312Y-192293328D01*
X178672312Y-192293328D02*
X179029455Y-192293328D01*
X179029455Y-192293328D02*
X179243741Y-192364757D01*
X179886597Y-193793328D02*
X179886597Y-192793328D01*
X179886597Y-192293328D02*
X179815169Y-192364757D01*
X179815169Y-192364757D02*
X179886597Y-192436185D01*
X179886597Y-192436185D02*
X179958026Y-192364757D01*
X179958026Y-192364757D02*
X179886597Y-192293328D01*
X179886597Y-192293328D02*
X179886597Y-192436185D01*
X180458026Y-192793328D02*
X181243741Y-192793328D01*
X181243741Y-192793328D02*
X180458026Y-193793328D01*
X180458026Y-193793328D02*
X181243741Y-193793328D01*
X182386598Y-193721900D02*
X182243741Y-193793328D01*
X182243741Y-193793328D02*
X181958027Y-193793328D01*
X181958027Y-193793328D02*
X181815169Y-193721900D01*
X181815169Y-193721900D02*
X181743741Y-193579042D01*
X181743741Y-193579042D02*
X181743741Y-193007614D01*
X181743741Y-193007614D02*
X181815169Y-192864757D01*
X181815169Y-192864757D02*
X181958027Y-192793328D01*
X181958027Y-192793328D02*
X182243741Y-192793328D01*
X182243741Y-192793328D02*
X182386598Y-192864757D01*
X182386598Y-192864757D02*
X182458027Y-193007614D01*
X182458027Y-193007614D02*
X182458027Y-193150471D01*
X182458027Y-193150471D02*
X181743741Y-193293328D01*
X183100883Y-193650471D02*
X183172312Y-193721900D01*
X183172312Y-193721900D02*
X183100883Y-193793328D01*
X183100883Y-193793328D02*
X183029455Y-193721900D01*
X183029455Y-193721900D02*
X183100883Y-193650471D01*
X183100883Y-193650471D02*
X183100883Y-193793328D01*
X183100883Y-192864757D02*
X183172312Y-192936185D01*
X183172312Y-192936185D02*
X183100883Y-193007614D01*
X183100883Y-193007614D02*
X183029455Y-192936185D01*
X183029455Y-192936185D02*
X183100883Y-192864757D01*
X183100883Y-192864757D02*
X183100883Y-193007614D01*
X184886598Y-193364757D02*
X185600884Y-193364757D01*
X184743741Y-193793328D02*
X185243741Y-192293328D01*
X185243741Y-192293328D02*
X185743741Y-193793328D01*
X186886598Y-192793328D02*
X186886598Y-193793328D01*
X186529455Y-192221900D02*
X186172312Y-193293328D01*
X186172312Y-193293328D02*
X187100883Y-193293328D01*
X263458026Y-196593328D02*
X263458026Y-195093328D01*
X264815170Y-196593328D02*
X264815170Y-195093328D01*
X264815170Y-196521900D02*
X264672312Y-196593328D01*
X264672312Y-196593328D02*
X264386598Y-196593328D01*
X264386598Y-196593328D02*
X264243741Y-196521900D01*
X264243741Y-196521900D02*
X264172312Y-196450471D01*
X264172312Y-196450471D02*
X264100884Y-196307614D01*
X264100884Y-196307614D02*
X264100884Y-195879042D01*
X264100884Y-195879042D02*
X264172312Y-195736185D01*
X264172312Y-195736185D02*
X264243741Y-195664757D01*
X264243741Y-195664757D02*
X264386598Y-195593328D01*
X264386598Y-195593328D02*
X264672312Y-195593328D01*
X264672312Y-195593328D02*
X264815170Y-195664757D01*
X265529455Y-196450471D02*
X265600884Y-196521900D01*
X265600884Y-196521900D02*
X265529455Y-196593328D01*
X265529455Y-196593328D02*
X265458027Y-196521900D01*
X265458027Y-196521900D02*
X265529455Y-196450471D01*
X265529455Y-196450471D02*
X265529455Y-196593328D01*
X265529455Y-195664757D02*
X265600884Y-195736185D01*
X265600884Y-195736185D02*
X265529455Y-195807614D01*
X265529455Y-195807614D02*
X265458027Y-195736185D01*
X265458027Y-195736185D02*
X265529455Y-195664757D01*
X265529455Y-195664757D02*
X265529455Y-195807614D01*
X267243741Y-195093328D02*
X268243741Y-195093328D01*
X268243741Y-195093328D02*
X267600884Y-196593328D01*
X269886598Y-195021900D02*
X268600884Y-196950471D01*
X271172313Y-196593328D02*
X270315170Y-196593328D01*
X270743741Y-196593328D02*
X270743741Y-195093328D01*
X270743741Y-195093328D02*
X270600884Y-195307614D01*
X270600884Y-195307614D02*
X270458027Y-195450471D01*
X270458027Y-195450471D02*
X270315170Y-195521900D01*
X271743741Y-195236185D02*
X271815169Y-195164757D01*
X271815169Y-195164757D02*
X271958027Y-195093328D01*
X271958027Y-195093328D02*
X272315169Y-195093328D01*
X272315169Y-195093328D02*
X272458027Y-195164757D01*
X272458027Y-195164757D02*
X272529455Y-195236185D01*
X272529455Y-195236185D02*
X272600884Y-195379042D01*
X272600884Y-195379042D02*
X272600884Y-195521900D01*
X272600884Y-195521900D02*
X272529455Y-195736185D01*
X272529455Y-195736185D02*
X271672312Y-196593328D01*
X271672312Y-196593328D02*
X272600884Y-196593328D01*
X177002200Y-187507200D02*
X285002200Y-187507200D01*
D12*
X178693928Y-188211638D02*
X179836785Y-188211638D01*
X179015357Y-190211638D02*
X179265357Y-188211638D01*
X180253452Y-190211638D02*
X180420119Y-188878304D01*
X180503452Y-188211638D02*
X180396309Y-188306876D01*
X180396309Y-188306876D02*
X180479643Y-188402114D01*
X180479643Y-188402114D02*
X180586786Y-188306876D01*
X180586786Y-188306876D02*
X180503452Y-188211638D01*
X180503452Y-188211638D02*
X180479643Y-188402114D01*
X181086786Y-188878304D02*
X181848690Y-188878304D01*
X181455833Y-188211638D02*
X181241548Y-189925923D01*
X181241548Y-189925923D02*
X181312976Y-190116400D01*
X181312976Y-190116400D02*
X181491548Y-190211638D01*
X181491548Y-190211638D02*
X181682024Y-190211638D01*
X182634405Y-190211638D02*
X182455833Y-190116400D01*
X182455833Y-190116400D02*
X182384405Y-189925923D01*
X182384405Y-189925923D02*
X182598690Y-188211638D01*
X184170119Y-190116400D02*
X183967738Y-190211638D01*
X183967738Y-190211638D02*
X183586785Y-190211638D01*
X183586785Y-190211638D02*
X183408214Y-190116400D01*
X183408214Y-190116400D02*
X183336785Y-189925923D01*
X183336785Y-189925923D02*
X183432024Y-189164019D01*
X183432024Y-189164019D02*
X183551071Y-188973542D01*
X183551071Y-188973542D02*
X183753452Y-188878304D01*
X183753452Y-188878304D02*
X184134404Y-188878304D01*
X184134404Y-188878304D02*
X184312976Y-188973542D01*
X184312976Y-188973542D02*
X184384404Y-189164019D01*
X184384404Y-189164019D02*
X184360595Y-189354495D01*
X184360595Y-189354495D02*
X183384404Y-189544971D01*
X185134405Y-190021161D02*
X185217738Y-190116400D01*
X185217738Y-190116400D02*
X185110595Y-190211638D01*
X185110595Y-190211638D02*
X185027262Y-190116400D01*
X185027262Y-190116400D02*
X185134405Y-190021161D01*
X185134405Y-190021161D02*
X185110595Y-190211638D01*
X185265357Y-188973542D02*
X185348690Y-189068780D01*
X185348690Y-189068780D02*
X185241548Y-189164019D01*
X185241548Y-189164019D02*
X185158214Y-189068780D01*
X185158214Y-189068780D02*
X185265357Y-188973542D01*
X185265357Y-188973542D02*
X185241548Y-189164019D01*
D10*
X178958026Y-185607614D02*
X178458026Y-185607614D01*
X178458026Y-186393328D02*
X178458026Y-184893328D01*
X178458026Y-184893328D02*
X179172312Y-184893328D01*
X179743740Y-186393328D02*
X179743740Y-185393328D01*
X179743740Y-184893328D02*
X179672312Y-184964757D01*
X179672312Y-184964757D02*
X179743740Y-185036185D01*
X179743740Y-185036185D02*
X179815169Y-184964757D01*
X179815169Y-184964757D02*
X179743740Y-184893328D01*
X179743740Y-184893328D02*
X179743740Y-185036185D01*
X180672312Y-186393328D02*
X180529455Y-186321900D01*
X180529455Y-186321900D02*
X180458026Y-186179042D01*
X180458026Y-186179042D02*
X180458026Y-184893328D01*
X181815169Y-186321900D02*
X181672312Y-186393328D01*
X181672312Y-186393328D02*
X181386598Y-186393328D01*
X181386598Y-186393328D02*
X181243740Y-186321900D01*
X181243740Y-186321900D02*
X181172312Y-186179042D01*
X181172312Y-186179042D02*
X181172312Y-185607614D01*
X181172312Y-185607614D02*
X181243740Y-185464757D01*
X181243740Y-185464757D02*
X181386598Y-185393328D01*
X181386598Y-185393328D02*
X181672312Y-185393328D01*
X181672312Y-185393328D02*
X181815169Y-185464757D01*
X181815169Y-185464757D02*
X181886598Y-185607614D01*
X181886598Y-185607614D02*
X181886598Y-185750471D01*
X181886598Y-185750471D02*
X181172312Y-185893328D01*
X182529454Y-186250471D02*
X182600883Y-186321900D01*
X182600883Y-186321900D02*
X182529454Y-186393328D01*
X182529454Y-186393328D02*
X182458026Y-186321900D01*
X182458026Y-186321900D02*
X182529454Y-186250471D01*
X182529454Y-186250471D02*
X182529454Y-186393328D01*
X182529454Y-185464757D02*
X182600883Y-185536185D01*
X182600883Y-185536185D02*
X182529454Y-185607614D01*
X182529454Y-185607614D02*
X182458026Y-185536185D01*
X182458026Y-185536185D02*
X182529454Y-185464757D01*
X182529454Y-185464757D02*
X182529454Y-185607614D01*
X184243740Y-186393328D02*
X185029455Y-185393328D01*
X184243740Y-185393328D02*
X185029455Y-186393328D01*
X185815169Y-186393328D02*
X185672312Y-186321900D01*
X185672312Y-186321900D02*
X185600883Y-186179042D01*
X185600883Y-186179042D02*
X185600883Y-184893328D01*
X186243740Y-185393328D02*
X187029455Y-185393328D01*
X187029455Y-185393328D02*
X186243740Y-186393328D01*
X186243740Y-186393328D02*
X187029455Y-186393328D01*
X188243741Y-186393328D02*
X188243741Y-184893328D01*
X188243741Y-186321900D02*
X188100883Y-186393328D01*
X188100883Y-186393328D02*
X187815169Y-186393328D01*
X187815169Y-186393328D02*
X187672312Y-186321900D01*
X187672312Y-186321900D02*
X187600883Y-186250471D01*
X187600883Y-186250471D02*
X187529455Y-186107614D01*
X187529455Y-186107614D02*
X187529455Y-185679042D01*
X187529455Y-185679042D02*
X187600883Y-185536185D01*
X187600883Y-185536185D02*
X187672312Y-185464757D01*
X187672312Y-185464757D02*
X187815169Y-185393328D01*
X187815169Y-185393328D02*
X188100883Y-185393328D01*
X188100883Y-185393328D02*
X188243741Y-185464757D01*
X188600884Y-186536185D02*
X189743741Y-186536185D01*
X189958026Y-186393328D02*
X190743741Y-185393328D01*
X189958026Y-185393328D02*
X190743741Y-186393328D01*
X191886598Y-186321900D02*
X191743741Y-186393328D01*
X191743741Y-186393328D02*
X191458027Y-186393328D01*
X191458027Y-186393328D02*
X191315169Y-186321900D01*
X191315169Y-186321900D02*
X191243741Y-186179042D01*
X191243741Y-186179042D02*
X191243741Y-185607614D01*
X191243741Y-185607614D02*
X191315169Y-185464757D01*
X191315169Y-185464757D02*
X191458027Y-185393328D01*
X191458027Y-185393328D02*
X191743741Y-185393328D01*
X191743741Y-185393328D02*
X191886598Y-185464757D01*
X191886598Y-185464757D02*
X191958027Y-185607614D01*
X191958027Y-185607614D02*
X191958027Y-185750471D01*
X191958027Y-185750471D02*
X191243741Y-185893328D01*
X192600883Y-185393328D02*
X192600883Y-186393328D01*
X192600883Y-185536185D02*
X192672312Y-185464757D01*
X192672312Y-185464757D02*
X192815169Y-185393328D01*
X192815169Y-185393328D02*
X193029455Y-185393328D01*
X193029455Y-185393328D02*
X193172312Y-185464757D01*
X193172312Y-185464757D02*
X193243741Y-185607614D01*
X193243741Y-185607614D02*
X193243741Y-186393328D01*
X194172312Y-186393328D02*
X194029455Y-186321900D01*
X194029455Y-186321900D02*
X193958026Y-186250471D01*
X193958026Y-186250471D02*
X193886598Y-186107614D01*
X193886598Y-186107614D02*
X193886598Y-185679042D01*
X193886598Y-185679042D02*
X193958026Y-185536185D01*
X193958026Y-185536185D02*
X194029455Y-185464757D01*
X194029455Y-185464757D02*
X194172312Y-185393328D01*
X194172312Y-185393328D02*
X194386598Y-185393328D01*
X194386598Y-185393328D02*
X194529455Y-185464757D01*
X194529455Y-185464757D02*
X194600884Y-185536185D01*
X194600884Y-185536185D02*
X194672312Y-185679042D01*
X194672312Y-185679042D02*
X194672312Y-186107614D01*
X194672312Y-186107614D02*
X194600884Y-186250471D01*
X194600884Y-186250471D02*
X194529455Y-186321900D01*
X194529455Y-186321900D02*
X194386598Y-186393328D01*
X194386598Y-186393328D02*
X194172312Y-186393328D01*
X195315169Y-185393328D02*
X195315169Y-186393328D01*
X195315169Y-185536185D02*
X195386598Y-185464757D01*
X195386598Y-185464757D02*
X195529455Y-185393328D01*
X195529455Y-185393328D02*
X195743741Y-185393328D01*
X195743741Y-185393328D02*
X195886598Y-185464757D01*
X195886598Y-185464757D02*
X195958027Y-185607614D01*
X195958027Y-185607614D02*
X195958027Y-186393328D01*
X196672312Y-185393328D02*
X196672312Y-186393328D01*
X196672312Y-185536185D02*
X196743741Y-185464757D01*
X196743741Y-185464757D02*
X196886598Y-185393328D01*
X196886598Y-185393328D02*
X197100884Y-185393328D01*
X197100884Y-185393328D02*
X197243741Y-185464757D01*
X197243741Y-185464757D02*
X197315170Y-185607614D01*
X197315170Y-185607614D02*
X197315170Y-186393328D01*
X197815170Y-185393328D02*
X198386598Y-185393328D01*
X198029455Y-184893328D02*
X198029455Y-186179042D01*
X198029455Y-186179042D02*
X198100884Y-186321900D01*
X198100884Y-186321900D02*
X198243741Y-186393328D01*
X198243741Y-186393328D02*
X198386598Y-186393328D01*
X198529456Y-186536185D02*
X199672313Y-186536185D01*
X200672313Y-186393328D02*
X200672313Y-185607614D01*
X200672313Y-185607614D02*
X200600884Y-185464757D01*
X200600884Y-185464757D02*
X200458027Y-185393328D01*
X200458027Y-185393328D02*
X200172313Y-185393328D01*
X200172313Y-185393328D02*
X200029455Y-185464757D01*
X200672313Y-186321900D02*
X200529455Y-186393328D01*
X200529455Y-186393328D02*
X200172313Y-186393328D01*
X200172313Y-186393328D02*
X200029455Y-186321900D01*
X200029455Y-186321900D02*
X199958027Y-186179042D01*
X199958027Y-186179042D02*
X199958027Y-186036185D01*
X199958027Y-186036185D02*
X200029455Y-185893328D01*
X200029455Y-185893328D02*
X200172313Y-185821900D01*
X200172313Y-185821900D02*
X200529455Y-185821900D01*
X200529455Y-185821900D02*
X200672313Y-185750471D01*
X201386598Y-186393328D02*
X201386598Y-185393328D01*
X201386598Y-185536185D02*
X201458027Y-185464757D01*
X201458027Y-185464757D02*
X201600884Y-185393328D01*
X201600884Y-185393328D02*
X201815170Y-185393328D01*
X201815170Y-185393328D02*
X201958027Y-185464757D01*
X201958027Y-185464757D02*
X202029456Y-185607614D01*
X202029456Y-185607614D02*
X202029456Y-186393328D01*
X202029456Y-185607614D02*
X202100884Y-185464757D01*
X202100884Y-185464757D02*
X202243741Y-185393328D01*
X202243741Y-185393328D02*
X202458027Y-185393328D01*
X202458027Y-185393328D02*
X202600884Y-185464757D01*
X202600884Y-185464757D02*
X202672313Y-185607614D01*
X202672313Y-185607614D02*
X202672313Y-186393328D01*
X203386598Y-185393328D02*
X203386598Y-186893328D01*
X203386598Y-185464757D02*
X203529456Y-185393328D01*
X203529456Y-185393328D02*
X203815170Y-185393328D01*
X203815170Y-185393328D02*
X203958027Y-185464757D01*
X203958027Y-185464757D02*
X204029456Y-185536185D01*
X204029456Y-185536185D02*
X204100884Y-185679042D01*
X204100884Y-185679042D02*
X204100884Y-186107614D01*
X204100884Y-186107614D02*
X204029456Y-186250471D01*
X204029456Y-186250471D02*
X203958027Y-186321900D01*
X203958027Y-186321900D02*
X203815170Y-186393328D01*
X203815170Y-186393328D02*
X203529456Y-186393328D01*
X203529456Y-186393328D02*
X203386598Y-186321900D01*
X204958027Y-186393328D02*
X204815170Y-186321900D01*
X204815170Y-186321900D02*
X204743741Y-186179042D01*
X204743741Y-186179042D02*
X204743741Y-184893328D01*
X205529455Y-186393328D02*
X205529455Y-185393328D01*
X205529455Y-184893328D02*
X205458027Y-184964757D01*
X205458027Y-184964757D02*
X205529455Y-185036185D01*
X205529455Y-185036185D02*
X205600884Y-184964757D01*
X205600884Y-184964757D02*
X205529455Y-184893328D01*
X205529455Y-184893328D02*
X205529455Y-185036185D01*
X206029456Y-185393328D02*
X206600884Y-185393328D01*
X206243741Y-186393328D02*
X206243741Y-185107614D01*
X206243741Y-185107614D02*
X206315170Y-184964757D01*
X206315170Y-184964757D02*
X206458027Y-184893328D01*
X206458027Y-184893328D02*
X206600884Y-184893328D01*
X207100884Y-186393328D02*
X207100884Y-185393328D01*
X207100884Y-184893328D02*
X207029456Y-184964757D01*
X207029456Y-184964757D02*
X207100884Y-185036185D01*
X207100884Y-185036185D02*
X207172313Y-184964757D01*
X207172313Y-184964757D02*
X207100884Y-184893328D01*
X207100884Y-184893328D02*
X207100884Y-185036185D01*
X208386599Y-186321900D02*
X208243742Y-186393328D01*
X208243742Y-186393328D02*
X207958028Y-186393328D01*
X207958028Y-186393328D02*
X207815170Y-186321900D01*
X207815170Y-186321900D02*
X207743742Y-186179042D01*
X207743742Y-186179042D02*
X207743742Y-185607614D01*
X207743742Y-185607614D02*
X207815170Y-185464757D01*
X207815170Y-185464757D02*
X207958028Y-185393328D01*
X207958028Y-185393328D02*
X208243742Y-185393328D01*
X208243742Y-185393328D02*
X208386599Y-185464757D01*
X208386599Y-185464757D02*
X208458028Y-185607614D01*
X208458028Y-185607614D02*
X208458028Y-185750471D01*
X208458028Y-185750471D02*
X207743742Y-185893328D01*
X209100884Y-186393328D02*
X209100884Y-185393328D01*
X209100884Y-185679042D02*
X209172313Y-185536185D01*
X209172313Y-185536185D02*
X209243742Y-185464757D01*
X209243742Y-185464757D02*
X209386599Y-185393328D01*
X209386599Y-185393328D02*
X209529456Y-185393328D01*
X209672313Y-186536185D02*
X210815170Y-186536185D01*
X210958027Y-185393328D02*
X211529455Y-185393328D01*
X211172312Y-184893328D02*
X211172312Y-186179042D01*
X211172312Y-186179042D02*
X211243741Y-186321900D01*
X211243741Y-186321900D02*
X211386598Y-186393328D01*
X211386598Y-186393328D02*
X211529455Y-186393328D01*
X212600884Y-186321900D02*
X212458027Y-186393328D01*
X212458027Y-186393328D02*
X212172313Y-186393328D01*
X212172313Y-186393328D02*
X212029455Y-186321900D01*
X212029455Y-186321900D02*
X211958027Y-186179042D01*
X211958027Y-186179042D02*
X211958027Y-185607614D01*
X211958027Y-185607614D02*
X212029455Y-185464757D01*
X212029455Y-185464757D02*
X212172313Y-185393328D01*
X212172313Y-185393328D02*
X212458027Y-185393328D01*
X212458027Y-185393328D02*
X212600884Y-185464757D01*
X212600884Y-185464757D02*
X212672313Y-185607614D01*
X212672313Y-185607614D02*
X212672313Y-185750471D01*
X212672313Y-185750471D02*
X211958027Y-185893328D01*
X213243741Y-186321900D02*
X213386598Y-186393328D01*
X213386598Y-186393328D02*
X213672312Y-186393328D01*
X213672312Y-186393328D02*
X213815169Y-186321900D01*
X213815169Y-186321900D02*
X213886598Y-186179042D01*
X213886598Y-186179042D02*
X213886598Y-186107614D01*
X213886598Y-186107614D02*
X213815169Y-185964757D01*
X213815169Y-185964757D02*
X213672312Y-185893328D01*
X213672312Y-185893328D02*
X213458027Y-185893328D01*
X213458027Y-185893328D02*
X213315169Y-185821900D01*
X213315169Y-185821900D02*
X213243741Y-185679042D01*
X213243741Y-185679042D02*
X213243741Y-185607614D01*
X213243741Y-185607614D02*
X213315169Y-185464757D01*
X213315169Y-185464757D02*
X213458027Y-185393328D01*
X213458027Y-185393328D02*
X213672312Y-185393328D01*
X213672312Y-185393328D02*
X213815169Y-185464757D01*
X214315170Y-185393328D02*
X214886598Y-185393328D01*
X214529455Y-184893328D02*
X214529455Y-186179042D01*
X214529455Y-186179042D02*
X214600884Y-186321900D01*
X214600884Y-186321900D02*
X214743741Y-186393328D01*
X214743741Y-186393328D02*
X214886598Y-186393328D01*
X215386598Y-186250471D02*
X215458027Y-186321900D01*
X215458027Y-186321900D02*
X215386598Y-186393328D01*
X215386598Y-186393328D02*
X215315170Y-186321900D01*
X215315170Y-186321900D02*
X215386598Y-186250471D01*
X215386598Y-186250471D02*
X215386598Y-186393328D01*
X216100884Y-186393328D02*
X216100884Y-184893328D01*
X216243742Y-185821900D02*
X216672313Y-186393328D01*
X216672313Y-185393328D02*
X216100884Y-185964757D01*
X217315170Y-186393328D02*
X217315170Y-185393328D01*
X217315170Y-184893328D02*
X217243742Y-184964757D01*
X217243742Y-184964757D02*
X217315170Y-185036185D01*
X217315170Y-185036185D02*
X217386599Y-184964757D01*
X217386599Y-184964757D02*
X217315170Y-184893328D01*
X217315170Y-184893328D02*
X217315170Y-185036185D01*
X218672314Y-186321900D02*
X218529456Y-186393328D01*
X218529456Y-186393328D02*
X218243742Y-186393328D01*
X218243742Y-186393328D02*
X218100885Y-186321900D01*
X218100885Y-186321900D02*
X218029456Y-186250471D01*
X218029456Y-186250471D02*
X217958028Y-186107614D01*
X217958028Y-186107614D02*
X217958028Y-185679042D01*
X217958028Y-185679042D02*
X218029456Y-185536185D01*
X218029456Y-185536185D02*
X218100885Y-185464757D01*
X218100885Y-185464757D02*
X218243742Y-185393328D01*
X218243742Y-185393328D02*
X218529456Y-185393328D01*
X218529456Y-185393328D02*
X218672314Y-185464757D01*
X219958028Y-186393328D02*
X219958028Y-185607614D01*
X219958028Y-185607614D02*
X219886599Y-185464757D01*
X219886599Y-185464757D02*
X219743742Y-185393328D01*
X219743742Y-185393328D02*
X219458028Y-185393328D01*
X219458028Y-185393328D02*
X219315170Y-185464757D01*
X219958028Y-186321900D02*
X219815170Y-186393328D01*
X219815170Y-186393328D02*
X219458028Y-186393328D01*
X219458028Y-186393328D02*
X219315170Y-186321900D01*
X219315170Y-186321900D02*
X219243742Y-186179042D01*
X219243742Y-186179042D02*
X219243742Y-186036185D01*
X219243742Y-186036185D02*
X219315170Y-185893328D01*
X219315170Y-185893328D02*
X219458028Y-185821900D01*
X219458028Y-185821900D02*
X219815170Y-185821900D01*
X219815170Y-185821900D02*
X219958028Y-185750471D01*
X221315171Y-186393328D02*
X221315171Y-184893328D01*
X221315171Y-186321900D02*
X221172313Y-186393328D01*
X221172313Y-186393328D02*
X220886599Y-186393328D01*
X220886599Y-186393328D02*
X220743742Y-186321900D01*
X220743742Y-186321900D02*
X220672313Y-186250471D01*
X220672313Y-186250471D02*
X220600885Y-186107614D01*
X220600885Y-186107614D02*
X220600885Y-185679042D01*
X220600885Y-185679042D02*
X220672313Y-185536185D01*
X220672313Y-185536185D02*
X220743742Y-185464757D01*
X220743742Y-185464757D02*
X220886599Y-185393328D01*
X220886599Y-185393328D02*
X221172313Y-185393328D01*
X221172313Y-185393328D02*
X221315171Y-185464757D01*
X221672314Y-186536185D02*
X222815171Y-186536185D01*
X223172313Y-185393328D02*
X223172313Y-186893328D01*
X223172313Y-185464757D02*
X223315171Y-185393328D01*
X223315171Y-185393328D02*
X223600885Y-185393328D01*
X223600885Y-185393328D02*
X223743742Y-185464757D01*
X223743742Y-185464757D02*
X223815171Y-185536185D01*
X223815171Y-185536185D02*
X223886599Y-185679042D01*
X223886599Y-185679042D02*
X223886599Y-186107614D01*
X223886599Y-186107614D02*
X223815171Y-186250471D01*
X223815171Y-186250471D02*
X223743742Y-186321900D01*
X223743742Y-186321900D02*
X223600885Y-186393328D01*
X223600885Y-186393328D02*
X223315171Y-186393328D01*
X223315171Y-186393328D02*
X223172313Y-186321900D01*
X225172314Y-186321900D02*
X225029456Y-186393328D01*
X225029456Y-186393328D02*
X224743742Y-186393328D01*
X224743742Y-186393328D02*
X224600885Y-186321900D01*
X224600885Y-186321900D02*
X224529456Y-186250471D01*
X224529456Y-186250471D02*
X224458028Y-186107614D01*
X224458028Y-186107614D02*
X224458028Y-185679042D01*
X224458028Y-185679042D02*
X224529456Y-185536185D01*
X224529456Y-185536185D02*
X224600885Y-185464757D01*
X224600885Y-185464757D02*
X224743742Y-185393328D01*
X224743742Y-185393328D02*
X225029456Y-185393328D01*
X225029456Y-185393328D02*
X225172314Y-185464757D01*
X225815170Y-186393328D02*
X225815170Y-184893328D01*
X225815170Y-185464757D02*
X225958028Y-185393328D01*
X225958028Y-185393328D02*
X226243742Y-185393328D01*
X226243742Y-185393328D02*
X226386599Y-185464757D01*
X226386599Y-185464757D02*
X226458028Y-185536185D01*
X226458028Y-185536185D02*
X226529456Y-185679042D01*
X226529456Y-185679042D02*
X226529456Y-186107614D01*
X226529456Y-186107614D02*
X226458028Y-186250471D01*
X226458028Y-186250471D02*
X226386599Y-186321900D01*
X226386599Y-186321900D02*
X226243742Y-186393328D01*
X226243742Y-186393328D02*
X225958028Y-186393328D01*
X225958028Y-186393328D02*
X225815170Y-186321900D01*
X177002200Y-181507200D02*
X285002200Y-181507200D01*
X178386598Y-183621900D02*
X178600884Y-183693328D01*
X178600884Y-183693328D02*
X178958026Y-183693328D01*
X178958026Y-183693328D02*
X179100884Y-183621900D01*
X179100884Y-183621900D02*
X179172312Y-183550471D01*
X179172312Y-183550471D02*
X179243741Y-183407614D01*
X179243741Y-183407614D02*
X179243741Y-183264757D01*
X179243741Y-183264757D02*
X179172312Y-183121900D01*
X179172312Y-183121900D02*
X179100884Y-183050471D01*
X179100884Y-183050471D02*
X178958026Y-182979042D01*
X178958026Y-182979042D02*
X178672312Y-182907614D01*
X178672312Y-182907614D02*
X178529455Y-182836185D01*
X178529455Y-182836185D02*
X178458026Y-182764757D01*
X178458026Y-182764757D02*
X178386598Y-182621900D01*
X178386598Y-182621900D02*
X178386598Y-182479042D01*
X178386598Y-182479042D02*
X178458026Y-182336185D01*
X178458026Y-182336185D02*
X178529455Y-182264757D01*
X178529455Y-182264757D02*
X178672312Y-182193328D01*
X178672312Y-182193328D02*
X179029455Y-182193328D01*
X179029455Y-182193328D02*
X179243741Y-182264757D01*
X179886597Y-183693328D02*
X179886597Y-182193328D01*
X180529455Y-183693328D02*
X180529455Y-182907614D01*
X180529455Y-182907614D02*
X180458026Y-182764757D01*
X180458026Y-182764757D02*
X180315169Y-182693328D01*
X180315169Y-182693328D02*
X180100883Y-182693328D01*
X180100883Y-182693328D02*
X179958026Y-182764757D01*
X179958026Y-182764757D02*
X179886597Y-182836185D01*
X181815169Y-183621900D02*
X181672312Y-183693328D01*
X181672312Y-183693328D02*
X181386598Y-183693328D01*
X181386598Y-183693328D02*
X181243740Y-183621900D01*
X181243740Y-183621900D02*
X181172312Y-183479042D01*
X181172312Y-183479042D02*
X181172312Y-182907614D01*
X181172312Y-182907614D02*
X181243740Y-182764757D01*
X181243740Y-182764757D02*
X181386598Y-182693328D01*
X181386598Y-182693328D02*
X181672312Y-182693328D01*
X181672312Y-182693328D02*
X181815169Y-182764757D01*
X181815169Y-182764757D02*
X181886598Y-182907614D01*
X181886598Y-182907614D02*
X181886598Y-183050471D01*
X181886598Y-183050471D02*
X181172312Y-183193328D01*
X183100883Y-183621900D02*
X182958026Y-183693328D01*
X182958026Y-183693328D02*
X182672312Y-183693328D01*
X182672312Y-183693328D02*
X182529454Y-183621900D01*
X182529454Y-183621900D02*
X182458026Y-183479042D01*
X182458026Y-183479042D02*
X182458026Y-182907614D01*
X182458026Y-182907614D02*
X182529454Y-182764757D01*
X182529454Y-182764757D02*
X182672312Y-182693328D01*
X182672312Y-182693328D02*
X182958026Y-182693328D01*
X182958026Y-182693328D02*
X183100883Y-182764757D01*
X183100883Y-182764757D02*
X183172312Y-182907614D01*
X183172312Y-182907614D02*
X183172312Y-183050471D01*
X183172312Y-183050471D02*
X182458026Y-183193328D01*
X183600883Y-182693328D02*
X184172311Y-182693328D01*
X183815168Y-182193328D02*
X183815168Y-183479042D01*
X183815168Y-183479042D02*
X183886597Y-183621900D01*
X183886597Y-183621900D02*
X184029454Y-183693328D01*
X184029454Y-183693328D02*
X184172311Y-183693328D01*
X184672311Y-183550471D02*
X184743740Y-183621900D01*
X184743740Y-183621900D02*
X184672311Y-183693328D01*
X184672311Y-183693328D02*
X184600883Y-183621900D01*
X184600883Y-183621900D02*
X184672311Y-183550471D01*
X184672311Y-183550471D02*
X184672311Y-183693328D01*
X184672311Y-182764757D02*
X184743740Y-182836185D01*
X184743740Y-182836185D02*
X184672311Y-182907614D01*
X184672311Y-182907614D02*
X184600883Y-182836185D01*
X184600883Y-182836185D02*
X184672311Y-182764757D01*
X184672311Y-182764757D02*
X184672311Y-182907614D01*
X197002200Y-191507200D02*
X197002200Y-194507200D01*
X261002200Y-191507200D02*
X261002200Y-198007200D01*
X71432319Y-68083333D02*
X72146604Y-68083333D01*
X72146604Y-68083333D02*
X72289461Y-68130952D01*
X72289461Y-68130952D02*
X72384700Y-68226190D01*
X72384700Y-68226190D02*
X72432319Y-68369047D01*
X72432319Y-68369047D02*
X72432319Y-68464285D01*
X72432319Y-67083333D02*
X72432319Y-67654761D01*
X72432319Y-67369047D02*
X71432319Y-67369047D01*
X71432319Y-67369047D02*
X71575176Y-67464285D01*
X71575176Y-67464285D02*
X71670414Y-67559523D01*
X71670414Y-67559523D02*
X71718033Y-67654761D01*
X59933333Y-100354819D02*
X59600000Y-99878628D01*
X59361905Y-100354819D02*
X59361905Y-99354819D01*
X59361905Y-99354819D02*
X59742857Y-99354819D01*
X59742857Y-99354819D02*
X59838095Y-99402438D01*
X59838095Y-99402438D02*
X59885714Y-99450057D01*
X59885714Y-99450057D02*
X59933333Y-99545295D01*
X59933333Y-99545295D02*
X59933333Y-99688152D01*
X59933333Y-99688152D02*
X59885714Y-99783390D01*
X59885714Y-99783390D02*
X59838095Y-99831009D01*
X59838095Y-99831009D02*
X59742857Y-99878628D01*
X59742857Y-99878628D02*
X59361905Y-99878628D01*
X60790476Y-99354819D02*
X60600000Y-99354819D01*
X60600000Y-99354819D02*
X60504762Y-99402438D01*
X60504762Y-99402438D02*
X60457143Y-99450057D01*
X60457143Y-99450057D02*
X60361905Y-99592914D01*
X60361905Y-99592914D02*
X60314286Y-99783390D01*
X60314286Y-99783390D02*
X60314286Y-100164342D01*
X60314286Y-100164342D02*
X60361905Y-100259580D01*
X60361905Y-100259580D02*
X60409524Y-100307200D01*
X60409524Y-100307200D02*
X60504762Y-100354819D01*
X60504762Y-100354819D02*
X60695238Y-100354819D01*
X60695238Y-100354819D02*
X60790476Y-100307200D01*
X60790476Y-100307200D02*
X60838095Y-100259580D01*
X60838095Y-100259580D02*
X60885714Y-100164342D01*
X60885714Y-100164342D02*
X60885714Y-99926247D01*
X60885714Y-99926247D02*
X60838095Y-99831009D01*
X60838095Y-99831009D02*
X60790476Y-99783390D01*
X60790476Y-99783390D02*
X60695238Y-99735771D01*
X60695238Y-99735771D02*
X60504762Y-99735771D01*
X60504762Y-99735771D02*
X60409524Y-99783390D01*
X60409524Y-99783390D02*
X60361905Y-99831009D01*
X60361905Y-99831009D02*
X60314286Y-99926247D01*
X55933333Y-97659580D02*
X55885714Y-97707200D01*
X55885714Y-97707200D02*
X55742857Y-97754819D01*
X55742857Y-97754819D02*
X55647619Y-97754819D01*
X55647619Y-97754819D02*
X55504762Y-97707200D01*
X55504762Y-97707200D02*
X55409524Y-97611961D01*
X55409524Y-97611961D02*
X55361905Y-97516723D01*
X55361905Y-97516723D02*
X55314286Y-97326247D01*
X55314286Y-97326247D02*
X55314286Y-97183390D01*
X55314286Y-97183390D02*
X55361905Y-96992914D01*
X55361905Y-96992914D02*
X55409524Y-96897676D01*
X55409524Y-96897676D02*
X55504762Y-96802438D01*
X55504762Y-96802438D02*
X55647619Y-96754819D01*
X55647619Y-96754819D02*
X55742857Y-96754819D01*
X55742857Y-96754819D02*
X55885714Y-96802438D01*
X55885714Y-96802438D02*
X55933333Y-96850057D01*
X56504762Y-97183390D02*
X56409524Y-97135771D01*
X56409524Y-97135771D02*
X56361905Y-97088152D01*
X56361905Y-97088152D02*
X56314286Y-96992914D01*
X56314286Y-96992914D02*
X56314286Y-96945295D01*
X56314286Y-96945295D02*
X56361905Y-96850057D01*
X56361905Y-96850057D02*
X56409524Y-96802438D01*
X56409524Y-96802438D02*
X56504762Y-96754819D01*
X56504762Y-96754819D02*
X56695238Y-96754819D01*
X56695238Y-96754819D02*
X56790476Y-96802438D01*
X56790476Y-96802438D02*
X56838095Y-96850057D01*
X56838095Y-96850057D02*
X56885714Y-96945295D01*
X56885714Y-96945295D02*
X56885714Y-96992914D01*
X56885714Y-96992914D02*
X56838095Y-97088152D01*
X56838095Y-97088152D02*
X56790476Y-97135771D01*
X56790476Y-97135771D02*
X56695238Y-97183390D01*
X56695238Y-97183390D02*
X56504762Y-97183390D01*
X56504762Y-97183390D02*
X56409524Y-97231009D01*
X56409524Y-97231009D02*
X56361905Y-97278628D01*
X56361905Y-97278628D02*
X56314286Y-97373866D01*
X56314286Y-97373866D02*
X56314286Y-97564342D01*
X56314286Y-97564342D02*
X56361905Y-97659580D01*
X56361905Y-97659580D02*
X56409524Y-97707200D01*
X56409524Y-97707200D02*
X56504762Y-97754819D01*
X56504762Y-97754819D02*
X56695238Y-97754819D01*
X56695238Y-97754819D02*
X56790476Y-97707200D01*
X56790476Y-97707200D02*
X56838095Y-97659580D01*
X56838095Y-97659580D02*
X56885714Y-97564342D01*
X56885714Y-97564342D02*
X56885714Y-97373866D01*
X56885714Y-97373866D02*
X56838095Y-97278628D01*
X56838095Y-97278628D02*
X56790476Y-97231009D01*
X56790476Y-97231009D02*
X56695238Y-97183390D01*
X68933333Y-101154819D02*
X68600000Y-100678628D01*
X68361905Y-101154819D02*
X68361905Y-100154819D01*
X68361905Y-100154819D02*
X68742857Y-100154819D01*
X68742857Y-100154819D02*
X68838095Y-100202438D01*
X68838095Y-100202438D02*
X68885714Y-100250057D01*
X68885714Y-100250057D02*
X68933333Y-100345295D01*
X68933333Y-100345295D02*
X68933333Y-100488152D01*
X68933333Y-100488152D02*
X68885714Y-100583390D01*
X68885714Y-100583390D02*
X68838095Y-100631009D01*
X68838095Y-100631009D02*
X68742857Y-100678628D01*
X68742857Y-100678628D02*
X68361905Y-100678628D01*
X69838095Y-100154819D02*
X69361905Y-100154819D01*
X69361905Y-100154819D02*
X69314286Y-100631009D01*
X69314286Y-100631009D02*
X69361905Y-100583390D01*
X69361905Y-100583390D02*
X69457143Y-100535771D01*
X69457143Y-100535771D02*
X69695238Y-100535771D01*
X69695238Y-100535771D02*
X69790476Y-100583390D01*
X69790476Y-100583390D02*
X69838095Y-100631009D01*
X69838095Y-100631009D02*
X69885714Y-100726247D01*
X69885714Y-100726247D02*
X69885714Y-100964342D01*
X69885714Y-100964342D02*
X69838095Y-101059580D01*
X69838095Y-101059580D02*
X69790476Y-101107200D01*
X69790476Y-101107200D02*
X69695238Y-101154819D01*
X69695238Y-101154819D02*
X69457143Y-101154819D01*
X69457143Y-101154819D02*
X69361905Y-101107200D01*
X69361905Y-101107200D02*
X69314286Y-101059580D01*
X68933333Y-99654819D02*
X68600000Y-99178628D01*
X68361905Y-99654819D02*
X68361905Y-98654819D01*
X68361905Y-98654819D02*
X68742857Y-98654819D01*
X68742857Y-98654819D02*
X68838095Y-98702438D01*
X68838095Y-98702438D02*
X68885714Y-98750057D01*
X68885714Y-98750057D02*
X68933333Y-98845295D01*
X68933333Y-98845295D02*
X68933333Y-98988152D01*
X68933333Y-98988152D02*
X68885714Y-99083390D01*
X68885714Y-99083390D02*
X68838095Y-99131009D01*
X68838095Y-99131009D02*
X68742857Y-99178628D01*
X68742857Y-99178628D02*
X68361905Y-99178628D01*
X69266667Y-98654819D02*
X69933333Y-98654819D01*
X69933333Y-98654819D02*
X69504762Y-99654819D01*
X62838095Y-107154819D02*
X62838095Y-107964342D01*
X62838095Y-107964342D02*
X62885714Y-108059580D01*
X62885714Y-108059580D02*
X62933333Y-108107200D01*
X62933333Y-108107200D02*
X63028571Y-108154819D01*
X63028571Y-108154819D02*
X63219047Y-108154819D01*
X63219047Y-108154819D02*
X63314285Y-108107200D01*
X63314285Y-108107200D02*
X63361904Y-108059580D01*
X63361904Y-108059580D02*
X63409523Y-107964342D01*
X63409523Y-107964342D02*
X63409523Y-107154819D01*
X64409523Y-108154819D02*
X63838095Y-108154819D01*
X64123809Y-108154819D02*
X64123809Y-107154819D01*
X64123809Y-107154819D02*
X64028571Y-107297676D01*
X64028571Y-107297676D02*
X63933333Y-107392914D01*
X63933333Y-107392914D02*
X63838095Y-107440533D01*
X68833333Y-107054819D02*
X68500000Y-106578628D01*
X68261905Y-107054819D02*
X68261905Y-106054819D01*
X68261905Y-106054819D02*
X68642857Y-106054819D01*
X68642857Y-106054819D02*
X68738095Y-106102438D01*
X68738095Y-106102438D02*
X68785714Y-106150057D01*
X68785714Y-106150057D02*
X68833333Y-106245295D01*
X68833333Y-106245295D02*
X68833333Y-106388152D01*
X68833333Y-106388152D02*
X68785714Y-106483390D01*
X68785714Y-106483390D02*
X68738095Y-106531009D01*
X68738095Y-106531009D02*
X68642857Y-106578628D01*
X68642857Y-106578628D02*
X68261905Y-106578628D01*
X69690476Y-106388152D02*
X69690476Y-107054819D01*
X69452381Y-106007200D02*
X69214286Y-106721485D01*
X69214286Y-106721485D02*
X69833333Y-106721485D01*
X49059579Y-68604166D02*
X49107199Y-68651785D01*
X49107199Y-68651785D02*
X49154818Y-68794642D01*
X49154818Y-68794642D02*
X49154818Y-68889880D01*
X49154818Y-68889880D02*
X49107199Y-69032737D01*
X49107199Y-69032737D02*
X49011960Y-69127975D01*
X49011960Y-69127975D02*
X48916722Y-69175594D01*
X48916722Y-69175594D02*
X48726246Y-69223213D01*
X48726246Y-69223213D02*
X48583389Y-69223213D01*
X48583389Y-69223213D02*
X48392913Y-69175594D01*
X48392913Y-69175594D02*
X48297675Y-69127975D01*
X48297675Y-69127975D02*
X48202437Y-69032737D01*
X48202437Y-69032737D02*
X48154818Y-68889880D01*
X48154818Y-68889880D02*
X48154818Y-68794642D01*
X48154818Y-68794642D02*
X48202437Y-68651785D01*
X48202437Y-68651785D02*
X48250056Y-68604166D01*
X49154818Y-68127975D02*
X49154818Y-67937499D01*
X49154818Y-67937499D02*
X49107199Y-67842261D01*
X49107199Y-67842261D02*
X49059579Y-67794642D01*
X49059579Y-67794642D02*
X48916722Y-67699404D01*
X48916722Y-67699404D02*
X48726246Y-67651785D01*
X48726246Y-67651785D02*
X48345294Y-67651785D01*
X48345294Y-67651785D02*
X48250056Y-67699404D01*
X48250056Y-67699404D02*
X48202437Y-67747023D01*
X48202437Y-67747023D02*
X48154818Y-67842261D01*
X48154818Y-67842261D02*
X48154818Y-68032737D01*
X48154818Y-68032737D02*
X48202437Y-68127975D01*
X48202437Y-68127975D02*
X48250056Y-68175594D01*
X48250056Y-68175594D02*
X48345294Y-68223213D01*
X48345294Y-68223213D02*
X48583389Y-68223213D01*
X48583389Y-68223213D02*
X48678627Y-68175594D01*
X48678627Y-68175594D02*
X48726246Y-68127975D01*
X48726246Y-68127975D02*
X48773865Y-68032737D01*
X48773865Y-68032737D02*
X48773865Y-67842261D01*
X48773865Y-67842261D02*
X48726246Y-67747023D01*
X48726246Y-67747023D02*
X48678627Y-67699404D01*
X48678627Y-67699404D02*
X48583389Y-67651785D01*
X59138095Y-94054819D02*
X59138095Y-94864342D01*
X59138095Y-94864342D02*
X59185714Y-94959580D01*
X59185714Y-94959580D02*
X59233333Y-95007200D01*
X59233333Y-95007200D02*
X59328571Y-95054819D01*
X59328571Y-95054819D02*
X59519047Y-95054819D01*
X59519047Y-95054819D02*
X59614285Y-95007200D01*
X59614285Y-95007200D02*
X59661904Y-94959580D01*
X59661904Y-94959580D02*
X59709523Y-94864342D01*
X59709523Y-94864342D02*
X59709523Y-94054819D01*
X60090476Y-94054819D02*
X60709523Y-94054819D01*
X60709523Y-94054819D02*
X60376190Y-94435771D01*
X60376190Y-94435771D02*
X60519047Y-94435771D01*
X60519047Y-94435771D02*
X60614285Y-94483390D01*
X60614285Y-94483390D02*
X60661904Y-94531009D01*
X60661904Y-94531009D02*
X60709523Y-94626247D01*
X60709523Y-94626247D02*
X60709523Y-94864342D01*
X60709523Y-94864342D02*
X60661904Y-94959580D01*
X60661904Y-94959580D02*
X60614285Y-95007200D01*
X60614285Y-95007200D02*
X60519047Y-95054819D01*
X60519047Y-95054819D02*
X60233333Y-95054819D01*
X60233333Y-95054819D02*
X60138095Y-95007200D01*
X60138095Y-95007200D02*
X60090476Y-94959580D01*
X68433333Y-94359580D02*
X68385714Y-94407200D01*
X68385714Y-94407200D02*
X68242857Y-94454819D01*
X68242857Y-94454819D02*
X68147619Y-94454819D01*
X68147619Y-94454819D02*
X68004762Y-94407200D01*
X68004762Y-94407200D02*
X67909524Y-94311961D01*
X67909524Y-94311961D02*
X67861905Y-94216723D01*
X67861905Y-94216723D02*
X67814286Y-94026247D01*
X67814286Y-94026247D02*
X67814286Y-93883390D01*
X67814286Y-93883390D02*
X67861905Y-93692914D01*
X67861905Y-93692914D02*
X67909524Y-93597676D01*
X67909524Y-93597676D02*
X68004762Y-93502438D01*
X68004762Y-93502438D02*
X68147619Y-93454819D01*
X68147619Y-93454819D02*
X68242857Y-93454819D01*
X68242857Y-93454819D02*
X68385714Y-93502438D01*
X68385714Y-93502438D02*
X68433333Y-93550057D01*
X69338095Y-93454819D02*
X68861905Y-93454819D01*
X68861905Y-93454819D02*
X68814286Y-93931009D01*
X68814286Y-93931009D02*
X68861905Y-93883390D01*
X68861905Y-93883390D02*
X68957143Y-93835771D01*
X68957143Y-93835771D02*
X69195238Y-93835771D01*
X69195238Y-93835771D02*
X69290476Y-93883390D01*
X69290476Y-93883390D02*
X69338095Y-93931009D01*
X69338095Y-93931009D02*
X69385714Y-94026247D01*
X69385714Y-94026247D02*
X69385714Y-94264342D01*
X69385714Y-94264342D02*
X69338095Y-94359580D01*
X69338095Y-94359580D02*
X69290476Y-94407200D01*
X69290476Y-94407200D02*
X69195238Y-94454819D01*
X69195238Y-94454819D02*
X68957143Y-94454819D01*
X68957143Y-94454819D02*
X68861905Y-94407200D01*
X68861905Y-94407200D02*
X68814286Y-94359580D01*
X68933333Y-95859580D02*
X68885714Y-95907200D01*
X68885714Y-95907200D02*
X68742857Y-95954819D01*
X68742857Y-95954819D02*
X68647619Y-95954819D01*
X68647619Y-95954819D02*
X68504762Y-95907200D01*
X68504762Y-95907200D02*
X68409524Y-95811961D01*
X68409524Y-95811961D02*
X68361905Y-95716723D01*
X68361905Y-95716723D02*
X68314286Y-95526247D01*
X68314286Y-95526247D02*
X68314286Y-95383390D01*
X68314286Y-95383390D02*
X68361905Y-95192914D01*
X68361905Y-95192914D02*
X68409524Y-95097676D01*
X68409524Y-95097676D02*
X68504762Y-95002438D01*
X68504762Y-95002438D02*
X68647619Y-94954819D01*
X68647619Y-94954819D02*
X68742857Y-94954819D01*
X68742857Y-94954819D02*
X68885714Y-95002438D01*
X68885714Y-95002438D02*
X68933333Y-95050057D01*
X69790476Y-94954819D02*
X69600000Y-94954819D01*
X69600000Y-94954819D02*
X69504762Y-95002438D01*
X69504762Y-95002438D02*
X69457143Y-95050057D01*
X69457143Y-95050057D02*
X69361905Y-95192914D01*
X69361905Y-95192914D02*
X69314286Y-95383390D01*
X69314286Y-95383390D02*
X69314286Y-95764342D01*
X69314286Y-95764342D02*
X69361905Y-95859580D01*
X69361905Y-95859580D02*
X69409524Y-95907200D01*
X69409524Y-95907200D02*
X69504762Y-95954819D01*
X69504762Y-95954819D02*
X69695238Y-95954819D01*
X69695238Y-95954819D02*
X69790476Y-95907200D01*
X69790476Y-95907200D02*
X69838095Y-95859580D01*
X69838095Y-95859580D02*
X69885714Y-95764342D01*
X69885714Y-95764342D02*
X69885714Y-95526247D01*
X69885714Y-95526247D02*
X69838095Y-95431009D01*
X69838095Y-95431009D02*
X69790476Y-95383390D01*
X69790476Y-95383390D02*
X69695238Y-95335771D01*
X69695238Y-95335771D02*
X69504762Y-95335771D01*
X69504762Y-95335771D02*
X69409524Y-95383390D01*
X69409524Y-95383390D02*
X69361905Y-95431009D01*
X69361905Y-95431009D02*
X69314286Y-95526247D01*
X65033333Y-102654819D02*
X64700000Y-102178628D01*
X64461905Y-102654819D02*
X64461905Y-101654819D01*
X64461905Y-101654819D02*
X64842857Y-101654819D01*
X64842857Y-101654819D02*
X64938095Y-101702438D01*
X64938095Y-101702438D02*
X64985714Y-101750057D01*
X64985714Y-101750057D02*
X65033333Y-101845295D01*
X65033333Y-101845295D02*
X65033333Y-101988152D01*
X65033333Y-101988152D02*
X64985714Y-102083390D01*
X64985714Y-102083390D02*
X64938095Y-102131009D01*
X64938095Y-102131009D02*
X64842857Y-102178628D01*
X64842857Y-102178628D02*
X64461905Y-102178628D01*
X65985714Y-102654819D02*
X65414286Y-102654819D01*
X65700000Y-102654819D02*
X65700000Y-101654819D01*
X65700000Y-101654819D02*
X65604762Y-101797676D01*
X65604762Y-101797676D02*
X65509524Y-101892914D01*
X65509524Y-101892914D02*
X65414286Y-101940533D01*
X71432319Y-87333333D02*
X72146604Y-87333333D01*
X72146604Y-87333333D02*
X72289461Y-87380952D01*
X72289461Y-87380952D02*
X72384700Y-87476190D01*
X72384700Y-87476190D02*
X72432319Y-87619047D01*
X72432319Y-87619047D02*
X72432319Y-87714285D01*
X71432319Y-86952380D02*
X71432319Y-86333333D01*
X71432319Y-86333333D02*
X71813271Y-86666666D01*
X71813271Y-86666666D02*
X71813271Y-86523809D01*
X71813271Y-86523809D02*
X71860890Y-86428571D01*
X71860890Y-86428571D02*
X71908509Y-86380952D01*
X71908509Y-86380952D02*
X72003747Y-86333333D01*
X72003747Y-86333333D02*
X72241842Y-86333333D01*
X72241842Y-86333333D02*
X72337080Y-86380952D01*
X72337080Y-86380952D02*
X72384700Y-86428571D01*
X72384700Y-86428571D02*
X72432319Y-86523809D01*
X72432319Y-86523809D02*
X72432319Y-86809523D01*
X72432319Y-86809523D02*
X72384700Y-86904761D01*
X72384700Y-86904761D02*
X72337080Y-86952380D01*
X71432319Y-107333333D02*
X72146604Y-107333333D01*
X72146604Y-107333333D02*
X72289461Y-107380952D01*
X72289461Y-107380952D02*
X72384700Y-107476190D01*
X72384700Y-107476190D02*
X72432319Y-107619047D01*
X72432319Y-107619047D02*
X72432319Y-107714285D01*
X71527557Y-106904761D02*
X71479938Y-106857142D01*
X71479938Y-106857142D02*
X71432319Y-106761904D01*
X71432319Y-106761904D02*
X71432319Y-106523809D01*
X71432319Y-106523809D02*
X71479938Y-106428571D01*
X71479938Y-106428571D02*
X71527557Y-106380952D01*
X71527557Y-106380952D02*
X71622795Y-106333333D01*
X71622795Y-106333333D02*
X71718033Y-106333333D01*
X71718033Y-106333333D02*
X71860890Y-106380952D01*
X71860890Y-106380952D02*
X72432319Y-106952380D01*
X72432319Y-106952380D02*
X72432319Y-106333333D01*
X67733333Y-105459580D02*
X67685714Y-105507200D01*
X67685714Y-105507200D02*
X67542857Y-105554819D01*
X67542857Y-105554819D02*
X67447619Y-105554819D01*
X67447619Y-105554819D02*
X67304762Y-105507200D01*
X67304762Y-105507200D02*
X67209524Y-105411961D01*
X67209524Y-105411961D02*
X67161905Y-105316723D01*
X67161905Y-105316723D02*
X67114286Y-105126247D01*
X67114286Y-105126247D02*
X67114286Y-104983390D01*
X67114286Y-104983390D02*
X67161905Y-104792914D01*
X67161905Y-104792914D02*
X67209524Y-104697676D01*
X67209524Y-104697676D02*
X67304762Y-104602438D01*
X67304762Y-104602438D02*
X67447619Y-104554819D01*
X67447619Y-104554819D02*
X67542857Y-104554819D01*
X67542857Y-104554819D02*
X67685714Y-104602438D01*
X67685714Y-104602438D02*
X67733333Y-104650057D01*
X68066667Y-104554819D02*
X68685714Y-104554819D01*
X68685714Y-104554819D02*
X68352381Y-104935771D01*
X68352381Y-104935771D02*
X68495238Y-104935771D01*
X68495238Y-104935771D02*
X68590476Y-104983390D01*
X68590476Y-104983390D02*
X68638095Y-105031009D01*
X68638095Y-105031009D02*
X68685714Y-105126247D01*
X68685714Y-105126247D02*
X68685714Y-105364342D01*
X68685714Y-105364342D02*
X68638095Y-105459580D01*
X68638095Y-105459580D02*
X68590476Y-105507200D01*
X68590476Y-105507200D02*
X68495238Y-105554819D01*
X68495238Y-105554819D02*
X68209524Y-105554819D01*
X68209524Y-105554819D02*
X68114286Y-105507200D01*
X68114286Y-105507200D02*
X68066667Y-105459580D01*
X61633333Y-90754819D02*
X61300000Y-90278628D01*
X61061905Y-90754819D02*
X61061905Y-89754819D01*
X61061905Y-89754819D02*
X61442857Y-89754819D01*
X61442857Y-89754819D02*
X61538095Y-89802438D01*
X61538095Y-89802438D02*
X61585714Y-89850057D01*
X61585714Y-89850057D02*
X61633333Y-89945295D01*
X61633333Y-89945295D02*
X61633333Y-90088152D01*
X61633333Y-90088152D02*
X61585714Y-90183390D01*
X61585714Y-90183390D02*
X61538095Y-90231009D01*
X61538095Y-90231009D02*
X61442857Y-90278628D01*
X61442857Y-90278628D02*
X61061905Y-90278628D01*
X62109524Y-90754819D02*
X62300000Y-90754819D01*
X62300000Y-90754819D02*
X62395238Y-90707200D01*
X62395238Y-90707200D02*
X62442857Y-90659580D01*
X62442857Y-90659580D02*
X62538095Y-90516723D01*
X62538095Y-90516723D02*
X62585714Y-90326247D01*
X62585714Y-90326247D02*
X62585714Y-89945295D01*
X62585714Y-89945295D02*
X62538095Y-89850057D01*
X62538095Y-89850057D02*
X62490476Y-89802438D01*
X62490476Y-89802438D02*
X62395238Y-89754819D01*
X62395238Y-89754819D02*
X62204762Y-89754819D01*
X62204762Y-89754819D02*
X62109524Y-89802438D01*
X62109524Y-89802438D02*
X62061905Y-89850057D01*
X62061905Y-89850057D02*
X62014286Y-89945295D01*
X62014286Y-89945295D02*
X62014286Y-90183390D01*
X62014286Y-90183390D02*
X62061905Y-90278628D01*
X62061905Y-90278628D02*
X62109524Y-90326247D01*
X62109524Y-90326247D02*
X62204762Y-90373866D01*
X62204762Y-90373866D02*
X62395238Y-90373866D01*
X62395238Y-90373866D02*
X62490476Y-90326247D01*
X62490476Y-90326247D02*
X62538095Y-90278628D01*
X62538095Y-90278628D02*
X62585714Y-90183390D01*
X68933333Y-104059580D02*
X68885714Y-104107200D01*
X68885714Y-104107200D02*
X68742857Y-104154819D01*
X68742857Y-104154819D02*
X68647619Y-104154819D01*
X68647619Y-104154819D02*
X68504762Y-104107200D01*
X68504762Y-104107200D02*
X68409524Y-104011961D01*
X68409524Y-104011961D02*
X68361905Y-103916723D01*
X68361905Y-103916723D02*
X68314286Y-103726247D01*
X68314286Y-103726247D02*
X68314286Y-103583390D01*
X68314286Y-103583390D02*
X68361905Y-103392914D01*
X68361905Y-103392914D02*
X68409524Y-103297676D01*
X68409524Y-103297676D02*
X68504762Y-103202438D01*
X68504762Y-103202438D02*
X68647619Y-103154819D01*
X68647619Y-103154819D02*
X68742857Y-103154819D01*
X68742857Y-103154819D02*
X68885714Y-103202438D01*
X68885714Y-103202438D02*
X68933333Y-103250057D01*
X69790476Y-103488152D02*
X69790476Y-104154819D01*
X69552381Y-103107200D02*
X69314286Y-103821485D01*
X69314286Y-103821485D02*
X69933333Y-103821485D01*
X56033333Y-103254819D02*
X55700000Y-102778628D01*
X55461905Y-103254819D02*
X55461905Y-102254819D01*
X55461905Y-102254819D02*
X55842857Y-102254819D01*
X55842857Y-102254819D02*
X55938095Y-102302438D01*
X55938095Y-102302438D02*
X55985714Y-102350057D01*
X55985714Y-102350057D02*
X56033333Y-102445295D01*
X56033333Y-102445295D02*
X56033333Y-102588152D01*
X56033333Y-102588152D02*
X55985714Y-102683390D01*
X55985714Y-102683390D02*
X55938095Y-102731009D01*
X55938095Y-102731009D02*
X55842857Y-102778628D01*
X55842857Y-102778628D02*
X55461905Y-102778628D01*
X56414286Y-102350057D02*
X56461905Y-102302438D01*
X56461905Y-102302438D02*
X56557143Y-102254819D01*
X56557143Y-102254819D02*
X56795238Y-102254819D01*
X56795238Y-102254819D02*
X56890476Y-102302438D01*
X56890476Y-102302438D02*
X56938095Y-102350057D01*
X56938095Y-102350057D02*
X56985714Y-102445295D01*
X56985714Y-102445295D02*
X56985714Y-102540533D01*
X56985714Y-102540533D02*
X56938095Y-102683390D01*
X56938095Y-102683390D02*
X56366667Y-103254819D01*
X56366667Y-103254819D02*
X56985714Y-103254819D01*
X57033333Y-95959580D02*
X56985714Y-96007200D01*
X56985714Y-96007200D02*
X56842857Y-96054819D01*
X56842857Y-96054819D02*
X56747619Y-96054819D01*
X56747619Y-96054819D02*
X56604762Y-96007200D01*
X56604762Y-96007200D02*
X56509524Y-95911961D01*
X56509524Y-95911961D02*
X56461905Y-95816723D01*
X56461905Y-95816723D02*
X56414286Y-95626247D01*
X56414286Y-95626247D02*
X56414286Y-95483390D01*
X56414286Y-95483390D02*
X56461905Y-95292914D01*
X56461905Y-95292914D02*
X56509524Y-95197676D01*
X56509524Y-95197676D02*
X56604762Y-95102438D01*
X56604762Y-95102438D02*
X56747619Y-95054819D01*
X56747619Y-95054819D02*
X56842857Y-95054819D01*
X56842857Y-95054819D02*
X56985714Y-95102438D01*
X56985714Y-95102438D02*
X57033333Y-95150057D01*
X57366667Y-95054819D02*
X58033333Y-95054819D01*
X58033333Y-95054819D02*
X57604762Y-96054819D01*
X56533333Y-106059580D02*
X56485714Y-106107200D01*
X56485714Y-106107200D02*
X56342857Y-106154819D01*
X56342857Y-106154819D02*
X56247619Y-106154819D01*
X56247619Y-106154819D02*
X56104762Y-106107200D01*
X56104762Y-106107200D02*
X56009524Y-106011961D01*
X56009524Y-106011961D02*
X55961905Y-105916723D01*
X55961905Y-105916723D02*
X55914286Y-105726247D01*
X55914286Y-105726247D02*
X55914286Y-105583390D01*
X55914286Y-105583390D02*
X55961905Y-105392914D01*
X55961905Y-105392914D02*
X56009524Y-105297676D01*
X56009524Y-105297676D02*
X56104762Y-105202438D01*
X56104762Y-105202438D02*
X56247619Y-105154819D01*
X56247619Y-105154819D02*
X56342857Y-105154819D01*
X56342857Y-105154819D02*
X56485714Y-105202438D01*
X56485714Y-105202438D02*
X56533333Y-105250057D01*
X57485714Y-106154819D02*
X56914286Y-106154819D01*
X57200000Y-106154819D02*
X57200000Y-105154819D01*
X57200000Y-105154819D02*
X57104762Y-105297676D01*
X57104762Y-105297676D02*
X57009524Y-105392914D01*
X57009524Y-105392914D02*
X56914286Y-105440533D01*
X57233333Y-108159580D02*
X57185714Y-108207200D01*
X57185714Y-108207200D02*
X57042857Y-108254819D01*
X57042857Y-108254819D02*
X56947619Y-108254819D01*
X56947619Y-108254819D02*
X56804762Y-108207200D01*
X56804762Y-108207200D02*
X56709524Y-108111961D01*
X56709524Y-108111961D02*
X56661905Y-108016723D01*
X56661905Y-108016723D02*
X56614286Y-107826247D01*
X56614286Y-107826247D02*
X56614286Y-107683390D01*
X56614286Y-107683390D02*
X56661905Y-107492914D01*
X56661905Y-107492914D02*
X56709524Y-107397676D01*
X56709524Y-107397676D02*
X56804762Y-107302438D01*
X56804762Y-107302438D02*
X56947619Y-107254819D01*
X56947619Y-107254819D02*
X57042857Y-107254819D01*
X57042857Y-107254819D02*
X57185714Y-107302438D01*
X57185714Y-107302438D02*
X57233333Y-107350057D01*
X57614286Y-107350057D02*
X57661905Y-107302438D01*
X57661905Y-107302438D02*
X57757143Y-107254819D01*
X57757143Y-107254819D02*
X57995238Y-107254819D01*
X57995238Y-107254819D02*
X58090476Y-107302438D01*
X58090476Y-107302438D02*
X58138095Y-107350057D01*
X58138095Y-107350057D02*
X58185714Y-107445295D01*
X58185714Y-107445295D02*
X58185714Y-107540533D01*
X58185714Y-107540533D02*
X58138095Y-107683390D01*
X58138095Y-107683390D02*
X57566667Y-108254819D01*
X57566667Y-108254819D02*
X58185714Y-108254819D01*
X49059579Y-84080357D02*
X49107199Y-84127976D01*
X49107199Y-84127976D02*
X49154818Y-84270833D01*
X49154818Y-84270833D02*
X49154818Y-84366071D01*
X49154818Y-84366071D02*
X49107199Y-84508928D01*
X49107199Y-84508928D02*
X49011960Y-84604166D01*
X49011960Y-84604166D02*
X48916722Y-84651785D01*
X48916722Y-84651785D02*
X48726246Y-84699404D01*
X48726246Y-84699404D02*
X48583389Y-84699404D01*
X48583389Y-84699404D02*
X48392913Y-84651785D01*
X48392913Y-84651785D02*
X48297675Y-84604166D01*
X48297675Y-84604166D02*
X48202437Y-84508928D01*
X48202437Y-84508928D02*
X48154818Y-84366071D01*
X48154818Y-84366071D02*
X48154818Y-84270833D01*
X48154818Y-84270833D02*
X48202437Y-84127976D01*
X48202437Y-84127976D02*
X48250056Y-84080357D01*
X49154818Y-83127976D02*
X49154818Y-83699404D01*
X49154818Y-83413690D02*
X48154818Y-83413690D01*
X48154818Y-83413690D02*
X48297675Y-83508928D01*
X48297675Y-83508928D02*
X48392913Y-83604166D01*
X48392913Y-83604166D02*
X48440532Y-83699404D01*
X48154818Y-82508928D02*
X48154818Y-82413690D01*
X48154818Y-82413690D02*
X48202437Y-82318452D01*
X48202437Y-82318452D02*
X48250056Y-82270833D01*
X48250056Y-82270833D02*
X48345294Y-82223214D01*
X48345294Y-82223214D02*
X48535770Y-82175595D01*
X48535770Y-82175595D02*
X48773865Y-82175595D01*
X48773865Y-82175595D02*
X48964341Y-82223214D01*
X48964341Y-82223214D02*
X49059579Y-82270833D01*
X49059579Y-82270833D02*
X49107199Y-82318452D01*
X49107199Y-82318452D02*
X49154818Y-82413690D01*
X49154818Y-82413690D02*
X49154818Y-82508928D01*
X49154818Y-82508928D02*
X49107199Y-82604166D01*
X49107199Y-82604166D02*
X49059579Y-82651785D01*
X49059579Y-82651785D02*
X48964341Y-82699404D01*
X48964341Y-82699404D02*
X48773865Y-82747023D01*
X48773865Y-82747023D02*
X48535770Y-82747023D01*
X48535770Y-82747023D02*
X48345294Y-82699404D01*
X48345294Y-82699404D02*
X48250056Y-82651785D01*
X48250056Y-82651785D02*
X48202437Y-82604166D01*
X48202437Y-82604166D02*
X48154818Y-82508928D01*
X54674819Y-76168334D02*
X55389104Y-76168334D01*
X55389104Y-76168334D02*
X55531961Y-76215953D01*
X55531961Y-76215953D02*
X55627200Y-76311191D01*
X55627200Y-76311191D02*
X55674819Y-76454048D01*
X55674819Y-76454048D02*
X55674819Y-76549286D01*
X55008152Y-75263572D02*
X55674819Y-75263572D01*
X54627200Y-75501667D02*
X55341485Y-75739762D01*
X55341485Y-75739762D02*
X55341485Y-75120715D01*
%TO.C,J1*%
D13*
X72227500Y-70500000D02*
X72227500Y-71000000D01*
X72227500Y-71000000D02*
X72727500Y-70750000D01*
X72727500Y-70750000D02*
X72227500Y-70500000D01*
%TO.C,R6*%
X61277500Y-100182224D02*
X61277500Y-99672776D01*
X62322500Y-100182224D02*
X62322500Y-99672776D01*
%TO.C,C8*%
X59153766Y-96710000D02*
X58861232Y-96710000D01*
X59153766Y-97730000D02*
X58861232Y-97730000D01*
%TO.C,R5*%
X65745276Y-100227500D02*
X66254724Y-100227500D01*
X65745276Y-101272500D02*
X66254724Y-101272500D01*
%TO.C,R7*%
X65777776Y-98667500D02*
X66287224Y-98667500D01*
X65777776Y-99712500D02*
X66287224Y-99712500D01*
%TO.C,U1*%
X61362500Y-103590001D02*
X63182500Y-103590001D01*
X61362500Y-103640001D02*
X61362500Y-103590001D01*
X61362500Y-106710001D02*
X61362500Y-106660001D01*
X63182500Y-103590001D02*
X63182500Y-103640001D01*
X63182500Y-106660001D02*
X63182500Y-106710001D01*
X63182500Y-106710001D02*
X61362500Y-106710001D01*
X63962500Y-106990001D02*
X63482500Y-106990001D01*
X63722500Y-106660001D01*
X63962500Y-106990001D01*
G36*
X63962500Y-106990001D02*
G01*
X63482500Y-106990001D01*
X63722500Y-106660001D01*
X63962500Y-106990001D01*
G37*
%TO.C,R4*%
X65977776Y-106007500D02*
X66487224Y-106007500D01*
X65977776Y-107052500D02*
X66487224Y-107052500D01*
%TO.C,C9*%
X49640000Y-69148752D02*
X49640000Y-67726248D01*
X52360000Y-69148752D02*
X52360000Y-67726248D01*
%TO.C,U3*%
X62127500Y-94990001D02*
X63947500Y-94990001D01*
X62127500Y-95040001D02*
X62127500Y-94990001D01*
X62127500Y-98110001D02*
X62127500Y-98060001D01*
X63947500Y-94990001D02*
X63947500Y-95040001D01*
X63947500Y-98060001D02*
X63947500Y-98110001D01*
X63947500Y-98110001D02*
X62127500Y-98110001D01*
X61587500Y-95040001D02*
X61347500Y-94710001D01*
X61827500Y-94710001D01*
X61587500Y-95040001D01*
G36*
X61587500Y-95040001D02*
G01*
X61347500Y-94710001D01*
X61827500Y-94710001D01*
X61587500Y-95040001D01*
G37*
%TO.C,C5*%
X65391233Y-93490000D02*
X65683767Y-93490000D01*
X65391233Y-94510000D02*
X65683767Y-94510000D01*
%TO.C,C6*%
X66491665Y-95140000D02*
X66723335Y-95140000D01*
X66491665Y-95860000D02*
X66723335Y-95860000D01*
%TO.C,R1*%
X62890000Y-101495276D02*
X62890000Y-102004724D01*
X63935000Y-101495276D02*
X63935000Y-102004724D01*
%TO.C,J3*%
X72227500Y-89750000D02*
X72227500Y-90250000D01*
X72227500Y-90250000D02*
X72727500Y-90000000D01*
X72727500Y-90000000D02*
X72227500Y-89750000D01*
%TO.C,J2*%
X72227500Y-109750000D02*
X72227500Y-110250000D01*
X72227500Y-110250000D02*
X72727500Y-110000000D01*
X72727500Y-110000000D02*
X72227500Y-109750000D01*
%TO.C,C3*%
X65561665Y-104790000D02*
X65793335Y-104790000D01*
X65561665Y-105510000D02*
X65793335Y-105510000D01*
%TO.C,R9*%
X61367500Y-93082224D02*
X61367500Y-92572776D01*
X62412500Y-93082224D02*
X62412500Y-92572776D01*
%TO.C,C4*%
X66036233Y-103120000D02*
X66328767Y-103120000D01*
X66036233Y-104140000D02*
X66328767Y-104140000D01*
%TO.C,R2*%
X59202224Y-102237500D02*
X58692776Y-102237500D01*
X59202224Y-103282500D02*
X58692776Y-103282500D01*
%TO.C,C7*%
X59598335Y-95490000D02*
X59366665Y-95490000D01*
X59598335Y-96210000D02*
X59366665Y-96210000D01*
%TO.C,C1*%
X59048335Y-105340000D02*
X58816665Y-105340000D01*
X59048335Y-106060000D02*
X58816665Y-106060000D01*
%TO.C,C2*%
X60306267Y-107230000D02*
X60013733Y-107230000D01*
X60306267Y-108250000D02*
X60013733Y-108250000D01*
%TO.C,C10*%
X49640000Y-84148752D02*
X49640000Y-82726248D01*
X52360000Y-84148752D02*
X52360000Y-82726248D01*
%TO.C,J4*%
X47780000Y-71675001D02*
X54220000Y-71675001D01*
X47780000Y-72265001D02*
X47780000Y-71675001D01*
X47780000Y-74805001D02*
X47780000Y-74325001D01*
X47780000Y-77345001D02*
X47780000Y-76865001D01*
X47780000Y-79995001D02*
X47780000Y-79405001D01*
X48399999Y-71675001D02*
X48399999Y-72265001D01*
X48399999Y-74325001D02*
X48400000Y-74805001D01*
X48400000Y-76865001D02*
X48400000Y-77345001D01*
X48400000Y-79405001D02*
X48400000Y-79995001D01*
X53700000Y-71675001D02*
X53700000Y-79995001D01*
X54220000Y-71675001D02*
X54220000Y-79995001D01*
X54220000Y-79995001D02*
X47780000Y-79995001D01*
X47430000Y-73295001D02*
X46820000Y-73735001D01*
X46820000Y-72855001D01*
X47430000Y-73295001D01*
G36*
X47430000Y-73295001D02*
G01*
X46820000Y-73735001D01*
X46820000Y-72855001D01*
X47430000Y-73295001D01*
G37*
%TD*%
%LPC*%
D14*
%TO.C,J1*%
X75937500Y-70750000D03*
X75937500Y-66500000D03*
X75937500Y-75000000D03*
%TD*%
D15*
%TO.C,R6*%
X61800000Y-100840000D03*
X61800000Y-99015000D03*
%TD*%
D16*
%TO.C,C8*%
X59870000Y-97220000D03*
X58144998Y-97220000D03*
%TD*%
D17*
%TO.C,R5*%
X65087500Y-100750000D03*
X66912500Y-100750000D03*
%TD*%
%TO.C,R7*%
X65120000Y-99190000D03*
X66945000Y-99190000D03*
%TD*%
D18*
%TO.C,U1*%
X63410000Y-106100000D03*
X63410000Y-105150001D03*
X63410000Y-104200002D03*
X61135000Y-104200002D03*
X61135000Y-105150001D03*
X61135000Y-106100000D03*
%TD*%
D17*
%TO.C,R4*%
X65320000Y-106530000D03*
X67145000Y-106530000D03*
%TD*%
D19*
%TO.C,C9*%
X51000000Y-70000000D03*
X51000000Y-66875000D03*
%TD*%
D20*
%TO.C,U3*%
X61900000Y-95600002D03*
X61900000Y-96550001D03*
X61900000Y-97500000D03*
X64175000Y-97500000D03*
X64175000Y-96550001D03*
X64175000Y-95600002D03*
%TD*%
D21*
%TO.C,C5*%
X64675000Y-94000000D03*
X66400000Y-94000000D03*
%TD*%
D22*
%TO.C,C6*%
X66040000Y-95500000D03*
X67175000Y-95500000D03*
%TD*%
D23*
%TO.C,R1*%
X63412500Y-100837500D03*
X63412500Y-102662500D03*
%TD*%
D14*
%TO.C,J3*%
X75937500Y-90000000D03*
X75937500Y-85750000D03*
X75937500Y-94250000D03*
%TD*%
%TO.C,J2*%
X75937500Y-110000000D03*
X75937500Y-105750000D03*
X75937500Y-114250000D03*
%TD*%
D22*
%TO.C,C3*%
X65110000Y-105150000D03*
X66245000Y-105150000D03*
%TD*%
D15*
%TO.C,R9*%
X61890000Y-93740000D03*
X61890000Y-91915000D03*
%TD*%
D21*
%TO.C,C4*%
X65320000Y-103630000D03*
X67045000Y-103630000D03*
%TD*%
D24*
%TO.C,R2*%
X59860000Y-102760000D03*
X58035000Y-102760000D03*
%TD*%
D25*
%TO.C,C7*%
X60050000Y-95850000D03*
X58915000Y-95850000D03*
%TD*%
%TO.C,C1*%
X59500000Y-105700000D03*
X58365000Y-105700000D03*
%TD*%
D16*
%TO.C,C2*%
X61022501Y-107740000D03*
X59297499Y-107740000D03*
%TD*%
D19*
%TO.C,C10*%
X51000000Y-85000000D03*
X51000000Y-81875000D03*
%TD*%
D26*
%TO.C,J4*%
X48460000Y-73295001D03*
X48460000Y-75835001D03*
X48460000Y-78375001D03*
D27*
X51000000Y-73295001D03*
D28*
X51000000Y-75835001D03*
X51000000Y-78375000D03*
%TD*%
%LPD*%
M02*
