%TF.GenerationSoftware,KiCad,Pcbnew,10.0.1*%
%TF.CreationDate,2026-06-08T13:26:14+01:00*%
%TF.ProjectId,xlzd_xenonnt_amplifier_test,786c7a64-5f78-4656-9e6f-6e6e745f616d,rev?*%
%TF.SameCoordinates,Original*%
%TF.FileFunction,Copper,L1,Top*%
%TF.FilePolarity,Positive*%
%FSLAX46Y46*%
G04 Gerber Fmt 4.6, Leading zero omitted, Abs format (unit mm)*
G04 Created by KiCad (PCBNEW 10.0.1) date 2026-06-08 13:26:14*
%MOMM*%
%LPD*%
G01*
G04 APERTURE LIST*
G04 Aperture macros list*
%AMRoundRect*
0 Rectangle with rounded corners*
0 $1 Rounding radius*
0 $2 $3 $4 $5 $6 $7 $8 $9 X,Y pos of 4 corners*
0 Add a 4 corners polygon primitive as box body*
4,1,4,$2,$3,$4,$5,$6,$7,$8,$9,$2,$3,0*
0 Add four circle primitives for the rounded corners*
1,1,$1+$1,$2,$3*
1,1,$1+$1,$4,$5*
1,1,$1+$1,$6,$7*
1,1,$1+$1,$8,$9*
0 Add four rect primitives between the rounded corners*
20,1,$1+$1,$2,$3,$4,$5,0*
20,1,$1+$1,$4,$5,$6,$7,0*
20,1,$1+$1,$6,$7,$8,$9,0*
20,1,$1+$1,$8,$9,$2,$3,0*%
G04 Aperture macros list end*
%ADD10C,0.150000*%
%ADD11C,0.300000*%
%ADD12C,0.400000*%
%TA.AperFunction,SMDPad,CuDef*%
%ADD13R,5.080000X1.500000*%
%TD*%
%TA.AperFunction,SMDPad,CuDef*%
%ADD14RoundRect,0.237500X0.237500X-0.250000X0.237500X0.250000X-0.237500X0.250000X-0.237500X-0.250000X0*%
%TD*%
%TA.AperFunction,SMDPad,CuDef*%
%ADD15RoundRect,0.237500X0.300000X0.237500X-0.300000X0.237500X-0.300000X-0.237500X0.300000X-0.237500X0*%
%TD*%
%TA.AperFunction,SMDPad,CuDef*%
%ADD16RoundRect,0.237500X-0.250000X-0.237500X0.250000X-0.237500X0.250000X0.237500X-0.250000X0.237500X0*%
%TD*%
%TA.AperFunction,SMDPad,CuDef*%
%ADD17RoundRect,0.150000X0.512500X0.150000X-0.512500X0.150000X-0.512500X-0.150000X0.512500X-0.150000X0*%
%TD*%
%TA.AperFunction,SMDPad,CuDef*%
%ADD18RoundRect,0.250000X1.100000X-0.412500X1.100000X0.412500X-1.100000X0.412500X-1.100000X-0.412500X0*%
%TD*%
%TA.AperFunction,SMDPad,CuDef*%
%ADD19RoundRect,0.150000X-0.512500X-0.150000X0.512500X-0.150000X0.512500X0.150000X-0.512500X0.150000X0*%
%TD*%
%TA.AperFunction,SMDPad,CuDef*%
%ADD20RoundRect,0.237500X-0.300000X-0.237500X0.300000X-0.237500X0.300000X0.237500X-0.300000X0.237500X0*%
%TD*%
%TA.AperFunction,SMDPad,CuDef*%
%ADD21RoundRect,0.155000X-0.212500X-0.155000X0.212500X-0.155000X0.212500X0.155000X-0.212500X0.155000X0*%
%TD*%
%TA.AperFunction,SMDPad,CuDef*%
%ADD22RoundRect,0.237500X-0.237500X0.250000X-0.237500X-0.250000X0.237500X-0.250000X0.237500X0.250000X0*%
%TD*%
%TA.AperFunction,SMDPad,CuDef*%
%ADD23RoundRect,0.237500X0.250000X0.237500X-0.250000X0.237500X-0.250000X-0.237500X0.250000X-0.237500X0*%
%TD*%
%TA.AperFunction,SMDPad,CuDef*%
%ADD24RoundRect,0.155000X0.212500X0.155000X-0.212500X0.155000X-0.212500X-0.155000X0.212500X-0.155000X0*%
%TD*%
%TA.AperFunction,ComponentPad*%
%ADD25RoundRect,0.249999X-0.850001X0.850001X-0.850001X-0.850001X0.850001X-0.850001X0.850001X0.850001X0*%
%TD*%
%TA.AperFunction,ComponentPad*%
%ADD26C,2.200000*%
%TD*%
%TA.AperFunction,ViaPad*%
%ADD27C,0.800000*%
%TD*%
%TA.AperFunction,Conductor*%
%ADD28C,0.355000*%
%TD*%
%TA.AperFunction,Conductor*%
%ADD29C,0.200000*%
%TD*%
%TA.AperFunction,Conductor*%
%ADD30C,0.500000*%
%TD*%
G04 APERTURE END LIST*
D10*
X177002200Y-166007200D02*
X285002200Y-166007200D01*
X285002200Y-198007200D01*
X177002200Y-198007200D01*
X177002200Y-166007200D01*
X10000000Y-10000000D02*
X287002200Y-10000000D01*
X287002200Y-200007200D01*
X10000000Y-200007200D01*
X10000000Y-10000000D01*
X12000000Y-12000000D02*
X285002200Y-12000000D01*
X285002200Y-198007200D01*
X12000000Y-198007200D01*
X12000000Y-12000000D01*
X60000000Y-12000000D02*
X60000000Y-10000000D01*
X110000000Y-12000000D02*
X110000000Y-10000000D01*
X160000000Y-12000000D02*
X160000000Y-10000000D01*
X210000000Y-12000000D02*
X210000000Y-10000000D01*
X260000000Y-12000000D02*
X260000000Y-10000000D01*
X36089160Y-11593604D02*
X35346303Y-11593604D01*
X35717731Y-11593604D02*
X35717731Y-10293604D01*
X35717731Y-10293604D02*
X35593922Y-10479319D01*
X35593922Y-10479319D02*
X35470112Y-10603128D01*
X35470112Y-10603128D02*
X35346303Y-10665033D01*
X85346303Y-10417414D02*
X85408207Y-10355509D01*
X85408207Y-10355509D02*
X85532017Y-10293604D01*
X85532017Y-10293604D02*
X85841541Y-10293604D01*
X85841541Y-10293604D02*
X85965350Y-10355509D01*
X85965350Y-10355509D02*
X86027255Y-10417414D01*
X86027255Y-10417414D02*
X86089160Y-10541223D01*
X86089160Y-10541223D02*
X86089160Y-10665033D01*
X86089160Y-10665033D02*
X86027255Y-10850747D01*
X86027255Y-10850747D02*
X85284398Y-11593604D01*
X85284398Y-11593604D02*
X86089160Y-11593604D01*
X135284398Y-10293604D02*
X136089160Y-10293604D01*
X136089160Y-10293604D02*
X135655826Y-10788842D01*
X135655826Y-10788842D02*
X135841541Y-10788842D01*
X135841541Y-10788842D02*
X135965350Y-10850747D01*
X135965350Y-10850747D02*
X136027255Y-10912652D01*
X136027255Y-10912652D02*
X136089160Y-11036461D01*
X136089160Y-11036461D02*
X136089160Y-11345985D01*
X136089160Y-11345985D02*
X136027255Y-11469795D01*
X136027255Y-11469795D02*
X135965350Y-11531700D01*
X135965350Y-11531700D02*
X135841541Y-11593604D01*
X135841541Y-11593604D02*
X135470112Y-11593604D01*
X135470112Y-11593604D02*
X135346303Y-11531700D01*
X135346303Y-11531700D02*
X135284398Y-11469795D01*
X185965350Y-10726938D02*
X185965350Y-11593604D01*
X185655826Y-10231700D02*
X185346303Y-11160271D01*
X185346303Y-11160271D02*
X186151064Y-11160271D01*
X236027255Y-10293604D02*
X235408207Y-10293604D01*
X235408207Y-10293604D02*
X235346303Y-10912652D01*
X235346303Y-10912652D02*
X235408207Y-10850747D01*
X235408207Y-10850747D02*
X235532017Y-10788842D01*
X235532017Y-10788842D02*
X235841541Y-10788842D01*
X235841541Y-10788842D02*
X235965350Y-10850747D01*
X235965350Y-10850747D02*
X236027255Y-10912652D01*
X236027255Y-10912652D02*
X236089160Y-11036461D01*
X236089160Y-11036461D02*
X236089160Y-11345985D01*
X236089160Y-11345985D02*
X236027255Y-11469795D01*
X236027255Y-11469795D02*
X235965350Y-11531700D01*
X235965350Y-11531700D02*
X235841541Y-11593604D01*
X235841541Y-11593604D02*
X235532017Y-11593604D01*
X235532017Y-11593604D02*
X235408207Y-11531700D01*
X235408207Y-11531700D02*
X235346303Y-11469795D01*
X285965350Y-10293604D02*
X285717731Y-10293604D01*
X285717731Y-10293604D02*
X285593922Y-10355509D01*
X285593922Y-10355509D02*
X285532017Y-10417414D01*
X285532017Y-10417414D02*
X285408207Y-10603128D01*
X285408207Y-10603128D02*
X285346303Y-10850747D01*
X285346303Y-10850747D02*
X285346303Y-11345985D01*
X285346303Y-11345985D02*
X285408207Y-11469795D01*
X285408207Y-11469795D02*
X285470112Y-11531700D01*
X285470112Y-11531700D02*
X285593922Y-11593604D01*
X285593922Y-11593604D02*
X285841541Y-11593604D01*
X285841541Y-11593604D02*
X285965350Y-11531700D01*
X285965350Y-11531700D02*
X286027255Y-11469795D01*
X286027255Y-11469795D02*
X286089160Y-11345985D01*
X286089160Y-11345985D02*
X286089160Y-11036461D01*
X286089160Y-11036461D02*
X286027255Y-10912652D01*
X286027255Y-10912652D02*
X285965350Y-10850747D01*
X285965350Y-10850747D02*
X285841541Y-10788842D01*
X285841541Y-10788842D02*
X285593922Y-10788842D01*
X285593922Y-10788842D02*
X285470112Y-10850747D01*
X285470112Y-10850747D02*
X285408207Y-10912652D01*
X285408207Y-10912652D02*
X285346303Y-11036461D01*
X60000000Y-198007200D02*
X60000000Y-200007200D01*
X110000000Y-198007200D02*
X110000000Y-200007200D01*
X160000000Y-198007200D02*
X160000000Y-200007200D01*
X210000000Y-198007200D02*
X210000000Y-200007200D01*
X260000000Y-198007200D02*
X260000000Y-200007200D01*
X36089160Y-199600804D02*
X35346303Y-199600804D01*
X35717731Y-199600804D02*
X35717731Y-198300804D01*
X35717731Y-198300804D02*
X35593922Y-198486519D01*
X35593922Y-198486519D02*
X35470112Y-198610328D01*
X35470112Y-198610328D02*
X35346303Y-198672233D01*
X85346303Y-198424614D02*
X85408207Y-198362709D01*
X85408207Y-198362709D02*
X85532017Y-198300804D01*
X85532017Y-198300804D02*
X85841541Y-198300804D01*
X85841541Y-198300804D02*
X85965350Y-198362709D01*
X85965350Y-198362709D02*
X86027255Y-198424614D01*
X86027255Y-198424614D02*
X86089160Y-198548423D01*
X86089160Y-198548423D02*
X86089160Y-198672233D01*
X86089160Y-198672233D02*
X86027255Y-198857947D01*
X86027255Y-198857947D02*
X85284398Y-199600804D01*
X85284398Y-199600804D02*
X86089160Y-199600804D01*
X135284398Y-198300804D02*
X136089160Y-198300804D01*
X136089160Y-198300804D02*
X135655826Y-198796042D01*
X135655826Y-198796042D02*
X135841541Y-198796042D01*
X135841541Y-198796042D02*
X135965350Y-198857947D01*
X135965350Y-198857947D02*
X136027255Y-198919852D01*
X136027255Y-198919852D02*
X136089160Y-199043661D01*
X136089160Y-199043661D02*
X136089160Y-199353185D01*
X136089160Y-199353185D02*
X136027255Y-199476995D01*
X136027255Y-199476995D02*
X135965350Y-199538900D01*
X135965350Y-199538900D02*
X135841541Y-199600804D01*
X135841541Y-199600804D02*
X135470112Y-199600804D01*
X135470112Y-199600804D02*
X135346303Y-199538900D01*
X135346303Y-199538900D02*
X135284398Y-199476995D01*
X185965350Y-198734138D02*
X185965350Y-199600804D01*
X185655826Y-198238900D02*
X185346303Y-199167471D01*
X185346303Y-199167471D02*
X186151064Y-199167471D01*
X236027255Y-198300804D02*
X235408207Y-198300804D01*
X235408207Y-198300804D02*
X235346303Y-198919852D01*
X235346303Y-198919852D02*
X235408207Y-198857947D01*
X235408207Y-198857947D02*
X235532017Y-198796042D01*
X235532017Y-198796042D02*
X235841541Y-198796042D01*
X235841541Y-198796042D02*
X235965350Y-198857947D01*
X235965350Y-198857947D02*
X236027255Y-198919852D01*
X236027255Y-198919852D02*
X236089160Y-199043661D01*
X236089160Y-199043661D02*
X236089160Y-199353185D01*
X236089160Y-199353185D02*
X236027255Y-199476995D01*
X236027255Y-199476995D02*
X235965350Y-199538900D01*
X235965350Y-199538900D02*
X235841541Y-199600804D01*
X235841541Y-199600804D02*
X235532017Y-199600804D01*
X235532017Y-199600804D02*
X235408207Y-199538900D01*
X235408207Y-199538900D02*
X235346303Y-199476995D01*
X285965350Y-198300804D02*
X285717731Y-198300804D01*
X285717731Y-198300804D02*
X285593922Y-198362709D01*
X285593922Y-198362709D02*
X285532017Y-198424614D01*
X285532017Y-198424614D02*
X285408207Y-198610328D01*
X285408207Y-198610328D02*
X285346303Y-198857947D01*
X285346303Y-198857947D02*
X285346303Y-199353185D01*
X285346303Y-199353185D02*
X285408207Y-199476995D01*
X285408207Y-199476995D02*
X285470112Y-199538900D01*
X285470112Y-199538900D02*
X285593922Y-199600804D01*
X285593922Y-199600804D02*
X285841541Y-199600804D01*
X285841541Y-199600804D02*
X285965350Y-199538900D01*
X285965350Y-199538900D02*
X286027255Y-199476995D01*
X286027255Y-199476995D02*
X286089160Y-199353185D01*
X286089160Y-199353185D02*
X286089160Y-199043661D01*
X286089160Y-199043661D02*
X286027255Y-198919852D01*
X286027255Y-198919852D02*
X285965350Y-198857947D01*
X285965350Y-198857947D02*
X285841541Y-198796042D01*
X285841541Y-198796042D02*
X285593922Y-198796042D01*
X285593922Y-198796042D02*
X285470112Y-198857947D01*
X285470112Y-198857947D02*
X285408207Y-198919852D01*
X285408207Y-198919852D02*
X285346303Y-199043661D01*
X10000000Y-60000000D02*
X12000000Y-60000000D01*
X10000000Y-110000000D02*
X12000000Y-110000000D01*
X10000000Y-160000000D02*
X12000000Y-160000000D01*
X10690476Y-35222176D02*
X11309523Y-35222176D01*
X10566666Y-35593604D02*
X10999999Y-34293604D01*
X10999999Y-34293604D02*
X11433333Y-35593604D01*
X11092857Y-84912652D02*
X11278571Y-84974557D01*
X11278571Y-84974557D02*
X11340476Y-85036461D01*
X11340476Y-85036461D02*
X11402380Y-85160271D01*
X11402380Y-85160271D02*
X11402380Y-85345985D01*
X11402380Y-85345985D02*
X11340476Y-85469795D01*
X11340476Y-85469795D02*
X11278571Y-85531700D01*
X11278571Y-85531700D02*
X11154761Y-85593604D01*
X11154761Y-85593604D02*
X10659523Y-85593604D01*
X10659523Y-85593604D02*
X10659523Y-84293604D01*
X10659523Y-84293604D02*
X11092857Y-84293604D01*
X11092857Y-84293604D02*
X11216666Y-84355509D01*
X11216666Y-84355509D02*
X11278571Y-84417414D01*
X11278571Y-84417414D02*
X11340476Y-84541223D01*
X11340476Y-84541223D02*
X11340476Y-84665033D01*
X11340476Y-84665033D02*
X11278571Y-84788842D01*
X11278571Y-84788842D02*
X11216666Y-84850747D01*
X11216666Y-84850747D02*
X11092857Y-84912652D01*
X11092857Y-84912652D02*
X10659523Y-84912652D01*
X11402380Y-135469795D02*
X11340476Y-135531700D01*
X11340476Y-135531700D02*
X11154761Y-135593604D01*
X11154761Y-135593604D02*
X11030952Y-135593604D01*
X11030952Y-135593604D02*
X10845238Y-135531700D01*
X10845238Y-135531700D02*
X10721428Y-135407890D01*
X10721428Y-135407890D02*
X10659523Y-135284080D01*
X10659523Y-135284080D02*
X10597619Y-135036461D01*
X10597619Y-135036461D02*
X10597619Y-134850747D01*
X10597619Y-134850747D02*
X10659523Y-134603128D01*
X10659523Y-134603128D02*
X10721428Y-134479319D01*
X10721428Y-134479319D02*
X10845238Y-134355509D01*
X10845238Y-134355509D02*
X11030952Y-134293604D01*
X11030952Y-134293604D02*
X11154761Y-134293604D01*
X11154761Y-134293604D02*
X11340476Y-134355509D01*
X11340476Y-134355509D02*
X11402380Y-134417414D01*
X10659523Y-185593604D02*
X10659523Y-184293604D01*
X10659523Y-184293604D02*
X10969047Y-184293604D01*
X10969047Y-184293604D02*
X11154761Y-184355509D01*
X11154761Y-184355509D02*
X11278571Y-184479319D01*
X11278571Y-184479319D02*
X11340476Y-184603128D01*
X11340476Y-184603128D02*
X11402380Y-184850747D01*
X11402380Y-184850747D02*
X11402380Y-185036461D01*
X11402380Y-185036461D02*
X11340476Y-185284080D01*
X11340476Y-185284080D02*
X11278571Y-185407890D01*
X11278571Y-185407890D02*
X11154761Y-185531700D01*
X11154761Y-185531700D02*
X10969047Y-185593604D01*
X10969047Y-185593604D02*
X10659523Y-185593604D01*
X287002200Y-60000000D02*
X285002200Y-60000000D01*
X287002200Y-110000000D02*
X285002200Y-110000000D01*
X287002200Y-160000000D02*
X285002200Y-160000000D01*
X285692676Y-35222176D02*
X286311723Y-35222176D01*
X285568866Y-35593604D02*
X286002199Y-34293604D01*
X286002199Y-34293604D02*
X286435533Y-35593604D01*
X286095057Y-84912652D02*
X286280771Y-84974557D01*
X286280771Y-84974557D02*
X286342676Y-85036461D01*
X286342676Y-85036461D02*
X286404580Y-85160271D01*
X286404580Y-85160271D02*
X286404580Y-85345985D01*
X286404580Y-85345985D02*
X286342676Y-85469795D01*
X286342676Y-85469795D02*
X286280771Y-85531700D01*
X286280771Y-85531700D02*
X286156961Y-85593604D01*
X286156961Y-85593604D02*
X285661723Y-85593604D01*
X285661723Y-85593604D02*
X285661723Y-84293604D01*
X285661723Y-84293604D02*
X286095057Y-84293604D01*
X286095057Y-84293604D02*
X286218866Y-84355509D01*
X286218866Y-84355509D02*
X286280771Y-84417414D01*
X286280771Y-84417414D02*
X286342676Y-84541223D01*
X286342676Y-84541223D02*
X286342676Y-84665033D01*
X286342676Y-84665033D02*
X286280771Y-84788842D01*
X286280771Y-84788842D02*
X286218866Y-84850747D01*
X286218866Y-84850747D02*
X286095057Y-84912652D01*
X286095057Y-84912652D02*
X285661723Y-84912652D01*
X286404580Y-135469795D02*
X286342676Y-135531700D01*
X286342676Y-135531700D02*
X286156961Y-135593604D01*
X286156961Y-135593604D02*
X286033152Y-135593604D01*
X286033152Y-135593604D02*
X285847438Y-135531700D01*
X285847438Y-135531700D02*
X285723628Y-135407890D01*
X285723628Y-135407890D02*
X285661723Y-135284080D01*
X285661723Y-135284080D02*
X285599819Y-135036461D01*
X285599819Y-135036461D02*
X285599819Y-134850747D01*
X285599819Y-134850747D02*
X285661723Y-134603128D01*
X285661723Y-134603128D02*
X285723628Y-134479319D01*
X285723628Y-134479319D02*
X285847438Y-134355509D01*
X285847438Y-134355509D02*
X286033152Y-134293604D01*
X286033152Y-134293604D02*
X286156961Y-134293604D01*
X286156961Y-134293604D02*
X286342676Y-134355509D01*
X286342676Y-134355509D02*
X286404580Y-134417414D01*
X285661723Y-185593604D02*
X285661723Y-184293604D01*
X285661723Y-184293604D02*
X285971247Y-184293604D01*
X285971247Y-184293604D02*
X286156961Y-184355509D01*
X286156961Y-184355509D02*
X286280771Y-184479319D01*
X286280771Y-184479319D02*
X286342676Y-184603128D01*
X286342676Y-184603128D02*
X286404580Y-184850747D01*
X286404580Y-184850747D02*
X286404580Y-185036461D01*
X286404580Y-185036461D02*
X286342676Y-185284080D01*
X286342676Y-185284080D02*
X286280771Y-185407890D01*
X286280771Y-185407890D02*
X286156961Y-185531700D01*
X286156961Y-185531700D02*
X285971247Y-185593604D01*
X285971247Y-185593604D02*
X285661723Y-185593604D01*
X200458026Y-193793328D02*
X200458026Y-192293328D01*
X200458026Y-192293328D02*
X200815169Y-192293328D01*
X200815169Y-192293328D02*
X201029455Y-192364757D01*
X201029455Y-192364757D02*
X201172312Y-192507614D01*
X201172312Y-192507614D02*
X201243741Y-192650471D01*
X201243741Y-192650471D02*
X201315169Y-192936185D01*
X201315169Y-192936185D02*
X201315169Y-193150471D01*
X201315169Y-193150471D02*
X201243741Y-193436185D01*
X201243741Y-193436185D02*
X201172312Y-193579042D01*
X201172312Y-193579042D02*
X201029455Y-193721900D01*
X201029455Y-193721900D02*
X200815169Y-193793328D01*
X200815169Y-193793328D02*
X200458026Y-193793328D01*
X202600884Y-193793328D02*
X202600884Y-193007614D01*
X202600884Y-193007614D02*
X202529455Y-192864757D01*
X202529455Y-192864757D02*
X202386598Y-192793328D01*
X202386598Y-192793328D02*
X202100884Y-192793328D01*
X202100884Y-192793328D02*
X201958026Y-192864757D01*
X202600884Y-193721900D02*
X202458026Y-193793328D01*
X202458026Y-193793328D02*
X202100884Y-193793328D01*
X202100884Y-193793328D02*
X201958026Y-193721900D01*
X201958026Y-193721900D02*
X201886598Y-193579042D01*
X201886598Y-193579042D02*
X201886598Y-193436185D01*
X201886598Y-193436185D02*
X201958026Y-193293328D01*
X201958026Y-193293328D02*
X202100884Y-193221900D01*
X202100884Y-193221900D02*
X202458026Y-193221900D01*
X202458026Y-193221900D02*
X202600884Y-193150471D01*
X203100884Y-192793328D02*
X203672312Y-192793328D01*
X203315169Y-192293328D02*
X203315169Y-193579042D01*
X203315169Y-193579042D02*
X203386598Y-193721900D01*
X203386598Y-193721900D02*
X203529455Y-193793328D01*
X203529455Y-193793328D02*
X203672312Y-193793328D01*
X204743741Y-193721900D02*
X204600884Y-193793328D01*
X204600884Y-193793328D02*
X204315170Y-193793328D01*
X204315170Y-193793328D02*
X204172312Y-193721900D01*
X204172312Y-193721900D02*
X204100884Y-193579042D01*
X204100884Y-193579042D02*
X204100884Y-193007614D01*
X204100884Y-193007614D02*
X204172312Y-192864757D01*
X204172312Y-192864757D02*
X204315170Y-192793328D01*
X204315170Y-192793328D02*
X204600884Y-192793328D01*
X204600884Y-192793328D02*
X204743741Y-192864757D01*
X204743741Y-192864757D02*
X204815170Y-193007614D01*
X204815170Y-193007614D02*
X204815170Y-193150471D01*
X204815170Y-193150471D02*
X204100884Y-193293328D01*
X205458026Y-193650471D02*
X205529455Y-193721900D01*
X205529455Y-193721900D02*
X205458026Y-193793328D01*
X205458026Y-193793328D02*
X205386598Y-193721900D01*
X205386598Y-193721900D02*
X205458026Y-193650471D01*
X205458026Y-193650471D02*
X205458026Y-193793328D01*
X205458026Y-192864757D02*
X205529455Y-192936185D01*
X205529455Y-192936185D02*
X205458026Y-193007614D01*
X205458026Y-193007614D02*
X205386598Y-192936185D01*
X205386598Y-192936185D02*
X205458026Y-192864757D01*
X205458026Y-192864757D02*
X205458026Y-193007614D01*
X177002200Y-194507200D02*
X285002200Y-194507200D01*
X178458026Y-196593328D02*
X178458026Y-195093328D01*
X179315169Y-196593328D02*
X178672312Y-195736185D01*
X179315169Y-195093328D02*
X178458026Y-195950471D01*
X179958026Y-196593328D02*
X179958026Y-195593328D01*
X179958026Y-195093328D02*
X179886598Y-195164757D01*
X179886598Y-195164757D02*
X179958026Y-195236185D01*
X179958026Y-195236185D02*
X180029455Y-195164757D01*
X180029455Y-195164757D02*
X179958026Y-195093328D01*
X179958026Y-195093328D02*
X179958026Y-195236185D01*
X181529455Y-196450471D02*
X181458027Y-196521900D01*
X181458027Y-196521900D02*
X181243741Y-196593328D01*
X181243741Y-196593328D02*
X181100884Y-196593328D01*
X181100884Y-196593328D02*
X180886598Y-196521900D01*
X180886598Y-196521900D02*
X180743741Y-196379042D01*
X180743741Y-196379042D02*
X180672312Y-196236185D01*
X180672312Y-196236185D02*
X180600884Y-195950471D01*
X180600884Y-195950471D02*
X180600884Y-195736185D01*
X180600884Y-195736185D02*
X180672312Y-195450471D01*
X180672312Y-195450471D02*
X180743741Y-195307614D01*
X180743741Y-195307614D02*
X180886598Y-195164757D01*
X180886598Y-195164757D02*
X181100884Y-195093328D01*
X181100884Y-195093328D02*
X181243741Y-195093328D01*
X181243741Y-195093328D02*
X181458027Y-195164757D01*
X181458027Y-195164757D02*
X181529455Y-195236185D01*
X182815170Y-196593328D02*
X182815170Y-195807614D01*
X182815170Y-195807614D02*
X182743741Y-195664757D01*
X182743741Y-195664757D02*
X182600884Y-195593328D01*
X182600884Y-195593328D02*
X182315170Y-195593328D01*
X182315170Y-195593328D02*
X182172312Y-195664757D01*
X182815170Y-196521900D02*
X182672312Y-196593328D01*
X182672312Y-196593328D02*
X182315170Y-196593328D01*
X182315170Y-196593328D02*
X182172312Y-196521900D01*
X182172312Y-196521900D02*
X182100884Y-196379042D01*
X182100884Y-196379042D02*
X182100884Y-196236185D01*
X182100884Y-196236185D02*
X182172312Y-196093328D01*
X182172312Y-196093328D02*
X182315170Y-196021900D01*
X182315170Y-196021900D02*
X182672312Y-196021900D01*
X182672312Y-196021900D02*
X182815170Y-195950471D01*
X184172313Y-196593328D02*
X184172313Y-195093328D01*
X184172313Y-196521900D02*
X184029455Y-196593328D01*
X184029455Y-196593328D02*
X183743741Y-196593328D01*
X183743741Y-196593328D02*
X183600884Y-196521900D01*
X183600884Y-196521900D02*
X183529455Y-196450471D01*
X183529455Y-196450471D02*
X183458027Y-196307614D01*
X183458027Y-196307614D02*
X183458027Y-195879042D01*
X183458027Y-195879042D02*
X183529455Y-195736185D01*
X183529455Y-195736185D02*
X183600884Y-195664757D01*
X183600884Y-195664757D02*
X183743741Y-195593328D01*
X183743741Y-195593328D02*
X184029455Y-195593328D01*
X184029455Y-195593328D02*
X184172313Y-195664757D01*
X186029455Y-195807614D02*
X186529455Y-195807614D01*
X186743741Y-196593328D02*
X186029455Y-196593328D01*
X186029455Y-196593328D02*
X186029455Y-195093328D01*
X186029455Y-195093328D02*
X186743741Y-195093328D01*
X187386598Y-196450471D02*
X187458027Y-196521900D01*
X187458027Y-196521900D02*
X187386598Y-196593328D01*
X187386598Y-196593328D02*
X187315170Y-196521900D01*
X187315170Y-196521900D02*
X187386598Y-196450471D01*
X187386598Y-196450471D02*
X187386598Y-196593328D01*
X188100884Y-196593328D02*
X188100884Y-195093328D01*
X188100884Y-195093328D02*
X188458027Y-195093328D01*
X188458027Y-195093328D02*
X188672313Y-195164757D01*
X188672313Y-195164757D02*
X188815170Y-195307614D01*
X188815170Y-195307614D02*
X188886599Y-195450471D01*
X188886599Y-195450471D02*
X188958027Y-195736185D01*
X188958027Y-195736185D02*
X188958027Y-195950471D01*
X188958027Y-195950471D02*
X188886599Y-196236185D01*
X188886599Y-196236185D02*
X188815170Y-196379042D01*
X188815170Y-196379042D02*
X188672313Y-196521900D01*
X188672313Y-196521900D02*
X188458027Y-196593328D01*
X188458027Y-196593328D02*
X188100884Y-196593328D01*
X189600884Y-196450471D02*
X189672313Y-196521900D01*
X189672313Y-196521900D02*
X189600884Y-196593328D01*
X189600884Y-196593328D02*
X189529456Y-196521900D01*
X189529456Y-196521900D02*
X189600884Y-196450471D01*
X189600884Y-196450471D02*
X189600884Y-196593328D01*
X190243742Y-196164757D02*
X190958028Y-196164757D01*
X190100885Y-196593328D02*
X190600885Y-195093328D01*
X190600885Y-195093328D02*
X191100885Y-196593328D01*
X191600884Y-196450471D02*
X191672313Y-196521900D01*
X191672313Y-196521900D02*
X191600884Y-196593328D01*
X191600884Y-196593328D02*
X191529456Y-196521900D01*
X191529456Y-196521900D02*
X191600884Y-196450471D01*
X191600884Y-196450471D02*
X191600884Y-196593328D01*
X194243742Y-196593328D02*
X193386599Y-196593328D01*
X193815170Y-196593328D02*
X193815170Y-195093328D01*
X193815170Y-195093328D02*
X193672313Y-195307614D01*
X193672313Y-195307614D02*
X193529456Y-195450471D01*
X193529456Y-195450471D02*
X193386599Y-195521900D01*
X195172313Y-195093328D02*
X195315170Y-195093328D01*
X195315170Y-195093328D02*
X195458027Y-195164757D01*
X195458027Y-195164757D02*
X195529456Y-195236185D01*
X195529456Y-195236185D02*
X195600884Y-195379042D01*
X195600884Y-195379042D02*
X195672313Y-195664757D01*
X195672313Y-195664757D02*
X195672313Y-196021900D01*
X195672313Y-196021900D02*
X195600884Y-196307614D01*
X195600884Y-196307614D02*
X195529456Y-196450471D01*
X195529456Y-196450471D02*
X195458027Y-196521900D01*
X195458027Y-196521900D02*
X195315170Y-196593328D01*
X195315170Y-196593328D02*
X195172313Y-196593328D01*
X195172313Y-196593328D02*
X195029456Y-196521900D01*
X195029456Y-196521900D02*
X194958027Y-196450471D01*
X194958027Y-196450471D02*
X194886598Y-196307614D01*
X194886598Y-196307614D02*
X194815170Y-196021900D01*
X194815170Y-196021900D02*
X194815170Y-195664757D01*
X194815170Y-195664757D02*
X194886598Y-195379042D01*
X194886598Y-195379042D02*
X194958027Y-195236185D01*
X194958027Y-195236185D02*
X195029456Y-195164757D01*
X195029456Y-195164757D02*
X195172313Y-195093328D01*
X196315169Y-196450471D02*
X196386598Y-196521900D01*
X196386598Y-196521900D02*
X196315169Y-196593328D01*
X196315169Y-196593328D02*
X196243741Y-196521900D01*
X196243741Y-196521900D02*
X196315169Y-196450471D01*
X196315169Y-196450471D02*
X196315169Y-196593328D01*
X197315170Y-195093328D02*
X197458027Y-195093328D01*
X197458027Y-195093328D02*
X197600884Y-195164757D01*
X197600884Y-195164757D02*
X197672313Y-195236185D01*
X197672313Y-195236185D02*
X197743741Y-195379042D01*
X197743741Y-195379042D02*
X197815170Y-195664757D01*
X197815170Y-195664757D02*
X197815170Y-196021900D01*
X197815170Y-196021900D02*
X197743741Y-196307614D01*
X197743741Y-196307614D02*
X197672313Y-196450471D01*
X197672313Y-196450471D02*
X197600884Y-196521900D01*
X197600884Y-196521900D02*
X197458027Y-196593328D01*
X197458027Y-196593328D02*
X197315170Y-196593328D01*
X197315170Y-196593328D02*
X197172313Y-196521900D01*
X197172313Y-196521900D02*
X197100884Y-196450471D01*
X197100884Y-196450471D02*
X197029455Y-196307614D01*
X197029455Y-196307614D02*
X196958027Y-196021900D01*
X196958027Y-196021900D02*
X196958027Y-195664757D01*
X196958027Y-195664757D02*
X197029455Y-195379042D01*
X197029455Y-195379042D02*
X197100884Y-195236185D01*
X197100884Y-195236185D02*
X197172313Y-195164757D01*
X197172313Y-195164757D02*
X197315170Y-195093328D01*
X198458026Y-196450471D02*
X198529455Y-196521900D01*
X198529455Y-196521900D02*
X198458026Y-196593328D01*
X198458026Y-196593328D02*
X198386598Y-196521900D01*
X198386598Y-196521900D02*
X198458026Y-196450471D01*
X198458026Y-196450471D02*
X198458026Y-196593328D01*
X199958027Y-196593328D02*
X199100884Y-196593328D01*
X199529455Y-196593328D02*
X199529455Y-195093328D01*
X199529455Y-195093328D02*
X199386598Y-195307614D01*
X199386598Y-195307614D02*
X199243741Y-195450471D01*
X199243741Y-195450471D02*
X199100884Y-195521900D01*
X177002200Y-191507200D02*
X285002200Y-191507200D01*
D11*
X264413853Y-193785528D02*
X263913853Y-193071242D01*
X263556710Y-193785528D02*
X263556710Y-192285528D01*
X263556710Y-192285528D02*
X264128139Y-192285528D01*
X264128139Y-192285528D02*
X264270996Y-192356957D01*
X264270996Y-192356957D02*
X264342425Y-192428385D01*
X264342425Y-192428385D02*
X264413853Y-192571242D01*
X264413853Y-192571242D02*
X264413853Y-192785528D01*
X264413853Y-192785528D02*
X264342425Y-192928385D01*
X264342425Y-192928385D02*
X264270996Y-192999814D01*
X264270996Y-192999814D02*
X264128139Y-193071242D01*
X264128139Y-193071242D02*
X263556710Y-193071242D01*
X265628139Y-193714100D02*
X265485282Y-193785528D01*
X265485282Y-193785528D02*
X265199568Y-193785528D01*
X265199568Y-193785528D02*
X265056710Y-193714100D01*
X265056710Y-193714100D02*
X264985282Y-193571242D01*
X264985282Y-193571242D02*
X264985282Y-192999814D01*
X264985282Y-192999814D02*
X265056710Y-192856957D01*
X265056710Y-192856957D02*
X265199568Y-192785528D01*
X265199568Y-192785528D02*
X265485282Y-192785528D01*
X265485282Y-192785528D02*
X265628139Y-192856957D01*
X265628139Y-192856957D02*
X265699568Y-192999814D01*
X265699568Y-192999814D02*
X265699568Y-193142671D01*
X265699568Y-193142671D02*
X264985282Y-193285528D01*
X266199567Y-192785528D02*
X266556710Y-193785528D01*
X266556710Y-193785528D02*
X266913853Y-192785528D01*
X267485281Y-193642671D02*
X267556710Y-193714100D01*
X267556710Y-193714100D02*
X267485281Y-193785528D01*
X267485281Y-193785528D02*
X267413853Y-193714100D01*
X267413853Y-193714100D02*
X267485281Y-193642671D01*
X267485281Y-193642671D02*
X267485281Y-193785528D01*
X267485281Y-192856957D02*
X267556710Y-192928385D01*
X267556710Y-192928385D02*
X267485281Y-192999814D01*
X267485281Y-192999814D02*
X267413853Y-192928385D01*
X267413853Y-192928385D02*
X267485281Y-192856957D01*
X267485281Y-192856957D02*
X267485281Y-192999814D01*
D10*
X178386598Y-193721900D02*
X178600884Y-193793328D01*
X178600884Y-193793328D02*
X178958026Y-193793328D01*
X178958026Y-193793328D02*
X179100884Y-193721900D01*
X179100884Y-193721900D02*
X179172312Y-193650471D01*
X179172312Y-193650471D02*
X179243741Y-193507614D01*
X179243741Y-193507614D02*
X179243741Y-193364757D01*
X179243741Y-193364757D02*
X179172312Y-193221900D01*
X179172312Y-193221900D02*
X179100884Y-193150471D01*
X179100884Y-193150471D02*
X178958026Y-193079042D01*
X178958026Y-193079042D02*
X178672312Y-193007614D01*
X178672312Y-193007614D02*
X178529455Y-192936185D01*
X178529455Y-192936185D02*
X178458026Y-192864757D01*
X178458026Y-192864757D02*
X178386598Y-192721900D01*
X178386598Y-192721900D02*
X178386598Y-192579042D01*
X178386598Y-192579042D02*
X178458026Y-192436185D01*
X178458026Y-192436185D02*
X178529455Y-192364757D01*
X178529455Y-192364757D02*
X178672312Y-192293328D01*
X178672312Y-192293328D02*
X179029455Y-192293328D01*
X179029455Y-192293328D02*
X179243741Y-192364757D01*
X179886597Y-193793328D02*
X179886597Y-192793328D01*
X179886597Y-192293328D02*
X179815169Y-192364757D01*
X179815169Y-192364757D02*
X179886597Y-192436185D01*
X179886597Y-192436185D02*
X179958026Y-192364757D01*
X179958026Y-192364757D02*
X179886597Y-192293328D01*
X179886597Y-192293328D02*
X179886597Y-192436185D01*
X180458026Y-192793328D02*
X181243741Y-192793328D01*
X181243741Y-192793328D02*
X180458026Y-193793328D01*
X180458026Y-193793328D02*
X181243741Y-193793328D01*
X182386598Y-193721900D02*
X182243741Y-193793328D01*
X182243741Y-193793328D02*
X181958027Y-193793328D01*
X181958027Y-193793328D02*
X181815169Y-193721900D01*
X181815169Y-193721900D02*
X181743741Y-193579042D01*
X181743741Y-193579042D02*
X181743741Y-193007614D01*
X181743741Y-193007614D02*
X181815169Y-192864757D01*
X181815169Y-192864757D02*
X181958027Y-192793328D01*
X181958027Y-192793328D02*
X182243741Y-192793328D01*
X182243741Y-192793328D02*
X182386598Y-192864757D01*
X182386598Y-192864757D02*
X182458027Y-193007614D01*
X182458027Y-193007614D02*
X182458027Y-193150471D01*
X182458027Y-193150471D02*
X181743741Y-193293328D01*
X183100883Y-193650471D02*
X183172312Y-193721900D01*
X183172312Y-193721900D02*
X183100883Y-193793328D01*
X183100883Y-193793328D02*
X183029455Y-193721900D01*
X183029455Y-193721900D02*
X183100883Y-193650471D01*
X183100883Y-193650471D02*
X183100883Y-193793328D01*
X183100883Y-192864757D02*
X183172312Y-192936185D01*
X183172312Y-192936185D02*
X183100883Y-193007614D01*
X183100883Y-193007614D02*
X183029455Y-192936185D01*
X183029455Y-192936185D02*
X183100883Y-192864757D01*
X183100883Y-192864757D02*
X183100883Y-193007614D01*
X184886598Y-193364757D02*
X185600884Y-193364757D01*
X184743741Y-193793328D02*
X185243741Y-192293328D01*
X185243741Y-192293328D02*
X185743741Y-193793328D01*
X186886598Y-192793328D02*
X186886598Y-193793328D01*
X186529455Y-192221900D02*
X186172312Y-193293328D01*
X186172312Y-193293328D02*
X187100883Y-193293328D01*
X263458026Y-196593328D02*
X263458026Y-195093328D01*
X264815170Y-196593328D02*
X264815170Y-195093328D01*
X264815170Y-196521900D02*
X264672312Y-196593328D01*
X264672312Y-196593328D02*
X264386598Y-196593328D01*
X264386598Y-196593328D02*
X264243741Y-196521900D01*
X264243741Y-196521900D02*
X264172312Y-196450471D01*
X264172312Y-196450471D02*
X264100884Y-196307614D01*
X264100884Y-196307614D02*
X264100884Y-195879042D01*
X264100884Y-195879042D02*
X264172312Y-195736185D01*
X264172312Y-195736185D02*
X264243741Y-195664757D01*
X264243741Y-195664757D02*
X264386598Y-195593328D01*
X264386598Y-195593328D02*
X264672312Y-195593328D01*
X264672312Y-195593328D02*
X264815170Y-195664757D01*
X265529455Y-196450471D02*
X265600884Y-196521900D01*
X265600884Y-196521900D02*
X265529455Y-196593328D01*
X265529455Y-196593328D02*
X265458027Y-196521900D01*
X265458027Y-196521900D02*
X265529455Y-196450471D01*
X265529455Y-196450471D02*
X265529455Y-196593328D01*
X265529455Y-195664757D02*
X265600884Y-195736185D01*
X265600884Y-195736185D02*
X265529455Y-195807614D01*
X265529455Y-195807614D02*
X265458027Y-195736185D01*
X265458027Y-195736185D02*
X265529455Y-195664757D01*
X265529455Y-195664757D02*
X265529455Y-195807614D01*
X268172313Y-196593328D02*
X267315170Y-196593328D01*
X267743741Y-196593328D02*
X267743741Y-195093328D01*
X267743741Y-195093328D02*
X267600884Y-195307614D01*
X267600884Y-195307614D02*
X267458027Y-195450471D01*
X267458027Y-195450471D02*
X267315170Y-195521900D01*
X269886598Y-195021900D02*
X268600884Y-196950471D01*
X271172313Y-196593328D02*
X270315170Y-196593328D01*
X270743741Y-196593328D02*
X270743741Y-195093328D01*
X270743741Y-195093328D02*
X270600884Y-195307614D01*
X270600884Y-195307614D02*
X270458027Y-195450471D01*
X270458027Y-195450471D02*
X270315170Y-195521900D01*
X271743741Y-195236185D02*
X271815169Y-195164757D01*
X271815169Y-195164757D02*
X271958027Y-195093328D01*
X271958027Y-195093328D02*
X272315169Y-195093328D01*
X272315169Y-195093328D02*
X272458027Y-195164757D01*
X272458027Y-195164757D02*
X272529455Y-195236185D01*
X272529455Y-195236185D02*
X272600884Y-195379042D01*
X272600884Y-195379042D02*
X272600884Y-195521900D01*
X272600884Y-195521900D02*
X272529455Y-195736185D01*
X272529455Y-195736185D02*
X271672312Y-196593328D01*
X271672312Y-196593328D02*
X272600884Y-196593328D01*
X177002200Y-187507200D02*
X285002200Y-187507200D01*
D12*
X178693928Y-188211638D02*
X179836785Y-188211638D01*
X179015357Y-190211638D02*
X179265357Y-188211638D01*
X180253452Y-190211638D02*
X180420119Y-188878304D01*
X180503452Y-188211638D02*
X180396309Y-188306876D01*
X180396309Y-188306876D02*
X180479643Y-188402114D01*
X180479643Y-188402114D02*
X180586786Y-188306876D01*
X180586786Y-188306876D02*
X180503452Y-188211638D01*
X180503452Y-188211638D02*
X180479643Y-188402114D01*
X181086786Y-188878304D02*
X181848690Y-188878304D01*
X181455833Y-188211638D02*
X181241548Y-189925923D01*
X181241548Y-189925923D02*
X181312976Y-190116400D01*
X181312976Y-190116400D02*
X181491548Y-190211638D01*
X181491548Y-190211638D02*
X181682024Y-190211638D01*
X182634405Y-190211638D02*
X182455833Y-190116400D01*
X182455833Y-190116400D02*
X182384405Y-189925923D01*
X182384405Y-189925923D02*
X182598690Y-188211638D01*
X184170119Y-190116400D02*
X183967738Y-190211638D01*
X183967738Y-190211638D02*
X183586785Y-190211638D01*
X183586785Y-190211638D02*
X183408214Y-190116400D01*
X183408214Y-190116400D02*
X183336785Y-189925923D01*
X183336785Y-189925923D02*
X183432024Y-189164019D01*
X183432024Y-189164019D02*
X183551071Y-188973542D01*
X183551071Y-188973542D02*
X183753452Y-188878304D01*
X183753452Y-188878304D02*
X184134404Y-188878304D01*
X184134404Y-188878304D02*
X184312976Y-188973542D01*
X184312976Y-188973542D02*
X184384404Y-189164019D01*
X184384404Y-189164019D02*
X184360595Y-189354495D01*
X184360595Y-189354495D02*
X183384404Y-189544971D01*
X185134405Y-190021161D02*
X185217738Y-190116400D01*
X185217738Y-190116400D02*
X185110595Y-190211638D01*
X185110595Y-190211638D02*
X185027262Y-190116400D01*
X185027262Y-190116400D02*
X185134405Y-190021161D01*
X185134405Y-190021161D02*
X185110595Y-190211638D01*
X185265357Y-188973542D02*
X185348690Y-189068780D01*
X185348690Y-189068780D02*
X185241548Y-189164019D01*
X185241548Y-189164019D02*
X185158214Y-189068780D01*
X185158214Y-189068780D02*
X185265357Y-188973542D01*
X185265357Y-188973542D02*
X185241548Y-189164019D01*
D10*
X178958026Y-185607614D02*
X178458026Y-185607614D01*
X178458026Y-186393328D02*
X178458026Y-184893328D01*
X178458026Y-184893328D02*
X179172312Y-184893328D01*
X179743740Y-186393328D02*
X179743740Y-185393328D01*
X179743740Y-184893328D02*
X179672312Y-184964757D01*
X179672312Y-184964757D02*
X179743740Y-185036185D01*
X179743740Y-185036185D02*
X179815169Y-184964757D01*
X179815169Y-184964757D02*
X179743740Y-184893328D01*
X179743740Y-184893328D02*
X179743740Y-185036185D01*
X180672312Y-186393328D02*
X180529455Y-186321900D01*
X180529455Y-186321900D02*
X180458026Y-186179042D01*
X180458026Y-186179042D02*
X180458026Y-184893328D01*
X181815169Y-186321900D02*
X181672312Y-186393328D01*
X181672312Y-186393328D02*
X181386598Y-186393328D01*
X181386598Y-186393328D02*
X181243740Y-186321900D01*
X181243740Y-186321900D02*
X181172312Y-186179042D01*
X181172312Y-186179042D02*
X181172312Y-185607614D01*
X181172312Y-185607614D02*
X181243740Y-185464757D01*
X181243740Y-185464757D02*
X181386598Y-185393328D01*
X181386598Y-185393328D02*
X181672312Y-185393328D01*
X181672312Y-185393328D02*
X181815169Y-185464757D01*
X181815169Y-185464757D02*
X181886598Y-185607614D01*
X181886598Y-185607614D02*
X181886598Y-185750471D01*
X181886598Y-185750471D02*
X181172312Y-185893328D01*
X182529454Y-186250471D02*
X182600883Y-186321900D01*
X182600883Y-186321900D02*
X182529454Y-186393328D01*
X182529454Y-186393328D02*
X182458026Y-186321900D01*
X182458026Y-186321900D02*
X182529454Y-186250471D01*
X182529454Y-186250471D02*
X182529454Y-186393328D01*
X182529454Y-185464757D02*
X182600883Y-185536185D01*
X182600883Y-185536185D02*
X182529454Y-185607614D01*
X182529454Y-185607614D02*
X182458026Y-185536185D01*
X182458026Y-185536185D02*
X182529454Y-185464757D01*
X182529454Y-185464757D02*
X182529454Y-185607614D01*
X184243740Y-186393328D02*
X185029455Y-185393328D01*
X184243740Y-185393328D02*
X185029455Y-186393328D01*
X185815169Y-186393328D02*
X185672312Y-186321900D01*
X185672312Y-186321900D02*
X185600883Y-186179042D01*
X185600883Y-186179042D02*
X185600883Y-184893328D01*
X186243740Y-185393328D02*
X187029455Y-185393328D01*
X187029455Y-185393328D02*
X186243740Y-186393328D01*
X186243740Y-186393328D02*
X187029455Y-186393328D01*
X188243741Y-186393328D02*
X188243741Y-184893328D01*
X188243741Y-186321900D02*
X188100883Y-186393328D01*
X188100883Y-186393328D02*
X187815169Y-186393328D01*
X187815169Y-186393328D02*
X187672312Y-186321900D01*
X187672312Y-186321900D02*
X187600883Y-186250471D01*
X187600883Y-186250471D02*
X187529455Y-186107614D01*
X187529455Y-186107614D02*
X187529455Y-185679042D01*
X187529455Y-185679042D02*
X187600883Y-185536185D01*
X187600883Y-185536185D02*
X187672312Y-185464757D01*
X187672312Y-185464757D02*
X187815169Y-185393328D01*
X187815169Y-185393328D02*
X188100883Y-185393328D01*
X188100883Y-185393328D02*
X188243741Y-185464757D01*
X188600884Y-186536185D02*
X189743741Y-186536185D01*
X189958026Y-186393328D02*
X190743741Y-185393328D01*
X189958026Y-185393328D02*
X190743741Y-186393328D01*
X191886598Y-186321900D02*
X191743741Y-186393328D01*
X191743741Y-186393328D02*
X191458027Y-186393328D01*
X191458027Y-186393328D02*
X191315169Y-186321900D01*
X191315169Y-186321900D02*
X191243741Y-186179042D01*
X191243741Y-186179042D02*
X191243741Y-185607614D01*
X191243741Y-185607614D02*
X191315169Y-185464757D01*
X191315169Y-185464757D02*
X191458027Y-185393328D01*
X191458027Y-185393328D02*
X191743741Y-185393328D01*
X191743741Y-185393328D02*
X191886598Y-185464757D01*
X191886598Y-185464757D02*
X191958027Y-185607614D01*
X191958027Y-185607614D02*
X191958027Y-185750471D01*
X191958027Y-185750471D02*
X191243741Y-185893328D01*
X192600883Y-185393328D02*
X192600883Y-186393328D01*
X192600883Y-185536185D02*
X192672312Y-185464757D01*
X192672312Y-185464757D02*
X192815169Y-185393328D01*
X192815169Y-185393328D02*
X193029455Y-185393328D01*
X193029455Y-185393328D02*
X193172312Y-185464757D01*
X193172312Y-185464757D02*
X193243741Y-185607614D01*
X193243741Y-185607614D02*
X193243741Y-186393328D01*
X194172312Y-186393328D02*
X194029455Y-186321900D01*
X194029455Y-186321900D02*
X193958026Y-186250471D01*
X193958026Y-186250471D02*
X193886598Y-186107614D01*
X193886598Y-186107614D02*
X193886598Y-185679042D01*
X193886598Y-185679042D02*
X193958026Y-185536185D01*
X193958026Y-185536185D02*
X194029455Y-185464757D01*
X194029455Y-185464757D02*
X194172312Y-185393328D01*
X194172312Y-185393328D02*
X194386598Y-185393328D01*
X194386598Y-185393328D02*
X194529455Y-185464757D01*
X194529455Y-185464757D02*
X194600884Y-185536185D01*
X194600884Y-185536185D02*
X194672312Y-185679042D01*
X194672312Y-185679042D02*
X194672312Y-186107614D01*
X194672312Y-186107614D02*
X194600884Y-186250471D01*
X194600884Y-186250471D02*
X194529455Y-186321900D01*
X194529455Y-186321900D02*
X194386598Y-186393328D01*
X194386598Y-186393328D02*
X194172312Y-186393328D01*
X195315169Y-185393328D02*
X195315169Y-186393328D01*
X195315169Y-185536185D02*
X195386598Y-185464757D01*
X195386598Y-185464757D02*
X195529455Y-185393328D01*
X195529455Y-185393328D02*
X195743741Y-185393328D01*
X195743741Y-185393328D02*
X195886598Y-185464757D01*
X195886598Y-185464757D02*
X195958027Y-185607614D01*
X195958027Y-185607614D02*
X195958027Y-186393328D01*
X196672312Y-185393328D02*
X196672312Y-186393328D01*
X196672312Y-185536185D02*
X196743741Y-185464757D01*
X196743741Y-185464757D02*
X196886598Y-185393328D01*
X196886598Y-185393328D02*
X197100884Y-185393328D01*
X197100884Y-185393328D02*
X197243741Y-185464757D01*
X197243741Y-185464757D02*
X197315170Y-185607614D01*
X197315170Y-185607614D02*
X197315170Y-186393328D01*
X197815170Y-185393328D02*
X198386598Y-185393328D01*
X198029455Y-184893328D02*
X198029455Y-186179042D01*
X198029455Y-186179042D02*
X198100884Y-186321900D01*
X198100884Y-186321900D02*
X198243741Y-186393328D01*
X198243741Y-186393328D02*
X198386598Y-186393328D01*
X198529456Y-186536185D02*
X199672313Y-186536185D01*
X200672313Y-186393328D02*
X200672313Y-185607614D01*
X200672313Y-185607614D02*
X200600884Y-185464757D01*
X200600884Y-185464757D02*
X200458027Y-185393328D01*
X200458027Y-185393328D02*
X200172313Y-185393328D01*
X200172313Y-185393328D02*
X200029455Y-185464757D01*
X200672313Y-186321900D02*
X200529455Y-186393328D01*
X200529455Y-186393328D02*
X200172313Y-186393328D01*
X200172313Y-186393328D02*
X200029455Y-186321900D01*
X200029455Y-186321900D02*
X199958027Y-186179042D01*
X199958027Y-186179042D02*
X199958027Y-186036185D01*
X199958027Y-186036185D02*
X200029455Y-185893328D01*
X200029455Y-185893328D02*
X200172313Y-185821900D01*
X200172313Y-185821900D02*
X200529455Y-185821900D01*
X200529455Y-185821900D02*
X200672313Y-185750471D01*
X201386598Y-186393328D02*
X201386598Y-185393328D01*
X201386598Y-185536185D02*
X201458027Y-185464757D01*
X201458027Y-185464757D02*
X201600884Y-185393328D01*
X201600884Y-185393328D02*
X201815170Y-185393328D01*
X201815170Y-185393328D02*
X201958027Y-185464757D01*
X201958027Y-185464757D02*
X202029456Y-185607614D01*
X202029456Y-185607614D02*
X202029456Y-186393328D01*
X202029456Y-185607614D02*
X202100884Y-185464757D01*
X202100884Y-185464757D02*
X202243741Y-185393328D01*
X202243741Y-185393328D02*
X202458027Y-185393328D01*
X202458027Y-185393328D02*
X202600884Y-185464757D01*
X202600884Y-185464757D02*
X202672313Y-185607614D01*
X202672313Y-185607614D02*
X202672313Y-186393328D01*
X203386598Y-185393328D02*
X203386598Y-186893328D01*
X203386598Y-185464757D02*
X203529456Y-185393328D01*
X203529456Y-185393328D02*
X203815170Y-185393328D01*
X203815170Y-185393328D02*
X203958027Y-185464757D01*
X203958027Y-185464757D02*
X204029456Y-185536185D01*
X204029456Y-185536185D02*
X204100884Y-185679042D01*
X204100884Y-185679042D02*
X204100884Y-186107614D01*
X204100884Y-186107614D02*
X204029456Y-186250471D01*
X204029456Y-186250471D02*
X203958027Y-186321900D01*
X203958027Y-186321900D02*
X203815170Y-186393328D01*
X203815170Y-186393328D02*
X203529456Y-186393328D01*
X203529456Y-186393328D02*
X203386598Y-186321900D01*
X204958027Y-186393328D02*
X204815170Y-186321900D01*
X204815170Y-186321900D02*
X204743741Y-186179042D01*
X204743741Y-186179042D02*
X204743741Y-184893328D01*
X205529455Y-186393328D02*
X205529455Y-185393328D01*
X205529455Y-184893328D02*
X205458027Y-184964757D01*
X205458027Y-184964757D02*
X205529455Y-185036185D01*
X205529455Y-185036185D02*
X205600884Y-184964757D01*
X205600884Y-184964757D02*
X205529455Y-184893328D01*
X205529455Y-184893328D02*
X205529455Y-185036185D01*
X206029456Y-185393328D02*
X206600884Y-185393328D01*
X206243741Y-186393328D02*
X206243741Y-185107614D01*
X206243741Y-185107614D02*
X206315170Y-184964757D01*
X206315170Y-184964757D02*
X206458027Y-184893328D01*
X206458027Y-184893328D02*
X206600884Y-184893328D01*
X207100884Y-186393328D02*
X207100884Y-185393328D01*
X207100884Y-184893328D02*
X207029456Y-184964757D01*
X207029456Y-184964757D02*
X207100884Y-185036185D01*
X207100884Y-185036185D02*
X207172313Y-184964757D01*
X207172313Y-184964757D02*
X207100884Y-184893328D01*
X207100884Y-184893328D02*
X207100884Y-185036185D01*
X208386599Y-186321900D02*
X208243742Y-186393328D01*
X208243742Y-186393328D02*
X207958028Y-186393328D01*
X207958028Y-186393328D02*
X207815170Y-186321900D01*
X207815170Y-186321900D02*
X207743742Y-186179042D01*
X207743742Y-186179042D02*
X207743742Y-185607614D01*
X207743742Y-185607614D02*
X207815170Y-185464757D01*
X207815170Y-185464757D02*
X207958028Y-185393328D01*
X207958028Y-185393328D02*
X208243742Y-185393328D01*
X208243742Y-185393328D02*
X208386599Y-185464757D01*
X208386599Y-185464757D02*
X208458028Y-185607614D01*
X208458028Y-185607614D02*
X208458028Y-185750471D01*
X208458028Y-185750471D02*
X207743742Y-185893328D01*
X209100884Y-186393328D02*
X209100884Y-185393328D01*
X209100884Y-185679042D02*
X209172313Y-185536185D01*
X209172313Y-185536185D02*
X209243742Y-185464757D01*
X209243742Y-185464757D02*
X209386599Y-185393328D01*
X209386599Y-185393328D02*
X209529456Y-185393328D01*
X209672313Y-186536185D02*
X210815170Y-186536185D01*
X210958027Y-185393328D02*
X211529455Y-185393328D01*
X211172312Y-184893328D02*
X211172312Y-186179042D01*
X211172312Y-186179042D02*
X211243741Y-186321900D01*
X211243741Y-186321900D02*
X211386598Y-186393328D01*
X211386598Y-186393328D02*
X211529455Y-186393328D01*
X212600884Y-186321900D02*
X212458027Y-186393328D01*
X212458027Y-186393328D02*
X212172313Y-186393328D01*
X212172313Y-186393328D02*
X212029455Y-186321900D01*
X212029455Y-186321900D02*
X211958027Y-186179042D01*
X211958027Y-186179042D02*
X211958027Y-185607614D01*
X211958027Y-185607614D02*
X212029455Y-185464757D01*
X212029455Y-185464757D02*
X212172313Y-185393328D01*
X212172313Y-185393328D02*
X212458027Y-185393328D01*
X212458027Y-185393328D02*
X212600884Y-185464757D01*
X212600884Y-185464757D02*
X212672313Y-185607614D01*
X212672313Y-185607614D02*
X212672313Y-185750471D01*
X212672313Y-185750471D02*
X211958027Y-185893328D01*
X213243741Y-186321900D02*
X213386598Y-186393328D01*
X213386598Y-186393328D02*
X213672312Y-186393328D01*
X213672312Y-186393328D02*
X213815169Y-186321900D01*
X213815169Y-186321900D02*
X213886598Y-186179042D01*
X213886598Y-186179042D02*
X213886598Y-186107614D01*
X213886598Y-186107614D02*
X213815169Y-185964757D01*
X213815169Y-185964757D02*
X213672312Y-185893328D01*
X213672312Y-185893328D02*
X213458027Y-185893328D01*
X213458027Y-185893328D02*
X213315169Y-185821900D01*
X213315169Y-185821900D02*
X213243741Y-185679042D01*
X213243741Y-185679042D02*
X213243741Y-185607614D01*
X213243741Y-185607614D02*
X213315169Y-185464757D01*
X213315169Y-185464757D02*
X213458027Y-185393328D01*
X213458027Y-185393328D02*
X213672312Y-185393328D01*
X213672312Y-185393328D02*
X213815169Y-185464757D01*
X214315170Y-185393328D02*
X214886598Y-185393328D01*
X214529455Y-184893328D02*
X214529455Y-186179042D01*
X214529455Y-186179042D02*
X214600884Y-186321900D01*
X214600884Y-186321900D02*
X214743741Y-186393328D01*
X214743741Y-186393328D02*
X214886598Y-186393328D01*
X215386598Y-186250471D02*
X215458027Y-186321900D01*
X215458027Y-186321900D02*
X215386598Y-186393328D01*
X215386598Y-186393328D02*
X215315170Y-186321900D01*
X215315170Y-186321900D02*
X215386598Y-186250471D01*
X215386598Y-186250471D02*
X215386598Y-186393328D01*
X216100884Y-186393328D02*
X216100884Y-184893328D01*
X216243742Y-185821900D02*
X216672313Y-186393328D01*
X216672313Y-185393328D02*
X216100884Y-185964757D01*
X217315170Y-186393328D02*
X217315170Y-185393328D01*
X217315170Y-184893328D02*
X217243742Y-184964757D01*
X217243742Y-184964757D02*
X217315170Y-185036185D01*
X217315170Y-185036185D02*
X217386599Y-184964757D01*
X217386599Y-184964757D02*
X217315170Y-184893328D01*
X217315170Y-184893328D02*
X217315170Y-185036185D01*
X218672314Y-186321900D02*
X218529456Y-186393328D01*
X218529456Y-186393328D02*
X218243742Y-186393328D01*
X218243742Y-186393328D02*
X218100885Y-186321900D01*
X218100885Y-186321900D02*
X218029456Y-186250471D01*
X218029456Y-186250471D02*
X217958028Y-186107614D01*
X217958028Y-186107614D02*
X217958028Y-185679042D01*
X217958028Y-185679042D02*
X218029456Y-185536185D01*
X218029456Y-185536185D02*
X218100885Y-185464757D01*
X218100885Y-185464757D02*
X218243742Y-185393328D01*
X218243742Y-185393328D02*
X218529456Y-185393328D01*
X218529456Y-185393328D02*
X218672314Y-185464757D01*
X219958028Y-186393328D02*
X219958028Y-185607614D01*
X219958028Y-185607614D02*
X219886599Y-185464757D01*
X219886599Y-185464757D02*
X219743742Y-185393328D01*
X219743742Y-185393328D02*
X219458028Y-185393328D01*
X219458028Y-185393328D02*
X219315170Y-185464757D01*
X219958028Y-186321900D02*
X219815170Y-186393328D01*
X219815170Y-186393328D02*
X219458028Y-186393328D01*
X219458028Y-186393328D02*
X219315170Y-186321900D01*
X219315170Y-186321900D02*
X219243742Y-186179042D01*
X219243742Y-186179042D02*
X219243742Y-186036185D01*
X219243742Y-186036185D02*
X219315170Y-185893328D01*
X219315170Y-185893328D02*
X219458028Y-185821900D01*
X219458028Y-185821900D02*
X219815170Y-185821900D01*
X219815170Y-185821900D02*
X219958028Y-185750471D01*
X221315171Y-186393328D02*
X221315171Y-184893328D01*
X221315171Y-186321900D02*
X221172313Y-186393328D01*
X221172313Y-186393328D02*
X220886599Y-186393328D01*
X220886599Y-186393328D02*
X220743742Y-186321900D01*
X220743742Y-186321900D02*
X220672313Y-186250471D01*
X220672313Y-186250471D02*
X220600885Y-186107614D01*
X220600885Y-186107614D02*
X220600885Y-185679042D01*
X220600885Y-185679042D02*
X220672313Y-185536185D01*
X220672313Y-185536185D02*
X220743742Y-185464757D01*
X220743742Y-185464757D02*
X220886599Y-185393328D01*
X220886599Y-185393328D02*
X221172313Y-185393328D01*
X221172313Y-185393328D02*
X221315171Y-185464757D01*
X221672314Y-186536185D02*
X222815171Y-186536185D01*
X223172313Y-185393328D02*
X223172313Y-186893328D01*
X223172313Y-185464757D02*
X223315171Y-185393328D01*
X223315171Y-185393328D02*
X223600885Y-185393328D01*
X223600885Y-185393328D02*
X223743742Y-185464757D01*
X223743742Y-185464757D02*
X223815171Y-185536185D01*
X223815171Y-185536185D02*
X223886599Y-185679042D01*
X223886599Y-185679042D02*
X223886599Y-186107614D01*
X223886599Y-186107614D02*
X223815171Y-186250471D01*
X223815171Y-186250471D02*
X223743742Y-186321900D01*
X223743742Y-186321900D02*
X223600885Y-186393328D01*
X223600885Y-186393328D02*
X223315171Y-186393328D01*
X223315171Y-186393328D02*
X223172313Y-186321900D01*
X225172314Y-186321900D02*
X225029456Y-186393328D01*
X225029456Y-186393328D02*
X224743742Y-186393328D01*
X224743742Y-186393328D02*
X224600885Y-186321900D01*
X224600885Y-186321900D02*
X224529456Y-186250471D01*
X224529456Y-186250471D02*
X224458028Y-186107614D01*
X224458028Y-186107614D02*
X224458028Y-185679042D01*
X224458028Y-185679042D02*
X224529456Y-185536185D01*
X224529456Y-185536185D02*
X224600885Y-185464757D01*
X224600885Y-185464757D02*
X224743742Y-185393328D01*
X224743742Y-185393328D02*
X225029456Y-185393328D01*
X225029456Y-185393328D02*
X225172314Y-185464757D01*
X225815170Y-186393328D02*
X225815170Y-184893328D01*
X225815170Y-185464757D02*
X225958028Y-185393328D01*
X225958028Y-185393328D02*
X226243742Y-185393328D01*
X226243742Y-185393328D02*
X226386599Y-185464757D01*
X226386599Y-185464757D02*
X226458028Y-185536185D01*
X226458028Y-185536185D02*
X226529456Y-185679042D01*
X226529456Y-185679042D02*
X226529456Y-186107614D01*
X226529456Y-186107614D02*
X226458028Y-186250471D01*
X226458028Y-186250471D02*
X226386599Y-186321900D01*
X226386599Y-186321900D02*
X226243742Y-186393328D01*
X226243742Y-186393328D02*
X225958028Y-186393328D01*
X225958028Y-186393328D02*
X225815170Y-186321900D01*
X177002200Y-181507200D02*
X285002200Y-181507200D01*
X178386598Y-183621900D02*
X178600884Y-183693328D01*
X178600884Y-183693328D02*
X178958026Y-183693328D01*
X178958026Y-183693328D02*
X179100884Y-183621900D01*
X179100884Y-183621900D02*
X179172312Y-183550471D01*
X179172312Y-183550471D02*
X179243741Y-183407614D01*
X179243741Y-183407614D02*
X179243741Y-183264757D01*
X179243741Y-183264757D02*
X179172312Y-183121900D01*
X179172312Y-183121900D02*
X179100884Y-183050471D01*
X179100884Y-183050471D02*
X178958026Y-182979042D01*
X178958026Y-182979042D02*
X178672312Y-182907614D01*
X178672312Y-182907614D02*
X178529455Y-182836185D01*
X178529455Y-182836185D02*
X178458026Y-182764757D01*
X178458026Y-182764757D02*
X178386598Y-182621900D01*
X178386598Y-182621900D02*
X178386598Y-182479042D01*
X178386598Y-182479042D02*
X178458026Y-182336185D01*
X178458026Y-182336185D02*
X178529455Y-182264757D01*
X178529455Y-182264757D02*
X178672312Y-182193328D01*
X178672312Y-182193328D02*
X179029455Y-182193328D01*
X179029455Y-182193328D02*
X179243741Y-182264757D01*
X179886597Y-183693328D02*
X179886597Y-182193328D01*
X180529455Y-183693328D02*
X180529455Y-182907614D01*
X180529455Y-182907614D02*
X180458026Y-182764757D01*
X180458026Y-182764757D02*
X180315169Y-182693328D01*
X180315169Y-182693328D02*
X180100883Y-182693328D01*
X180100883Y-182693328D02*
X179958026Y-182764757D01*
X179958026Y-182764757D02*
X179886597Y-182836185D01*
X181815169Y-183621900D02*
X181672312Y-183693328D01*
X181672312Y-183693328D02*
X181386598Y-183693328D01*
X181386598Y-183693328D02*
X181243740Y-183621900D01*
X181243740Y-183621900D02*
X181172312Y-183479042D01*
X181172312Y-183479042D02*
X181172312Y-182907614D01*
X181172312Y-182907614D02*
X181243740Y-182764757D01*
X181243740Y-182764757D02*
X181386598Y-182693328D01*
X181386598Y-182693328D02*
X181672312Y-182693328D01*
X181672312Y-182693328D02*
X181815169Y-182764757D01*
X181815169Y-182764757D02*
X181886598Y-182907614D01*
X181886598Y-182907614D02*
X181886598Y-183050471D01*
X181886598Y-183050471D02*
X181172312Y-183193328D01*
X183100883Y-183621900D02*
X182958026Y-183693328D01*
X182958026Y-183693328D02*
X182672312Y-183693328D01*
X182672312Y-183693328D02*
X182529454Y-183621900D01*
X182529454Y-183621900D02*
X182458026Y-183479042D01*
X182458026Y-183479042D02*
X182458026Y-182907614D01*
X182458026Y-182907614D02*
X182529454Y-182764757D01*
X182529454Y-182764757D02*
X182672312Y-182693328D01*
X182672312Y-182693328D02*
X182958026Y-182693328D01*
X182958026Y-182693328D02*
X183100883Y-182764757D01*
X183100883Y-182764757D02*
X183172312Y-182907614D01*
X183172312Y-182907614D02*
X183172312Y-183050471D01*
X183172312Y-183050471D02*
X182458026Y-183193328D01*
X183600883Y-182693328D02*
X184172311Y-182693328D01*
X183815168Y-182193328D02*
X183815168Y-183479042D01*
X183815168Y-183479042D02*
X183886597Y-183621900D01*
X183886597Y-183621900D02*
X184029454Y-183693328D01*
X184029454Y-183693328D02*
X184172311Y-183693328D01*
X184672311Y-183550471D02*
X184743740Y-183621900D01*
X184743740Y-183621900D02*
X184672311Y-183693328D01*
X184672311Y-183693328D02*
X184600883Y-183621900D01*
X184600883Y-183621900D02*
X184672311Y-183550471D01*
X184672311Y-183550471D02*
X184672311Y-183693328D01*
X184672311Y-182764757D02*
X184743740Y-182836185D01*
X184743740Y-182836185D02*
X184672311Y-182907614D01*
X184672311Y-182907614D02*
X184600883Y-182836185D01*
X184600883Y-182836185D02*
X184672311Y-182764757D01*
X184672311Y-182764757D02*
X184672311Y-182907614D01*
X197002200Y-191507200D02*
X197002200Y-194507200D01*
X261002200Y-191507200D02*
X261002200Y-198007200D01*
D13*
%TO.P,J1,1,In_1*%
%TO.N,/vin*%
X75937500Y-70750000D03*
%TO.P,J1,2,Ext_2*%
%TO.N,GND*%
X75937500Y-66500000D03*
X75937500Y-75000000D03*
%TD*%
D14*
%TO.P,R6,1*%
%TO.N,/vin*%
X61800000Y-100840000D03*
%TO.P,R6,2*%
%TO.N,Net-(U3-+)*%
X61800000Y-99015000D03*
%TD*%
D15*
%TO.P,C8,1*%
%TO.N,VEE*%
X59870000Y-97220000D03*
%TO.P,C8,2*%
%TO.N,GND*%
X58144998Y-97220000D03*
%TD*%
D16*
%TO.P,R5,1*%
%TO.N,/vin*%
X65087500Y-100750000D03*
%TO.P,R5,2*%
%TO.N,GND*%
X66912500Y-100750000D03*
%TD*%
%TO.P,R7,1*%
%TO.N,Net-(U3--)*%
X65120000Y-99190000D03*
%TO.P,R7,2*%
%TO.N,GND*%
X66945000Y-99190000D03*
%TD*%
D17*
%TO.P,U1,1*%
%TO.N,Net-(R3-Pad2)*%
X63410000Y-106100000D03*
%TO.P,U1,2,V-_2*%
%TO.N,VEE*%
X63410000Y-105150001D03*
%TO.P,U1,3,+_3*%
%TO.N,Net-(U1-+)*%
X63410000Y-104200002D03*
%TO.P,U1,4,-_4*%
%TO.N,Net-(U1--)*%
X61135000Y-104200002D03*
%TO.P,U1,5,~{DIS}_5*%
%TO.N,unconnected-(U1-~{DIS}-Pad5)*%
X61135000Y-105150001D03*
%TO.P,U1,6,V+_6*%
%TO.N,VCC*%
X61135000Y-106100000D03*
%TD*%
D16*
%TO.P,R4,1*%
%TO.N,Net-(R3-Pad2)*%
X65320000Y-106530000D03*
%TO.P,R4,2*%
%TO.N,/vout_high_g*%
X67145000Y-106530000D03*
%TD*%
D18*
%TO.P,C9,1*%
%TO.N,VCC*%
X51000000Y-70000000D03*
%TO.P,C9,2*%
%TO.N,GND*%
X51000000Y-66875000D03*
%TD*%
D19*
%TO.P,U3,1*%
%TO.N,Net-(R8-Pad2)*%
X61900000Y-95600002D03*
%TO.P,U3,2,V-_2*%
%TO.N,VEE*%
X61900000Y-96550001D03*
%TO.P,U3,3,+_3*%
%TO.N,Net-(U3-+)*%
X61900000Y-97500000D03*
%TO.P,U3,4,-_4*%
%TO.N,Net-(U3--)*%
X64175000Y-97500000D03*
%TO.P,U3,5,~{DIS}_5*%
%TO.N,unconnected-(U3-~{DIS}-Pad5)*%
X64175000Y-96550001D03*
%TO.P,U3,6,V+_6*%
%TO.N,VCC*%
X64175000Y-95600002D03*
%TD*%
D20*
%TO.P,C5,1*%
%TO.N,VCC*%
X64675000Y-94000000D03*
%TO.P,C5,2*%
%TO.N,GND*%
X66400000Y-94000000D03*
%TD*%
D21*
%TO.P,C6,1*%
%TO.N,VCC*%
X66040000Y-95500000D03*
%TO.P,C6,2*%
%TO.N,GND*%
X67175000Y-95500000D03*
%TD*%
D22*
%TO.P,R1,1*%
%TO.N,/vin*%
X63412500Y-100837500D03*
%TO.P,R1,2*%
%TO.N,Net-(U1-+)*%
X63412500Y-102662500D03*
%TD*%
D13*
%TO.P,J3,1,In_1*%
%TO.N,/vout_low_g*%
X75937500Y-90000000D03*
%TO.P,J3,2,Ext_2*%
%TO.N,GND*%
X75937500Y-85750000D03*
X75937500Y-94250000D03*
%TD*%
%TO.P,J2,1,In_1*%
%TO.N,/vout_high_g*%
X75937500Y-110000000D03*
%TO.P,J2,2,Ext_2*%
%TO.N,GND*%
X75937500Y-105750000D03*
X75937500Y-114250000D03*
%TD*%
D21*
%TO.P,C3,1*%
%TO.N,VEE*%
X65110000Y-105150000D03*
%TO.P,C3,2*%
%TO.N,GND*%
X66245000Y-105150000D03*
%TD*%
D14*
%TO.P,R9,1*%
%TO.N,Net-(R8-Pad2)*%
X61890000Y-93740000D03*
%TO.P,R9,2*%
%TO.N,/vout_low_g*%
X61890000Y-91915000D03*
%TD*%
D20*
%TO.P,C4,1*%
%TO.N,VEE*%
X65320000Y-103630000D03*
%TO.P,C4,2*%
%TO.N,GND*%
X67045000Y-103630000D03*
%TD*%
D23*
%TO.P,R2,1*%
%TO.N,Net-(U1--)*%
X59860000Y-102760000D03*
%TO.P,R2,2*%
%TO.N,GND*%
X58035000Y-102760000D03*
%TD*%
D24*
%TO.P,C7,1*%
%TO.N,VEE*%
X60050000Y-95850000D03*
%TO.P,C7,2*%
%TO.N,GND*%
X58915000Y-95850000D03*
%TD*%
%TO.P,C1,1*%
%TO.N,VCC*%
X59500000Y-105700000D03*
%TO.P,C1,2*%
%TO.N,GND*%
X58365000Y-105700000D03*
%TD*%
D15*
%TO.P,C2,1*%
%TO.N,VCC*%
X61022501Y-107740000D03*
%TO.P,C2,2*%
%TO.N,GND*%
X59297499Y-107740000D03*
%TD*%
D18*
%TO.P,C10,1*%
%TO.N,GND*%
X51000000Y-85000000D03*
%TO.P,C10,2*%
%TO.N,VEE*%
X51000000Y-81875000D03*
%TD*%
D25*
%TO.P,J4,1,Pin_1_1*%
%TO.N,VCC*%
X51000000Y-73295001D03*
D26*
%TO.P,J4,2,Pin_2_2*%
%TO.N,GND*%
X51000000Y-75835001D03*
%TO.P,J4,3,Pin_3_3*%
%TO.N,VEE*%
X51000000Y-78375000D03*
%TD*%
D27*
%TO.N,GND*%
X68050000Y-95510000D03*
X51000000Y-65390000D03*
X72900000Y-105800000D03*
X58000000Y-103940000D03*
X72600000Y-85800000D03*
X72200000Y-75000000D03*
X58150000Y-98230000D03*
X67930000Y-100680000D03*
X51030000Y-86340000D03*
X73100000Y-114300000D03*
X58920000Y-94940000D03*
X72500000Y-66500000D03*
X67530000Y-94020000D03*
X67950000Y-99180000D03*
X58220000Y-107700000D03*
X67100000Y-105130000D03*
X68140000Y-103650000D03*
X72600000Y-94300000D03*
X57500000Y-105700000D03*
%TO.N,VEE*%
X60750001Y-96550001D03*
X65360000Y-102650000D03*
X64340000Y-105150000D03*
X60050000Y-95010000D03*
X59860000Y-98260000D03*
%TO.N,Net-(U3--)*%
X64160000Y-98270000D03*
%TO.N,Net-(R3-Pad2)*%
X63410000Y-106910000D03*
%TO.N,Net-(U1--)*%
X61020000Y-103280000D03*
%TO.N,VCC*%
X61135000Y-106880000D03*
X59500000Y-104840000D03*
X64175000Y-94880000D03*
X65220000Y-95600002D03*
%TO.N,Net-(R8-Pad2)*%
X61870000Y-94730000D03*
%TD*%
%TO.N,/vout_high_g*%
D28*
X70800000Y-110000000D02*
X76000000Y-110000000D01*
%TO.N,/vin*%
X58740000Y-100820000D02*
X58760000Y-100840000D01*
D29*
X65087500Y-100750000D02*
X63500000Y-100750000D01*
X61800000Y-100840000D02*
X63410000Y-100840000D01*
D28*
X73690000Y-70750000D02*
X54200000Y-90240000D01*
X57300000Y-100820000D02*
X58740000Y-100820000D01*
X58760000Y-100840000D02*
X61800000Y-100840000D01*
X54200000Y-97720000D02*
X57300000Y-100820000D01*
X54200000Y-90240000D02*
X54200000Y-97720000D01*
D29*
X63410000Y-100840000D02*
X63412500Y-100837500D01*
X63500000Y-100750000D02*
X63412500Y-100837500D01*
D28*
X76000000Y-70750000D02*
X73690000Y-70750000D01*
%TO.N,GND*%
D30*
X58144998Y-97220000D02*
X58144998Y-98224998D01*
X67175000Y-95500000D02*
X68040000Y-95500000D01*
X68040000Y-95500000D02*
X68050000Y-95510000D01*
X67860000Y-100750000D02*
X67930000Y-100680000D01*
X76000000Y-75000000D02*
X72200000Y-75000000D01*
X66945000Y-99190000D02*
X67940000Y-99190000D01*
X51000000Y-86310000D02*
X51030000Y-86340000D01*
X68120000Y-103630000D02*
X68140000Y-103650000D01*
X66912500Y-100750000D02*
X67860000Y-100750000D01*
X76000000Y-85750000D02*
X72650000Y-85750000D01*
X76000000Y-94250000D02*
X72650000Y-94250000D01*
X58035000Y-102760000D02*
X58035000Y-103905000D01*
X58260000Y-107740000D02*
X58220000Y-107700000D01*
X58035000Y-103905000D02*
X58000000Y-103940000D01*
X67510000Y-94000000D02*
X67530000Y-94020000D01*
X58915000Y-95850000D02*
X58915000Y-94945000D01*
X58144998Y-98224998D02*
X58150000Y-98230000D01*
X73350000Y-114250000D02*
X73300000Y-114300000D01*
X67045000Y-103630000D02*
X68120000Y-103630000D01*
X72650000Y-85750000D02*
X72600000Y-85800000D01*
X66245000Y-105150000D02*
X67080000Y-105150000D01*
X76637500Y-105750000D02*
X73150000Y-105750000D01*
X51000000Y-66875000D02*
X51000000Y-65390000D01*
X76000000Y-66500000D02*
X72500000Y-66500000D01*
X51000000Y-85000000D02*
X51000000Y-86310000D01*
X58365000Y-105700000D02*
X57500000Y-105700000D01*
X66400000Y-94000000D02*
X67510000Y-94000000D01*
X67940000Y-99190000D02*
X67950000Y-99180000D01*
X76637500Y-114250000D02*
X73350000Y-114250000D01*
X72650000Y-94250000D02*
X72600000Y-94300000D01*
X59297499Y-107740000D02*
X58260000Y-107740000D01*
X58915000Y-94945000D02*
X58920000Y-94940000D01*
X67080000Y-105150000D02*
X67100000Y-105130000D01*
X73150000Y-105750000D02*
X73100000Y-105800000D01*
%TO.N,Net-(U3-+)*%
D29*
X61800000Y-97600000D02*
X61900000Y-97500000D01*
X61800000Y-99015000D02*
X61800000Y-97600000D01*
%TO.N,VEE*%
D30*
X59870000Y-97220000D02*
X59870000Y-98250000D01*
X65320000Y-102690000D02*
X65360000Y-102650000D01*
X61900000Y-96550001D02*
X60750001Y-96550001D01*
X63410000Y-105150001D02*
X64340000Y-105150000D01*
X51000000Y-78375000D02*
X51000000Y-81875000D01*
X60050000Y-95850000D02*
X60050000Y-95010000D01*
X64072499Y-105150001D02*
X65320000Y-103902500D01*
X65320000Y-103902500D02*
X65320000Y-103630000D01*
X61900000Y-96550001D02*
X60539999Y-96550001D01*
X64340000Y-105150000D02*
X65110000Y-105150000D01*
X63410000Y-105150001D02*
X64072499Y-105150001D01*
X60750001Y-96550001D02*
X60050000Y-95850000D01*
X59870000Y-98250000D02*
X59860000Y-98260000D01*
X60539999Y-96550001D02*
X59870000Y-97220000D01*
X65320000Y-103630000D02*
X65320000Y-102690000D01*
%TO.N,Net-(U3--)*%
D29*
X65120000Y-99190000D02*
X65080000Y-99190000D01*
X65080000Y-99190000D02*
X64160000Y-98270000D01*
X64175000Y-98255000D02*
X64160000Y-98270000D01*
X64175000Y-97500000D02*
X64175000Y-98255000D01*
%TO.N,Net-(R3-Pad2)*%
X63410000Y-106100000D02*
X63410000Y-106910000D01*
X65320000Y-106530000D02*
X64790000Y-106530000D01*
X64790000Y-106530000D02*
X64360000Y-106100000D01*
X64360000Y-106100000D02*
X63410000Y-106100000D01*
X65710000Y-106490000D02*
X65040000Y-106490000D01*
%TO.N,Net-(U1-+)*%
X63410000Y-104200002D02*
X63410000Y-102665000D01*
X63410000Y-102665000D02*
X63412500Y-102662500D01*
%TO.N,Net-(U1--)*%
X61020000Y-103280000D02*
X60380000Y-103280000D01*
X60380000Y-103280000D02*
X59860000Y-102760000D01*
X61135000Y-104200002D02*
X61135000Y-103395000D01*
X61135000Y-103395000D02*
X61020000Y-103280000D01*
%TO.N,VCC*%
D30*
X59900000Y-106100000D02*
X59500000Y-105700000D01*
X64175000Y-95600002D02*
X65939998Y-95600002D01*
X64175000Y-95600002D02*
X64420000Y-95600002D01*
X61135000Y-106100000D02*
X61135000Y-107627501D01*
X51000000Y-73295001D02*
X51000000Y-70000000D01*
X65939998Y-95600002D02*
X66040000Y-95500000D01*
X64175000Y-94500000D02*
X64675000Y-94000000D01*
X61135000Y-107627501D02*
X61022501Y-107740000D01*
X61135000Y-106100000D02*
X59900000Y-106100000D01*
X64175000Y-95600002D02*
X64175000Y-94500000D01*
X59500000Y-105700000D02*
X59500000Y-104840000D01*
%TO.N,/vout_high_g*%
D28*
X67145000Y-106530000D02*
X67330000Y-106530000D01*
X67330000Y-106530000D02*
X70800000Y-110000000D01*
%TO.N,Net-(R8-Pad2)*%
D29*
X61890000Y-93740000D02*
X61890000Y-94710000D01*
X61900000Y-94760000D02*
X61870000Y-94730000D01*
X61900000Y-95600002D02*
X61900000Y-94760000D01*
X61890000Y-94710000D02*
X61870000Y-94730000D01*
%TO.N,/vout_low_g*%
D28*
X63805000Y-90000000D02*
X76000000Y-90000000D01*
X61890000Y-91915000D02*
X63805000Y-90000000D01*
%TD*%
%TA.AperFunction,Conductor*%
%TO.N,GND*%
G36*
X78442539Y-62520185D02*
G01*
X78488294Y-62572989D01*
X78499500Y-62624500D01*
X78499500Y-65126000D01*
X78479815Y-65193039D01*
X78427011Y-65238794D01*
X78375500Y-65250000D01*
X76187500Y-65250000D01*
X76187500Y-67750000D01*
X78375500Y-67750000D01*
X78442539Y-67769685D01*
X78488294Y-67822489D01*
X78499500Y-67874000D01*
X78499500Y-69375500D01*
X78479815Y-69442539D01*
X78427011Y-69488294D01*
X78375500Y-69499500D01*
X73349629Y-69499500D01*
X73349623Y-69499501D01*
X73290016Y-69505908D01*
X73155171Y-69556202D01*
X73155164Y-69556206D01*
X73039955Y-69642452D01*
X73039952Y-69642455D01*
X72953706Y-69757664D01*
X72953702Y-69757671D01*
X72903408Y-69892517D01*
X72897001Y-69952116D01*
X72897000Y-69952135D01*
X72897000Y-70532800D01*
X72877315Y-70599839D01*
X72860680Y-70620481D01*
X53767800Y-89713363D01*
X53720580Y-89760582D01*
X53673361Y-89807801D01*
X53599167Y-89918839D01*
X53599160Y-89918852D01*
X53548055Y-90042233D01*
X53548052Y-90042242D01*
X53522000Y-90173218D01*
X53522000Y-97786781D01*
X53548052Y-97917757D01*
X53548055Y-97917766D01*
X53599160Y-98041147D01*
X53599167Y-98041160D01*
X53673362Y-98152199D01*
X53673365Y-98152203D01*
X56867796Y-101346634D01*
X56867800Y-101346637D01*
X56978839Y-101420832D01*
X56978852Y-101420839D01*
X57044508Y-101448034D01*
X57102235Y-101471945D01*
X57102237Y-101471945D01*
X57102242Y-101471947D01*
X57233218Y-101497999D01*
X57233222Y-101498000D01*
X57233223Y-101498000D01*
X57366777Y-101498000D01*
X58580465Y-101498000D01*
X58604655Y-101500382D01*
X58693221Y-101517999D01*
X58693222Y-101518000D01*
X58693223Y-101518000D01*
X60895448Y-101518000D01*
X60962487Y-101537685D01*
X60983129Y-101554319D01*
X61101650Y-101672840D01*
X61248484Y-101763408D01*
X61412247Y-101817674D01*
X61513323Y-101828000D01*
X62086676Y-101827999D01*
X62086684Y-101827998D01*
X62086687Y-101827998D01*
X62142030Y-101822344D01*
X62187753Y-101817674D01*
X62351516Y-101763408D01*
X62498350Y-101672840D01*
X62519819Y-101651371D01*
X62527764Y-101647032D01*
X62533190Y-101639785D01*
X62557949Y-101630550D01*
X62581142Y-101617886D01*
X62590171Y-101618531D01*
X62598654Y-101615368D01*
X62624474Y-101620984D01*
X62650834Y-101622870D01*
X62659887Y-101628688D01*
X62666927Y-101630220D01*
X62695181Y-101651371D01*
X62706129Y-101662319D01*
X62739614Y-101723642D01*
X62734630Y-101793334D01*
X62706129Y-101837681D01*
X62592161Y-101951648D01*
X62501593Y-102098481D01*
X62501592Y-102098484D01*
X62447326Y-102262247D01*
X62447326Y-102262248D01*
X62447325Y-102262248D01*
X62437000Y-102363315D01*
X62437000Y-102961669D01*
X62437001Y-102961687D01*
X62447325Y-103062752D01*
X62475459Y-103147652D01*
X62489925Y-103191309D01*
X62501592Y-103226515D01*
X62501595Y-103226522D01*
X62571706Y-103340190D01*
X62590146Y-103407582D01*
X62569223Y-103474246D01*
X62529289Y-103512018D01*
X62495635Y-103531921D01*
X62495629Y-103531925D01*
X62379423Y-103648131D01*
X62379414Y-103648142D01*
X62379229Y-103648457D01*
X62379019Y-103648652D01*
X62374639Y-103654300D01*
X62373727Y-103653593D01*
X62328157Y-103696138D01*
X62259415Y-103708639D01*
X62194827Y-103681990D01*
X62170643Y-103654080D01*
X62170361Y-103654300D01*
X62166323Y-103649094D01*
X62165771Y-103648457D01*
X62165585Y-103648142D01*
X62165576Y-103648131D01*
X62049370Y-103531925D01*
X62049364Y-103531920D01*
X62027412Y-103518938D01*
X61980428Y-103491152D01*
X61932746Y-103440085D01*
X61920617Y-103374783D01*
X61920500Y-103374783D01*
X61920500Y-103374152D01*
X61920148Y-103372257D01*
X61920498Y-103368696D01*
X61920500Y-103368691D01*
X61920500Y-103191309D01*
X61920500Y-103191306D01*
X61920499Y-103191304D01*
X61885896Y-103017341D01*
X61885893Y-103017332D01*
X61818016Y-102853459D01*
X61818009Y-102853446D01*
X61719464Y-102705965D01*
X61719461Y-102705961D01*
X61594038Y-102580538D01*
X61594034Y-102580535D01*
X61446553Y-102481990D01*
X61446540Y-102481983D01*
X61282667Y-102414106D01*
X61282658Y-102414103D01*
X61108694Y-102379500D01*
X61108691Y-102379500D01*
X60931309Y-102379500D01*
X60929618Y-102379500D01*
X60862579Y-102359815D01*
X60816824Y-102307011D01*
X60811912Y-102294504D01*
X60801546Y-102263222D01*
X60783408Y-102208484D01*
X60692840Y-102061650D01*
X60570850Y-101939660D01*
X60463589Y-101873501D01*
X60424018Y-101849093D01*
X60424013Y-101849091D01*
X60389580Y-101837681D01*
X60260253Y-101794826D01*
X60260251Y-101794825D01*
X60159178Y-101784500D01*
X59560830Y-101784500D01*
X59560812Y-101784501D01*
X59459747Y-101794825D01*
X59295984Y-101849092D01*
X59295981Y-101849093D01*
X59149151Y-101939659D01*
X59034827Y-102053983D01*
X58973504Y-102087467D01*
X58903812Y-102082483D01*
X58859465Y-102053982D01*
X58745538Y-101940055D01*
X58745534Y-101940052D01*
X58598811Y-101849551D01*
X58598800Y-101849546D01*
X58435152Y-101795319D01*
X58334154Y-101785000D01*
X58285000Y-101785000D01*
X58285000Y-103734999D01*
X58334140Y-103734999D01*
X58334154Y-103734998D01*
X58435152Y-103724680D01*
X58598800Y-103670453D01*
X58598811Y-103670448D01*
X58745533Y-103579948D01*
X58859464Y-103466017D01*
X58920787Y-103432532D01*
X58990479Y-103437516D01*
X59034827Y-103466017D01*
X59149150Y-103580340D01*
X59295984Y-103670908D01*
X59399995Y-103705374D01*
X59457439Y-103745146D01*
X59484262Y-103809661D01*
X59471947Y-103878437D01*
X59424404Y-103929637D01*
X59385182Y-103944696D01*
X59237340Y-103974104D01*
X59237332Y-103974106D01*
X59073459Y-104041983D01*
X59073446Y-104041990D01*
X58925965Y-104140535D01*
X58925961Y-104140538D01*
X58800538Y-104265961D01*
X58800535Y-104265965D01*
X58701990Y-104413446D01*
X58701983Y-104413459D01*
X58634106Y-104577332D01*
X58634103Y-104577341D01*
X58599500Y-104751304D01*
X58599500Y-104928692D01*
X58612617Y-104994632D01*
X58615000Y-105018825D01*
X58615000Y-106510000D01*
X58643642Y-106510000D01*
X58643657Y-106509999D01*
X58680777Y-106507078D01*
X58680783Y-106507077D01*
X58839694Y-106460908D01*
X58839702Y-106460905D01*
X58868886Y-106443646D01*
X58936609Y-106426462D01*
X58995128Y-106443644D01*
X59025100Y-106461370D01*
X59067041Y-106473555D01*
X59184137Y-106507575D01*
X59184140Y-106507575D01*
X59184142Y-106507576D01*
X59205903Y-106509288D01*
X59230199Y-106518547D01*
X59255604Y-106524074D01*
X59266909Y-106532537D01*
X59271191Y-106534169D01*
X59283858Y-106545225D01*
X59317048Y-106578415D01*
X59317049Y-106578416D01*
X59421584Y-106682951D01*
X59492389Y-106730261D01*
X59537194Y-106783872D01*
X59547499Y-106833363D01*
X59547499Y-108714999D01*
X59646639Y-108714999D01*
X59646653Y-108714998D01*
X59747651Y-108704680D01*
X59911299Y-108650453D01*
X59911310Y-108650448D01*
X60058034Y-108559947D01*
X60071960Y-108546020D01*
X60133282Y-108512532D01*
X60202973Y-108517513D01*
X60247327Y-108546016D01*
X60261651Y-108560340D01*
X60408485Y-108650908D01*
X60572248Y-108705174D01*
X60673324Y-108715500D01*
X61371677Y-108715499D01*
X61371685Y-108715498D01*
X61371688Y-108715498D01*
X61427031Y-108709844D01*
X61472754Y-108705174D01*
X61636517Y-108650908D01*
X61783351Y-108560340D01*
X61905341Y-108438350D01*
X61995909Y-108291516D01*
X62050175Y-108127753D01*
X62060501Y-108026677D01*
X62060500Y-107453324D01*
X62050175Y-107352247D01*
X62003627Y-107211778D01*
X61999717Y-107148583D01*
X62035500Y-106968693D01*
X62035500Y-106833308D01*
X62043736Y-106805258D01*
X62049254Y-106776547D01*
X62054128Y-106769867D01*
X62055185Y-106766269D01*
X62069711Y-106747786D01*
X62070733Y-106746712D01*
X62165581Y-106651865D01*
X62172963Y-106639381D01*
X62182711Y-106629148D01*
X62201215Y-106618451D01*
X62216836Y-106603866D01*
X62230859Y-106601315D01*
X62243201Y-106594181D01*
X62264551Y-106595186D01*
X62285577Y-106591362D01*
X62298753Y-106596797D01*
X62312994Y-106597468D01*
X62330410Y-106609856D01*
X62350167Y-106618006D01*
X62363498Y-106633391D01*
X62369930Y-106637966D01*
X62372055Y-106643266D01*
X62374355Y-106645921D01*
X62374639Y-106645702D01*
X62378679Y-106650911D01*
X62379232Y-106651548D01*
X62379419Y-106651865D01*
X62379421Y-106651867D01*
X62379423Y-106651870D01*
X62473181Y-106745628D01*
X62506666Y-106806951D01*
X62509500Y-106833309D01*
X62509500Y-106998695D01*
X62544103Y-107172658D01*
X62544106Y-107172667D01*
X62611983Y-107336540D01*
X62611990Y-107336553D01*
X62710535Y-107484034D01*
X62710538Y-107484038D01*
X62835961Y-107609461D01*
X62835965Y-107609464D01*
X62983446Y-107708009D01*
X62983459Y-107708016D01*
X63106363Y-107758923D01*
X63147334Y-107775894D01*
X63147336Y-107775894D01*
X63147341Y-107775896D01*
X63321304Y-107810499D01*
X63321307Y-107810500D01*
X63321309Y-107810500D01*
X63498693Y-107810500D01*
X63498694Y-107810499D01*
X63556682Y-107798964D01*
X63672658Y-107775896D01*
X63672661Y-107775894D01*
X63672666Y-107775894D01*
X63836547Y-107708013D01*
X63984035Y-107609464D01*
X64109464Y-107484035D01*
X64208013Y-107336547D01*
X64254175Y-107225100D01*
X64298014Y-107170699D01*
X64364308Y-107148633D01*
X64432007Y-107165911D01*
X64474273Y-107207457D01*
X64487160Y-107228350D01*
X64609150Y-107350340D01*
X64755984Y-107440908D01*
X64919747Y-107495174D01*
X65020823Y-107505500D01*
X65619176Y-107505499D01*
X65619184Y-107505498D01*
X65619187Y-107505498D01*
X65674530Y-107499844D01*
X65720253Y-107495174D01*
X65884016Y-107440908D01*
X66030850Y-107350340D01*
X66144819Y-107236371D01*
X66206142Y-107202886D01*
X66275834Y-107207870D01*
X66320181Y-107236371D01*
X66434150Y-107350340D01*
X66580984Y-107440908D01*
X66744747Y-107495174D01*
X66845823Y-107505500D01*
X67295300Y-107505499D01*
X67362339Y-107525183D01*
X67382981Y-107541818D01*
X70367796Y-110526634D01*
X70367800Y-110526637D01*
X70478839Y-110600832D01*
X70478852Y-110600839D01*
X70571387Y-110639167D01*
X70602235Y-110651945D01*
X70602237Y-110651945D01*
X70602242Y-110651947D01*
X70733218Y-110677999D01*
X70733222Y-110678000D01*
X70733223Y-110678000D01*
X70866777Y-110678000D01*
X72773044Y-110678000D01*
X72840083Y-110697685D01*
X72885838Y-110750489D01*
X72896866Y-110795367D01*
X72896999Y-110797859D01*
X72903408Y-110857483D01*
X72953702Y-110992328D01*
X72953706Y-110992335D01*
X73039952Y-111107544D01*
X73039955Y-111107547D01*
X73155164Y-111193793D01*
X73155171Y-111193797D01*
X73290017Y-111244091D01*
X73290016Y-111244091D01*
X73296944Y-111244835D01*
X73349627Y-111250500D01*
X78375500Y-111250499D01*
X78442539Y-111270184D01*
X78488294Y-111322988D01*
X78499500Y-111374499D01*
X78499500Y-112876000D01*
X78479815Y-112943039D01*
X78427011Y-112988794D01*
X78375500Y-113000000D01*
X76187500Y-113000000D01*
X76187500Y-115500000D01*
X78375500Y-115500000D01*
X78442539Y-115519685D01*
X78488294Y-115572489D01*
X78499500Y-115624000D01*
X78499500Y-121375500D01*
X78479815Y-121442539D01*
X78427011Y-121488294D01*
X78375500Y-121499500D01*
X45624500Y-121499500D01*
X45557461Y-121479815D01*
X45511706Y-121427011D01*
X45500500Y-121375500D01*
X45500500Y-115047844D01*
X72897500Y-115047844D01*
X72903901Y-115107372D01*
X72903903Y-115107379D01*
X72954145Y-115242086D01*
X72954149Y-115242093D01*
X73040309Y-115357187D01*
X73040312Y-115357190D01*
X73155406Y-115443350D01*
X73155413Y-115443354D01*
X73290120Y-115493596D01*
X73290127Y-115493598D01*
X73349655Y-115499999D01*
X73349672Y-115500000D01*
X75687500Y-115500000D01*
X75687500Y-114500000D01*
X72897500Y-114500000D01*
X72897500Y-115047844D01*
X45500500Y-115047844D01*
X45500500Y-113452155D01*
X72897500Y-113452155D01*
X72897500Y-114000000D01*
X75687500Y-114000000D01*
X75687500Y-113000000D01*
X73349655Y-113000000D01*
X73290127Y-113006401D01*
X73290120Y-113006403D01*
X73155413Y-113056645D01*
X73155406Y-113056649D01*
X73040312Y-113142809D01*
X73040309Y-113142812D01*
X72954149Y-113257906D01*
X72954145Y-113257913D01*
X72903903Y-113392620D01*
X72903901Y-113392627D01*
X72897500Y-113452155D01*
X45500500Y-113452155D01*
X45500500Y-108026654D01*
X58260000Y-108026654D01*
X58270318Y-108127652D01*
X58324545Y-108291300D01*
X58324550Y-108291311D01*
X58415051Y-108438034D01*
X58415054Y-108438038D01*
X58536960Y-108559944D01*
X58536964Y-108559947D01*
X58683687Y-108650448D01*
X58683698Y-108650453D01*
X58847346Y-108704680D01*
X58948350Y-108714999D01*
X59047499Y-108714998D01*
X59047499Y-107990000D01*
X58260000Y-107990000D01*
X58260000Y-108026654D01*
X45500500Y-108026654D01*
X45500500Y-107453345D01*
X58259999Y-107453345D01*
X58259999Y-107490000D01*
X59047499Y-107490000D01*
X59047499Y-106764999D01*
X58948359Y-106765000D01*
X58948343Y-106765001D01*
X58847346Y-106775319D01*
X58683698Y-106829546D01*
X58683687Y-106829551D01*
X58536964Y-106920052D01*
X58536960Y-106920055D01*
X58415054Y-107041961D01*
X58415051Y-107041965D01*
X58324550Y-107188688D01*
X58324545Y-107188699D01*
X58270318Y-107352347D01*
X58259999Y-107453345D01*
X45500500Y-107453345D01*
X45500500Y-105950000D01*
X57499770Y-105950000D01*
X57500421Y-105958281D01*
X57546590Y-106117194D01*
X57546592Y-106117197D01*
X57630833Y-106259642D01*
X57630839Y-106259650D01*
X57747849Y-106376660D01*
X57747857Y-106376666D01*
X57890302Y-106460907D01*
X57890305Y-106460908D01*
X58049216Y-106507077D01*
X58049222Y-106507078D01*
X58086342Y-106509999D01*
X58086358Y-106510000D01*
X58115000Y-106510000D01*
X58115000Y-105950000D01*
X57499770Y-105950000D01*
X45500500Y-105950000D01*
X45500500Y-105450000D01*
X57499770Y-105450000D01*
X58115000Y-105450000D01*
X58115000Y-104890000D01*
X58086342Y-104890000D01*
X58049222Y-104892921D01*
X58049216Y-104892922D01*
X57890305Y-104939091D01*
X57890302Y-104939092D01*
X57747857Y-105023333D01*
X57747849Y-105023339D01*
X57630839Y-105140349D01*
X57630833Y-105140357D01*
X57546592Y-105282802D01*
X57546590Y-105282805D01*
X57500421Y-105441718D01*
X57499770Y-105450000D01*
X45500500Y-105450000D01*
X45500500Y-103046654D01*
X57047501Y-103046654D01*
X57057819Y-103147652D01*
X57112046Y-103311300D01*
X57112051Y-103311311D01*
X57202552Y-103458034D01*
X57202555Y-103458038D01*
X57324461Y-103579944D01*
X57324465Y-103579947D01*
X57471188Y-103670448D01*
X57471199Y-103670453D01*
X57634847Y-103724680D01*
X57735851Y-103734999D01*
X57784999Y-103734998D01*
X57785000Y-103734998D01*
X57785000Y-103010000D01*
X57047501Y-103010000D01*
X57047501Y-103046654D01*
X45500500Y-103046654D01*
X45500500Y-102473345D01*
X57047500Y-102473345D01*
X57047500Y-102510000D01*
X57785000Y-102510000D01*
X57785000Y-101785000D01*
X57784999Y-101784999D01*
X57735861Y-101785000D01*
X57735843Y-101785001D01*
X57634847Y-101795319D01*
X57471199Y-101849546D01*
X57471188Y-101849551D01*
X57324465Y-101940052D01*
X57324461Y-101940055D01*
X57202555Y-102061961D01*
X57202552Y-102061965D01*
X57112051Y-102208688D01*
X57112046Y-102208699D01*
X57057819Y-102372347D01*
X57047500Y-102473345D01*
X45500500Y-102473345D01*
X45500500Y-85462486D01*
X49150001Y-85462486D01*
X49160494Y-85565197D01*
X49215641Y-85731619D01*
X49215643Y-85731624D01*
X49307684Y-85880845D01*
X49431654Y-86004815D01*
X49580875Y-86096856D01*
X49580880Y-86096858D01*
X49747302Y-86152005D01*
X49747309Y-86152006D01*
X49850019Y-86162499D01*
X50749999Y-86162499D01*
X51250000Y-86162499D01*
X52149972Y-86162499D01*
X52149986Y-86162498D01*
X52252697Y-86152005D01*
X52419119Y-86096858D01*
X52419124Y-86096856D01*
X52568345Y-86004815D01*
X52692315Y-85880845D01*
X52784356Y-85731624D01*
X52784358Y-85731619D01*
X52839505Y-85565197D01*
X52839506Y-85565190D01*
X52849999Y-85462486D01*
X52850000Y-85462473D01*
X52850000Y-85250000D01*
X51250000Y-85250000D01*
X51250000Y-86162499D01*
X50749999Y-86162499D01*
X50750000Y-86162498D01*
X50750000Y-85250000D01*
X49150001Y-85250000D01*
X49150001Y-85462486D01*
X45500500Y-85462486D01*
X45500500Y-84537513D01*
X49150000Y-84537513D01*
X49150000Y-84750000D01*
X50750000Y-84750000D01*
X51250000Y-84750000D01*
X52849999Y-84750000D01*
X52849999Y-84537528D01*
X52849998Y-84537513D01*
X52839505Y-84434802D01*
X52784358Y-84268380D01*
X52784356Y-84268375D01*
X52692315Y-84119154D01*
X52568345Y-83995184D01*
X52419124Y-83903143D01*
X52419119Y-83903141D01*
X52252697Y-83847994D01*
X52252690Y-83847993D01*
X52149986Y-83837500D01*
X51250000Y-83837500D01*
X51250000Y-84750000D01*
X50750000Y-84750000D01*
X50750000Y-83837500D01*
X49850028Y-83837500D01*
X49850012Y-83837501D01*
X49747302Y-83847994D01*
X49580880Y-83903141D01*
X49580875Y-83903143D01*
X49431654Y-83995184D01*
X49307684Y-84119154D01*
X49215643Y-84268375D01*
X49215641Y-84268380D01*
X49160494Y-84434802D01*
X49160493Y-84434809D01*
X49150000Y-84537513D01*
X45500500Y-84537513D01*
X45500500Y-73216154D01*
X47659500Y-73216154D01*
X47659500Y-73373847D01*
X47690261Y-73528490D01*
X47690264Y-73528502D01*
X47750602Y-73674173D01*
X47750609Y-73674186D01*
X47838210Y-73805289D01*
X47838213Y-73805293D01*
X47949707Y-73916787D01*
X47949711Y-73916790D01*
X48080814Y-74004391D01*
X48080827Y-74004398D01*
X48226498Y-74064736D01*
X48226503Y-74064738D01*
X48381153Y-74095500D01*
X48381156Y-74095501D01*
X48381158Y-74095501D01*
X48538844Y-74095501D01*
X48538845Y-74095500D01*
X48693497Y-74064738D01*
X48839179Y-74004395D01*
X48970289Y-73916790D01*
X49081789Y-73805290D01*
X49169394Y-73674180D01*
X49172398Y-73669685D01*
X49226010Y-73624880D01*
X49295335Y-73616173D01*
X49358363Y-73646327D01*
X49395082Y-73705771D01*
X49399500Y-73738576D01*
X49399500Y-74195018D01*
X49410000Y-74297797D01*
X49465185Y-74464333D01*
X49465187Y-74464338D01*
X49557289Y-74613658D01*
X49686451Y-74742820D01*
X49684117Y-74745153D01*
X49716065Y-74790196D01*
X49719257Y-74859993D01*
X49699126Y-74903416D01*
X49631559Y-74996414D01*
X49517219Y-75220816D01*
X49439397Y-75460330D01*
X49434008Y-75494354D01*
X49404077Y-75557488D01*
X49344765Y-75594418D01*
X49274902Y-75593419D01*
X49216671Y-75554808D01*
X49196974Y-75522406D01*
X49169397Y-75455828D01*
X49169390Y-75455815D01*
X49081789Y-75324712D01*
X49081786Y-75324708D01*
X48970292Y-75213214D01*
X48970288Y-75213211D01*
X48839185Y-75125610D01*
X48839172Y-75125603D01*
X48693501Y-75065265D01*
X48693489Y-75065262D01*
X48538845Y-75034501D01*
X48538842Y-75034501D01*
X48381158Y-75034501D01*
X48381155Y-75034501D01*
X48226510Y-75065262D01*
X48226498Y-75065265D01*
X48080827Y-75125603D01*
X48080814Y-75125610D01*
X47949711Y-75213211D01*
X47949707Y-75213214D01*
X47838213Y-75324708D01*
X47838210Y-75324712D01*
X47750609Y-75455815D01*
X47750602Y-75455828D01*
X47690264Y-75601499D01*
X47690261Y-75601511D01*
X47659500Y-75756154D01*
X47659500Y-75913847D01*
X47690261Y-76068490D01*
X47690264Y-76068502D01*
X47750602Y-76214173D01*
X47750609Y-76214186D01*
X47838210Y-76345289D01*
X47838213Y-76345293D01*
X47949707Y-76456787D01*
X47949711Y-76456790D01*
X48080814Y-76544391D01*
X48080827Y-76544398D01*
X48226498Y-76604736D01*
X48226503Y-76604738D01*
X48381153Y-76635500D01*
X48381156Y-76635501D01*
X48381158Y-76635501D01*
X48538844Y-76635501D01*
X48538845Y-76635500D01*
X48693497Y-76604738D01*
X48839179Y-76544395D01*
X48970289Y-76456790D01*
X49081789Y-76345290D01*
X49169394Y-76214180D01*
X49196974Y-76147593D01*
X49240814Y-76093192D01*
X49307108Y-76071126D01*
X49374807Y-76088404D01*
X49422418Y-76139541D01*
X49434008Y-76175647D01*
X49439397Y-76209671D01*
X49517219Y-76449185D01*
X49631557Y-76673584D01*
X49705748Y-76775698D01*
X49705748Y-76775699D01*
X50476212Y-76005234D01*
X50487482Y-76047293D01*
X50559890Y-76172709D01*
X50662292Y-76275111D01*
X50787708Y-76347519D01*
X50829765Y-76358788D01*
X50218406Y-76970146D01*
X50187025Y-76992947D01*
X50161152Y-77006131D01*
X49957350Y-77154201D01*
X49957345Y-77154205D01*
X49779205Y-77332345D01*
X49779201Y-77332350D01*
X49631132Y-77536151D01*
X49516760Y-77760616D01*
X49438910Y-78000211D01*
X49433642Y-78033472D01*
X49403711Y-78096606D01*
X49344398Y-78133536D01*
X49274536Y-78132536D01*
X49216304Y-78093925D01*
X49196610Y-78061528D01*
X49169394Y-77995822D01*
X49169392Y-77995819D01*
X49169390Y-77995815D01*
X49081789Y-77864712D01*
X49081786Y-77864708D01*
X48970292Y-77753214D01*
X48970288Y-77753211D01*
X48839185Y-77665610D01*
X48839172Y-77665603D01*
X48693501Y-77605265D01*
X48693489Y-77605262D01*
X48538845Y-77574501D01*
X48538842Y-77574501D01*
X48381158Y-77574501D01*
X48381155Y-77574501D01*
X48226510Y-77605262D01*
X48226498Y-77605265D01*
X48080827Y-77665603D01*
X48080814Y-77665610D01*
X47949711Y-77753211D01*
X47949707Y-77753214D01*
X47838213Y-77864708D01*
X47838210Y-77864712D01*
X47750609Y-77995815D01*
X47750602Y-77995828D01*
X47690264Y-78141499D01*
X47690261Y-78141511D01*
X47659500Y-78296154D01*
X47659500Y-78453847D01*
X47690261Y-78608490D01*
X47690264Y-78608502D01*
X47750602Y-78754173D01*
X47750609Y-78754186D01*
X47838210Y-78885289D01*
X47838213Y-78885293D01*
X47949707Y-78996787D01*
X47949711Y-78996790D01*
X48080814Y-79084391D01*
X48080827Y-79084398D01*
X48226498Y-79144736D01*
X48226503Y-79144738D01*
X48381153Y-79175500D01*
X48381156Y-79175501D01*
X48381158Y-79175501D01*
X48538844Y-79175501D01*
X48538845Y-79175500D01*
X48693497Y-79144738D01*
X48839179Y-79084395D01*
X48970289Y-78996790D01*
X49081789Y-78885290D01*
X49169394Y-78754180D01*
X49169395Y-78754177D01*
X49169397Y-78754174D01*
X49196609Y-78688477D01*
X49240449Y-78634073D01*
X49306743Y-78612008D01*
X49374443Y-78629287D01*
X49422053Y-78680424D01*
X49433643Y-78716531D01*
X49438910Y-78749785D01*
X49516760Y-78989383D01*
X49631132Y-79213848D01*
X49779201Y-79417649D01*
X49779205Y-79417654D01*
X49957345Y-79595794D01*
X49957350Y-79595798D01*
X50158614Y-79742024D01*
X50161155Y-79743870D01*
X50181796Y-79754386D01*
X50232589Y-79802356D01*
X50249500Y-79864870D01*
X50249500Y-80588000D01*
X50229815Y-80655039D01*
X50177011Y-80700794D01*
X50125500Y-80712000D01*
X49849999Y-80712000D01*
X49849980Y-80712001D01*
X49747203Y-80722500D01*
X49747200Y-80722501D01*
X49580668Y-80777685D01*
X49580663Y-80777687D01*
X49431342Y-80869789D01*
X49307289Y-80993842D01*
X49215187Y-81143163D01*
X49215186Y-81143166D01*
X49160001Y-81309703D01*
X49160001Y-81309704D01*
X49160000Y-81309704D01*
X49149500Y-81412483D01*
X49149500Y-82337501D01*
X49149501Y-82337519D01*
X49160000Y-82440296D01*
X49160001Y-82440299D01*
X49215185Y-82606831D01*
X49215186Y-82606834D01*
X49307288Y-82756156D01*
X49431344Y-82880212D01*
X49580666Y-82972314D01*
X49747203Y-83027499D01*
X49849991Y-83038000D01*
X52150008Y-83037999D01*
X52252797Y-83027499D01*
X52419334Y-82972314D01*
X52568656Y-82880212D01*
X52692712Y-82756156D01*
X52784814Y-82606834D01*
X52839999Y-82440297D01*
X52850500Y-82337509D01*
X52850499Y-81412492D01*
X52839999Y-81309703D01*
X52784814Y-81143166D01*
X52692712Y-80993844D01*
X52568656Y-80869788D01*
X52419334Y-80777686D01*
X52252797Y-80722501D01*
X52252795Y-80722500D01*
X52150016Y-80712000D01*
X52150009Y-80712000D01*
X51874500Y-80712000D01*
X51807461Y-80692315D01*
X51761706Y-80639511D01*
X51750500Y-80588000D01*
X51750500Y-79864870D01*
X51770185Y-79797831D01*
X51818203Y-79754387D01*
X51838845Y-79743870D01*
X52042656Y-79595793D01*
X52220793Y-79417656D01*
X52368870Y-79213845D01*
X52483241Y-78989379D01*
X52561090Y-78749785D01*
X52600500Y-78500962D01*
X52600500Y-78249038D01*
X52561090Y-78000215D01*
X52483241Y-77760621D01*
X52483239Y-77760618D01*
X52483239Y-77760616D01*
X52441747Y-77679184D01*
X52368870Y-77536155D01*
X52349952Y-77510117D01*
X52220798Y-77332350D01*
X52220794Y-77332345D01*
X52042654Y-77154205D01*
X52042649Y-77154201D01*
X51838846Y-77006130D01*
X51812977Y-76992949D01*
X51781592Y-76970146D01*
X51170234Y-76358788D01*
X51212292Y-76347519D01*
X51337708Y-76275111D01*
X51440110Y-76172709D01*
X51512518Y-76047293D01*
X51523787Y-76005235D01*
X52294250Y-76775699D01*
X52294250Y-76775698D01*
X52368442Y-76673582D01*
X52368446Y-76673576D01*
X52482780Y-76449185D01*
X52560602Y-76209670D01*
X52600000Y-75960929D01*
X52600000Y-75709072D01*
X52560602Y-75460331D01*
X52482780Y-75220816D01*
X52368442Y-74996417D01*
X52300873Y-74903417D01*
X52277393Y-74837611D01*
X52293218Y-74769557D01*
X52315082Y-74744353D01*
X52313549Y-74742820D01*
X52318656Y-74737713D01*
X52442712Y-74613657D01*
X52534814Y-74464336D01*
X52589999Y-74297799D01*
X52600500Y-74195011D01*
X52600500Y-72394991D01*
X52589999Y-72292203D01*
X52534814Y-72125666D01*
X52442712Y-71976345D01*
X52318656Y-71852289D01*
X52169335Y-71760187D01*
X52002798Y-71705002D01*
X52002796Y-71705001D01*
X51900017Y-71694501D01*
X51900010Y-71694501D01*
X51874500Y-71694501D01*
X51807461Y-71674816D01*
X51761706Y-71622012D01*
X51750500Y-71570501D01*
X51750500Y-71286999D01*
X51770185Y-71219960D01*
X51822989Y-71174205D01*
X51874500Y-71162999D01*
X52150002Y-71162999D01*
X52150008Y-71162999D01*
X52252797Y-71152499D01*
X52419334Y-71097314D01*
X52568656Y-71005212D01*
X52692712Y-70881156D01*
X52784814Y-70731834D01*
X52839999Y-70565297D01*
X52850500Y-70462509D01*
X52850499Y-69537492D01*
X52839999Y-69434703D01*
X52784814Y-69268166D01*
X52692712Y-69118844D01*
X52568656Y-68994788D01*
X52419334Y-68902686D01*
X52252797Y-68847501D01*
X52252795Y-68847500D01*
X52150010Y-68837000D01*
X49849998Y-68837000D01*
X49849981Y-68837001D01*
X49747203Y-68847500D01*
X49747200Y-68847501D01*
X49580668Y-68902685D01*
X49580663Y-68902687D01*
X49431342Y-68994789D01*
X49307289Y-69118842D01*
X49215187Y-69268163D01*
X49215186Y-69268166D01*
X49160001Y-69434703D01*
X49160001Y-69434704D01*
X49160000Y-69434704D01*
X49149500Y-69537483D01*
X49149500Y-70462501D01*
X49149501Y-70462519D01*
X49160000Y-70565296D01*
X49160001Y-70565299D01*
X49166252Y-70584162D01*
X49215186Y-70731834D01*
X49307288Y-70881156D01*
X49431344Y-71005212D01*
X49580666Y-71097314D01*
X49747203Y-71152499D01*
X49849991Y-71163000D01*
X50125501Y-71162999D01*
X50192539Y-71182683D01*
X50238294Y-71235487D01*
X50249500Y-71286999D01*
X50249500Y-71570501D01*
X50229815Y-71637540D01*
X50177011Y-71683295D01*
X50125500Y-71694501D01*
X50099982Y-71694501D01*
X49997203Y-71705001D01*
X49997202Y-71705002D01*
X49914669Y-71732350D01*
X49830667Y-71760186D01*
X49830662Y-71760188D01*
X49681342Y-71852290D01*
X49557289Y-71976343D01*
X49465187Y-72125663D01*
X49465186Y-72125666D01*
X49410001Y-72292203D01*
X49410001Y-72292204D01*
X49410000Y-72292204D01*
X49399500Y-72394983D01*
X49399500Y-72851425D01*
X49379815Y-72918464D01*
X49327011Y-72964219D01*
X49257853Y-72974163D01*
X49194297Y-72945138D01*
X49172398Y-72920316D01*
X49081789Y-72784712D01*
X49081786Y-72784708D01*
X48970292Y-72673214D01*
X48970288Y-72673211D01*
X48839185Y-72585610D01*
X48839172Y-72585603D01*
X48693501Y-72525265D01*
X48693489Y-72525262D01*
X48538845Y-72494501D01*
X48538842Y-72494501D01*
X48381158Y-72494501D01*
X48381155Y-72494501D01*
X48226510Y-72525262D01*
X48226498Y-72525265D01*
X48080827Y-72585603D01*
X48080814Y-72585610D01*
X47949711Y-72673211D01*
X47949707Y-72673214D01*
X47838213Y-72784708D01*
X47838210Y-72784712D01*
X47750609Y-72915815D01*
X47750602Y-72915828D01*
X47690264Y-73061499D01*
X47690261Y-73061511D01*
X47659500Y-73216154D01*
X45500500Y-73216154D01*
X45500500Y-67337486D01*
X49150001Y-67337486D01*
X49160494Y-67440197D01*
X49215641Y-67606619D01*
X49215643Y-67606624D01*
X49307684Y-67755845D01*
X49431654Y-67879815D01*
X49580875Y-67971856D01*
X49580880Y-67971858D01*
X49747302Y-68027005D01*
X49747309Y-68027006D01*
X49850019Y-68037499D01*
X50749999Y-68037499D01*
X51250000Y-68037499D01*
X52149972Y-68037499D01*
X52149986Y-68037498D01*
X52252697Y-68027005D01*
X52419119Y-67971858D01*
X52419124Y-67971856D01*
X52568345Y-67879815D01*
X52692315Y-67755845D01*
X52784356Y-67606624D01*
X52784358Y-67606619D01*
X52839505Y-67440197D01*
X52839506Y-67440190D01*
X52849999Y-67337486D01*
X52850000Y-67337473D01*
X52850000Y-67297844D01*
X72897500Y-67297844D01*
X72903901Y-67357372D01*
X72903903Y-67357379D01*
X72954145Y-67492086D01*
X72954149Y-67492093D01*
X73040309Y-67607187D01*
X73040312Y-67607190D01*
X73155406Y-67693350D01*
X73155413Y-67693354D01*
X73290120Y-67743596D01*
X73290127Y-67743598D01*
X73349655Y-67749999D01*
X73349672Y-67750000D01*
X75687500Y-67750000D01*
X75687500Y-66750000D01*
X72897500Y-66750000D01*
X72897500Y-67297844D01*
X52850000Y-67297844D01*
X52850000Y-67125000D01*
X51250000Y-67125000D01*
X51250000Y-68037499D01*
X50749999Y-68037499D01*
X50750000Y-68037498D01*
X50750000Y-67125000D01*
X49150001Y-67125000D01*
X49150001Y-67337486D01*
X45500500Y-67337486D01*
X45500500Y-66412513D01*
X49150000Y-66412513D01*
X49150000Y-66625000D01*
X50750000Y-66625000D01*
X51250000Y-66625000D01*
X52849999Y-66625000D01*
X52849999Y-66412528D01*
X52849998Y-66412513D01*
X52839505Y-66309802D01*
X52784358Y-66143380D01*
X52784356Y-66143375D01*
X52692315Y-65994154D01*
X52568345Y-65870184D01*
X52461676Y-65804390D01*
X52419124Y-65778143D01*
X52419119Y-65778141D01*
X52252697Y-65722994D01*
X52252690Y-65722993D01*
X52149986Y-65712500D01*
X51250000Y-65712500D01*
X51250000Y-66625000D01*
X50750000Y-66625000D01*
X50750000Y-65712500D01*
X49850028Y-65712500D01*
X49850012Y-65712501D01*
X49747302Y-65722994D01*
X49580880Y-65778141D01*
X49580875Y-65778143D01*
X49431654Y-65870184D01*
X49307684Y-65994154D01*
X49215643Y-66143375D01*
X49215641Y-66143380D01*
X49160494Y-66309802D01*
X49160493Y-66309809D01*
X49150000Y-66412513D01*
X45500500Y-66412513D01*
X45500500Y-65702155D01*
X72897500Y-65702155D01*
X72897500Y-66250000D01*
X75687500Y-66250000D01*
X75687500Y-65250000D01*
X73349655Y-65250000D01*
X73290127Y-65256401D01*
X73290120Y-65256403D01*
X73155413Y-65306645D01*
X73155406Y-65306649D01*
X73040312Y-65392809D01*
X73040309Y-65392812D01*
X72954149Y-65507906D01*
X72954145Y-65507913D01*
X72903903Y-65642620D01*
X72903901Y-65642627D01*
X72897500Y-65702155D01*
X45500500Y-65702155D01*
X45500500Y-62624500D01*
X45520185Y-62557461D01*
X45572989Y-62511706D01*
X45624500Y-62500500D01*
X78375500Y-62500500D01*
X78442539Y-62520185D01*
G37*
%TD.AperFunction*%
%TA.AperFunction,Conductor*%
G36*
X72840083Y-90697685D02*
G01*
X72885838Y-90750489D01*
X72896866Y-90795367D01*
X72896999Y-90797859D01*
X72903408Y-90857483D01*
X72953702Y-90992328D01*
X72953706Y-90992335D01*
X73039952Y-91107544D01*
X73039955Y-91107547D01*
X73155164Y-91193793D01*
X73155171Y-91193797D01*
X73290017Y-91244091D01*
X73290016Y-91244091D01*
X73296944Y-91244835D01*
X73349627Y-91250500D01*
X78375500Y-91250499D01*
X78442539Y-91270184D01*
X78488294Y-91322988D01*
X78499500Y-91374499D01*
X78499500Y-92876000D01*
X78479815Y-92943039D01*
X78427011Y-92988794D01*
X78375500Y-93000000D01*
X76187500Y-93000000D01*
X76187500Y-95500000D01*
X78375500Y-95500000D01*
X78442539Y-95519685D01*
X78488294Y-95572489D01*
X78499500Y-95624000D01*
X78499500Y-104376000D01*
X78479815Y-104443039D01*
X78427011Y-104488794D01*
X78375500Y-104500000D01*
X76187500Y-104500000D01*
X76187500Y-107000000D01*
X78375500Y-107000000D01*
X78442539Y-107019685D01*
X78488294Y-107072489D01*
X78499500Y-107124000D01*
X78499500Y-108625500D01*
X78479815Y-108692539D01*
X78427011Y-108738294D01*
X78375500Y-108749500D01*
X73349629Y-108749500D01*
X73349623Y-108749501D01*
X73290016Y-108755908D01*
X73155171Y-108806202D01*
X73155164Y-108806206D01*
X73039955Y-108892452D01*
X73039952Y-108892455D01*
X72953706Y-109007664D01*
X72953702Y-109007671D01*
X72903408Y-109142517D01*
X72896999Y-109202132D01*
X72896864Y-109204651D01*
X72896669Y-109205203D01*
X72896645Y-109205428D01*
X72896591Y-109205422D01*
X72873612Y-109270538D01*
X72818430Y-109313395D01*
X72773043Y-109322000D01*
X71132199Y-109322000D01*
X71065160Y-109302315D01*
X71044518Y-109285681D01*
X68306681Y-106547844D01*
X72897500Y-106547844D01*
X72903901Y-106607372D01*
X72903903Y-106607379D01*
X72954145Y-106742086D01*
X72954149Y-106742093D01*
X73040309Y-106857187D01*
X73040312Y-106857190D01*
X73155406Y-106943350D01*
X73155413Y-106943354D01*
X73290120Y-106993596D01*
X73290127Y-106993598D01*
X73349655Y-106999999D01*
X73349672Y-107000000D01*
X75687500Y-107000000D01*
X75687500Y-106000000D01*
X72897500Y-106000000D01*
X72897500Y-106547844D01*
X68306681Y-106547844D01*
X68169318Y-106410481D01*
X68135833Y-106349158D01*
X68132999Y-106322800D01*
X68132999Y-106243330D01*
X68132998Y-106243313D01*
X68122674Y-106142247D01*
X68114372Y-106117194D01*
X68068408Y-105978484D01*
X67977840Y-105831650D01*
X67855850Y-105709660D01*
X67764629Y-105653395D01*
X67709018Y-105619093D01*
X67709013Y-105619091D01*
X67707569Y-105618612D01*
X67545253Y-105564826D01*
X67545251Y-105564825D01*
X67444184Y-105554500D01*
X67231571Y-105554500D01*
X67164532Y-105534815D01*
X67118777Y-105482011D01*
X67109083Y-105414593D01*
X67109081Y-105414593D01*
X67109081Y-105414583D01*
X67108833Y-105412853D01*
X67109576Y-105408297D01*
X67110230Y-105400000D01*
X66369000Y-105400000D01*
X66301961Y-105380315D01*
X66256206Y-105327511D01*
X66245000Y-105276000D01*
X66245000Y-105024000D01*
X66264685Y-104956961D01*
X66270231Y-104952155D01*
X72897500Y-104952155D01*
X72897500Y-105500000D01*
X75687500Y-105500000D01*
X75687500Y-104500000D01*
X73349655Y-104500000D01*
X73290127Y-104506401D01*
X73290120Y-104506403D01*
X73155413Y-104556645D01*
X73155406Y-104556649D01*
X73040312Y-104642809D01*
X73040309Y-104642812D01*
X72954149Y-104757906D01*
X72954145Y-104757913D01*
X72903903Y-104892620D01*
X72903901Y-104892627D01*
X72897500Y-104952155D01*
X66270231Y-104952155D01*
X66317489Y-104911206D01*
X66369000Y-104900000D01*
X67098193Y-104900000D01*
X67069684Y-104752536D01*
X67072469Y-104723193D01*
X67072553Y-104693725D01*
X67075732Y-104688808D01*
X67076286Y-104682979D01*
X67094491Y-104659802D01*
X67110495Y-104635055D01*
X67115828Y-104632637D01*
X67119445Y-104628033D01*
X67147287Y-104618378D01*
X67174133Y-104606211D01*
X67184467Y-104605486D01*
X67185459Y-104605143D01*
X67186338Y-104605355D01*
X67191430Y-104604999D01*
X67394140Y-104604999D01*
X67394154Y-104604998D01*
X67495152Y-104594680D01*
X67658800Y-104540453D01*
X67658811Y-104540448D01*
X67805534Y-104449947D01*
X67805538Y-104449944D01*
X67927444Y-104328038D01*
X67927447Y-104328034D01*
X68017948Y-104181311D01*
X68017953Y-104181300D01*
X68072180Y-104017652D01*
X68082499Y-103916654D01*
X68082500Y-103916641D01*
X68082500Y-103880000D01*
X67169000Y-103880000D01*
X67101961Y-103860315D01*
X67056206Y-103807511D01*
X67045000Y-103756000D01*
X67045000Y-103630000D01*
X66919000Y-103630000D01*
X66851961Y-103610315D01*
X66806206Y-103557511D01*
X66795000Y-103506000D01*
X66795000Y-103380000D01*
X67295000Y-103380000D01*
X68082499Y-103380000D01*
X68082499Y-103343360D01*
X68082498Y-103343345D01*
X68072180Y-103242347D01*
X68017953Y-103078699D01*
X68017948Y-103078688D01*
X67927447Y-102931965D01*
X67927444Y-102931961D01*
X67805538Y-102810055D01*
X67805534Y-102810052D01*
X67658811Y-102719551D01*
X67658800Y-102719546D01*
X67495152Y-102665319D01*
X67394154Y-102655000D01*
X67295000Y-102655000D01*
X67295000Y-103380000D01*
X66795000Y-103380000D01*
X66795000Y-102654999D01*
X66695860Y-102655000D01*
X66695844Y-102655001D01*
X66594847Y-102665319D01*
X66424342Y-102721819D01*
X66423392Y-102718953D01*
X66367735Y-102727364D01*
X66303972Y-102698797D01*
X66265777Y-102640291D01*
X66260500Y-102604503D01*
X66260500Y-102561306D01*
X66260499Y-102561304D01*
X66225896Y-102387341D01*
X66225893Y-102387332D01*
X66158016Y-102223459D01*
X66158009Y-102223446D01*
X66059464Y-102075965D01*
X66059461Y-102075961D01*
X65934038Y-101950538D01*
X65934034Y-101950535D01*
X65786553Y-101851990D01*
X65786540Y-101851983D01*
X65744468Y-101834557D01*
X65690064Y-101790717D01*
X65667999Y-101724423D01*
X65685278Y-101656723D01*
X65726822Y-101614458D01*
X65798350Y-101570340D01*
X65912675Y-101456014D01*
X65973994Y-101422532D01*
X66043686Y-101427516D01*
X66088034Y-101456017D01*
X66201961Y-101569944D01*
X66201965Y-101569947D01*
X66348688Y-101660448D01*
X66348699Y-101660453D01*
X66512347Y-101714680D01*
X66613351Y-101724999D01*
X67162500Y-101724999D01*
X67211640Y-101724999D01*
X67211654Y-101724998D01*
X67312652Y-101714680D01*
X67476300Y-101660453D01*
X67476311Y-101660448D01*
X67623034Y-101569947D01*
X67623038Y-101569944D01*
X67744944Y-101448038D01*
X67744947Y-101448034D01*
X67835448Y-101301311D01*
X67835453Y-101301300D01*
X67889680Y-101137652D01*
X67899999Y-101036654D01*
X67900000Y-101036641D01*
X67900000Y-101000000D01*
X67162500Y-101000000D01*
X67162500Y-101724999D01*
X66613351Y-101724999D01*
X66662499Y-101724998D01*
X66662500Y-101724998D01*
X66662500Y-100294079D01*
X67162500Y-100294079D01*
X67162500Y-100500000D01*
X67899999Y-100500000D01*
X67899999Y-100463360D01*
X67899998Y-100463345D01*
X67889680Y-100362347D01*
X67835453Y-100198699D01*
X67835448Y-100198688D01*
X67746279Y-100054124D01*
X67727838Y-99986732D01*
X67748760Y-99920068D01*
X67764138Y-99901343D01*
X67777448Y-99888033D01*
X67867948Y-99741311D01*
X67867953Y-99741300D01*
X67922180Y-99577652D01*
X67932499Y-99476654D01*
X67932500Y-99476641D01*
X67932500Y-99440000D01*
X67195000Y-99440000D01*
X67195000Y-100211138D01*
X67186355Y-100240578D01*
X67179832Y-100270565D01*
X67176077Y-100275580D01*
X67175315Y-100278177D01*
X67162500Y-100294079D01*
X66662500Y-100294079D01*
X66662500Y-99728862D01*
X66682185Y-99661823D01*
X66695000Y-99645920D01*
X66695000Y-98940000D01*
X67195000Y-98940000D01*
X67932499Y-98940000D01*
X67932499Y-98903360D01*
X67932498Y-98903345D01*
X67922180Y-98802347D01*
X67867953Y-98638699D01*
X67867948Y-98638688D01*
X67777447Y-98491965D01*
X67777444Y-98491961D01*
X67655538Y-98370055D01*
X67655534Y-98370052D01*
X67508811Y-98279551D01*
X67508800Y-98279546D01*
X67345152Y-98225319D01*
X67244154Y-98215000D01*
X67195000Y-98215000D01*
X67195000Y-98940000D01*
X66695000Y-98940000D01*
X66695000Y-98215000D01*
X66694999Y-98214999D01*
X66645861Y-98215000D01*
X66645843Y-98215001D01*
X66544847Y-98225319D01*
X66381199Y-98279546D01*
X66381188Y-98279551D01*
X66234465Y-98370052D01*
X66120534Y-98483983D01*
X66059211Y-98517467D01*
X65989519Y-98512483D01*
X65945172Y-98483982D01*
X65830851Y-98369661D01*
X65830850Y-98369660D01*
X65739629Y-98313395D01*
X65684018Y-98279093D01*
X65684013Y-98279091D01*
X65672793Y-98275373D01*
X65520253Y-98224826D01*
X65520251Y-98224825D01*
X65419184Y-98214500D01*
X65419177Y-98214500D01*
X65326794Y-98214500D01*
X65259755Y-98194815D01*
X65214000Y-98142011D01*
X65204056Y-98072853D01*
X65220062Y-98027379D01*
X65237830Y-97997334D01*
X65289244Y-97910398D01*
X65335098Y-97752569D01*
X65338000Y-97715694D01*
X65338000Y-97284306D01*
X65335098Y-97247431D01*
X65327128Y-97220000D01*
X65289245Y-97089606D01*
X65289244Y-97089602D01*
X65288371Y-97088126D01*
X65288038Y-97086816D01*
X65286146Y-97082443D01*
X65286851Y-97082137D01*
X65271185Y-97020403D01*
X65286640Y-96967771D01*
X65286146Y-96967558D01*
X65287879Y-96963552D01*
X65288372Y-96961872D01*
X65289244Y-96960399D01*
X65297111Y-96933323D01*
X65335097Y-96802574D01*
X65335098Y-96802568D01*
X65337999Y-96765702D01*
X65338000Y-96765695D01*
X65338000Y-96596435D01*
X65357685Y-96529396D01*
X65410489Y-96483641D01*
X65437800Y-96474820D01*
X65482666Y-96465896D01*
X65646547Y-96398015D01*
X65646550Y-96398012D01*
X65646552Y-96398012D01*
X65686378Y-96371401D01*
X65753055Y-96350522D01*
X65755270Y-96350502D01*
X66013918Y-96350502D01*
X66158906Y-96321661D01*
X66158906Y-96321660D01*
X66158911Y-96321660D01*
X66163066Y-96319938D01*
X66210521Y-96310499D01*
X66318690Y-96310499D01*
X66318702Y-96310499D01*
X66355858Y-96307576D01*
X66514900Y-96261370D01*
X66544869Y-96243645D01*
X66612588Y-96226461D01*
X66671113Y-96243645D01*
X66700300Y-96260906D01*
X66700305Y-96260908D01*
X66859216Y-96307077D01*
X66859222Y-96307078D01*
X66896342Y-96309999D01*
X66896358Y-96310000D01*
X66925000Y-96310000D01*
X67425000Y-96310000D01*
X67453642Y-96310000D01*
X67453657Y-96309999D01*
X67490777Y-96307078D01*
X67490783Y-96307077D01*
X67649694Y-96260908D01*
X67649697Y-96260907D01*
X67792142Y-96176666D01*
X67792150Y-96176660D01*
X67909160Y-96059650D01*
X67909166Y-96059642D01*
X67993407Y-95917197D01*
X67993409Y-95917194D01*
X68039578Y-95758281D01*
X68040230Y-95750000D01*
X67425000Y-95750000D01*
X67425000Y-96310000D01*
X66925000Y-96310000D01*
X66925000Y-95624000D01*
X66944685Y-95556961D01*
X66997489Y-95511206D01*
X67049000Y-95500000D01*
X67175000Y-95500000D01*
X67175000Y-95374000D01*
X67194685Y-95306961D01*
X67247489Y-95261206D01*
X67299000Y-95250000D01*
X68040230Y-95250000D01*
X68039578Y-95241718D01*
X67993409Y-95082805D01*
X67993407Y-95082802D01*
X67972733Y-95047844D01*
X72897500Y-95047844D01*
X72903901Y-95107372D01*
X72903903Y-95107379D01*
X72954145Y-95242086D01*
X72954149Y-95242093D01*
X73040309Y-95357187D01*
X73040312Y-95357190D01*
X73155406Y-95443350D01*
X73155413Y-95443354D01*
X73290120Y-95493596D01*
X73290127Y-95493598D01*
X73349655Y-95499999D01*
X73349672Y-95500000D01*
X75687500Y-95500000D01*
X75687500Y-94500000D01*
X72897500Y-94500000D01*
X72897500Y-95047844D01*
X67972733Y-95047844D01*
X67909166Y-94940357D01*
X67909160Y-94940349D01*
X67792150Y-94823339D01*
X67792142Y-94823333D01*
X67649697Y-94739092D01*
X67649694Y-94739091D01*
X67490783Y-94692922D01*
X67490778Y-94692921D01*
X67487959Y-94692700D01*
X67486482Y-94692137D01*
X67484543Y-94691783D01*
X67484608Y-94691422D01*
X67465738Y-94684230D01*
X67442332Y-94680039D01*
X67433690Y-94672014D01*
X67422671Y-94667814D01*
X67408557Y-94648676D01*
X67391132Y-94632495D01*
X67388200Y-94621071D01*
X67381202Y-94611582D01*
X67379675Y-94587854D01*
X67373764Y-94564819D01*
X67377023Y-94546617D01*
X67376717Y-94541857D01*
X67379985Y-94530077D01*
X67419897Y-94409633D01*
X67419898Y-94409631D01*
X67427180Y-94387653D01*
X67437499Y-94286654D01*
X67437500Y-94286641D01*
X67437500Y-94250000D01*
X66524000Y-94250000D01*
X66456961Y-94230315D01*
X66411206Y-94177511D01*
X66400000Y-94126000D01*
X66400000Y-94000000D01*
X66274000Y-94000000D01*
X66206961Y-93980315D01*
X66161206Y-93927511D01*
X66150000Y-93876000D01*
X66150000Y-93750000D01*
X66650000Y-93750000D01*
X67437499Y-93750000D01*
X67437499Y-93713360D01*
X67437498Y-93713345D01*
X67427180Y-93612347D01*
X67385928Y-93487855D01*
X67385927Y-93487853D01*
X67374098Y-93452155D01*
X72897500Y-93452155D01*
X72897500Y-94000000D01*
X75687500Y-94000000D01*
X75687500Y-93000000D01*
X73349655Y-93000000D01*
X73290127Y-93006401D01*
X73290120Y-93006403D01*
X73155413Y-93056645D01*
X73155406Y-93056649D01*
X73040312Y-93142809D01*
X73040309Y-93142812D01*
X72954149Y-93257906D01*
X72954145Y-93257913D01*
X72903903Y-93392620D01*
X72903901Y-93392627D01*
X72897500Y-93452155D01*
X67374098Y-93452155D01*
X67372954Y-93448701D01*
X67372948Y-93448688D01*
X67282447Y-93301965D01*
X67282444Y-93301961D01*
X67160538Y-93180055D01*
X67160534Y-93180052D01*
X67013811Y-93089551D01*
X67013800Y-93089546D01*
X66850152Y-93035319D01*
X66749154Y-93025000D01*
X66650000Y-93025000D01*
X66650000Y-93750000D01*
X66150000Y-93750000D01*
X66150000Y-93024999D01*
X66050860Y-93025000D01*
X66050844Y-93025001D01*
X65949847Y-93035319D01*
X65786199Y-93089546D01*
X65786188Y-93089551D01*
X65639465Y-93180052D01*
X65625532Y-93193985D01*
X65564208Y-93227468D01*
X65494516Y-93222482D01*
X65450172Y-93193982D01*
X65435851Y-93179661D01*
X65435850Y-93179660D01*
X65344629Y-93123395D01*
X65289018Y-93089093D01*
X65289013Y-93089091D01*
X65287569Y-93088612D01*
X65125253Y-93034826D01*
X65125251Y-93034825D01*
X65024178Y-93024500D01*
X64325830Y-93024500D01*
X64325812Y-93024501D01*
X64224747Y-93034825D01*
X64060984Y-93089092D01*
X64060981Y-93089093D01*
X63914148Y-93179661D01*
X63792161Y-93301648D01*
X63701593Y-93448481D01*
X63701591Y-93448486D01*
X63674219Y-93531088D01*
X63647326Y-93612247D01*
X63647326Y-93612248D01*
X63647325Y-93612248D01*
X63637000Y-93713315D01*
X63637000Y-93925269D01*
X63630636Y-93946941D01*
X63628858Y-93969461D01*
X63620016Y-93983106D01*
X63617315Y-93992308D01*
X63611714Y-94000312D01*
X63606623Y-94007008D01*
X63592048Y-94021584D01*
X63568772Y-94056420D01*
X63566679Y-94059551D01*
X63566677Y-94059555D01*
X63509913Y-94144508D01*
X63453342Y-94281084D01*
X63453340Y-94281090D01*
X63441699Y-94339614D01*
X63423185Y-94384310D01*
X63376992Y-94453444D01*
X63376983Y-94453460D01*
X63309106Y-94617332D01*
X63309103Y-94617341D01*
X63274500Y-94791304D01*
X63274500Y-94866693D01*
X63266263Y-94894742D01*
X63260746Y-94923454D01*
X63255871Y-94930132D01*
X63254815Y-94933732D01*
X63240289Y-94952215D01*
X63239246Y-94953309D01*
X63144419Y-95048137D01*
X63137038Y-95060617D01*
X63127289Y-95070853D01*
X63108779Y-95081552D01*
X63093157Y-95096138D01*
X63079137Y-95098687D01*
X63066799Y-95105820D01*
X63045446Y-95104814D01*
X63024415Y-95108639D01*
X63011241Y-95103203D01*
X62997006Y-95102533D01*
X62979586Y-95090142D01*
X62959827Y-95081990D01*
X62946497Y-95066607D01*
X62940070Y-95062035D01*
X62937945Y-95056737D01*
X62935643Y-95054080D01*
X62935361Y-95054300D01*
X62931323Y-95049094D01*
X62930771Y-95048457D01*
X62930585Y-95048142D01*
X62930576Y-95048131D01*
X62808849Y-94926404D01*
X62810507Y-94924745D01*
X62776466Y-94877624D01*
X62769966Y-94824111D01*
X62770500Y-94818691D01*
X62770500Y-94641306D01*
X62736692Y-94471346D01*
X62742919Y-94401754D01*
X62752764Y-94382067D01*
X62800908Y-94304016D01*
X62855174Y-94140253D01*
X62865500Y-94039177D01*
X62865499Y-93440824D01*
X62855174Y-93339747D01*
X62800908Y-93175984D01*
X62710340Y-93029150D01*
X62596371Y-92915181D01*
X62562886Y-92853858D01*
X62567870Y-92784166D01*
X62596371Y-92739819D01*
X62710340Y-92625850D01*
X62800908Y-92479016D01*
X62855174Y-92315253D01*
X62865500Y-92214177D01*
X62865499Y-91949697D01*
X62885183Y-91882659D01*
X62901813Y-91862022D01*
X64049518Y-90714319D01*
X64110841Y-90680834D01*
X64137199Y-90678000D01*
X72773044Y-90678000D01*
X72840083Y-90697685D01*
G37*
%TD.AperFunction*%
%TA.AperFunction,Conductor*%
G36*
X78442539Y-72020184D02*
G01*
X78488294Y-72072988D01*
X78499500Y-72124499D01*
X78499500Y-73626000D01*
X78479815Y-73693039D01*
X78427011Y-73738794D01*
X78375500Y-73750000D01*
X76187500Y-73750000D01*
X76187500Y-76250000D01*
X78375500Y-76250000D01*
X78442539Y-76269685D01*
X78488294Y-76322489D01*
X78499500Y-76374000D01*
X78499500Y-84376000D01*
X78479815Y-84443039D01*
X78427011Y-84488794D01*
X78375500Y-84500000D01*
X76187500Y-84500000D01*
X76187500Y-87000000D01*
X78375500Y-87000000D01*
X78442539Y-87019685D01*
X78488294Y-87072489D01*
X78499500Y-87124000D01*
X78499500Y-88625500D01*
X78479815Y-88692539D01*
X78427011Y-88738294D01*
X78375500Y-88749500D01*
X73349629Y-88749500D01*
X73349623Y-88749501D01*
X73290016Y-88755908D01*
X73155171Y-88806202D01*
X73155164Y-88806206D01*
X73039955Y-88892452D01*
X73039952Y-88892455D01*
X72953706Y-89007664D01*
X72953702Y-89007671D01*
X72903408Y-89142517D01*
X72896999Y-89202132D01*
X72896864Y-89204651D01*
X72896669Y-89205203D01*
X72896645Y-89205428D01*
X72896591Y-89205422D01*
X72873612Y-89270538D01*
X72818430Y-89313395D01*
X72773043Y-89322000D01*
X63738218Y-89322000D01*
X63607242Y-89348052D01*
X63607233Y-89348055D01*
X63483852Y-89399160D01*
X63483839Y-89399167D01*
X63372800Y-89473362D01*
X63372796Y-89473365D01*
X61955480Y-90890681D01*
X61894157Y-90924166D01*
X61867799Y-90927000D01*
X61603331Y-90927000D01*
X61603312Y-90927001D01*
X61502247Y-90937325D01*
X61338484Y-90991592D01*
X61338481Y-90991593D01*
X61191648Y-91082161D01*
X61069661Y-91204148D01*
X60979093Y-91350981D01*
X60979092Y-91350984D01*
X60924826Y-91514747D01*
X60924826Y-91514748D01*
X60924825Y-91514748D01*
X60914500Y-91615815D01*
X60914500Y-92214169D01*
X60914501Y-92214187D01*
X60924825Y-92315252D01*
X60979092Y-92479015D01*
X60979093Y-92479018D01*
X61069661Y-92625851D01*
X61183629Y-92739819D01*
X61217114Y-92801142D01*
X61212130Y-92870834D01*
X61183629Y-92915181D01*
X61069661Y-93029148D01*
X60979093Y-93175981D01*
X60979091Y-93175986D01*
X60977744Y-93180052D01*
X60924826Y-93339747D01*
X60924826Y-93339748D01*
X60924825Y-93339748D01*
X60914500Y-93440815D01*
X60914500Y-94039169D01*
X60914501Y-94039187D01*
X60924825Y-94140252D01*
X60924826Y-94140255D01*
X60979091Y-94304014D01*
X61001240Y-94339923D01*
X61002732Y-94345378D01*
X61006585Y-94349516D01*
X61011850Y-94378699D01*
X61019680Y-94407316D01*
X61018249Y-94414173D01*
X61018990Y-94418276D01*
X61010263Y-94452468D01*
X61004106Y-94467334D01*
X61004105Y-94467337D01*
X61003458Y-94468900D01*
X60959616Y-94523303D01*
X60893322Y-94545367D01*
X60825623Y-94528087D01*
X60785795Y-94490337D01*
X60749464Y-94435965D01*
X60749461Y-94435961D01*
X60624038Y-94310538D01*
X60624034Y-94310535D01*
X60476553Y-94211990D01*
X60476540Y-94211983D01*
X60312667Y-94144106D01*
X60312658Y-94144103D01*
X60138694Y-94109500D01*
X60138691Y-94109500D01*
X59961309Y-94109500D01*
X59961306Y-94109500D01*
X59787341Y-94144103D01*
X59787332Y-94144106D01*
X59623459Y-94211983D01*
X59623446Y-94211990D01*
X59475965Y-94310535D01*
X59475961Y-94310538D01*
X59350538Y-94435961D01*
X59350535Y-94435965D01*
X59251990Y-94583446D01*
X59251983Y-94583459D01*
X59184106Y-94747332D01*
X59184103Y-94747341D01*
X59149500Y-94921304D01*
X59149500Y-95098692D01*
X59162617Y-95164632D01*
X59165000Y-95188825D01*
X59165000Y-95726000D01*
X59145315Y-95793039D01*
X59092511Y-95838794D01*
X59041000Y-95850000D01*
X58915000Y-95850000D01*
X58915000Y-95976000D01*
X58895315Y-96043039D01*
X58842511Y-96088794D01*
X58791000Y-96100000D01*
X58049768Y-96100000D01*
X58050656Y-96111266D01*
X58036295Y-96179644D01*
X57987246Y-96229403D01*
X57927040Y-96245000D01*
X57795859Y-96245000D01*
X57795842Y-96245001D01*
X57694845Y-96255319D01*
X57531197Y-96309546D01*
X57531186Y-96309551D01*
X57384463Y-96400052D01*
X57384459Y-96400055D01*
X57262553Y-96521961D01*
X57262550Y-96521965D01*
X57172049Y-96668688D01*
X57172044Y-96668699D01*
X57117817Y-96832347D01*
X57107498Y-96933345D01*
X57107498Y-96970000D01*
X58020998Y-96970000D01*
X58088037Y-96989685D01*
X58133792Y-97042489D01*
X58144998Y-97094000D01*
X58144998Y-97220000D01*
X58270998Y-97220000D01*
X58338037Y-97239685D01*
X58383792Y-97292489D01*
X58394998Y-97344000D01*
X58394998Y-98194999D01*
X58494138Y-98194999D01*
X58494152Y-98194998D01*
X58595150Y-98184680D01*
X58758798Y-98130453D01*
X58758805Y-98130450D01*
X58770402Y-98123297D01*
X58837794Y-98104856D01*
X58904458Y-98125778D01*
X58949228Y-98179419D01*
X58959500Y-98228835D01*
X58959500Y-98348695D01*
X58994103Y-98522658D01*
X58994106Y-98522667D01*
X59061983Y-98686540D01*
X59061990Y-98686553D01*
X59160535Y-98834034D01*
X59160538Y-98834038D01*
X59285961Y-98959461D01*
X59285965Y-98959464D01*
X59433446Y-99058009D01*
X59433459Y-99058016D01*
X59556363Y-99108923D01*
X59597334Y-99125894D01*
X59597336Y-99125894D01*
X59597341Y-99125896D01*
X59771304Y-99160499D01*
X59771307Y-99160500D01*
X59771309Y-99160500D01*
X59948693Y-99160500D01*
X59948694Y-99160499D01*
X60006682Y-99148964D01*
X60122658Y-99125896D01*
X60122661Y-99125894D01*
X60122666Y-99125894D01*
X60286547Y-99058013D01*
X60434035Y-98959464D01*
X60559464Y-98834035D01*
X60597398Y-98777262D01*
X60651010Y-98732458D01*
X60720335Y-98723751D01*
X60783362Y-98753905D01*
X60820082Y-98813348D01*
X60824500Y-98846154D01*
X60824500Y-99314169D01*
X60824501Y-99314187D01*
X60834825Y-99415252D01*
X60855180Y-99476677D01*
X60888673Y-99577753D01*
X60889092Y-99579015D01*
X60889093Y-99579018D01*
X60979661Y-99725851D01*
X61093629Y-99839819D01*
X61097967Y-99847764D01*
X61105215Y-99853190D01*
X61114449Y-99877949D01*
X61127114Y-99901142D01*
X61126468Y-99910171D01*
X61129632Y-99918654D01*
X61124015Y-99944474D01*
X61122130Y-99970834D01*
X61116311Y-99979887D01*
X61114780Y-99986927D01*
X61093629Y-100015181D01*
X60983129Y-100125681D01*
X60921806Y-100159166D01*
X60895448Y-100162000D01*
X58919535Y-100162000D01*
X58895344Y-100159617D01*
X58855308Y-100151653D01*
X58806778Y-100142000D01*
X58806777Y-100142000D01*
X57632199Y-100142000D01*
X57565160Y-100122315D01*
X57544518Y-100105681D01*
X54945491Y-97506654D01*
X57107499Y-97506654D01*
X57117817Y-97607652D01*
X57172044Y-97771300D01*
X57172049Y-97771311D01*
X57262550Y-97918034D01*
X57262553Y-97918038D01*
X57384459Y-98039944D01*
X57384463Y-98039947D01*
X57531186Y-98130448D01*
X57531197Y-98130453D01*
X57694845Y-98184680D01*
X57795849Y-98194999D01*
X57894998Y-98194998D01*
X57894998Y-97470000D01*
X57107499Y-97470000D01*
X57107499Y-97506654D01*
X54945491Y-97506654D01*
X54914319Y-97475482D01*
X54880834Y-97414159D01*
X54878000Y-97387801D01*
X54878000Y-95600000D01*
X58049770Y-95600000D01*
X58665000Y-95600000D01*
X58665000Y-95040000D01*
X58636342Y-95040000D01*
X58599222Y-95042921D01*
X58599216Y-95042922D01*
X58440305Y-95089091D01*
X58440302Y-95089092D01*
X58297857Y-95173333D01*
X58297849Y-95173339D01*
X58180839Y-95290349D01*
X58180833Y-95290357D01*
X58096592Y-95432802D01*
X58096590Y-95432805D01*
X58050421Y-95591718D01*
X58049770Y-95600000D01*
X54878000Y-95600000D01*
X54878000Y-90572198D01*
X54897685Y-90505159D01*
X54914314Y-90484522D01*
X58850992Y-86547844D01*
X72897500Y-86547844D01*
X72903901Y-86607372D01*
X72903903Y-86607379D01*
X72954145Y-86742086D01*
X72954149Y-86742093D01*
X73040309Y-86857187D01*
X73040312Y-86857190D01*
X73155406Y-86943350D01*
X73155413Y-86943354D01*
X73290120Y-86993596D01*
X73290127Y-86993598D01*
X73349655Y-86999999D01*
X73349672Y-87000000D01*
X75687500Y-87000000D01*
X75687500Y-86000000D01*
X72897500Y-86000000D01*
X72897500Y-86547844D01*
X58850992Y-86547844D01*
X60446681Y-84952155D01*
X72897500Y-84952155D01*
X72897500Y-85500000D01*
X75687500Y-85500000D01*
X75687500Y-84500000D01*
X73349655Y-84500000D01*
X73290127Y-84506401D01*
X73290120Y-84506403D01*
X73155413Y-84556645D01*
X73155406Y-84556649D01*
X73040312Y-84642809D01*
X73040309Y-84642812D01*
X72954149Y-84757906D01*
X72954145Y-84757913D01*
X72903903Y-84892620D01*
X72903901Y-84892627D01*
X72897500Y-84952155D01*
X60446681Y-84952155D01*
X69600991Y-75797844D01*
X72897500Y-75797844D01*
X72903901Y-75857372D01*
X72903903Y-75857379D01*
X72954145Y-75992086D01*
X72954149Y-75992093D01*
X73040309Y-76107187D01*
X73040312Y-76107190D01*
X73155406Y-76193350D01*
X73155413Y-76193354D01*
X73290120Y-76243596D01*
X73290127Y-76243598D01*
X73349655Y-76249999D01*
X73349672Y-76250000D01*
X75687500Y-76250000D01*
X75687500Y-75250000D01*
X72897500Y-75250000D01*
X72897500Y-75797844D01*
X69600991Y-75797844D01*
X71196680Y-74202155D01*
X72897500Y-74202155D01*
X72897500Y-74750000D01*
X75687500Y-74750000D01*
X75687500Y-73750000D01*
X73349655Y-73750000D01*
X73290127Y-73756401D01*
X73290120Y-73756403D01*
X73155413Y-73806645D01*
X73155406Y-73806649D01*
X73040312Y-73892809D01*
X73040309Y-73892812D01*
X72954149Y-74007906D01*
X72954145Y-74007913D01*
X72903903Y-74142620D01*
X72903901Y-74142627D01*
X72897500Y-74202155D01*
X71196680Y-74202155D01*
X73362018Y-72036817D01*
X73423341Y-72003333D01*
X73449699Y-72000499D01*
X78375500Y-72000499D01*
X78442539Y-72020184D01*
G37*
%TD.AperFunction*%
%TD*%
M02*
