%TF.GenerationSoftware,KiCad,Pcbnew,10.0.1*%
%TF.CreationDate,2026-06-08T14:05:49+01:00*%
%TF.ProjectId,xlzd_xenonnt_amplifier_test,786c7a64-5f78-4656-9e6f-6e6e745f616d,rev?*%
%TF.SameCoordinates,Original*%
%TF.FileFunction,Copper,L3,Inr*%
%TF.FilePolarity,Positive*%
%FSLAX46Y46*%
G04 Gerber Fmt 4.6, Leading zero omitted, Abs format (unit mm)*
G04 Created by KiCad (PCBNEW 10.0.1) date 2026-06-08 14:05:49*
%MOMM*%
%LPD*%
G01*
G04 APERTURE LIST*
G04 Aperture macros list*
%AMRoundRect*
0 Rectangle with rounded corners*
0 $1 Rounding radius*
0 $2 $3 $4 $5 $6 $7 $8 $9 X,Y pos of 4 corners*
0 Add a 4 corners polygon primitive as box body*
4,1,4,$2,$3,$4,$5,$6,$7,$8,$9,$2,$3,0*
0 Add four circle primitives for the rounded corners*
1,1,$1+$1,$2,$3*
1,1,$1+$1,$4,$5*
1,1,$1+$1,$6,$7*
1,1,$1+$1,$8,$9*
0 Add four rect primitives between the rounded corners*
20,1,$1+$1,$2,$3,$4,$5,0*
20,1,$1+$1,$4,$5,$6,$7,0*
20,1,$1+$1,$6,$7,$8,$9,0*
20,1,$1+$1,$8,$9,$2,$3,0*%
G04 Aperture macros list end*
%ADD10C,0.150000*%
%ADD11C,0.300000*%
%ADD12C,0.400000*%
%TA.AperFunction,ComponentPad*%
%ADD13RoundRect,0.249999X-0.850001X0.850001X-0.850001X-0.850001X0.850001X-0.850001X0.850001X0.850001X0*%
%TD*%
%TA.AperFunction,ComponentPad*%
%ADD14C,2.200000*%
%TD*%
%TA.AperFunction,ViaPad*%
%ADD15C,0.800000*%
%TD*%
G04 APERTURE END LIST*
D10*
X177002200Y-166007200D02*
X285002200Y-166007200D01*
X285002200Y-198007200D01*
X177002200Y-198007200D01*
X177002200Y-166007200D01*
X10000000Y-10000000D02*
X287002200Y-10000000D01*
X287002200Y-200007200D01*
X10000000Y-200007200D01*
X10000000Y-10000000D01*
X12000000Y-12000000D02*
X285002200Y-12000000D01*
X285002200Y-198007200D01*
X12000000Y-198007200D01*
X12000000Y-12000000D01*
X60000000Y-12000000D02*
X60000000Y-10000000D01*
X110000000Y-12000000D02*
X110000000Y-10000000D01*
X160000000Y-12000000D02*
X160000000Y-10000000D01*
X210000000Y-12000000D02*
X210000000Y-10000000D01*
X260000000Y-12000000D02*
X260000000Y-10000000D01*
X36089160Y-11593604D02*
X35346303Y-11593604D01*
X35717731Y-11593604D02*
X35717731Y-10293604D01*
X35717731Y-10293604D02*
X35593922Y-10479319D01*
X35593922Y-10479319D02*
X35470112Y-10603128D01*
X35470112Y-10603128D02*
X35346303Y-10665033D01*
X85346303Y-10417414D02*
X85408207Y-10355509D01*
X85408207Y-10355509D02*
X85532017Y-10293604D01*
X85532017Y-10293604D02*
X85841541Y-10293604D01*
X85841541Y-10293604D02*
X85965350Y-10355509D01*
X85965350Y-10355509D02*
X86027255Y-10417414D01*
X86027255Y-10417414D02*
X86089160Y-10541223D01*
X86089160Y-10541223D02*
X86089160Y-10665033D01*
X86089160Y-10665033D02*
X86027255Y-10850747D01*
X86027255Y-10850747D02*
X85284398Y-11593604D01*
X85284398Y-11593604D02*
X86089160Y-11593604D01*
X135284398Y-10293604D02*
X136089160Y-10293604D01*
X136089160Y-10293604D02*
X135655826Y-10788842D01*
X135655826Y-10788842D02*
X135841541Y-10788842D01*
X135841541Y-10788842D02*
X135965350Y-10850747D01*
X135965350Y-10850747D02*
X136027255Y-10912652D01*
X136027255Y-10912652D02*
X136089160Y-11036461D01*
X136089160Y-11036461D02*
X136089160Y-11345985D01*
X136089160Y-11345985D02*
X136027255Y-11469795D01*
X136027255Y-11469795D02*
X135965350Y-11531700D01*
X135965350Y-11531700D02*
X135841541Y-11593604D01*
X135841541Y-11593604D02*
X135470112Y-11593604D01*
X135470112Y-11593604D02*
X135346303Y-11531700D01*
X135346303Y-11531700D02*
X135284398Y-11469795D01*
X185965350Y-10726938D02*
X185965350Y-11593604D01*
X185655826Y-10231700D02*
X185346303Y-11160271D01*
X185346303Y-11160271D02*
X186151064Y-11160271D01*
X236027255Y-10293604D02*
X235408207Y-10293604D01*
X235408207Y-10293604D02*
X235346303Y-10912652D01*
X235346303Y-10912652D02*
X235408207Y-10850747D01*
X235408207Y-10850747D02*
X235532017Y-10788842D01*
X235532017Y-10788842D02*
X235841541Y-10788842D01*
X235841541Y-10788842D02*
X235965350Y-10850747D01*
X235965350Y-10850747D02*
X236027255Y-10912652D01*
X236027255Y-10912652D02*
X236089160Y-11036461D01*
X236089160Y-11036461D02*
X236089160Y-11345985D01*
X236089160Y-11345985D02*
X236027255Y-11469795D01*
X236027255Y-11469795D02*
X235965350Y-11531700D01*
X235965350Y-11531700D02*
X235841541Y-11593604D01*
X235841541Y-11593604D02*
X235532017Y-11593604D01*
X235532017Y-11593604D02*
X235408207Y-11531700D01*
X235408207Y-11531700D02*
X235346303Y-11469795D01*
X285965350Y-10293604D02*
X285717731Y-10293604D01*
X285717731Y-10293604D02*
X285593922Y-10355509D01*
X285593922Y-10355509D02*
X285532017Y-10417414D01*
X285532017Y-10417414D02*
X285408207Y-10603128D01*
X285408207Y-10603128D02*
X285346303Y-10850747D01*
X285346303Y-10850747D02*
X285346303Y-11345985D01*
X285346303Y-11345985D02*
X285408207Y-11469795D01*
X285408207Y-11469795D02*
X285470112Y-11531700D01*
X285470112Y-11531700D02*
X285593922Y-11593604D01*
X285593922Y-11593604D02*
X285841541Y-11593604D01*
X285841541Y-11593604D02*
X285965350Y-11531700D01*
X285965350Y-11531700D02*
X286027255Y-11469795D01*
X286027255Y-11469795D02*
X286089160Y-11345985D01*
X286089160Y-11345985D02*
X286089160Y-11036461D01*
X286089160Y-11036461D02*
X286027255Y-10912652D01*
X286027255Y-10912652D02*
X285965350Y-10850747D01*
X285965350Y-10850747D02*
X285841541Y-10788842D01*
X285841541Y-10788842D02*
X285593922Y-10788842D01*
X285593922Y-10788842D02*
X285470112Y-10850747D01*
X285470112Y-10850747D02*
X285408207Y-10912652D01*
X285408207Y-10912652D02*
X285346303Y-11036461D01*
X60000000Y-198007200D02*
X60000000Y-200007200D01*
X110000000Y-198007200D02*
X110000000Y-200007200D01*
X160000000Y-198007200D02*
X160000000Y-200007200D01*
X210000000Y-198007200D02*
X210000000Y-200007200D01*
X260000000Y-198007200D02*
X260000000Y-200007200D01*
X36089160Y-199600804D02*
X35346303Y-199600804D01*
X35717731Y-199600804D02*
X35717731Y-198300804D01*
X35717731Y-198300804D02*
X35593922Y-198486519D01*
X35593922Y-198486519D02*
X35470112Y-198610328D01*
X35470112Y-198610328D02*
X35346303Y-198672233D01*
X85346303Y-198424614D02*
X85408207Y-198362709D01*
X85408207Y-198362709D02*
X85532017Y-198300804D01*
X85532017Y-198300804D02*
X85841541Y-198300804D01*
X85841541Y-198300804D02*
X85965350Y-198362709D01*
X85965350Y-198362709D02*
X86027255Y-198424614D01*
X86027255Y-198424614D02*
X86089160Y-198548423D01*
X86089160Y-198548423D02*
X86089160Y-198672233D01*
X86089160Y-198672233D02*
X86027255Y-198857947D01*
X86027255Y-198857947D02*
X85284398Y-199600804D01*
X85284398Y-199600804D02*
X86089160Y-199600804D01*
X135284398Y-198300804D02*
X136089160Y-198300804D01*
X136089160Y-198300804D02*
X135655826Y-198796042D01*
X135655826Y-198796042D02*
X135841541Y-198796042D01*
X135841541Y-198796042D02*
X135965350Y-198857947D01*
X135965350Y-198857947D02*
X136027255Y-198919852D01*
X136027255Y-198919852D02*
X136089160Y-199043661D01*
X136089160Y-199043661D02*
X136089160Y-199353185D01*
X136089160Y-199353185D02*
X136027255Y-199476995D01*
X136027255Y-199476995D02*
X135965350Y-199538900D01*
X135965350Y-199538900D02*
X135841541Y-199600804D01*
X135841541Y-199600804D02*
X135470112Y-199600804D01*
X135470112Y-199600804D02*
X135346303Y-199538900D01*
X135346303Y-199538900D02*
X135284398Y-199476995D01*
X185965350Y-198734138D02*
X185965350Y-199600804D01*
X185655826Y-198238900D02*
X185346303Y-199167471D01*
X185346303Y-199167471D02*
X186151064Y-199167471D01*
X236027255Y-198300804D02*
X235408207Y-198300804D01*
X235408207Y-198300804D02*
X235346303Y-198919852D01*
X235346303Y-198919852D02*
X235408207Y-198857947D01*
X235408207Y-198857947D02*
X235532017Y-198796042D01*
X235532017Y-198796042D02*
X235841541Y-198796042D01*
X235841541Y-198796042D02*
X235965350Y-198857947D01*
X235965350Y-198857947D02*
X236027255Y-198919852D01*
X236027255Y-198919852D02*
X236089160Y-199043661D01*
X236089160Y-199043661D02*
X236089160Y-199353185D01*
X236089160Y-199353185D02*
X236027255Y-199476995D01*
X236027255Y-199476995D02*
X235965350Y-199538900D01*
X235965350Y-199538900D02*
X235841541Y-199600804D01*
X235841541Y-199600804D02*
X235532017Y-199600804D01*
X235532017Y-199600804D02*
X235408207Y-199538900D01*
X235408207Y-199538900D02*
X235346303Y-199476995D01*
X285965350Y-198300804D02*
X285717731Y-198300804D01*
X285717731Y-198300804D02*
X285593922Y-198362709D01*
X285593922Y-198362709D02*
X285532017Y-198424614D01*
X285532017Y-198424614D02*
X285408207Y-198610328D01*
X285408207Y-198610328D02*
X285346303Y-198857947D01*
X285346303Y-198857947D02*
X285346303Y-199353185D01*
X285346303Y-199353185D02*
X285408207Y-199476995D01*
X285408207Y-199476995D02*
X285470112Y-199538900D01*
X285470112Y-199538900D02*
X285593922Y-199600804D01*
X285593922Y-199600804D02*
X285841541Y-199600804D01*
X285841541Y-199600804D02*
X285965350Y-199538900D01*
X285965350Y-199538900D02*
X286027255Y-199476995D01*
X286027255Y-199476995D02*
X286089160Y-199353185D01*
X286089160Y-199353185D02*
X286089160Y-199043661D01*
X286089160Y-199043661D02*
X286027255Y-198919852D01*
X286027255Y-198919852D02*
X285965350Y-198857947D01*
X285965350Y-198857947D02*
X285841541Y-198796042D01*
X285841541Y-198796042D02*
X285593922Y-198796042D01*
X285593922Y-198796042D02*
X285470112Y-198857947D01*
X285470112Y-198857947D02*
X285408207Y-198919852D01*
X285408207Y-198919852D02*
X285346303Y-199043661D01*
X10000000Y-60000000D02*
X12000000Y-60000000D01*
X10000000Y-110000000D02*
X12000000Y-110000000D01*
X10000000Y-160000000D02*
X12000000Y-160000000D01*
X10690476Y-35222176D02*
X11309523Y-35222176D01*
X10566666Y-35593604D02*
X10999999Y-34293604D01*
X10999999Y-34293604D02*
X11433333Y-35593604D01*
X11092857Y-84912652D02*
X11278571Y-84974557D01*
X11278571Y-84974557D02*
X11340476Y-85036461D01*
X11340476Y-85036461D02*
X11402380Y-85160271D01*
X11402380Y-85160271D02*
X11402380Y-85345985D01*
X11402380Y-85345985D02*
X11340476Y-85469795D01*
X11340476Y-85469795D02*
X11278571Y-85531700D01*
X11278571Y-85531700D02*
X11154761Y-85593604D01*
X11154761Y-85593604D02*
X10659523Y-85593604D01*
X10659523Y-85593604D02*
X10659523Y-84293604D01*
X10659523Y-84293604D02*
X11092857Y-84293604D01*
X11092857Y-84293604D02*
X11216666Y-84355509D01*
X11216666Y-84355509D02*
X11278571Y-84417414D01*
X11278571Y-84417414D02*
X11340476Y-84541223D01*
X11340476Y-84541223D02*
X11340476Y-84665033D01*
X11340476Y-84665033D02*
X11278571Y-84788842D01*
X11278571Y-84788842D02*
X11216666Y-84850747D01*
X11216666Y-84850747D02*
X11092857Y-84912652D01*
X11092857Y-84912652D02*
X10659523Y-84912652D01*
X11402380Y-135469795D02*
X11340476Y-135531700D01*
X11340476Y-135531700D02*
X11154761Y-135593604D01*
X11154761Y-135593604D02*
X11030952Y-135593604D01*
X11030952Y-135593604D02*
X10845238Y-135531700D01*
X10845238Y-135531700D02*
X10721428Y-135407890D01*
X10721428Y-135407890D02*
X10659523Y-135284080D01*
X10659523Y-135284080D02*
X10597619Y-135036461D01*
X10597619Y-135036461D02*
X10597619Y-134850747D01*
X10597619Y-134850747D02*
X10659523Y-134603128D01*
X10659523Y-134603128D02*
X10721428Y-134479319D01*
X10721428Y-134479319D02*
X10845238Y-134355509D01*
X10845238Y-134355509D02*
X11030952Y-134293604D01*
X11030952Y-134293604D02*
X11154761Y-134293604D01*
X11154761Y-134293604D02*
X11340476Y-134355509D01*
X11340476Y-134355509D02*
X11402380Y-134417414D01*
X10659523Y-185593604D02*
X10659523Y-184293604D01*
X10659523Y-184293604D02*
X10969047Y-184293604D01*
X10969047Y-184293604D02*
X11154761Y-184355509D01*
X11154761Y-184355509D02*
X11278571Y-184479319D01*
X11278571Y-184479319D02*
X11340476Y-184603128D01*
X11340476Y-184603128D02*
X11402380Y-184850747D01*
X11402380Y-184850747D02*
X11402380Y-185036461D01*
X11402380Y-185036461D02*
X11340476Y-185284080D01*
X11340476Y-185284080D02*
X11278571Y-185407890D01*
X11278571Y-185407890D02*
X11154761Y-185531700D01*
X11154761Y-185531700D02*
X10969047Y-185593604D01*
X10969047Y-185593604D02*
X10659523Y-185593604D01*
X287002200Y-60000000D02*
X285002200Y-60000000D01*
X287002200Y-110000000D02*
X285002200Y-110000000D01*
X287002200Y-160000000D02*
X285002200Y-160000000D01*
X285692676Y-35222176D02*
X286311723Y-35222176D01*
X285568866Y-35593604D02*
X286002199Y-34293604D01*
X286002199Y-34293604D02*
X286435533Y-35593604D01*
X286095057Y-84912652D02*
X286280771Y-84974557D01*
X286280771Y-84974557D02*
X286342676Y-85036461D01*
X286342676Y-85036461D02*
X286404580Y-85160271D01*
X286404580Y-85160271D02*
X286404580Y-85345985D01*
X286404580Y-85345985D02*
X286342676Y-85469795D01*
X286342676Y-85469795D02*
X286280771Y-85531700D01*
X286280771Y-85531700D02*
X286156961Y-85593604D01*
X286156961Y-85593604D02*
X285661723Y-85593604D01*
X285661723Y-85593604D02*
X285661723Y-84293604D01*
X285661723Y-84293604D02*
X286095057Y-84293604D01*
X286095057Y-84293604D02*
X286218866Y-84355509D01*
X286218866Y-84355509D02*
X286280771Y-84417414D01*
X286280771Y-84417414D02*
X286342676Y-84541223D01*
X286342676Y-84541223D02*
X286342676Y-84665033D01*
X286342676Y-84665033D02*
X286280771Y-84788842D01*
X286280771Y-84788842D02*
X286218866Y-84850747D01*
X286218866Y-84850747D02*
X286095057Y-84912652D01*
X286095057Y-84912652D02*
X285661723Y-84912652D01*
X286404580Y-135469795D02*
X286342676Y-135531700D01*
X286342676Y-135531700D02*
X286156961Y-135593604D01*
X286156961Y-135593604D02*
X286033152Y-135593604D01*
X286033152Y-135593604D02*
X285847438Y-135531700D01*
X285847438Y-135531700D02*
X285723628Y-135407890D01*
X285723628Y-135407890D02*
X285661723Y-135284080D01*
X285661723Y-135284080D02*
X285599819Y-135036461D01*
X285599819Y-135036461D02*
X285599819Y-134850747D01*
X285599819Y-134850747D02*
X285661723Y-134603128D01*
X285661723Y-134603128D02*
X285723628Y-134479319D01*
X285723628Y-134479319D02*
X285847438Y-134355509D01*
X285847438Y-134355509D02*
X286033152Y-134293604D01*
X286033152Y-134293604D02*
X286156961Y-134293604D01*
X286156961Y-134293604D02*
X286342676Y-134355509D01*
X286342676Y-134355509D02*
X286404580Y-134417414D01*
X285661723Y-185593604D02*
X285661723Y-184293604D01*
X285661723Y-184293604D02*
X285971247Y-184293604D01*
X285971247Y-184293604D02*
X286156961Y-184355509D01*
X286156961Y-184355509D02*
X286280771Y-184479319D01*
X286280771Y-184479319D02*
X286342676Y-184603128D01*
X286342676Y-184603128D02*
X286404580Y-184850747D01*
X286404580Y-184850747D02*
X286404580Y-185036461D01*
X286404580Y-185036461D02*
X286342676Y-185284080D01*
X286342676Y-185284080D02*
X286280771Y-185407890D01*
X286280771Y-185407890D02*
X286156961Y-185531700D01*
X286156961Y-185531700D02*
X285971247Y-185593604D01*
X285971247Y-185593604D02*
X285661723Y-185593604D01*
X200458026Y-193793328D02*
X200458026Y-192293328D01*
X200458026Y-192293328D02*
X200815169Y-192293328D01*
X200815169Y-192293328D02*
X201029455Y-192364757D01*
X201029455Y-192364757D02*
X201172312Y-192507614D01*
X201172312Y-192507614D02*
X201243741Y-192650471D01*
X201243741Y-192650471D02*
X201315169Y-192936185D01*
X201315169Y-192936185D02*
X201315169Y-193150471D01*
X201315169Y-193150471D02*
X201243741Y-193436185D01*
X201243741Y-193436185D02*
X201172312Y-193579042D01*
X201172312Y-193579042D02*
X201029455Y-193721900D01*
X201029455Y-193721900D02*
X200815169Y-193793328D01*
X200815169Y-193793328D02*
X200458026Y-193793328D01*
X202600884Y-193793328D02*
X202600884Y-193007614D01*
X202600884Y-193007614D02*
X202529455Y-192864757D01*
X202529455Y-192864757D02*
X202386598Y-192793328D01*
X202386598Y-192793328D02*
X202100884Y-192793328D01*
X202100884Y-192793328D02*
X201958026Y-192864757D01*
X202600884Y-193721900D02*
X202458026Y-193793328D01*
X202458026Y-193793328D02*
X202100884Y-193793328D01*
X202100884Y-193793328D02*
X201958026Y-193721900D01*
X201958026Y-193721900D02*
X201886598Y-193579042D01*
X201886598Y-193579042D02*
X201886598Y-193436185D01*
X201886598Y-193436185D02*
X201958026Y-193293328D01*
X201958026Y-193293328D02*
X202100884Y-193221900D01*
X202100884Y-193221900D02*
X202458026Y-193221900D01*
X202458026Y-193221900D02*
X202600884Y-193150471D01*
X203100884Y-192793328D02*
X203672312Y-192793328D01*
X203315169Y-192293328D02*
X203315169Y-193579042D01*
X203315169Y-193579042D02*
X203386598Y-193721900D01*
X203386598Y-193721900D02*
X203529455Y-193793328D01*
X203529455Y-193793328D02*
X203672312Y-193793328D01*
X204743741Y-193721900D02*
X204600884Y-193793328D01*
X204600884Y-193793328D02*
X204315170Y-193793328D01*
X204315170Y-193793328D02*
X204172312Y-193721900D01*
X204172312Y-193721900D02*
X204100884Y-193579042D01*
X204100884Y-193579042D02*
X204100884Y-193007614D01*
X204100884Y-193007614D02*
X204172312Y-192864757D01*
X204172312Y-192864757D02*
X204315170Y-192793328D01*
X204315170Y-192793328D02*
X204600884Y-192793328D01*
X204600884Y-192793328D02*
X204743741Y-192864757D01*
X204743741Y-192864757D02*
X204815170Y-193007614D01*
X204815170Y-193007614D02*
X204815170Y-193150471D01*
X204815170Y-193150471D02*
X204100884Y-193293328D01*
X205458026Y-193650471D02*
X205529455Y-193721900D01*
X205529455Y-193721900D02*
X205458026Y-193793328D01*
X205458026Y-193793328D02*
X205386598Y-193721900D01*
X205386598Y-193721900D02*
X205458026Y-193650471D01*
X205458026Y-193650471D02*
X205458026Y-193793328D01*
X205458026Y-192864757D02*
X205529455Y-192936185D01*
X205529455Y-192936185D02*
X205458026Y-193007614D01*
X205458026Y-193007614D02*
X205386598Y-192936185D01*
X205386598Y-192936185D02*
X205458026Y-192864757D01*
X205458026Y-192864757D02*
X205458026Y-193007614D01*
X177002200Y-194507200D02*
X285002200Y-194507200D01*
X178458026Y-196593328D02*
X178458026Y-195093328D01*
X179315169Y-196593328D02*
X178672312Y-195736185D01*
X179315169Y-195093328D02*
X178458026Y-195950471D01*
X179958026Y-196593328D02*
X179958026Y-195593328D01*
X179958026Y-195093328D02*
X179886598Y-195164757D01*
X179886598Y-195164757D02*
X179958026Y-195236185D01*
X179958026Y-195236185D02*
X180029455Y-195164757D01*
X180029455Y-195164757D02*
X179958026Y-195093328D01*
X179958026Y-195093328D02*
X179958026Y-195236185D01*
X181529455Y-196450471D02*
X181458027Y-196521900D01*
X181458027Y-196521900D02*
X181243741Y-196593328D01*
X181243741Y-196593328D02*
X181100884Y-196593328D01*
X181100884Y-196593328D02*
X180886598Y-196521900D01*
X180886598Y-196521900D02*
X180743741Y-196379042D01*
X180743741Y-196379042D02*
X180672312Y-196236185D01*
X180672312Y-196236185D02*
X180600884Y-195950471D01*
X180600884Y-195950471D02*
X180600884Y-195736185D01*
X180600884Y-195736185D02*
X180672312Y-195450471D01*
X180672312Y-195450471D02*
X180743741Y-195307614D01*
X180743741Y-195307614D02*
X180886598Y-195164757D01*
X180886598Y-195164757D02*
X181100884Y-195093328D01*
X181100884Y-195093328D02*
X181243741Y-195093328D01*
X181243741Y-195093328D02*
X181458027Y-195164757D01*
X181458027Y-195164757D02*
X181529455Y-195236185D01*
X182815170Y-196593328D02*
X182815170Y-195807614D01*
X182815170Y-195807614D02*
X182743741Y-195664757D01*
X182743741Y-195664757D02*
X182600884Y-195593328D01*
X182600884Y-195593328D02*
X182315170Y-195593328D01*
X182315170Y-195593328D02*
X182172312Y-195664757D01*
X182815170Y-196521900D02*
X182672312Y-196593328D01*
X182672312Y-196593328D02*
X182315170Y-196593328D01*
X182315170Y-196593328D02*
X182172312Y-196521900D01*
X182172312Y-196521900D02*
X182100884Y-196379042D01*
X182100884Y-196379042D02*
X182100884Y-196236185D01*
X182100884Y-196236185D02*
X182172312Y-196093328D01*
X182172312Y-196093328D02*
X182315170Y-196021900D01*
X182315170Y-196021900D02*
X182672312Y-196021900D01*
X182672312Y-196021900D02*
X182815170Y-195950471D01*
X184172313Y-196593328D02*
X184172313Y-195093328D01*
X184172313Y-196521900D02*
X184029455Y-196593328D01*
X184029455Y-196593328D02*
X183743741Y-196593328D01*
X183743741Y-196593328D02*
X183600884Y-196521900D01*
X183600884Y-196521900D02*
X183529455Y-196450471D01*
X183529455Y-196450471D02*
X183458027Y-196307614D01*
X183458027Y-196307614D02*
X183458027Y-195879042D01*
X183458027Y-195879042D02*
X183529455Y-195736185D01*
X183529455Y-195736185D02*
X183600884Y-195664757D01*
X183600884Y-195664757D02*
X183743741Y-195593328D01*
X183743741Y-195593328D02*
X184029455Y-195593328D01*
X184029455Y-195593328D02*
X184172313Y-195664757D01*
X186029455Y-195807614D02*
X186529455Y-195807614D01*
X186743741Y-196593328D02*
X186029455Y-196593328D01*
X186029455Y-196593328D02*
X186029455Y-195093328D01*
X186029455Y-195093328D02*
X186743741Y-195093328D01*
X187386598Y-196450471D02*
X187458027Y-196521900D01*
X187458027Y-196521900D02*
X187386598Y-196593328D01*
X187386598Y-196593328D02*
X187315170Y-196521900D01*
X187315170Y-196521900D02*
X187386598Y-196450471D01*
X187386598Y-196450471D02*
X187386598Y-196593328D01*
X188100884Y-196593328D02*
X188100884Y-195093328D01*
X188100884Y-195093328D02*
X188458027Y-195093328D01*
X188458027Y-195093328D02*
X188672313Y-195164757D01*
X188672313Y-195164757D02*
X188815170Y-195307614D01*
X188815170Y-195307614D02*
X188886599Y-195450471D01*
X188886599Y-195450471D02*
X188958027Y-195736185D01*
X188958027Y-195736185D02*
X188958027Y-195950471D01*
X188958027Y-195950471D02*
X188886599Y-196236185D01*
X188886599Y-196236185D02*
X188815170Y-196379042D01*
X188815170Y-196379042D02*
X188672313Y-196521900D01*
X188672313Y-196521900D02*
X188458027Y-196593328D01*
X188458027Y-196593328D02*
X188100884Y-196593328D01*
X189600884Y-196450471D02*
X189672313Y-196521900D01*
X189672313Y-196521900D02*
X189600884Y-196593328D01*
X189600884Y-196593328D02*
X189529456Y-196521900D01*
X189529456Y-196521900D02*
X189600884Y-196450471D01*
X189600884Y-196450471D02*
X189600884Y-196593328D01*
X190243742Y-196164757D02*
X190958028Y-196164757D01*
X190100885Y-196593328D02*
X190600885Y-195093328D01*
X190600885Y-195093328D02*
X191100885Y-196593328D01*
X191600884Y-196450471D02*
X191672313Y-196521900D01*
X191672313Y-196521900D02*
X191600884Y-196593328D01*
X191600884Y-196593328D02*
X191529456Y-196521900D01*
X191529456Y-196521900D02*
X191600884Y-196450471D01*
X191600884Y-196450471D02*
X191600884Y-196593328D01*
X194243742Y-196593328D02*
X193386599Y-196593328D01*
X193815170Y-196593328D02*
X193815170Y-195093328D01*
X193815170Y-195093328D02*
X193672313Y-195307614D01*
X193672313Y-195307614D02*
X193529456Y-195450471D01*
X193529456Y-195450471D02*
X193386599Y-195521900D01*
X195172313Y-195093328D02*
X195315170Y-195093328D01*
X195315170Y-195093328D02*
X195458027Y-195164757D01*
X195458027Y-195164757D02*
X195529456Y-195236185D01*
X195529456Y-195236185D02*
X195600884Y-195379042D01*
X195600884Y-195379042D02*
X195672313Y-195664757D01*
X195672313Y-195664757D02*
X195672313Y-196021900D01*
X195672313Y-196021900D02*
X195600884Y-196307614D01*
X195600884Y-196307614D02*
X195529456Y-196450471D01*
X195529456Y-196450471D02*
X195458027Y-196521900D01*
X195458027Y-196521900D02*
X195315170Y-196593328D01*
X195315170Y-196593328D02*
X195172313Y-196593328D01*
X195172313Y-196593328D02*
X195029456Y-196521900D01*
X195029456Y-196521900D02*
X194958027Y-196450471D01*
X194958027Y-196450471D02*
X194886598Y-196307614D01*
X194886598Y-196307614D02*
X194815170Y-196021900D01*
X194815170Y-196021900D02*
X194815170Y-195664757D01*
X194815170Y-195664757D02*
X194886598Y-195379042D01*
X194886598Y-195379042D02*
X194958027Y-195236185D01*
X194958027Y-195236185D02*
X195029456Y-195164757D01*
X195029456Y-195164757D02*
X195172313Y-195093328D01*
X196315169Y-196450471D02*
X196386598Y-196521900D01*
X196386598Y-196521900D02*
X196315169Y-196593328D01*
X196315169Y-196593328D02*
X196243741Y-196521900D01*
X196243741Y-196521900D02*
X196315169Y-196450471D01*
X196315169Y-196450471D02*
X196315169Y-196593328D01*
X197315170Y-195093328D02*
X197458027Y-195093328D01*
X197458027Y-195093328D02*
X197600884Y-195164757D01*
X197600884Y-195164757D02*
X197672313Y-195236185D01*
X197672313Y-195236185D02*
X197743741Y-195379042D01*
X197743741Y-195379042D02*
X197815170Y-195664757D01*
X197815170Y-195664757D02*
X197815170Y-196021900D01*
X197815170Y-196021900D02*
X197743741Y-196307614D01*
X197743741Y-196307614D02*
X197672313Y-196450471D01*
X197672313Y-196450471D02*
X197600884Y-196521900D01*
X197600884Y-196521900D02*
X197458027Y-196593328D01*
X197458027Y-196593328D02*
X197315170Y-196593328D01*
X197315170Y-196593328D02*
X197172313Y-196521900D01*
X197172313Y-196521900D02*
X197100884Y-196450471D01*
X197100884Y-196450471D02*
X197029455Y-196307614D01*
X197029455Y-196307614D02*
X196958027Y-196021900D01*
X196958027Y-196021900D02*
X196958027Y-195664757D01*
X196958027Y-195664757D02*
X197029455Y-195379042D01*
X197029455Y-195379042D02*
X197100884Y-195236185D01*
X197100884Y-195236185D02*
X197172313Y-195164757D01*
X197172313Y-195164757D02*
X197315170Y-195093328D01*
X198458026Y-196450471D02*
X198529455Y-196521900D01*
X198529455Y-196521900D02*
X198458026Y-196593328D01*
X198458026Y-196593328D02*
X198386598Y-196521900D01*
X198386598Y-196521900D02*
X198458026Y-196450471D01*
X198458026Y-196450471D02*
X198458026Y-196593328D01*
X199958027Y-196593328D02*
X199100884Y-196593328D01*
X199529455Y-196593328D02*
X199529455Y-195093328D01*
X199529455Y-195093328D02*
X199386598Y-195307614D01*
X199386598Y-195307614D02*
X199243741Y-195450471D01*
X199243741Y-195450471D02*
X199100884Y-195521900D01*
X177002200Y-191507200D02*
X285002200Y-191507200D01*
D11*
X264413853Y-193785528D02*
X263913853Y-193071242D01*
X263556710Y-193785528D02*
X263556710Y-192285528D01*
X263556710Y-192285528D02*
X264128139Y-192285528D01*
X264128139Y-192285528D02*
X264270996Y-192356957D01*
X264270996Y-192356957D02*
X264342425Y-192428385D01*
X264342425Y-192428385D02*
X264413853Y-192571242D01*
X264413853Y-192571242D02*
X264413853Y-192785528D01*
X264413853Y-192785528D02*
X264342425Y-192928385D01*
X264342425Y-192928385D02*
X264270996Y-192999814D01*
X264270996Y-192999814D02*
X264128139Y-193071242D01*
X264128139Y-193071242D02*
X263556710Y-193071242D01*
X265628139Y-193714100D02*
X265485282Y-193785528D01*
X265485282Y-193785528D02*
X265199568Y-193785528D01*
X265199568Y-193785528D02*
X265056710Y-193714100D01*
X265056710Y-193714100D02*
X264985282Y-193571242D01*
X264985282Y-193571242D02*
X264985282Y-192999814D01*
X264985282Y-192999814D02*
X265056710Y-192856957D01*
X265056710Y-192856957D02*
X265199568Y-192785528D01*
X265199568Y-192785528D02*
X265485282Y-192785528D01*
X265485282Y-192785528D02*
X265628139Y-192856957D01*
X265628139Y-192856957D02*
X265699568Y-192999814D01*
X265699568Y-192999814D02*
X265699568Y-193142671D01*
X265699568Y-193142671D02*
X264985282Y-193285528D01*
X266199567Y-192785528D02*
X266556710Y-193785528D01*
X266556710Y-193785528D02*
X266913853Y-192785528D01*
X267485281Y-193642671D02*
X267556710Y-193714100D01*
X267556710Y-193714100D02*
X267485281Y-193785528D01*
X267485281Y-193785528D02*
X267413853Y-193714100D01*
X267413853Y-193714100D02*
X267485281Y-193642671D01*
X267485281Y-193642671D02*
X267485281Y-193785528D01*
X267485281Y-192856957D02*
X267556710Y-192928385D01*
X267556710Y-192928385D02*
X267485281Y-192999814D01*
X267485281Y-192999814D02*
X267413853Y-192928385D01*
X267413853Y-192928385D02*
X267485281Y-192856957D01*
X267485281Y-192856957D02*
X267485281Y-192999814D01*
D10*
X178386598Y-193721900D02*
X178600884Y-193793328D01*
X178600884Y-193793328D02*
X178958026Y-193793328D01*
X178958026Y-193793328D02*
X179100884Y-193721900D01*
X179100884Y-193721900D02*
X179172312Y-193650471D01*
X179172312Y-193650471D02*
X179243741Y-193507614D01*
X179243741Y-193507614D02*
X179243741Y-193364757D01*
X179243741Y-193364757D02*
X179172312Y-193221900D01*
X179172312Y-193221900D02*
X179100884Y-193150471D01*
X179100884Y-193150471D02*
X178958026Y-193079042D01*
X178958026Y-193079042D02*
X178672312Y-193007614D01*
X178672312Y-193007614D02*
X178529455Y-192936185D01*
X178529455Y-192936185D02*
X178458026Y-192864757D01*
X178458026Y-192864757D02*
X178386598Y-192721900D01*
X178386598Y-192721900D02*
X178386598Y-192579042D01*
X178386598Y-192579042D02*
X178458026Y-192436185D01*
X178458026Y-192436185D02*
X178529455Y-192364757D01*
X178529455Y-192364757D02*
X178672312Y-192293328D01*
X178672312Y-192293328D02*
X179029455Y-192293328D01*
X179029455Y-192293328D02*
X179243741Y-192364757D01*
X179886597Y-193793328D02*
X179886597Y-192793328D01*
X179886597Y-192293328D02*
X179815169Y-192364757D01*
X179815169Y-192364757D02*
X179886597Y-192436185D01*
X179886597Y-192436185D02*
X179958026Y-192364757D01*
X179958026Y-192364757D02*
X179886597Y-192293328D01*
X179886597Y-192293328D02*
X179886597Y-192436185D01*
X180458026Y-192793328D02*
X181243741Y-192793328D01*
X181243741Y-192793328D02*
X180458026Y-193793328D01*
X180458026Y-193793328D02*
X181243741Y-193793328D01*
X182386598Y-193721900D02*
X182243741Y-193793328D01*
X182243741Y-193793328D02*
X181958027Y-193793328D01*
X181958027Y-193793328D02*
X181815169Y-193721900D01*
X181815169Y-193721900D02*
X181743741Y-193579042D01*
X181743741Y-193579042D02*
X181743741Y-193007614D01*
X181743741Y-193007614D02*
X181815169Y-192864757D01*
X181815169Y-192864757D02*
X181958027Y-192793328D01*
X181958027Y-192793328D02*
X182243741Y-192793328D01*
X182243741Y-192793328D02*
X182386598Y-192864757D01*
X182386598Y-192864757D02*
X182458027Y-193007614D01*
X182458027Y-193007614D02*
X182458027Y-193150471D01*
X182458027Y-193150471D02*
X181743741Y-193293328D01*
X183100883Y-193650471D02*
X183172312Y-193721900D01*
X183172312Y-193721900D02*
X183100883Y-193793328D01*
X183100883Y-193793328D02*
X183029455Y-193721900D01*
X183029455Y-193721900D02*
X183100883Y-193650471D01*
X183100883Y-193650471D02*
X183100883Y-193793328D01*
X183100883Y-192864757D02*
X183172312Y-192936185D01*
X183172312Y-192936185D02*
X183100883Y-193007614D01*
X183100883Y-193007614D02*
X183029455Y-192936185D01*
X183029455Y-192936185D02*
X183100883Y-192864757D01*
X183100883Y-192864757D02*
X183100883Y-193007614D01*
X184886598Y-193364757D02*
X185600884Y-193364757D01*
X184743741Y-193793328D02*
X185243741Y-192293328D01*
X185243741Y-192293328D02*
X185743741Y-193793328D01*
X186886598Y-192793328D02*
X186886598Y-193793328D01*
X186529455Y-192221900D02*
X186172312Y-193293328D01*
X186172312Y-193293328D02*
X187100883Y-193293328D01*
X263458026Y-196593328D02*
X263458026Y-195093328D01*
X264815170Y-196593328D02*
X264815170Y-195093328D01*
X264815170Y-196521900D02*
X264672312Y-196593328D01*
X264672312Y-196593328D02*
X264386598Y-196593328D01*
X264386598Y-196593328D02*
X264243741Y-196521900D01*
X264243741Y-196521900D02*
X264172312Y-196450471D01*
X264172312Y-196450471D02*
X264100884Y-196307614D01*
X264100884Y-196307614D02*
X264100884Y-195879042D01*
X264100884Y-195879042D02*
X264172312Y-195736185D01*
X264172312Y-195736185D02*
X264243741Y-195664757D01*
X264243741Y-195664757D02*
X264386598Y-195593328D01*
X264386598Y-195593328D02*
X264672312Y-195593328D01*
X264672312Y-195593328D02*
X264815170Y-195664757D01*
X265529455Y-196450471D02*
X265600884Y-196521900D01*
X265600884Y-196521900D02*
X265529455Y-196593328D01*
X265529455Y-196593328D02*
X265458027Y-196521900D01*
X265458027Y-196521900D02*
X265529455Y-196450471D01*
X265529455Y-196450471D02*
X265529455Y-196593328D01*
X265529455Y-195664757D02*
X265600884Y-195736185D01*
X265600884Y-195736185D02*
X265529455Y-195807614D01*
X265529455Y-195807614D02*
X265458027Y-195736185D01*
X265458027Y-195736185D02*
X265529455Y-195664757D01*
X265529455Y-195664757D02*
X265529455Y-195807614D01*
X267243741Y-195093328D02*
X268172313Y-195093328D01*
X268172313Y-195093328D02*
X267672313Y-195664757D01*
X267672313Y-195664757D02*
X267886598Y-195664757D01*
X267886598Y-195664757D02*
X268029456Y-195736185D01*
X268029456Y-195736185D02*
X268100884Y-195807614D01*
X268100884Y-195807614D02*
X268172313Y-195950471D01*
X268172313Y-195950471D02*
X268172313Y-196307614D01*
X268172313Y-196307614D02*
X268100884Y-196450471D01*
X268100884Y-196450471D02*
X268029456Y-196521900D01*
X268029456Y-196521900D02*
X267886598Y-196593328D01*
X267886598Y-196593328D02*
X267458027Y-196593328D01*
X267458027Y-196593328D02*
X267315170Y-196521900D01*
X267315170Y-196521900D02*
X267243741Y-196450471D01*
X269886598Y-195021900D02*
X268600884Y-196950471D01*
X271172313Y-196593328D02*
X270315170Y-196593328D01*
X270743741Y-196593328D02*
X270743741Y-195093328D01*
X270743741Y-195093328D02*
X270600884Y-195307614D01*
X270600884Y-195307614D02*
X270458027Y-195450471D01*
X270458027Y-195450471D02*
X270315170Y-195521900D01*
X272458027Y-195593328D02*
X272458027Y-196593328D01*
X272100884Y-195021900D02*
X271743741Y-196093328D01*
X271743741Y-196093328D02*
X272672312Y-196093328D01*
X177002200Y-187507200D02*
X285002200Y-187507200D01*
D12*
X178693928Y-188211638D02*
X179836785Y-188211638D01*
X179015357Y-190211638D02*
X179265357Y-188211638D01*
X180253452Y-190211638D02*
X180420119Y-188878304D01*
X180503452Y-188211638D02*
X180396309Y-188306876D01*
X180396309Y-188306876D02*
X180479643Y-188402114D01*
X180479643Y-188402114D02*
X180586786Y-188306876D01*
X180586786Y-188306876D02*
X180503452Y-188211638D01*
X180503452Y-188211638D02*
X180479643Y-188402114D01*
X181086786Y-188878304D02*
X181848690Y-188878304D01*
X181455833Y-188211638D02*
X181241548Y-189925923D01*
X181241548Y-189925923D02*
X181312976Y-190116400D01*
X181312976Y-190116400D02*
X181491548Y-190211638D01*
X181491548Y-190211638D02*
X181682024Y-190211638D01*
X182634405Y-190211638D02*
X182455833Y-190116400D01*
X182455833Y-190116400D02*
X182384405Y-189925923D01*
X182384405Y-189925923D02*
X182598690Y-188211638D01*
X184170119Y-190116400D02*
X183967738Y-190211638D01*
X183967738Y-190211638D02*
X183586785Y-190211638D01*
X183586785Y-190211638D02*
X183408214Y-190116400D01*
X183408214Y-190116400D02*
X183336785Y-189925923D01*
X183336785Y-189925923D02*
X183432024Y-189164019D01*
X183432024Y-189164019D02*
X183551071Y-188973542D01*
X183551071Y-188973542D02*
X183753452Y-188878304D01*
X183753452Y-188878304D02*
X184134404Y-188878304D01*
X184134404Y-188878304D02*
X184312976Y-188973542D01*
X184312976Y-188973542D02*
X184384404Y-189164019D01*
X184384404Y-189164019D02*
X184360595Y-189354495D01*
X184360595Y-189354495D02*
X183384404Y-189544971D01*
X185134405Y-190021161D02*
X185217738Y-190116400D01*
X185217738Y-190116400D02*
X185110595Y-190211638D01*
X185110595Y-190211638D02*
X185027262Y-190116400D01*
X185027262Y-190116400D02*
X185134405Y-190021161D01*
X185134405Y-190021161D02*
X185110595Y-190211638D01*
X185265357Y-188973542D02*
X185348690Y-189068780D01*
X185348690Y-189068780D02*
X185241548Y-189164019D01*
X185241548Y-189164019D02*
X185158214Y-189068780D01*
X185158214Y-189068780D02*
X185265357Y-188973542D01*
X185265357Y-188973542D02*
X185241548Y-189164019D01*
D10*
X178958026Y-185607614D02*
X178458026Y-185607614D01*
X178458026Y-186393328D02*
X178458026Y-184893328D01*
X178458026Y-184893328D02*
X179172312Y-184893328D01*
X179743740Y-186393328D02*
X179743740Y-185393328D01*
X179743740Y-184893328D02*
X179672312Y-184964757D01*
X179672312Y-184964757D02*
X179743740Y-185036185D01*
X179743740Y-185036185D02*
X179815169Y-184964757D01*
X179815169Y-184964757D02*
X179743740Y-184893328D01*
X179743740Y-184893328D02*
X179743740Y-185036185D01*
X180672312Y-186393328D02*
X180529455Y-186321900D01*
X180529455Y-186321900D02*
X180458026Y-186179042D01*
X180458026Y-186179042D02*
X180458026Y-184893328D01*
X181815169Y-186321900D02*
X181672312Y-186393328D01*
X181672312Y-186393328D02*
X181386598Y-186393328D01*
X181386598Y-186393328D02*
X181243740Y-186321900D01*
X181243740Y-186321900D02*
X181172312Y-186179042D01*
X181172312Y-186179042D02*
X181172312Y-185607614D01*
X181172312Y-185607614D02*
X181243740Y-185464757D01*
X181243740Y-185464757D02*
X181386598Y-185393328D01*
X181386598Y-185393328D02*
X181672312Y-185393328D01*
X181672312Y-185393328D02*
X181815169Y-185464757D01*
X181815169Y-185464757D02*
X181886598Y-185607614D01*
X181886598Y-185607614D02*
X181886598Y-185750471D01*
X181886598Y-185750471D02*
X181172312Y-185893328D01*
X182529454Y-186250471D02*
X182600883Y-186321900D01*
X182600883Y-186321900D02*
X182529454Y-186393328D01*
X182529454Y-186393328D02*
X182458026Y-186321900D01*
X182458026Y-186321900D02*
X182529454Y-186250471D01*
X182529454Y-186250471D02*
X182529454Y-186393328D01*
X182529454Y-185464757D02*
X182600883Y-185536185D01*
X182600883Y-185536185D02*
X182529454Y-185607614D01*
X182529454Y-185607614D02*
X182458026Y-185536185D01*
X182458026Y-185536185D02*
X182529454Y-185464757D01*
X182529454Y-185464757D02*
X182529454Y-185607614D01*
X184243740Y-186393328D02*
X185029455Y-185393328D01*
X184243740Y-185393328D02*
X185029455Y-186393328D01*
X185815169Y-186393328D02*
X185672312Y-186321900D01*
X185672312Y-186321900D02*
X185600883Y-186179042D01*
X185600883Y-186179042D02*
X185600883Y-184893328D01*
X186243740Y-185393328D02*
X187029455Y-185393328D01*
X187029455Y-185393328D02*
X186243740Y-186393328D01*
X186243740Y-186393328D02*
X187029455Y-186393328D01*
X188243741Y-186393328D02*
X188243741Y-184893328D01*
X188243741Y-186321900D02*
X188100883Y-186393328D01*
X188100883Y-186393328D02*
X187815169Y-186393328D01*
X187815169Y-186393328D02*
X187672312Y-186321900D01*
X187672312Y-186321900D02*
X187600883Y-186250471D01*
X187600883Y-186250471D02*
X187529455Y-186107614D01*
X187529455Y-186107614D02*
X187529455Y-185679042D01*
X187529455Y-185679042D02*
X187600883Y-185536185D01*
X187600883Y-185536185D02*
X187672312Y-185464757D01*
X187672312Y-185464757D02*
X187815169Y-185393328D01*
X187815169Y-185393328D02*
X188100883Y-185393328D01*
X188100883Y-185393328D02*
X188243741Y-185464757D01*
X188600884Y-186536185D02*
X189743741Y-186536185D01*
X189958026Y-186393328D02*
X190743741Y-185393328D01*
X189958026Y-185393328D02*
X190743741Y-186393328D01*
X191886598Y-186321900D02*
X191743741Y-186393328D01*
X191743741Y-186393328D02*
X191458027Y-186393328D01*
X191458027Y-186393328D02*
X191315169Y-186321900D01*
X191315169Y-186321900D02*
X191243741Y-186179042D01*
X191243741Y-186179042D02*
X191243741Y-185607614D01*
X191243741Y-185607614D02*
X191315169Y-185464757D01*
X191315169Y-185464757D02*
X191458027Y-185393328D01*
X191458027Y-185393328D02*
X191743741Y-185393328D01*
X191743741Y-185393328D02*
X191886598Y-185464757D01*
X191886598Y-185464757D02*
X191958027Y-185607614D01*
X191958027Y-185607614D02*
X191958027Y-185750471D01*
X191958027Y-185750471D02*
X191243741Y-185893328D01*
X192600883Y-185393328D02*
X192600883Y-186393328D01*
X192600883Y-185536185D02*
X192672312Y-185464757D01*
X192672312Y-185464757D02*
X192815169Y-185393328D01*
X192815169Y-185393328D02*
X193029455Y-185393328D01*
X193029455Y-185393328D02*
X193172312Y-185464757D01*
X193172312Y-185464757D02*
X193243741Y-185607614D01*
X193243741Y-185607614D02*
X193243741Y-186393328D01*
X194172312Y-186393328D02*
X194029455Y-186321900D01*
X194029455Y-186321900D02*
X193958026Y-186250471D01*
X193958026Y-186250471D02*
X193886598Y-186107614D01*
X193886598Y-186107614D02*
X193886598Y-185679042D01*
X193886598Y-185679042D02*
X193958026Y-185536185D01*
X193958026Y-185536185D02*
X194029455Y-185464757D01*
X194029455Y-185464757D02*
X194172312Y-185393328D01*
X194172312Y-185393328D02*
X194386598Y-185393328D01*
X194386598Y-185393328D02*
X194529455Y-185464757D01*
X194529455Y-185464757D02*
X194600884Y-185536185D01*
X194600884Y-185536185D02*
X194672312Y-185679042D01*
X194672312Y-185679042D02*
X194672312Y-186107614D01*
X194672312Y-186107614D02*
X194600884Y-186250471D01*
X194600884Y-186250471D02*
X194529455Y-186321900D01*
X194529455Y-186321900D02*
X194386598Y-186393328D01*
X194386598Y-186393328D02*
X194172312Y-186393328D01*
X195315169Y-185393328D02*
X195315169Y-186393328D01*
X195315169Y-185536185D02*
X195386598Y-185464757D01*
X195386598Y-185464757D02*
X195529455Y-185393328D01*
X195529455Y-185393328D02*
X195743741Y-185393328D01*
X195743741Y-185393328D02*
X195886598Y-185464757D01*
X195886598Y-185464757D02*
X195958027Y-185607614D01*
X195958027Y-185607614D02*
X195958027Y-186393328D01*
X196672312Y-185393328D02*
X196672312Y-186393328D01*
X196672312Y-185536185D02*
X196743741Y-185464757D01*
X196743741Y-185464757D02*
X196886598Y-185393328D01*
X196886598Y-185393328D02*
X197100884Y-185393328D01*
X197100884Y-185393328D02*
X197243741Y-185464757D01*
X197243741Y-185464757D02*
X197315170Y-185607614D01*
X197315170Y-185607614D02*
X197315170Y-186393328D01*
X197815170Y-185393328D02*
X198386598Y-185393328D01*
X198029455Y-184893328D02*
X198029455Y-186179042D01*
X198029455Y-186179042D02*
X198100884Y-186321900D01*
X198100884Y-186321900D02*
X198243741Y-186393328D01*
X198243741Y-186393328D02*
X198386598Y-186393328D01*
X198529456Y-186536185D02*
X199672313Y-186536185D01*
X200672313Y-186393328D02*
X200672313Y-185607614D01*
X200672313Y-185607614D02*
X200600884Y-185464757D01*
X200600884Y-185464757D02*
X200458027Y-185393328D01*
X200458027Y-185393328D02*
X200172313Y-185393328D01*
X200172313Y-185393328D02*
X200029455Y-185464757D01*
X200672313Y-186321900D02*
X200529455Y-186393328D01*
X200529455Y-186393328D02*
X200172313Y-186393328D01*
X200172313Y-186393328D02*
X200029455Y-186321900D01*
X200029455Y-186321900D02*
X199958027Y-186179042D01*
X199958027Y-186179042D02*
X199958027Y-186036185D01*
X199958027Y-186036185D02*
X200029455Y-185893328D01*
X200029455Y-185893328D02*
X200172313Y-185821900D01*
X200172313Y-185821900D02*
X200529455Y-185821900D01*
X200529455Y-185821900D02*
X200672313Y-185750471D01*
X201386598Y-186393328D02*
X201386598Y-185393328D01*
X201386598Y-185536185D02*
X201458027Y-185464757D01*
X201458027Y-185464757D02*
X201600884Y-185393328D01*
X201600884Y-185393328D02*
X201815170Y-185393328D01*
X201815170Y-185393328D02*
X201958027Y-185464757D01*
X201958027Y-185464757D02*
X202029456Y-185607614D01*
X202029456Y-185607614D02*
X202029456Y-186393328D01*
X202029456Y-185607614D02*
X202100884Y-185464757D01*
X202100884Y-185464757D02*
X202243741Y-185393328D01*
X202243741Y-185393328D02*
X202458027Y-185393328D01*
X202458027Y-185393328D02*
X202600884Y-185464757D01*
X202600884Y-185464757D02*
X202672313Y-185607614D01*
X202672313Y-185607614D02*
X202672313Y-186393328D01*
X203386598Y-185393328D02*
X203386598Y-186893328D01*
X203386598Y-185464757D02*
X203529456Y-185393328D01*
X203529456Y-185393328D02*
X203815170Y-185393328D01*
X203815170Y-185393328D02*
X203958027Y-185464757D01*
X203958027Y-185464757D02*
X204029456Y-185536185D01*
X204029456Y-185536185D02*
X204100884Y-185679042D01*
X204100884Y-185679042D02*
X204100884Y-186107614D01*
X204100884Y-186107614D02*
X204029456Y-186250471D01*
X204029456Y-186250471D02*
X203958027Y-186321900D01*
X203958027Y-186321900D02*
X203815170Y-186393328D01*
X203815170Y-186393328D02*
X203529456Y-186393328D01*
X203529456Y-186393328D02*
X203386598Y-186321900D01*
X204958027Y-186393328D02*
X204815170Y-186321900D01*
X204815170Y-186321900D02*
X204743741Y-186179042D01*
X204743741Y-186179042D02*
X204743741Y-184893328D01*
X205529455Y-186393328D02*
X205529455Y-185393328D01*
X205529455Y-184893328D02*
X205458027Y-184964757D01*
X205458027Y-184964757D02*
X205529455Y-185036185D01*
X205529455Y-185036185D02*
X205600884Y-184964757D01*
X205600884Y-184964757D02*
X205529455Y-184893328D01*
X205529455Y-184893328D02*
X205529455Y-185036185D01*
X206029456Y-185393328D02*
X206600884Y-185393328D01*
X206243741Y-186393328D02*
X206243741Y-185107614D01*
X206243741Y-185107614D02*
X206315170Y-184964757D01*
X206315170Y-184964757D02*
X206458027Y-184893328D01*
X206458027Y-184893328D02*
X206600884Y-184893328D01*
X207100884Y-186393328D02*
X207100884Y-185393328D01*
X207100884Y-184893328D02*
X207029456Y-184964757D01*
X207029456Y-184964757D02*
X207100884Y-185036185D01*
X207100884Y-185036185D02*
X207172313Y-184964757D01*
X207172313Y-184964757D02*
X207100884Y-184893328D01*
X207100884Y-184893328D02*
X207100884Y-185036185D01*
X208386599Y-186321900D02*
X208243742Y-186393328D01*
X208243742Y-186393328D02*
X207958028Y-186393328D01*
X207958028Y-186393328D02*
X207815170Y-186321900D01*
X207815170Y-186321900D02*
X207743742Y-186179042D01*
X207743742Y-186179042D02*
X207743742Y-185607614D01*
X207743742Y-185607614D02*
X207815170Y-185464757D01*
X207815170Y-185464757D02*
X207958028Y-185393328D01*
X207958028Y-185393328D02*
X208243742Y-185393328D01*
X208243742Y-185393328D02*
X208386599Y-185464757D01*
X208386599Y-185464757D02*
X208458028Y-185607614D01*
X208458028Y-185607614D02*
X208458028Y-185750471D01*
X208458028Y-185750471D02*
X207743742Y-185893328D01*
X209100884Y-186393328D02*
X209100884Y-185393328D01*
X209100884Y-185679042D02*
X209172313Y-185536185D01*
X209172313Y-185536185D02*
X209243742Y-185464757D01*
X209243742Y-185464757D02*
X209386599Y-185393328D01*
X209386599Y-185393328D02*
X209529456Y-185393328D01*
X209672313Y-186536185D02*
X210815170Y-186536185D01*
X210958027Y-185393328D02*
X211529455Y-185393328D01*
X211172312Y-184893328D02*
X211172312Y-186179042D01*
X211172312Y-186179042D02*
X211243741Y-186321900D01*
X211243741Y-186321900D02*
X211386598Y-186393328D01*
X211386598Y-186393328D02*
X211529455Y-186393328D01*
X212600884Y-186321900D02*
X212458027Y-186393328D01*
X212458027Y-186393328D02*
X212172313Y-186393328D01*
X212172313Y-186393328D02*
X212029455Y-186321900D01*
X212029455Y-186321900D02*
X211958027Y-186179042D01*
X211958027Y-186179042D02*
X211958027Y-185607614D01*
X211958027Y-185607614D02*
X212029455Y-185464757D01*
X212029455Y-185464757D02*
X212172313Y-185393328D01*
X212172313Y-185393328D02*
X212458027Y-185393328D01*
X212458027Y-185393328D02*
X212600884Y-185464757D01*
X212600884Y-185464757D02*
X212672313Y-185607614D01*
X212672313Y-185607614D02*
X212672313Y-185750471D01*
X212672313Y-185750471D02*
X211958027Y-185893328D01*
X213243741Y-186321900D02*
X213386598Y-186393328D01*
X213386598Y-186393328D02*
X213672312Y-186393328D01*
X213672312Y-186393328D02*
X213815169Y-186321900D01*
X213815169Y-186321900D02*
X213886598Y-186179042D01*
X213886598Y-186179042D02*
X213886598Y-186107614D01*
X213886598Y-186107614D02*
X213815169Y-185964757D01*
X213815169Y-185964757D02*
X213672312Y-185893328D01*
X213672312Y-185893328D02*
X213458027Y-185893328D01*
X213458027Y-185893328D02*
X213315169Y-185821900D01*
X213315169Y-185821900D02*
X213243741Y-185679042D01*
X213243741Y-185679042D02*
X213243741Y-185607614D01*
X213243741Y-185607614D02*
X213315169Y-185464757D01*
X213315169Y-185464757D02*
X213458027Y-185393328D01*
X213458027Y-185393328D02*
X213672312Y-185393328D01*
X213672312Y-185393328D02*
X213815169Y-185464757D01*
X214315170Y-185393328D02*
X214886598Y-185393328D01*
X214529455Y-184893328D02*
X214529455Y-186179042D01*
X214529455Y-186179042D02*
X214600884Y-186321900D01*
X214600884Y-186321900D02*
X214743741Y-186393328D01*
X214743741Y-186393328D02*
X214886598Y-186393328D01*
X215386598Y-186250471D02*
X215458027Y-186321900D01*
X215458027Y-186321900D02*
X215386598Y-186393328D01*
X215386598Y-186393328D02*
X215315170Y-186321900D01*
X215315170Y-186321900D02*
X215386598Y-186250471D01*
X215386598Y-186250471D02*
X215386598Y-186393328D01*
X216100884Y-186393328D02*
X216100884Y-184893328D01*
X216243742Y-185821900D02*
X216672313Y-186393328D01*
X216672313Y-185393328D02*
X216100884Y-185964757D01*
X217315170Y-186393328D02*
X217315170Y-185393328D01*
X217315170Y-184893328D02*
X217243742Y-184964757D01*
X217243742Y-184964757D02*
X217315170Y-185036185D01*
X217315170Y-185036185D02*
X217386599Y-184964757D01*
X217386599Y-184964757D02*
X217315170Y-184893328D01*
X217315170Y-184893328D02*
X217315170Y-185036185D01*
X218672314Y-186321900D02*
X218529456Y-186393328D01*
X218529456Y-186393328D02*
X218243742Y-186393328D01*
X218243742Y-186393328D02*
X218100885Y-186321900D01*
X218100885Y-186321900D02*
X218029456Y-186250471D01*
X218029456Y-186250471D02*
X217958028Y-186107614D01*
X217958028Y-186107614D02*
X217958028Y-185679042D01*
X217958028Y-185679042D02*
X218029456Y-185536185D01*
X218029456Y-185536185D02*
X218100885Y-185464757D01*
X218100885Y-185464757D02*
X218243742Y-185393328D01*
X218243742Y-185393328D02*
X218529456Y-185393328D01*
X218529456Y-185393328D02*
X218672314Y-185464757D01*
X219958028Y-186393328D02*
X219958028Y-185607614D01*
X219958028Y-185607614D02*
X219886599Y-185464757D01*
X219886599Y-185464757D02*
X219743742Y-185393328D01*
X219743742Y-185393328D02*
X219458028Y-185393328D01*
X219458028Y-185393328D02*
X219315170Y-185464757D01*
X219958028Y-186321900D02*
X219815170Y-186393328D01*
X219815170Y-186393328D02*
X219458028Y-186393328D01*
X219458028Y-186393328D02*
X219315170Y-186321900D01*
X219315170Y-186321900D02*
X219243742Y-186179042D01*
X219243742Y-186179042D02*
X219243742Y-186036185D01*
X219243742Y-186036185D02*
X219315170Y-185893328D01*
X219315170Y-185893328D02*
X219458028Y-185821900D01*
X219458028Y-185821900D02*
X219815170Y-185821900D01*
X219815170Y-185821900D02*
X219958028Y-185750471D01*
X221315171Y-186393328D02*
X221315171Y-184893328D01*
X221315171Y-186321900D02*
X221172313Y-186393328D01*
X221172313Y-186393328D02*
X220886599Y-186393328D01*
X220886599Y-186393328D02*
X220743742Y-186321900D01*
X220743742Y-186321900D02*
X220672313Y-186250471D01*
X220672313Y-186250471D02*
X220600885Y-186107614D01*
X220600885Y-186107614D02*
X220600885Y-185679042D01*
X220600885Y-185679042D02*
X220672313Y-185536185D01*
X220672313Y-185536185D02*
X220743742Y-185464757D01*
X220743742Y-185464757D02*
X220886599Y-185393328D01*
X220886599Y-185393328D02*
X221172313Y-185393328D01*
X221172313Y-185393328D02*
X221315171Y-185464757D01*
X221672314Y-186536185D02*
X222815171Y-186536185D01*
X223172313Y-185393328D02*
X223172313Y-186893328D01*
X223172313Y-185464757D02*
X223315171Y-185393328D01*
X223315171Y-185393328D02*
X223600885Y-185393328D01*
X223600885Y-185393328D02*
X223743742Y-185464757D01*
X223743742Y-185464757D02*
X223815171Y-185536185D01*
X223815171Y-185536185D02*
X223886599Y-185679042D01*
X223886599Y-185679042D02*
X223886599Y-186107614D01*
X223886599Y-186107614D02*
X223815171Y-186250471D01*
X223815171Y-186250471D02*
X223743742Y-186321900D01*
X223743742Y-186321900D02*
X223600885Y-186393328D01*
X223600885Y-186393328D02*
X223315171Y-186393328D01*
X223315171Y-186393328D02*
X223172313Y-186321900D01*
X225172314Y-186321900D02*
X225029456Y-186393328D01*
X225029456Y-186393328D02*
X224743742Y-186393328D01*
X224743742Y-186393328D02*
X224600885Y-186321900D01*
X224600885Y-186321900D02*
X224529456Y-186250471D01*
X224529456Y-186250471D02*
X224458028Y-186107614D01*
X224458028Y-186107614D02*
X224458028Y-185679042D01*
X224458028Y-185679042D02*
X224529456Y-185536185D01*
X224529456Y-185536185D02*
X224600885Y-185464757D01*
X224600885Y-185464757D02*
X224743742Y-185393328D01*
X224743742Y-185393328D02*
X225029456Y-185393328D01*
X225029456Y-185393328D02*
X225172314Y-185464757D01*
X225815170Y-186393328D02*
X225815170Y-184893328D01*
X225815170Y-185464757D02*
X225958028Y-185393328D01*
X225958028Y-185393328D02*
X226243742Y-185393328D01*
X226243742Y-185393328D02*
X226386599Y-185464757D01*
X226386599Y-185464757D02*
X226458028Y-185536185D01*
X226458028Y-185536185D02*
X226529456Y-185679042D01*
X226529456Y-185679042D02*
X226529456Y-186107614D01*
X226529456Y-186107614D02*
X226458028Y-186250471D01*
X226458028Y-186250471D02*
X226386599Y-186321900D01*
X226386599Y-186321900D02*
X226243742Y-186393328D01*
X226243742Y-186393328D02*
X225958028Y-186393328D01*
X225958028Y-186393328D02*
X225815170Y-186321900D01*
X177002200Y-181507200D02*
X285002200Y-181507200D01*
X178386598Y-183621900D02*
X178600884Y-183693328D01*
X178600884Y-183693328D02*
X178958026Y-183693328D01*
X178958026Y-183693328D02*
X179100884Y-183621900D01*
X179100884Y-183621900D02*
X179172312Y-183550471D01*
X179172312Y-183550471D02*
X179243741Y-183407614D01*
X179243741Y-183407614D02*
X179243741Y-183264757D01*
X179243741Y-183264757D02*
X179172312Y-183121900D01*
X179172312Y-183121900D02*
X179100884Y-183050471D01*
X179100884Y-183050471D02*
X178958026Y-182979042D01*
X178958026Y-182979042D02*
X178672312Y-182907614D01*
X178672312Y-182907614D02*
X178529455Y-182836185D01*
X178529455Y-182836185D02*
X178458026Y-182764757D01*
X178458026Y-182764757D02*
X178386598Y-182621900D01*
X178386598Y-182621900D02*
X178386598Y-182479042D01*
X178386598Y-182479042D02*
X178458026Y-182336185D01*
X178458026Y-182336185D02*
X178529455Y-182264757D01*
X178529455Y-182264757D02*
X178672312Y-182193328D01*
X178672312Y-182193328D02*
X179029455Y-182193328D01*
X179029455Y-182193328D02*
X179243741Y-182264757D01*
X179886597Y-183693328D02*
X179886597Y-182193328D01*
X180529455Y-183693328D02*
X180529455Y-182907614D01*
X180529455Y-182907614D02*
X180458026Y-182764757D01*
X180458026Y-182764757D02*
X180315169Y-182693328D01*
X180315169Y-182693328D02*
X180100883Y-182693328D01*
X180100883Y-182693328D02*
X179958026Y-182764757D01*
X179958026Y-182764757D02*
X179886597Y-182836185D01*
X181815169Y-183621900D02*
X181672312Y-183693328D01*
X181672312Y-183693328D02*
X181386598Y-183693328D01*
X181386598Y-183693328D02*
X181243740Y-183621900D01*
X181243740Y-183621900D02*
X181172312Y-183479042D01*
X181172312Y-183479042D02*
X181172312Y-182907614D01*
X181172312Y-182907614D02*
X181243740Y-182764757D01*
X181243740Y-182764757D02*
X181386598Y-182693328D01*
X181386598Y-182693328D02*
X181672312Y-182693328D01*
X181672312Y-182693328D02*
X181815169Y-182764757D01*
X181815169Y-182764757D02*
X181886598Y-182907614D01*
X181886598Y-182907614D02*
X181886598Y-183050471D01*
X181886598Y-183050471D02*
X181172312Y-183193328D01*
X183100883Y-183621900D02*
X182958026Y-183693328D01*
X182958026Y-183693328D02*
X182672312Y-183693328D01*
X182672312Y-183693328D02*
X182529454Y-183621900D01*
X182529454Y-183621900D02*
X182458026Y-183479042D01*
X182458026Y-183479042D02*
X182458026Y-182907614D01*
X182458026Y-182907614D02*
X182529454Y-182764757D01*
X182529454Y-182764757D02*
X182672312Y-182693328D01*
X182672312Y-182693328D02*
X182958026Y-182693328D01*
X182958026Y-182693328D02*
X183100883Y-182764757D01*
X183100883Y-182764757D02*
X183172312Y-182907614D01*
X183172312Y-182907614D02*
X183172312Y-183050471D01*
X183172312Y-183050471D02*
X182458026Y-183193328D01*
X183600883Y-182693328D02*
X184172311Y-182693328D01*
X183815168Y-182193328D02*
X183815168Y-183479042D01*
X183815168Y-183479042D02*
X183886597Y-183621900D01*
X183886597Y-183621900D02*
X184029454Y-183693328D01*
X184029454Y-183693328D02*
X184172311Y-183693328D01*
X184672311Y-183550471D02*
X184743740Y-183621900D01*
X184743740Y-183621900D02*
X184672311Y-183693328D01*
X184672311Y-183693328D02*
X184600883Y-183621900D01*
X184600883Y-183621900D02*
X184672311Y-183550471D01*
X184672311Y-183550471D02*
X184672311Y-183693328D01*
X184672311Y-182764757D02*
X184743740Y-182836185D01*
X184743740Y-182836185D02*
X184672311Y-182907614D01*
X184672311Y-182907614D02*
X184600883Y-182836185D01*
X184600883Y-182836185D02*
X184672311Y-182764757D01*
X184672311Y-182764757D02*
X184672311Y-182907614D01*
X197002200Y-191507200D02*
X197002200Y-194507200D01*
X261002200Y-191507200D02*
X261002200Y-198007200D01*
D13*
%TO.N,VCC*%
%TO.C,J4*%
X51000000Y-73295001D03*
D14*
%TO.N,GND*%
X51000000Y-75835001D03*
%TO.N,VEE*%
X51000000Y-78375000D03*
%TD*%
D15*
%TO.N,GND*%
X68050000Y-95510000D03*
X51000000Y-65390000D03*
X72900000Y-105800000D03*
X58000000Y-103940000D03*
X72600000Y-85800000D03*
X72200000Y-75000000D03*
X58150000Y-98230000D03*
X67930000Y-100680000D03*
X51030000Y-86340000D03*
X73100000Y-114300000D03*
X58920000Y-94940000D03*
X72500000Y-66500000D03*
X67530000Y-94020000D03*
X67950000Y-99180000D03*
X58220000Y-107700000D03*
X67100000Y-105130000D03*
X68140000Y-103650000D03*
X72600000Y-94300000D03*
X57500000Y-105700000D03*
%TO.N,VEE*%
X60750001Y-96550001D03*
X65360000Y-102650000D03*
X64340000Y-105150000D03*
X60050000Y-95010000D03*
X59860000Y-98260000D03*
%TO.N,Net-(U3--)*%
X64160000Y-98270000D03*
%TO.N,Net-(R3-Pad2)*%
X63410000Y-106910000D03*
%TO.N,Net-(U1--)*%
X61020000Y-103280000D03*
%TO.N,VCC*%
X61135000Y-106880000D03*
X59500000Y-104840000D03*
X64175000Y-94880000D03*
X65220000Y-95600002D03*
%TO.N,Net-(R8-Pad2)*%
X61870000Y-94730000D03*
%TD*%
%TA.AperFunction,Conductor*%
%TO.N,VCC*%
G36*
X78442539Y-62520185D02*
G01*
X78488294Y-62572989D01*
X78499500Y-62624500D01*
X78499500Y-121375500D01*
X78479815Y-121442539D01*
X78427011Y-121488294D01*
X78375500Y-121499500D01*
X45624500Y-121499500D01*
X45557461Y-121479815D01*
X45511706Y-121427011D01*
X45500500Y-121375500D01*
X45500500Y-114211304D01*
X72199500Y-114211304D01*
X72199500Y-114388695D01*
X72234103Y-114562658D01*
X72234106Y-114562667D01*
X72301983Y-114726540D01*
X72301990Y-114726553D01*
X72400535Y-114874034D01*
X72400538Y-114874038D01*
X72525961Y-114999461D01*
X72525965Y-114999464D01*
X72673446Y-115098009D01*
X72673459Y-115098016D01*
X72796363Y-115148923D01*
X72837334Y-115165894D01*
X72837336Y-115165894D01*
X72837341Y-115165896D01*
X73011304Y-115200499D01*
X73011307Y-115200500D01*
X73011309Y-115200500D01*
X73188693Y-115200500D01*
X73188694Y-115200499D01*
X73246682Y-115188964D01*
X73362658Y-115165896D01*
X73362661Y-115165894D01*
X73362666Y-115165894D01*
X73526547Y-115098013D01*
X73674035Y-114999464D01*
X73799464Y-114874035D01*
X73898013Y-114726547D01*
X73965894Y-114562666D01*
X74000500Y-114388691D01*
X74000500Y-114211309D01*
X74000500Y-114211306D01*
X74000499Y-114211304D01*
X73965896Y-114037341D01*
X73965893Y-114037332D01*
X73898016Y-113873459D01*
X73898009Y-113873446D01*
X73799464Y-113725965D01*
X73799461Y-113725961D01*
X73674038Y-113600538D01*
X73674034Y-113600535D01*
X73526553Y-113501990D01*
X73526540Y-113501983D01*
X73362667Y-113434106D01*
X73362658Y-113434103D01*
X73188694Y-113399500D01*
X73188691Y-113399500D01*
X73011309Y-113399500D01*
X73011306Y-113399500D01*
X72837341Y-113434103D01*
X72837332Y-113434106D01*
X72673459Y-113501983D01*
X72673446Y-113501990D01*
X72525965Y-113600535D01*
X72525961Y-113600538D01*
X72400538Y-113725961D01*
X72400535Y-113725965D01*
X72301990Y-113873446D01*
X72301983Y-113873459D01*
X72234106Y-114037332D01*
X72234103Y-114037341D01*
X72199500Y-114211304D01*
X45500500Y-114211304D01*
X45500500Y-107611304D01*
X57319500Y-107611304D01*
X57319500Y-107788695D01*
X57354103Y-107962658D01*
X57354106Y-107962667D01*
X57421983Y-108126540D01*
X57421990Y-108126553D01*
X57520535Y-108274034D01*
X57520538Y-108274038D01*
X57645961Y-108399461D01*
X57645965Y-108399464D01*
X57793446Y-108498009D01*
X57793459Y-108498016D01*
X57916363Y-108548923D01*
X57957334Y-108565894D01*
X57957336Y-108565894D01*
X57957341Y-108565896D01*
X58131304Y-108600499D01*
X58131307Y-108600500D01*
X58131309Y-108600500D01*
X58308693Y-108600500D01*
X58308694Y-108600499D01*
X58366682Y-108588964D01*
X58482658Y-108565896D01*
X58482661Y-108565894D01*
X58482666Y-108565894D01*
X58646547Y-108498013D01*
X58794035Y-108399464D01*
X58919464Y-108274035D01*
X59018013Y-108126547D01*
X59085894Y-107962666D01*
X59120500Y-107788691D01*
X59120500Y-107611309D01*
X59120500Y-107611306D01*
X59120499Y-107611304D01*
X59085896Y-107437341D01*
X59085893Y-107437332D01*
X59018016Y-107273459D01*
X59018009Y-107273446D01*
X58919464Y-107125965D01*
X58919461Y-107125961D01*
X58794038Y-107000538D01*
X58794034Y-107000535D01*
X58671038Y-106918351D01*
X58670989Y-106918319D01*
X58646547Y-106901987D01*
X58646540Y-106901983D01*
X58482667Y-106834106D01*
X58482658Y-106834103D01*
X58418312Y-106821304D01*
X62509500Y-106821304D01*
X62509500Y-106998695D01*
X62544103Y-107172658D01*
X62544106Y-107172667D01*
X62611983Y-107336540D01*
X62611990Y-107336553D01*
X62710535Y-107484034D01*
X62710538Y-107484038D01*
X62835961Y-107609461D01*
X62835965Y-107609464D01*
X62983446Y-107708009D01*
X62983459Y-107708016D01*
X63106363Y-107758923D01*
X63147334Y-107775894D01*
X63147336Y-107775894D01*
X63147341Y-107775896D01*
X63321304Y-107810499D01*
X63321307Y-107810500D01*
X63321309Y-107810500D01*
X63498693Y-107810500D01*
X63498694Y-107810499D01*
X63556682Y-107798964D01*
X63672658Y-107775896D01*
X63672661Y-107775894D01*
X63672666Y-107775894D01*
X63836547Y-107708013D01*
X63984035Y-107609464D01*
X64109464Y-107484035D01*
X64208013Y-107336547D01*
X64275894Y-107172666D01*
X64285184Y-107125965D01*
X64298964Y-107056682D01*
X64310500Y-106998691D01*
X64310500Y-106821309D01*
X64310500Y-106821306D01*
X64310499Y-106821304D01*
X64275896Y-106647341D01*
X64275893Y-106647332D01*
X64208016Y-106483459D01*
X64208009Y-106483446D01*
X64109464Y-106335965D01*
X64109461Y-106335961D01*
X64006943Y-106233443D01*
X63973458Y-106172120D01*
X63978442Y-106102428D01*
X64020314Y-106046495D01*
X64085778Y-106022078D01*
X64118813Y-106024144D01*
X64150758Y-106030499D01*
X64251306Y-106050500D01*
X64251309Y-106050500D01*
X64428693Y-106050500D01*
X64428694Y-106050499D01*
X64486682Y-106038964D01*
X64602658Y-106015896D01*
X64602661Y-106015894D01*
X64602666Y-106015894D01*
X64766547Y-105948013D01*
X64914035Y-105849464D01*
X65039464Y-105724035D01*
X65138013Y-105576547D01*
X65205894Y-105412666D01*
X65209873Y-105392666D01*
X65240499Y-105238695D01*
X65240500Y-105238693D01*
X65240500Y-105061307D01*
X65240121Y-105059402D01*
X65240121Y-105059399D01*
X65236522Y-105041304D01*
X66199500Y-105041304D01*
X66199500Y-105218695D01*
X66234103Y-105392658D01*
X66234106Y-105392667D01*
X66301983Y-105556540D01*
X66301990Y-105556553D01*
X66400535Y-105704034D01*
X66400538Y-105704038D01*
X66525961Y-105829461D01*
X66525965Y-105829464D01*
X66673446Y-105928009D01*
X66673459Y-105928016D01*
X66757116Y-105962667D01*
X66837334Y-105995894D01*
X66837336Y-105995894D01*
X66837341Y-105995896D01*
X67011304Y-106030499D01*
X67011307Y-106030500D01*
X67011309Y-106030500D01*
X67188693Y-106030500D01*
X67188694Y-106030499D01*
X67262125Y-106015893D01*
X67362658Y-105995896D01*
X67362661Y-105995894D01*
X67362666Y-105995894D01*
X67526547Y-105928013D01*
X67674035Y-105829464D01*
X67792195Y-105711304D01*
X71999500Y-105711304D01*
X71999500Y-105888695D01*
X72034103Y-106062658D01*
X72034106Y-106062667D01*
X72101983Y-106226540D01*
X72101990Y-106226553D01*
X72200535Y-106374034D01*
X72200538Y-106374038D01*
X72325961Y-106499461D01*
X72325965Y-106499464D01*
X72473446Y-106598009D01*
X72473459Y-106598016D01*
X72592521Y-106647332D01*
X72637334Y-106665894D01*
X72637336Y-106665894D01*
X72637341Y-106665896D01*
X72811304Y-106700499D01*
X72811307Y-106700500D01*
X72811309Y-106700500D01*
X72988693Y-106700500D01*
X72988694Y-106700499D01*
X73046682Y-106688964D01*
X73162658Y-106665896D01*
X73162661Y-106665894D01*
X73162666Y-106665894D01*
X73326547Y-106598013D01*
X73474035Y-106499464D01*
X73599464Y-106374035D01*
X73698013Y-106226547D01*
X73765894Y-106062666D01*
X73768315Y-106050499D01*
X73800499Y-105888695D01*
X73800500Y-105888693D01*
X73800500Y-105711306D01*
X73800499Y-105711304D01*
X73765896Y-105537341D01*
X73765893Y-105537332D01*
X73698016Y-105373459D01*
X73698009Y-105373446D01*
X73599464Y-105225965D01*
X73599461Y-105225961D01*
X73474038Y-105100538D01*
X73474034Y-105100535D01*
X73326553Y-105001990D01*
X73326540Y-105001983D01*
X73162667Y-104934106D01*
X73162658Y-104934103D01*
X72988694Y-104899500D01*
X72988691Y-104899500D01*
X72811309Y-104899500D01*
X72811306Y-104899500D01*
X72637341Y-104934103D01*
X72637332Y-104934106D01*
X72473459Y-105001983D01*
X72473446Y-105001990D01*
X72325965Y-105100535D01*
X72325961Y-105100538D01*
X72200538Y-105225961D01*
X72200535Y-105225965D01*
X72101990Y-105373446D01*
X72101983Y-105373459D01*
X72034106Y-105537332D01*
X72034103Y-105537341D01*
X71999500Y-105711304D01*
X67792195Y-105711304D01*
X67799464Y-105704035D01*
X67898013Y-105556547D01*
X67965894Y-105392666D01*
X68000500Y-105218691D01*
X68000500Y-105041309D01*
X68000500Y-105041306D01*
X68000499Y-105041304D01*
X67965896Y-104867341D01*
X67965893Y-104867332D01*
X67952130Y-104834106D01*
X67903981Y-104717863D01*
X67896513Y-104648395D01*
X67927788Y-104585916D01*
X67987877Y-104550264D01*
X68042734Y-104548795D01*
X68051304Y-104550499D01*
X68051307Y-104550500D01*
X68051309Y-104550500D01*
X68228693Y-104550500D01*
X68228694Y-104550499D01*
X68286682Y-104538964D01*
X68402658Y-104515896D01*
X68402661Y-104515894D01*
X68402666Y-104515894D01*
X68566547Y-104448013D01*
X68714035Y-104349464D01*
X68839464Y-104224035D01*
X68938013Y-104076547D01*
X69005894Y-103912666D01*
X69018100Y-103851306D01*
X69040499Y-103738695D01*
X69040500Y-103738693D01*
X69040500Y-103561306D01*
X69040499Y-103561304D01*
X69005896Y-103387341D01*
X69005893Y-103387332D01*
X68998173Y-103368695D01*
X68945089Y-103240535D01*
X68938016Y-103223459D01*
X68938009Y-103223446D01*
X68839464Y-103075965D01*
X68839461Y-103075961D01*
X68714038Y-102950538D01*
X68714034Y-102950535D01*
X68566553Y-102851990D01*
X68566540Y-102851983D01*
X68402667Y-102784106D01*
X68402658Y-102784103D01*
X68228694Y-102749500D01*
X68228691Y-102749500D01*
X68051309Y-102749500D01*
X68051306Y-102749500D01*
X67877341Y-102784103D01*
X67877332Y-102784106D01*
X67713459Y-102851983D01*
X67713446Y-102851990D01*
X67565965Y-102950535D01*
X67565961Y-102950538D01*
X67440538Y-103075961D01*
X67440535Y-103075965D01*
X67341990Y-103223446D01*
X67341983Y-103223459D01*
X67274106Y-103387332D01*
X67274103Y-103387341D01*
X67239500Y-103561304D01*
X67239500Y-103738695D01*
X67274103Y-103912658D01*
X67274106Y-103912667D01*
X67336017Y-104062135D01*
X67343486Y-104131604D01*
X67312210Y-104194083D01*
X67252121Y-104229735D01*
X67197271Y-104231206D01*
X67188692Y-104229500D01*
X67188691Y-104229500D01*
X67011309Y-104229500D01*
X67011306Y-104229500D01*
X66837341Y-104264103D01*
X66837332Y-104264106D01*
X66673459Y-104331983D01*
X66673446Y-104331990D01*
X66525965Y-104430535D01*
X66525961Y-104430538D01*
X66400538Y-104555961D01*
X66400535Y-104555965D01*
X66301990Y-104703446D01*
X66301983Y-104703459D01*
X66234106Y-104867332D01*
X66234103Y-104867341D01*
X66199500Y-105041304D01*
X65236522Y-105041304D01*
X65205895Y-104887340D01*
X65205894Y-104887334D01*
X65186495Y-104840500D01*
X65138016Y-104723459D01*
X65138009Y-104723446D01*
X65039464Y-104575965D01*
X65039461Y-104575961D01*
X64914038Y-104450538D01*
X64914034Y-104450535D01*
X64766553Y-104351990D01*
X64766540Y-104351983D01*
X64602667Y-104284106D01*
X64602658Y-104284103D01*
X64428694Y-104249500D01*
X64428691Y-104249500D01*
X64251309Y-104249500D01*
X64251306Y-104249500D01*
X64077341Y-104284103D01*
X64077332Y-104284106D01*
X63913459Y-104351983D01*
X63913446Y-104351990D01*
X63765965Y-104450535D01*
X63765961Y-104450538D01*
X63640538Y-104575961D01*
X63640535Y-104575965D01*
X63541990Y-104723446D01*
X63541983Y-104723459D01*
X63474106Y-104887332D01*
X63474103Y-104887341D01*
X63439500Y-105061304D01*
X63439500Y-105238695D01*
X63474103Y-105412658D01*
X63474106Y-105412667D01*
X63541983Y-105576540D01*
X63541990Y-105576553D01*
X63640535Y-105724034D01*
X63640538Y-105724038D01*
X63743056Y-105826556D01*
X63776541Y-105887879D01*
X63771557Y-105957571D01*
X63729685Y-106013504D01*
X63664221Y-106037921D01*
X63631184Y-106035854D01*
X63498694Y-106009500D01*
X63498691Y-106009500D01*
X63321309Y-106009500D01*
X63321306Y-106009500D01*
X63147341Y-106044103D01*
X63147332Y-106044106D01*
X62983459Y-106111983D01*
X62983446Y-106111990D01*
X62835965Y-106210535D01*
X62835961Y-106210538D01*
X62710538Y-106335961D01*
X62710535Y-106335965D01*
X62611990Y-106483446D01*
X62611983Y-106483459D01*
X62544106Y-106647332D01*
X62544103Y-106647341D01*
X62509500Y-106821304D01*
X58418312Y-106821304D01*
X58308694Y-106799500D01*
X58308691Y-106799500D01*
X58131309Y-106799500D01*
X58131306Y-106799500D01*
X57957341Y-106834103D01*
X57957332Y-106834106D01*
X57793459Y-106901983D01*
X57793446Y-106901990D01*
X57645965Y-107000535D01*
X57645961Y-107000538D01*
X57520538Y-107125961D01*
X57520535Y-107125965D01*
X57421990Y-107273446D01*
X57421983Y-107273459D01*
X57354106Y-107437332D01*
X57354103Y-107437341D01*
X57319500Y-107611304D01*
X45500500Y-107611304D01*
X45500500Y-105611304D01*
X56599500Y-105611304D01*
X56599500Y-105788695D01*
X56634103Y-105962658D01*
X56634106Y-105962667D01*
X56701983Y-106126540D01*
X56701990Y-106126553D01*
X56800535Y-106274034D01*
X56800538Y-106274038D01*
X56925961Y-106399461D01*
X56925965Y-106399464D01*
X57073446Y-106498009D01*
X57073459Y-106498016D01*
X57196363Y-106548923D01*
X57237334Y-106565894D01*
X57237336Y-106565894D01*
X57237341Y-106565896D01*
X57411304Y-106600499D01*
X57411307Y-106600500D01*
X57411309Y-106600500D01*
X57588693Y-106600500D01*
X57588694Y-106600499D01*
X57646682Y-106588964D01*
X57762658Y-106565896D01*
X57762661Y-106565894D01*
X57762666Y-106565894D01*
X57926547Y-106498013D01*
X58074035Y-106399464D01*
X58199464Y-106274035D01*
X58298013Y-106126547D01*
X58365894Y-105962666D01*
X58366908Y-105957571D01*
X58400499Y-105788695D01*
X58400500Y-105788693D01*
X58400500Y-105611306D01*
X58400499Y-105611304D01*
X58365896Y-105437341D01*
X58365893Y-105437332D01*
X58298016Y-105273459D01*
X58298009Y-105273446D01*
X58199464Y-105125965D01*
X58199461Y-105125961D01*
X58107023Y-105033523D01*
X58073538Y-104972200D01*
X58078522Y-104902508D01*
X58120394Y-104846575D01*
X58170513Y-104824225D01*
X58262658Y-104805896D01*
X58262661Y-104805894D01*
X58262666Y-104805894D01*
X58426547Y-104738013D01*
X58574035Y-104639464D01*
X58699464Y-104514035D01*
X58798013Y-104366547D01*
X58865894Y-104202666D01*
X58867602Y-104194083D01*
X58890982Y-104076540D01*
X58900500Y-104028691D01*
X58900500Y-103851309D01*
X58900500Y-103851306D01*
X58900499Y-103851304D01*
X58865896Y-103677341D01*
X58865893Y-103677332D01*
X58798016Y-103513459D01*
X58798009Y-103513446D01*
X58699464Y-103365965D01*
X58699461Y-103365961D01*
X58574038Y-103240538D01*
X58574034Y-103240535D01*
X58500356Y-103191304D01*
X60119500Y-103191304D01*
X60119500Y-103368695D01*
X60154103Y-103542658D01*
X60154106Y-103542667D01*
X60221983Y-103706540D01*
X60221990Y-103706553D01*
X60320535Y-103854034D01*
X60320538Y-103854038D01*
X60445961Y-103979461D01*
X60445965Y-103979464D01*
X60593446Y-104078009D01*
X60593459Y-104078016D01*
X60716363Y-104128923D01*
X60757334Y-104145894D01*
X60757336Y-104145894D01*
X60757341Y-104145896D01*
X60931304Y-104180499D01*
X60931307Y-104180500D01*
X60931309Y-104180500D01*
X61108693Y-104180500D01*
X61108694Y-104180499D01*
X61166682Y-104168964D01*
X61282658Y-104145896D01*
X61282661Y-104145894D01*
X61282666Y-104145894D01*
X61446547Y-104078013D01*
X61594035Y-103979464D01*
X61719464Y-103854035D01*
X61818013Y-103706547D01*
X61885894Y-103542666D01*
X61891220Y-103515894D01*
X61920499Y-103368695D01*
X61920500Y-103368693D01*
X61920500Y-103191306D01*
X61920499Y-103191304D01*
X61885896Y-103017341D01*
X61885893Y-103017332D01*
X61818016Y-102853459D01*
X61818009Y-102853446D01*
X61719464Y-102705965D01*
X61719461Y-102705961D01*
X61594038Y-102580538D01*
X61594034Y-102580535D01*
X61565253Y-102561304D01*
X64459500Y-102561304D01*
X64459500Y-102738695D01*
X64494103Y-102912658D01*
X64494106Y-102912667D01*
X64561983Y-103076540D01*
X64561990Y-103076553D01*
X64660535Y-103224034D01*
X64660538Y-103224038D01*
X64785961Y-103349461D01*
X64785965Y-103349464D01*
X64933446Y-103448009D01*
X64933459Y-103448016D01*
X65056363Y-103498923D01*
X65097334Y-103515894D01*
X65097336Y-103515894D01*
X65097341Y-103515896D01*
X65271304Y-103550499D01*
X65271307Y-103550500D01*
X65271309Y-103550500D01*
X65448693Y-103550500D01*
X65448694Y-103550499D01*
X65506682Y-103538964D01*
X65622658Y-103515896D01*
X65622661Y-103515894D01*
X65622666Y-103515894D01*
X65786547Y-103448013D01*
X65934035Y-103349464D01*
X66059464Y-103224035D01*
X66158013Y-103076547D01*
X66225894Y-102912666D01*
X66260500Y-102738691D01*
X66260500Y-102561309D01*
X66260500Y-102561306D01*
X66260499Y-102561304D01*
X66225896Y-102387341D01*
X66225893Y-102387332D01*
X66158016Y-102223459D01*
X66158009Y-102223446D01*
X66059464Y-102075965D01*
X66059461Y-102075961D01*
X65934038Y-101950538D01*
X65934034Y-101950535D01*
X65786553Y-101851990D01*
X65786540Y-101851983D01*
X65622667Y-101784106D01*
X65622658Y-101784103D01*
X65448694Y-101749500D01*
X65448691Y-101749500D01*
X65271309Y-101749500D01*
X65271306Y-101749500D01*
X65097341Y-101784103D01*
X65097332Y-101784106D01*
X64933459Y-101851983D01*
X64933446Y-101851990D01*
X64785965Y-101950535D01*
X64785961Y-101950538D01*
X64660538Y-102075961D01*
X64660535Y-102075965D01*
X64561990Y-102223446D01*
X64561983Y-102223459D01*
X64494106Y-102387332D01*
X64494103Y-102387341D01*
X64459500Y-102561304D01*
X61565253Y-102561304D01*
X61446553Y-102481990D01*
X61446540Y-102481983D01*
X61282667Y-102414106D01*
X61282658Y-102414103D01*
X61108694Y-102379500D01*
X61108691Y-102379500D01*
X60931309Y-102379500D01*
X60931306Y-102379500D01*
X60757341Y-102414103D01*
X60757332Y-102414106D01*
X60593459Y-102481983D01*
X60593446Y-102481990D01*
X60445965Y-102580535D01*
X60445961Y-102580538D01*
X60320538Y-102705961D01*
X60320535Y-102705965D01*
X60221990Y-102853446D01*
X60221983Y-102853459D01*
X60154106Y-103017332D01*
X60154103Y-103017341D01*
X60119500Y-103191304D01*
X58500356Y-103191304D01*
X58426553Y-103141990D01*
X58426540Y-103141983D01*
X58262667Y-103074106D01*
X58262658Y-103074103D01*
X58088694Y-103039500D01*
X58088691Y-103039500D01*
X57911309Y-103039500D01*
X57911306Y-103039500D01*
X57737341Y-103074103D01*
X57737332Y-103074106D01*
X57573459Y-103141983D01*
X57573446Y-103141990D01*
X57425965Y-103240535D01*
X57425961Y-103240538D01*
X57300538Y-103365961D01*
X57300535Y-103365965D01*
X57201990Y-103513446D01*
X57201983Y-103513459D01*
X57134106Y-103677332D01*
X57134103Y-103677341D01*
X57099500Y-103851304D01*
X57099500Y-104028695D01*
X57134103Y-104202658D01*
X57134106Y-104202667D01*
X57201983Y-104366540D01*
X57201990Y-104366553D01*
X57300535Y-104514034D01*
X57300538Y-104514038D01*
X57392976Y-104606476D01*
X57426461Y-104667799D01*
X57421477Y-104737491D01*
X57379605Y-104793424D01*
X57329488Y-104815774D01*
X57237338Y-104834104D01*
X57237332Y-104834106D01*
X57073459Y-104901983D01*
X57073446Y-104901990D01*
X56925965Y-105000535D01*
X56925961Y-105000538D01*
X56800538Y-105125961D01*
X56800535Y-105125965D01*
X56701990Y-105273446D01*
X56701983Y-105273459D01*
X56634106Y-105437332D01*
X56634103Y-105437341D01*
X56599500Y-105611304D01*
X45500500Y-105611304D01*
X45500500Y-100591304D01*
X67029500Y-100591304D01*
X67029500Y-100768695D01*
X67064103Y-100942658D01*
X67064106Y-100942667D01*
X67131983Y-101106540D01*
X67131990Y-101106553D01*
X67230535Y-101254034D01*
X67230538Y-101254038D01*
X67355961Y-101379461D01*
X67355965Y-101379464D01*
X67503446Y-101478009D01*
X67503459Y-101478016D01*
X67626363Y-101528923D01*
X67667334Y-101545894D01*
X67667336Y-101545894D01*
X67667341Y-101545896D01*
X67841304Y-101580499D01*
X67841307Y-101580500D01*
X67841309Y-101580500D01*
X68018693Y-101580500D01*
X68018694Y-101580499D01*
X68076682Y-101568964D01*
X68192658Y-101545896D01*
X68192661Y-101545894D01*
X68192666Y-101545894D01*
X68356547Y-101478013D01*
X68504035Y-101379464D01*
X68629464Y-101254035D01*
X68728013Y-101106547D01*
X68795894Y-100942666D01*
X68830500Y-100768691D01*
X68830500Y-100591309D01*
X68830500Y-100591306D01*
X68830499Y-100591304D01*
X68795896Y-100417341D01*
X68795893Y-100417332D01*
X68728016Y-100253459D01*
X68728009Y-100253446D01*
X68629465Y-100105966D01*
X68629460Y-100105961D01*
X68551178Y-100027679D01*
X68517695Y-99966359D01*
X68522679Y-99896667D01*
X68551178Y-99852320D01*
X68649464Y-99754035D01*
X68748013Y-99606547D01*
X68815894Y-99442666D01*
X68850500Y-99268691D01*
X68850500Y-99091309D01*
X68850500Y-99091306D01*
X68850499Y-99091304D01*
X68815896Y-98917341D01*
X68815893Y-98917332D01*
X68748016Y-98753459D01*
X68748009Y-98753446D01*
X68649464Y-98605965D01*
X68649461Y-98605961D01*
X68524038Y-98480538D01*
X68524034Y-98480535D01*
X68376553Y-98381990D01*
X68376540Y-98381983D01*
X68212667Y-98314106D01*
X68212658Y-98314103D01*
X68038694Y-98279500D01*
X68038691Y-98279500D01*
X67861309Y-98279500D01*
X67861306Y-98279500D01*
X67687341Y-98314103D01*
X67687332Y-98314106D01*
X67523459Y-98381983D01*
X67523446Y-98381990D01*
X67375965Y-98480535D01*
X67375961Y-98480538D01*
X67250538Y-98605961D01*
X67250535Y-98605965D01*
X67151990Y-98753446D01*
X67151983Y-98753459D01*
X67084106Y-98917332D01*
X67084103Y-98917341D01*
X67049500Y-99091304D01*
X67049500Y-99268695D01*
X67084103Y-99442658D01*
X67084106Y-99442667D01*
X67151983Y-99606540D01*
X67151990Y-99606553D01*
X67250535Y-99754034D01*
X67250538Y-99754038D01*
X67328819Y-99832319D01*
X67362304Y-99893642D01*
X67357320Y-99963334D01*
X67328819Y-100007681D01*
X67230538Y-100105961D01*
X67230535Y-100105965D01*
X67131990Y-100253446D01*
X67131983Y-100253459D01*
X67064106Y-100417332D01*
X67064103Y-100417341D01*
X67029500Y-100591304D01*
X45500500Y-100591304D01*
X45500500Y-98141304D01*
X57249500Y-98141304D01*
X57249500Y-98318695D01*
X57284103Y-98492658D01*
X57284106Y-98492667D01*
X57351983Y-98656540D01*
X57351990Y-98656553D01*
X57450535Y-98804034D01*
X57450538Y-98804038D01*
X57575961Y-98929461D01*
X57575965Y-98929464D01*
X57723446Y-99028009D01*
X57723459Y-99028016D01*
X57820030Y-99068016D01*
X57887334Y-99095894D01*
X57887336Y-99095894D01*
X57887341Y-99095896D01*
X58061304Y-99130499D01*
X58061307Y-99130500D01*
X58061309Y-99130500D01*
X58238693Y-99130500D01*
X58238694Y-99130499D01*
X58296682Y-99118964D01*
X58412658Y-99095896D01*
X58412661Y-99095894D01*
X58412666Y-99095894D01*
X58576547Y-99028013D01*
X58724035Y-98929464D01*
X58849464Y-98804035D01*
X58891876Y-98740561D01*
X58945486Y-98695757D01*
X59014811Y-98687050D01*
X59077839Y-98717204D01*
X59098078Y-98740561D01*
X59110915Y-98759773D01*
X59160535Y-98834034D01*
X59160538Y-98834038D01*
X59285961Y-98959461D01*
X59285965Y-98959464D01*
X59433446Y-99058009D01*
X59433459Y-99058016D01*
X59556363Y-99108923D01*
X59597334Y-99125894D01*
X59597336Y-99125894D01*
X59597341Y-99125896D01*
X59771304Y-99160499D01*
X59771307Y-99160500D01*
X59771309Y-99160500D01*
X59948693Y-99160500D01*
X59948694Y-99160499D01*
X60006682Y-99148964D01*
X60122658Y-99125896D01*
X60122661Y-99125894D01*
X60122666Y-99125894D01*
X60286547Y-99058013D01*
X60434035Y-98959464D01*
X60559464Y-98834035D01*
X60658013Y-98686547D01*
X60725894Y-98522666D01*
X60731862Y-98492667D01*
X60760499Y-98348695D01*
X60760500Y-98348693D01*
X60760500Y-98181304D01*
X63259500Y-98181304D01*
X63259500Y-98358695D01*
X63294103Y-98532658D01*
X63294106Y-98532667D01*
X63361983Y-98696540D01*
X63361990Y-98696553D01*
X63460535Y-98844034D01*
X63460538Y-98844038D01*
X63585961Y-98969461D01*
X63585965Y-98969464D01*
X63733446Y-99068009D01*
X63733459Y-99068016D01*
X63800764Y-99095894D01*
X63897334Y-99135894D01*
X63897336Y-99135894D01*
X63897341Y-99135896D01*
X64071304Y-99170499D01*
X64071307Y-99170500D01*
X64071309Y-99170500D01*
X64248693Y-99170500D01*
X64248694Y-99170499D01*
X64306682Y-99158964D01*
X64422658Y-99135896D01*
X64422661Y-99135894D01*
X64422666Y-99135894D01*
X64586547Y-99068013D01*
X64734035Y-98969464D01*
X64859464Y-98844035D01*
X64958013Y-98696547D01*
X65025894Y-98532666D01*
X65027884Y-98522666D01*
X65048964Y-98416682D01*
X65060500Y-98358691D01*
X65060500Y-98181309D01*
X65060500Y-98181306D01*
X65060499Y-98181304D01*
X65025896Y-98007341D01*
X65025893Y-98007332D01*
X64958016Y-97843459D01*
X64958009Y-97843446D01*
X64859464Y-97695965D01*
X64859461Y-97695961D01*
X64734038Y-97570538D01*
X64734034Y-97570535D01*
X64586553Y-97471990D01*
X64586540Y-97471983D01*
X64422667Y-97404106D01*
X64422658Y-97404103D01*
X64248694Y-97369500D01*
X64248691Y-97369500D01*
X64071309Y-97369500D01*
X64071306Y-97369500D01*
X63897341Y-97404103D01*
X63897332Y-97404106D01*
X63733459Y-97471983D01*
X63733446Y-97471990D01*
X63585965Y-97570535D01*
X63585961Y-97570538D01*
X63460538Y-97695961D01*
X63460535Y-97695965D01*
X63361990Y-97843446D01*
X63361983Y-97843459D01*
X63294106Y-98007332D01*
X63294103Y-98007341D01*
X63259500Y-98181304D01*
X60760500Y-98181304D01*
X60760500Y-98171306D01*
X60760499Y-98171304D01*
X60725896Y-97997341D01*
X60725893Y-97997332D01*
X60658016Y-97833459D01*
X60658009Y-97833446D01*
X60559464Y-97685965D01*
X60559461Y-97685961D01*
X60529292Y-97655792D01*
X60495807Y-97594469D01*
X60500791Y-97524777D01*
X60542663Y-97468844D01*
X60608127Y-97444427D01*
X60641166Y-97446494D01*
X60661309Y-97450501D01*
X60661310Y-97450501D01*
X60838694Y-97450501D01*
X60838695Y-97450500D01*
X60896683Y-97438965D01*
X61012659Y-97415897D01*
X61012662Y-97415895D01*
X61012667Y-97415895D01*
X61176548Y-97348014D01*
X61324036Y-97249465D01*
X61449465Y-97124036D01*
X61548014Y-96976548D01*
X61615895Y-96812667D01*
X61650501Y-96638692D01*
X61650501Y-96461310D01*
X61650501Y-96461307D01*
X61650500Y-96461305D01*
X61615897Y-96287342D01*
X61615894Y-96287333D01*
X61548017Y-96123460D01*
X61548010Y-96123447D01*
X61449465Y-95975966D01*
X61449462Y-95975962D01*
X61324039Y-95850539D01*
X61324035Y-95850536D01*
X61176554Y-95751991D01*
X61176541Y-95751984D01*
X61012668Y-95684107D01*
X61012660Y-95684105D01*
X60903334Y-95662358D01*
X60841423Y-95629973D01*
X60806849Y-95569257D01*
X60810590Y-95499487D01*
X60815138Y-95488350D01*
X60819150Y-95479742D01*
X60848013Y-95436547D01*
X60915894Y-95272666D01*
X60916051Y-95271873D01*
X60918714Y-95266162D01*
X60940082Y-95241887D01*
X60960381Y-95216698D01*
X60963032Y-95215815D01*
X60964880Y-95213717D01*
X60995985Y-95204847D01*
X61026675Y-95194632D01*
X61029383Y-95195323D01*
X61032071Y-95194557D01*
X61063022Y-95203908D01*
X61094374Y-95211910D01*
X61096652Y-95214069D01*
X61098955Y-95214765D01*
X61105573Y-95222524D01*
X61134204Y-95249661D01*
X61170538Y-95304038D01*
X61295961Y-95429461D01*
X61295965Y-95429464D01*
X61443446Y-95528009D01*
X61443459Y-95528016D01*
X61543026Y-95569257D01*
X61607334Y-95595894D01*
X61607336Y-95595894D01*
X61607341Y-95595896D01*
X61781304Y-95630499D01*
X61781307Y-95630500D01*
X61781309Y-95630500D01*
X61958693Y-95630500D01*
X61958694Y-95630499D01*
X62016682Y-95618964D01*
X62132658Y-95595896D01*
X62132661Y-95595894D01*
X62132666Y-95595894D01*
X62296547Y-95528013D01*
X62444035Y-95429464D01*
X62569464Y-95304035D01*
X62668013Y-95156547D01*
X62735894Y-94992666D01*
X62747174Y-94935961D01*
X62770499Y-94818695D01*
X62770500Y-94818693D01*
X62770500Y-94641306D01*
X62770499Y-94641304D01*
X62735896Y-94467341D01*
X62735893Y-94467332D01*
X62727287Y-94446556D01*
X62703320Y-94388693D01*
X62668016Y-94303459D01*
X62668009Y-94303446D01*
X62569464Y-94155965D01*
X62569461Y-94155961D01*
X62444038Y-94030538D01*
X62444029Y-94030531D01*
X62440768Y-94028351D01*
X62440718Y-94028319D01*
X62296553Y-93931990D01*
X62296540Y-93931983D01*
X62294901Y-93931304D01*
X66629500Y-93931304D01*
X66629500Y-94108695D01*
X66664103Y-94282658D01*
X66664106Y-94282667D01*
X66731983Y-94446540D01*
X66731990Y-94446553D01*
X66830535Y-94594034D01*
X66830538Y-94594038D01*
X66955961Y-94719461D01*
X66955965Y-94719464D01*
X67103446Y-94818009D01*
X67103459Y-94818016D01*
X67219109Y-94865919D01*
X67273513Y-94909759D01*
X67295578Y-94976053D01*
X67278299Y-95043753D01*
X67274759Y-95049370D01*
X67251993Y-95083441D01*
X67251983Y-95083459D01*
X67184106Y-95247332D01*
X67184103Y-95247341D01*
X67149500Y-95421304D01*
X67149500Y-95598695D01*
X67184103Y-95772658D01*
X67184106Y-95772667D01*
X67251983Y-95936540D01*
X67251990Y-95936553D01*
X67350535Y-96084034D01*
X67350538Y-96084038D01*
X67475961Y-96209461D01*
X67475965Y-96209464D01*
X67623446Y-96308009D01*
X67623459Y-96308016D01*
X67746363Y-96358923D01*
X67787334Y-96375894D01*
X67787336Y-96375894D01*
X67787341Y-96375896D01*
X67961304Y-96410499D01*
X67961307Y-96410500D01*
X67961309Y-96410500D01*
X68138693Y-96410500D01*
X68138694Y-96410499D01*
X68196682Y-96398964D01*
X68312658Y-96375896D01*
X68312661Y-96375894D01*
X68312666Y-96375894D01*
X68476547Y-96308013D01*
X68624035Y-96209464D01*
X68749464Y-96084035D01*
X68848013Y-95936547D01*
X68915894Y-95772666D01*
X68922787Y-95738016D01*
X68944173Y-95630499D01*
X68950500Y-95598691D01*
X68950500Y-95421309D01*
X68950500Y-95421306D01*
X68950499Y-95421304D01*
X68915896Y-95247341D01*
X68915893Y-95247332D01*
X68848016Y-95083459D01*
X68848009Y-95083446D01*
X68749464Y-94935965D01*
X68749461Y-94935961D01*
X68624038Y-94810538D01*
X68624034Y-94810535D01*
X68476553Y-94711990D01*
X68476540Y-94711983D01*
X68360890Y-94664080D01*
X68306486Y-94620239D01*
X68284421Y-94553945D01*
X68301700Y-94486246D01*
X68305242Y-94480626D01*
X68328007Y-94446556D01*
X68328009Y-94446553D01*
X68328013Y-94446547D01*
X68395894Y-94282666D01*
X68395896Y-94282658D01*
X68410089Y-94211304D01*
X71699500Y-94211304D01*
X71699500Y-94388695D01*
X71734103Y-94562658D01*
X71734106Y-94562667D01*
X71801983Y-94726540D01*
X71801990Y-94726553D01*
X71900535Y-94874034D01*
X71900538Y-94874038D01*
X72025961Y-94999461D01*
X72025965Y-94999464D01*
X72173446Y-95098009D01*
X72173459Y-95098016D01*
X72296363Y-95148923D01*
X72337334Y-95165894D01*
X72337336Y-95165894D01*
X72337341Y-95165896D01*
X72511304Y-95200499D01*
X72511307Y-95200500D01*
X72511309Y-95200500D01*
X72688693Y-95200500D01*
X72688694Y-95200499D01*
X72746682Y-95188964D01*
X72862658Y-95165896D01*
X72862661Y-95165894D01*
X72862666Y-95165894D01*
X73026547Y-95098013D01*
X73174035Y-94999464D01*
X73299464Y-94874035D01*
X73398013Y-94726547D01*
X73465894Y-94562666D01*
X73484856Y-94467341D01*
X73500499Y-94388695D01*
X73500500Y-94388693D01*
X73500500Y-94211306D01*
X73500499Y-94211304D01*
X73465896Y-94037341D01*
X73465893Y-94037332D01*
X73398016Y-93873459D01*
X73398009Y-93873446D01*
X73299464Y-93725965D01*
X73299461Y-93725961D01*
X73174038Y-93600538D01*
X73174034Y-93600535D01*
X73026553Y-93501990D01*
X73026540Y-93501983D01*
X72862667Y-93434106D01*
X72862658Y-93434103D01*
X72688694Y-93399500D01*
X72688691Y-93399500D01*
X72511309Y-93399500D01*
X72511306Y-93399500D01*
X72337341Y-93434103D01*
X72337332Y-93434106D01*
X72173459Y-93501983D01*
X72173446Y-93501990D01*
X72025965Y-93600535D01*
X72025961Y-93600538D01*
X71900538Y-93725961D01*
X71900535Y-93725965D01*
X71801990Y-93873446D01*
X71801983Y-93873459D01*
X71734106Y-94037332D01*
X71734103Y-94037341D01*
X71699500Y-94211304D01*
X68410089Y-94211304D01*
X68416112Y-94181026D01*
X68416112Y-94181025D01*
X68430500Y-94108693D01*
X68430500Y-93931306D01*
X68430499Y-93931304D01*
X68395896Y-93757341D01*
X68395893Y-93757332D01*
X68328016Y-93593459D01*
X68328009Y-93593446D01*
X68229464Y-93445965D01*
X68229461Y-93445961D01*
X68104038Y-93320538D01*
X68104034Y-93320535D01*
X67956553Y-93221990D01*
X67956540Y-93221983D01*
X67792667Y-93154106D01*
X67792658Y-93154103D01*
X67618694Y-93119500D01*
X67618691Y-93119500D01*
X67441309Y-93119500D01*
X67441306Y-93119500D01*
X67267341Y-93154103D01*
X67267332Y-93154106D01*
X67103459Y-93221983D01*
X67103446Y-93221990D01*
X66955965Y-93320535D01*
X66955961Y-93320538D01*
X66830538Y-93445961D01*
X66830535Y-93445965D01*
X66731990Y-93593446D01*
X66731983Y-93593459D01*
X66664106Y-93757332D01*
X66664103Y-93757341D01*
X66629500Y-93931304D01*
X62294901Y-93931304D01*
X62132667Y-93864106D01*
X62132658Y-93864103D01*
X61958694Y-93829500D01*
X61958691Y-93829500D01*
X61781309Y-93829500D01*
X61781306Y-93829500D01*
X61607341Y-93864103D01*
X61607332Y-93864106D01*
X61443459Y-93931983D01*
X61443446Y-93931990D01*
X61295965Y-94030535D01*
X61295961Y-94030538D01*
X61170538Y-94155961D01*
X61170535Y-94155965D01*
X61071990Y-94303446D01*
X61071983Y-94303459D01*
X61003458Y-94468898D01*
X60959618Y-94523302D01*
X60893324Y-94545367D01*
X60825624Y-94528088D01*
X60785795Y-94490337D01*
X60749464Y-94435965D01*
X60749461Y-94435961D01*
X60624038Y-94310538D01*
X60624034Y-94310535D01*
X60476553Y-94211990D01*
X60476540Y-94211983D01*
X60312667Y-94144106D01*
X60312658Y-94144103D01*
X60138694Y-94109500D01*
X60138691Y-94109500D01*
X59961309Y-94109500D01*
X59961306Y-94109500D01*
X59787341Y-94144103D01*
X59787332Y-94144106D01*
X59623460Y-94211983D01*
X59623444Y-94211992D01*
X59606265Y-94223470D01*
X59539587Y-94244344D01*
X59472208Y-94225856D01*
X59468489Y-94223466D01*
X59346553Y-94141990D01*
X59346540Y-94141983D01*
X59182667Y-94074106D01*
X59182658Y-94074103D01*
X59008694Y-94039500D01*
X59008691Y-94039500D01*
X58831309Y-94039500D01*
X58831306Y-94039500D01*
X58657341Y-94074103D01*
X58657332Y-94074106D01*
X58493459Y-94141983D01*
X58493446Y-94141990D01*
X58345965Y-94240535D01*
X58345961Y-94240538D01*
X58220538Y-94365961D01*
X58220535Y-94365965D01*
X58121990Y-94513446D01*
X58121983Y-94513459D01*
X58054106Y-94677332D01*
X58054103Y-94677341D01*
X58019500Y-94851304D01*
X58019500Y-95028695D01*
X58054103Y-95202658D01*
X58054106Y-95202667D01*
X58121983Y-95366540D01*
X58121990Y-95366553D01*
X58220535Y-95514034D01*
X58220538Y-95514038D01*
X58345961Y-95639461D01*
X58345965Y-95639464D01*
X58493446Y-95738009D01*
X58493459Y-95738016D01*
X58577116Y-95772667D01*
X58657334Y-95805894D01*
X58657336Y-95805894D01*
X58657341Y-95805896D01*
X58831304Y-95840499D01*
X58831307Y-95840500D01*
X58831309Y-95840500D01*
X59008693Y-95840500D01*
X59008694Y-95840499D01*
X59066682Y-95828964D01*
X59182658Y-95805896D01*
X59182661Y-95805894D01*
X59182666Y-95805894D01*
X59346547Y-95738013D01*
X59363726Y-95726533D01*
X59430403Y-95705655D01*
X59497784Y-95724138D01*
X59501510Y-95726533D01*
X59570541Y-95772658D01*
X59623453Y-95808013D01*
X59623455Y-95808014D01*
X59623459Y-95808016D01*
X59701882Y-95840499D01*
X59787334Y-95875894D01*
X59787336Y-95875894D01*
X59787341Y-95875896D01*
X59896665Y-95897642D01*
X59958576Y-95930027D01*
X59993150Y-95990743D01*
X59989411Y-96060512D01*
X59975577Y-96088148D01*
X59951993Y-96123444D01*
X59951984Y-96123460D01*
X59884107Y-96287333D01*
X59884104Y-96287342D01*
X59849501Y-96461305D01*
X59849501Y-96638696D01*
X59884104Y-96812659D01*
X59884107Y-96812668D01*
X59951984Y-96976541D01*
X59951991Y-96976554D01*
X60050536Y-97124035D01*
X60050539Y-97124039D01*
X60080708Y-97154208D01*
X60114193Y-97215531D01*
X60109209Y-97285223D01*
X60067337Y-97341156D01*
X60001873Y-97365573D01*
X59968838Y-97363507D01*
X59948692Y-97359500D01*
X59948691Y-97359500D01*
X59771309Y-97359500D01*
X59771306Y-97359500D01*
X59597341Y-97394103D01*
X59597332Y-97394106D01*
X59433459Y-97461983D01*
X59433446Y-97461990D01*
X59285965Y-97560535D01*
X59285961Y-97560538D01*
X59160538Y-97685961D01*
X59160533Y-97685968D01*
X59118123Y-97749437D01*
X59064510Y-97794242D01*
X58995185Y-97802948D01*
X58932158Y-97772792D01*
X58911920Y-97749436D01*
X58849464Y-97655965D01*
X58849461Y-97655961D01*
X58724038Y-97530538D01*
X58724034Y-97530535D01*
X58576553Y-97431990D01*
X58576540Y-97431983D01*
X58412667Y-97364106D01*
X58412658Y-97364103D01*
X58238694Y-97329500D01*
X58238691Y-97329500D01*
X58061309Y-97329500D01*
X58061306Y-97329500D01*
X57887341Y-97364103D01*
X57887332Y-97364106D01*
X57723459Y-97431983D01*
X57723446Y-97431990D01*
X57575965Y-97530535D01*
X57575961Y-97530538D01*
X57450538Y-97655961D01*
X57450535Y-97655965D01*
X57351990Y-97803446D01*
X57351983Y-97803459D01*
X57284106Y-97967332D01*
X57284103Y-97967341D01*
X57249500Y-98141304D01*
X45500500Y-98141304D01*
X45500500Y-86251304D01*
X50129500Y-86251304D01*
X50129500Y-86428695D01*
X50164103Y-86602658D01*
X50164106Y-86602667D01*
X50231983Y-86766540D01*
X50231990Y-86766553D01*
X50330535Y-86914034D01*
X50330538Y-86914038D01*
X50455961Y-87039461D01*
X50455965Y-87039464D01*
X50603446Y-87138009D01*
X50603459Y-87138016D01*
X50726363Y-87188923D01*
X50767334Y-87205894D01*
X50767336Y-87205894D01*
X50767341Y-87205896D01*
X50941304Y-87240499D01*
X50941307Y-87240500D01*
X50941309Y-87240500D01*
X51118693Y-87240500D01*
X51118694Y-87240499D01*
X51176682Y-87228964D01*
X51292658Y-87205896D01*
X51292661Y-87205894D01*
X51292666Y-87205894D01*
X51456547Y-87138013D01*
X51604035Y-87039464D01*
X51729464Y-86914035D01*
X51828013Y-86766547D01*
X51895894Y-86602666D01*
X51896821Y-86598009D01*
X51930499Y-86428695D01*
X51930500Y-86428693D01*
X51930500Y-86251306D01*
X51930499Y-86251304D01*
X51895896Y-86077341D01*
X51895893Y-86077332D01*
X51828016Y-85913459D01*
X51828014Y-85913455D01*
X51828013Y-85913453D01*
X51729464Y-85765965D01*
X51729461Y-85765961D01*
X51674804Y-85711304D01*
X71699500Y-85711304D01*
X71699500Y-85888695D01*
X71734103Y-86062658D01*
X71734106Y-86062667D01*
X71801983Y-86226540D01*
X71801990Y-86226553D01*
X71900535Y-86374034D01*
X71900538Y-86374038D01*
X72025961Y-86499461D01*
X72025965Y-86499464D01*
X72173446Y-86598009D01*
X72173459Y-86598016D01*
X72296363Y-86648923D01*
X72337334Y-86665894D01*
X72337336Y-86665894D01*
X72337341Y-86665896D01*
X72511304Y-86700499D01*
X72511307Y-86700500D01*
X72511309Y-86700500D01*
X72688693Y-86700500D01*
X72688694Y-86700499D01*
X72746682Y-86688964D01*
X72862658Y-86665896D01*
X72862661Y-86665894D01*
X72862666Y-86665894D01*
X73026547Y-86598013D01*
X73174035Y-86499464D01*
X73299464Y-86374035D01*
X73398013Y-86226547D01*
X73465894Y-86062666D01*
X73500500Y-85888691D01*
X73500500Y-85711309D01*
X73500500Y-85711306D01*
X73500499Y-85711304D01*
X73465896Y-85537341D01*
X73465893Y-85537332D01*
X73398016Y-85373459D01*
X73398009Y-85373446D01*
X73299464Y-85225965D01*
X73299461Y-85225961D01*
X73174038Y-85100538D01*
X73174034Y-85100535D01*
X73026553Y-85001990D01*
X73026540Y-85001983D01*
X72862667Y-84934106D01*
X72862658Y-84934103D01*
X72688694Y-84899500D01*
X72688691Y-84899500D01*
X72511309Y-84899500D01*
X72511306Y-84899500D01*
X72337341Y-84934103D01*
X72337332Y-84934106D01*
X72173459Y-85001983D01*
X72173446Y-85001990D01*
X72025965Y-85100535D01*
X72025961Y-85100538D01*
X71900538Y-85225961D01*
X71900535Y-85225965D01*
X71801990Y-85373446D01*
X71801983Y-85373459D01*
X71734106Y-85537332D01*
X71734103Y-85537341D01*
X71699500Y-85711304D01*
X51674804Y-85711304D01*
X51604038Y-85640538D01*
X51604034Y-85640535D01*
X51456553Y-85541990D01*
X51456540Y-85541983D01*
X51292667Y-85474106D01*
X51292658Y-85474103D01*
X51118694Y-85439500D01*
X51118691Y-85439500D01*
X50941309Y-85439500D01*
X50941306Y-85439500D01*
X50767341Y-85474103D01*
X50767332Y-85474106D01*
X50603459Y-85541983D01*
X50603446Y-85541990D01*
X50455965Y-85640535D01*
X50455961Y-85640538D01*
X50330538Y-85765961D01*
X50330535Y-85765965D01*
X50231990Y-85913446D01*
X50231983Y-85913459D01*
X50164106Y-86077332D01*
X50164103Y-86077341D01*
X50129500Y-86251304D01*
X45500500Y-86251304D01*
X45500500Y-73216154D01*
X47659500Y-73216154D01*
X47659500Y-73373847D01*
X47690261Y-73528490D01*
X47690264Y-73528502D01*
X47750602Y-73674173D01*
X47750609Y-73674186D01*
X47838210Y-73805289D01*
X47838213Y-73805293D01*
X47949707Y-73916787D01*
X47949711Y-73916790D01*
X48080814Y-74004391D01*
X48080827Y-74004398D01*
X48226498Y-74064736D01*
X48226503Y-74064738D01*
X48381153Y-74095500D01*
X48381156Y-74095501D01*
X48381158Y-74095501D01*
X48538844Y-74095501D01*
X48538845Y-74095500D01*
X48693497Y-74064738D01*
X48839179Y-74004395D01*
X48970289Y-73916790D01*
X49081789Y-73805290D01*
X49128681Y-73735111D01*
X49172779Y-73669115D01*
X49175214Y-73670742D01*
X49215130Y-73629749D01*
X49283199Y-73613990D01*
X49348983Y-73637534D01*
X49391595Y-73692905D01*
X49400000Y-73737781D01*
X49400000Y-74194972D01*
X49400001Y-74194988D01*
X49410494Y-74297697D01*
X49410494Y-74297699D01*
X49465640Y-74464120D01*
X49465645Y-74464131D01*
X49557680Y-74613341D01*
X49557683Y-74613345D01*
X49686425Y-74742087D01*
X49719910Y-74803410D01*
X49714926Y-74873102D01*
X49699063Y-74902652D01*
X49631130Y-74996155D01*
X49631129Y-74996157D01*
X49516760Y-75220617D01*
X49438910Y-75460212D01*
X49433642Y-75493473D01*
X49403711Y-75556607D01*
X49344398Y-75593537D01*
X49274536Y-75592537D01*
X49216304Y-75553926D01*
X49196610Y-75521528D01*
X49169394Y-75455822D01*
X49169390Y-75455815D01*
X49081789Y-75324712D01*
X49081786Y-75324708D01*
X48970292Y-75213214D01*
X48970288Y-75213211D01*
X48839185Y-75125610D01*
X48839172Y-75125603D01*
X48693501Y-75065265D01*
X48693489Y-75065262D01*
X48538845Y-75034501D01*
X48538842Y-75034501D01*
X48381158Y-75034501D01*
X48381155Y-75034501D01*
X48226510Y-75065262D01*
X48226498Y-75065265D01*
X48080827Y-75125603D01*
X48080814Y-75125610D01*
X47949711Y-75213211D01*
X47949707Y-75213214D01*
X47838213Y-75324708D01*
X47838210Y-75324712D01*
X47750609Y-75455815D01*
X47750602Y-75455828D01*
X47690264Y-75601499D01*
X47690261Y-75601511D01*
X47659500Y-75756154D01*
X47659500Y-75913847D01*
X47690261Y-76068490D01*
X47690264Y-76068502D01*
X47750602Y-76214173D01*
X47750609Y-76214186D01*
X47838210Y-76345289D01*
X47838213Y-76345293D01*
X47949707Y-76456787D01*
X47949711Y-76456790D01*
X48080814Y-76544391D01*
X48080827Y-76544398D01*
X48226498Y-76604736D01*
X48226503Y-76604738D01*
X48381153Y-76635500D01*
X48381156Y-76635501D01*
X48381158Y-76635501D01*
X48538844Y-76635501D01*
X48538845Y-76635500D01*
X48693497Y-76604738D01*
X48839179Y-76544395D01*
X48970289Y-76456790D01*
X49081789Y-76345290D01*
X49169394Y-76214180D01*
X49196609Y-76148476D01*
X49240447Y-76094074D01*
X49306741Y-76072008D01*
X49374440Y-76089286D01*
X49422052Y-76140422D01*
X49433642Y-76176529D01*
X49438910Y-76209788D01*
X49516760Y-76449384D01*
X49631132Y-76673849D01*
X49779201Y-76877650D01*
X49779205Y-76877655D01*
X49918869Y-77017319D01*
X49952354Y-77078642D01*
X49947370Y-77148334D01*
X49918870Y-77192681D01*
X49779200Y-77332351D01*
X49631132Y-77536151D01*
X49516760Y-77760616D01*
X49438910Y-78000211D01*
X49433642Y-78033472D01*
X49403711Y-78096606D01*
X49344398Y-78133536D01*
X49274536Y-78132536D01*
X49216304Y-78093925D01*
X49196610Y-78061528D01*
X49169394Y-77995822D01*
X49169392Y-77995819D01*
X49169390Y-77995815D01*
X49081789Y-77864712D01*
X49081786Y-77864708D01*
X48970292Y-77753214D01*
X48970288Y-77753211D01*
X48839185Y-77665610D01*
X48839172Y-77665603D01*
X48693501Y-77605265D01*
X48693489Y-77605262D01*
X48538845Y-77574501D01*
X48538842Y-77574501D01*
X48381158Y-77574501D01*
X48381155Y-77574501D01*
X48226510Y-77605262D01*
X48226498Y-77605265D01*
X48080827Y-77665603D01*
X48080814Y-77665610D01*
X47949711Y-77753211D01*
X47949707Y-77753214D01*
X47838213Y-77864708D01*
X47838210Y-77864712D01*
X47750609Y-77995815D01*
X47750602Y-77995828D01*
X47690264Y-78141499D01*
X47690261Y-78141511D01*
X47659500Y-78296154D01*
X47659500Y-78453847D01*
X47690261Y-78608490D01*
X47690264Y-78608502D01*
X47750602Y-78754173D01*
X47750609Y-78754186D01*
X47838210Y-78885289D01*
X47838213Y-78885293D01*
X47949707Y-78996787D01*
X47949711Y-78996790D01*
X48080814Y-79084391D01*
X48080827Y-79084398D01*
X48226498Y-79144736D01*
X48226503Y-79144738D01*
X48381153Y-79175500D01*
X48381156Y-79175501D01*
X48381158Y-79175501D01*
X48538844Y-79175501D01*
X48538845Y-79175500D01*
X48693497Y-79144738D01*
X48839179Y-79084395D01*
X48970289Y-78996790D01*
X49081789Y-78885290D01*
X49169394Y-78754180D01*
X49169395Y-78754177D01*
X49169397Y-78754174D01*
X49196609Y-78688477D01*
X49240449Y-78634073D01*
X49306743Y-78612008D01*
X49374443Y-78629287D01*
X49422053Y-78680424D01*
X49433643Y-78716531D01*
X49438910Y-78749785D01*
X49516760Y-78989383D01*
X49631132Y-79213848D01*
X49779201Y-79417649D01*
X49779205Y-79417654D01*
X49957345Y-79595794D01*
X49957350Y-79595798D01*
X50135117Y-79724952D01*
X50161155Y-79743870D01*
X50304184Y-79816747D01*
X50385616Y-79858239D01*
X50385618Y-79858239D01*
X50385621Y-79858241D01*
X50625215Y-79936090D01*
X50874038Y-79975500D01*
X50874039Y-79975500D01*
X51125961Y-79975500D01*
X51125962Y-79975500D01*
X51374785Y-79936090D01*
X51614379Y-79858241D01*
X51838845Y-79743870D01*
X52042656Y-79595793D01*
X52220793Y-79417656D01*
X52368870Y-79213845D01*
X52483241Y-78989379D01*
X52561090Y-78749785D01*
X52600500Y-78500962D01*
X52600500Y-78249038D01*
X52561090Y-78000215D01*
X52483241Y-77760621D01*
X52483239Y-77760618D01*
X52483239Y-77760616D01*
X52441747Y-77679184D01*
X52368870Y-77536155D01*
X52349952Y-77510117D01*
X52220798Y-77332350D01*
X52220794Y-77332345D01*
X52081130Y-77192681D01*
X52047645Y-77131358D01*
X52052629Y-77061666D01*
X52081126Y-77017323D01*
X52220793Y-76877657D01*
X52368870Y-76673846D01*
X52483241Y-76449380D01*
X52561090Y-76209786D01*
X52600500Y-75960963D01*
X52600500Y-75709039D01*
X52561090Y-75460216D01*
X52483241Y-75220622D01*
X52483239Y-75220619D01*
X52483239Y-75220617D01*
X52404081Y-75065262D01*
X52368870Y-74996156D01*
X52368868Y-74996153D01*
X52355753Y-74978101D01*
X52355753Y-74978100D01*
X52307222Y-74911304D01*
X71299500Y-74911304D01*
X71299500Y-75088695D01*
X71334103Y-75262658D01*
X71334106Y-75262667D01*
X71401983Y-75426540D01*
X71401990Y-75426553D01*
X71500535Y-75574034D01*
X71500538Y-75574038D01*
X71625961Y-75699461D01*
X71625965Y-75699464D01*
X71773446Y-75798009D01*
X71773459Y-75798016D01*
X71896363Y-75848923D01*
X71937334Y-75865894D01*
X71937336Y-75865894D01*
X71937341Y-75865896D01*
X72111304Y-75900499D01*
X72111307Y-75900500D01*
X72111309Y-75900500D01*
X72288693Y-75900500D01*
X72288694Y-75900499D01*
X72346682Y-75888964D01*
X72462658Y-75865896D01*
X72462661Y-75865894D01*
X72462666Y-75865894D01*
X72626547Y-75798013D01*
X72774035Y-75699464D01*
X72899464Y-75574035D01*
X72998013Y-75426547D01*
X73065894Y-75262666D01*
X73075732Y-75213211D01*
X73100499Y-75088695D01*
X73100500Y-75088693D01*
X73100500Y-74911306D01*
X73100499Y-74911304D01*
X73065896Y-74737341D01*
X73065893Y-74737332D01*
X72998016Y-74573459D01*
X72998009Y-74573446D01*
X72899464Y-74425965D01*
X72899461Y-74425961D01*
X72774038Y-74300538D01*
X72774034Y-74300535D01*
X72626553Y-74201990D01*
X72626540Y-74201983D01*
X72462667Y-74134106D01*
X72462658Y-74134103D01*
X72288694Y-74099500D01*
X72288691Y-74099500D01*
X72111309Y-74099500D01*
X72111306Y-74099500D01*
X71937341Y-74134103D01*
X71937332Y-74134106D01*
X71773459Y-74201983D01*
X71773446Y-74201990D01*
X71625965Y-74300535D01*
X71625961Y-74300538D01*
X71500538Y-74425961D01*
X71500535Y-74425965D01*
X71401990Y-74573446D01*
X71401983Y-74573459D01*
X71334106Y-74737332D01*
X71334103Y-74737341D01*
X71299500Y-74911304D01*
X52307222Y-74911304D01*
X52300937Y-74902653D01*
X52277457Y-74836847D01*
X52293282Y-74768793D01*
X52313574Y-74742086D01*
X52442320Y-74613340D01*
X52534354Y-74464131D01*
X52534359Y-74464120D01*
X52589505Y-74297698D01*
X52599999Y-74194987D01*
X52600000Y-74194974D01*
X52600000Y-73545001D01*
X51490748Y-73545001D01*
X51512518Y-73507293D01*
X51550000Y-73367410D01*
X51550000Y-73222592D01*
X51512518Y-73082709D01*
X51490748Y-73045001D01*
X52599999Y-73045001D01*
X52599999Y-72395029D01*
X52599998Y-72395014D01*
X52589505Y-72292304D01*
X52589505Y-72292302D01*
X52534359Y-72125881D01*
X52534354Y-72125870D01*
X52442319Y-71976660D01*
X52442316Y-71976656D01*
X52318344Y-71852684D01*
X52318340Y-71852681D01*
X52169130Y-71760646D01*
X52169119Y-71760641D01*
X52002697Y-71705495D01*
X51899986Y-71695001D01*
X51250000Y-71695001D01*
X51250000Y-72804253D01*
X51212292Y-72782483D01*
X51072409Y-72745001D01*
X50927591Y-72745001D01*
X50787708Y-72782483D01*
X50750000Y-72804253D01*
X50750000Y-71695001D01*
X50100028Y-71695001D01*
X50100012Y-71695002D01*
X49997303Y-71705495D01*
X49997301Y-71705495D01*
X49830880Y-71760641D01*
X49830869Y-71760646D01*
X49681659Y-71852681D01*
X49681655Y-71852684D01*
X49557683Y-71976656D01*
X49557680Y-71976660D01*
X49465645Y-72125870D01*
X49465640Y-72125881D01*
X49410494Y-72292303D01*
X49400000Y-72395014D01*
X49400000Y-72852219D01*
X49380315Y-72919258D01*
X49327511Y-72965013D01*
X49258353Y-72974957D01*
X49194797Y-72945932D01*
X49174105Y-72920000D01*
X49172779Y-72920887D01*
X49081789Y-72784712D01*
X49081786Y-72784708D01*
X48970292Y-72673214D01*
X48970288Y-72673211D01*
X48839185Y-72585610D01*
X48839172Y-72585603D01*
X48693501Y-72525265D01*
X48693489Y-72525262D01*
X48538845Y-72494501D01*
X48538842Y-72494501D01*
X48381158Y-72494501D01*
X48381155Y-72494501D01*
X48226510Y-72525262D01*
X48226498Y-72525265D01*
X48080827Y-72585603D01*
X48080814Y-72585610D01*
X47949711Y-72673211D01*
X47949707Y-72673214D01*
X47838213Y-72784708D01*
X47838210Y-72784712D01*
X47750609Y-72915815D01*
X47750602Y-72915828D01*
X47690264Y-73061499D01*
X47690261Y-73061511D01*
X47659500Y-73216154D01*
X45500500Y-73216154D01*
X45500500Y-66411304D01*
X71599500Y-66411304D01*
X71599500Y-66588695D01*
X71634103Y-66762658D01*
X71634106Y-66762667D01*
X71701983Y-66926540D01*
X71701990Y-66926553D01*
X71800535Y-67074034D01*
X71800538Y-67074038D01*
X71925961Y-67199461D01*
X71925965Y-67199464D01*
X72073446Y-67298009D01*
X72073459Y-67298016D01*
X72196363Y-67348923D01*
X72237334Y-67365894D01*
X72237336Y-67365894D01*
X72237341Y-67365896D01*
X72411304Y-67400499D01*
X72411307Y-67400500D01*
X72411309Y-67400500D01*
X72588693Y-67400500D01*
X72588694Y-67400499D01*
X72646682Y-67388964D01*
X72762658Y-67365896D01*
X72762661Y-67365894D01*
X72762666Y-67365894D01*
X72926547Y-67298013D01*
X73074035Y-67199464D01*
X73199464Y-67074035D01*
X73298013Y-66926547D01*
X73365894Y-66762666D01*
X73400500Y-66588691D01*
X73400500Y-66411309D01*
X73400500Y-66411306D01*
X73400499Y-66411304D01*
X73365896Y-66237341D01*
X73365893Y-66237332D01*
X73298016Y-66073459D01*
X73298009Y-66073446D01*
X73199464Y-65925965D01*
X73199461Y-65925961D01*
X73074038Y-65800538D01*
X73074034Y-65800535D01*
X72926553Y-65701990D01*
X72926540Y-65701983D01*
X72762667Y-65634106D01*
X72762658Y-65634103D01*
X72588694Y-65599500D01*
X72588691Y-65599500D01*
X72411309Y-65599500D01*
X72411306Y-65599500D01*
X72237341Y-65634103D01*
X72237332Y-65634106D01*
X72073459Y-65701983D01*
X72073446Y-65701990D01*
X71925965Y-65800535D01*
X71925961Y-65800538D01*
X71800538Y-65925961D01*
X71800535Y-65925965D01*
X71701990Y-66073446D01*
X71701983Y-66073459D01*
X71634106Y-66237332D01*
X71634103Y-66237341D01*
X71599500Y-66411304D01*
X45500500Y-66411304D01*
X45500500Y-65301304D01*
X50099500Y-65301304D01*
X50099500Y-65478695D01*
X50134103Y-65652658D01*
X50134106Y-65652667D01*
X50201983Y-65816540D01*
X50201990Y-65816553D01*
X50300535Y-65964034D01*
X50300538Y-65964038D01*
X50425961Y-66089461D01*
X50425965Y-66089464D01*
X50573446Y-66188009D01*
X50573459Y-66188016D01*
X50692521Y-66237332D01*
X50737334Y-66255894D01*
X50737336Y-66255894D01*
X50737341Y-66255896D01*
X50911304Y-66290499D01*
X50911307Y-66290500D01*
X50911309Y-66290500D01*
X51088693Y-66290500D01*
X51088694Y-66290499D01*
X51098500Y-66288548D01*
X51123377Y-66283601D01*
X51123382Y-66283600D01*
X51202295Y-66267902D01*
X51262666Y-66255894D01*
X51426547Y-66188013D01*
X51574035Y-66089464D01*
X51699464Y-65964035D01*
X51798013Y-65816547D01*
X51865894Y-65652666D01*
X51869587Y-65634103D01*
X51900499Y-65478695D01*
X51900500Y-65478693D01*
X51900500Y-65301306D01*
X51900499Y-65301304D01*
X51865896Y-65127341D01*
X51865893Y-65127332D01*
X51798016Y-64963459D01*
X51798009Y-64963446D01*
X51699464Y-64815965D01*
X51699461Y-64815961D01*
X51574038Y-64690538D01*
X51574034Y-64690535D01*
X51426553Y-64591990D01*
X51426540Y-64591983D01*
X51262667Y-64524106D01*
X51262658Y-64524103D01*
X51088694Y-64489500D01*
X51088691Y-64489500D01*
X50911309Y-64489500D01*
X50911306Y-64489500D01*
X50737341Y-64524103D01*
X50737332Y-64524106D01*
X50573459Y-64591983D01*
X50573446Y-64591990D01*
X50425965Y-64690535D01*
X50425961Y-64690538D01*
X50300538Y-64815961D01*
X50300535Y-64815965D01*
X50201990Y-64963446D01*
X50201983Y-64963459D01*
X50134106Y-65127332D01*
X50134103Y-65127341D01*
X50099500Y-65301304D01*
X45500500Y-65301304D01*
X45500500Y-62624500D01*
X45520185Y-62557461D01*
X45572989Y-62511706D01*
X45624500Y-62500500D01*
X78375500Y-62500500D01*
X78442539Y-62520185D01*
G37*
%TD.AperFunction*%
%TD*%
M02*
