M48
; DRILL file KiCad 10.0.1 date 2026-06-08T13:26:25
; FORMAT={-:-/ absolute / metric / decimal}
; #@! TF.CreationDate,2026-06-08T13:26:25+01:00
; #@! TF.GenerationSoftware,Kicad,Pcbnew,10.0.1
; #@! TF.FileFunction,Plated,1,4,PTH
FMAT,2
METRIC
; #@! TA.AperFunction,Plated,PTH,ViaDrill
T1C0.400
; #@! TA.AperFunction,Plated,PTH,ComponentDrill
T2C1.100
%
G90
G05
T1
X51.0Y-65.39
X51.03Y-86.34
X57.5Y-105.7
X58.0Y-103.94
X58.15Y-98.23
X58.22Y-107.7
X58.92Y-94.94
X59.5Y-104.84
X59.86Y-98.26
X60.05Y-95.01
X60.75Y-96.55
X61.02Y-103.28
X61.135Y-106.88
X61.87Y-94.73
X63.41Y-106.91
X64.16Y-98.27
X64.175Y-94.88
X64.34Y-105.15
X65.22Y-95.6
X65.36Y-102.65
X67.1Y-105.13
X67.53Y-94.02
X67.93Y-100.68
X67.95Y-99.18
X68.05Y-95.51
X68.14Y-103.65
X72.2Y-75.0
X72.5Y-66.5
X72.6Y-85.8
X72.6Y-94.3
X72.9Y-105.8
X73.1Y-114.3
T2
X51.0Y-73.295
X51.0Y-75.835
X51.0Y-78.375
M30
