%TF.GenerationSoftware,KiCad,Pcbnew,10.0.1*%
%TF.CreationDate,2026-06-12T13:15:41+01:00*%
%TF.ProjectId,xlzd_xenonnt_amplifier_test,786c7a64-5f78-4656-9e6f-6e6e745f616d,rev?*%
%TF.SameCoordinates,Original*%
%TF.FileFunction,AssemblyDrawing,Top*%
%FSLAX46Y46*%
G04 Gerber Fmt 4.6, Leading zero omitted, Abs format (unit mm)*
G04 Created by KiCad (PCBNEW 10.0.1) date 2026-06-12 13:15:41*
%MOMM*%
%LPD*%
G01*
G04 APERTURE LIST*
%ADD10C,0.150000*%
%ADD11C,0.300000*%
%ADD12C,0.400000*%
%ADD13C,0.060000*%
%ADD14C,0.110000*%
%ADD15C,0.120000*%
%ADD16C,0.040000*%
%ADD17C,0.100000*%
G04 APERTURE END LIST*
D10*
X177002200Y-166007200D02*
X285002200Y-166007200D01*
X285002200Y-198007200D01*
X177002200Y-198007200D01*
X177002200Y-166007200D01*
X10000000Y-10000000D02*
X287002200Y-10000000D01*
X287002200Y-200007200D01*
X10000000Y-200007200D01*
X10000000Y-10000000D01*
X12000000Y-12000000D02*
X285002200Y-12000000D01*
X285002200Y-198007200D01*
X12000000Y-198007200D01*
X12000000Y-12000000D01*
X60000000Y-12000000D02*
X60000000Y-10000000D01*
X110000000Y-12000000D02*
X110000000Y-10000000D01*
X160000000Y-12000000D02*
X160000000Y-10000000D01*
X210000000Y-12000000D02*
X210000000Y-10000000D01*
X260000000Y-12000000D02*
X260000000Y-10000000D01*
X36089160Y-11593604D02*
X35346303Y-11593604D01*
X35717731Y-11593604D02*
X35717731Y-10293604D01*
X35717731Y-10293604D02*
X35593922Y-10479319D01*
X35593922Y-10479319D02*
X35470112Y-10603128D01*
X35470112Y-10603128D02*
X35346303Y-10665033D01*
X85346303Y-10417414D02*
X85408207Y-10355509D01*
X85408207Y-10355509D02*
X85532017Y-10293604D01*
X85532017Y-10293604D02*
X85841541Y-10293604D01*
X85841541Y-10293604D02*
X85965350Y-10355509D01*
X85965350Y-10355509D02*
X86027255Y-10417414D01*
X86027255Y-10417414D02*
X86089160Y-10541223D01*
X86089160Y-10541223D02*
X86089160Y-10665033D01*
X86089160Y-10665033D02*
X86027255Y-10850747D01*
X86027255Y-10850747D02*
X85284398Y-11593604D01*
X85284398Y-11593604D02*
X86089160Y-11593604D01*
X135284398Y-10293604D02*
X136089160Y-10293604D01*
X136089160Y-10293604D02*
X135655826Y-10788842D01*
X135655826Y-10788842D02*
X135841541Y-10788842D01*
X135841541Y-10788842D02*
X135965350Y-10850747D01*
X135965350Y-10850747D02*
X136027255Y-10912652D01*
X136027255Y-10912652D02*
X136089160Y-11036461D01*
X136089160Y-11036461D02*
X136089160Y-11345985D01*
X136089160Y-11345985D02*
X136027255Y-11469795D01*
X136027255Y-11469795D02*
X135965350Y-11531700D01*
X135965350Y-11531700D02*
X135841541Y-11593604D01*
X135841541Y-11593604D02*
X135470112Y-11593604D01*
X135470112Y-11593604D02*
X135346303Y-11531700D01*
X135346303Y-11531700D02*
X135284398Y-11469795D01*
X185965350Y-10726938D02*
X185965350Y-11593604D01*
X185655826Y-10231700D02*
X185346303Y-11160271D01*
X185346303Y-11160271D02*
X186151064Y-11160271D01*
X236027255Y-10293604D02*
X235408207Y-10293604D01*
X235408207Y-10293604D02*
X235346303Y-10912652D01*
X235346303Y-10912652D02*
X235408207Y-10850747D01*
X235408207Y-10850747D02*
X235532017Y-10788842D01*
X235532017Y-10788842D02*
X235841541Y-10788842D01*
X235841541Y-10788842D02*
X235965350Y-10850747D01*
X235965350Y-10850747D02*
X236027255Y-10912652D01*
X236027255Y-10912652D02*
X236089160Y-11036461D01*
X236089160Y-11036461D02*
X236089160Y-11345985D01*
X236089160Y-11345985D02*
X236027255Y-11469795D01*
X236027255Y-11469795D02*
X235965350Y-11531700D01*
X235965350Y-11531700D02*
X235841541Y-11593604D01*
X235841541Y-11593604D02*
X235532017Y-11593604D01*
X235532017Y-11593604D02*
X235408207Y-11531700D01*
X235408207Y-11531700D02*
X235346303Y-11469795D01*
X285965350Y-10293604D02*
X285717731Y-10293604D01*
X285717731Y-10293604D02*
X285593922Y-10355509D01*
X285593922Y-10355509D02*
X285532017Y-10417414D01*
X285532017Y-10417414D02*
X285408207Y-10603128D01*
X285408207Y-10603128D02*
X285346303Y-10850747D01*
X285346303Y-10850747D02*
X285346303Y-11345985D01*
X285346303Y-11345985D02*
X285408207Y-11469795D01*
X285408207Y-11469795D02*
X285470112Y-11531700D01*
X285470112Y-11531700D02*
X285593922Y-11593604D01*
X285593922Y-11593604D02*
X285841541Y-11593604D01*
X285841541Y-11593604D02*
X285965350Y-11531700D01*
X285965350Y-11531700D02*
X286027255Y-11469795D01*
X286027255Y-11469795D02*
X286089160Y-11345985D01*
X286089160Y-11345985D02*
X286089160Y-11036461D01*
X286089160Y-11036461D02*
X286027255Y-10912652D01*
X286027255Y-10912652D02*
X285965350Y-10850747D01*
X285965350Y-10850747D02*
X285841541Y-10788842D01*
X285841541Y-10788842D02*
X285593922Y-10788842D01*
X285593922Y-10788842D02*
X285470112Y-10850747D01*
X285470112Y-10850747D02*
X285408207Y-10912652D01*
X285408207Y-10912652D02*
X285346303Y-11036461D01*
X60000000Y-198007200D02*
X60000000Y-200007200D01*
X110000000Y-198007200D02*
X110000000Y-200007200D01*
X160000000Y-198007200D02*
X160000000Y-200007200D01*
X210000000Y-198007200D02*
X210000000Y-200007200D01*
X260000000Y-198007200D02*
X260000000Y-200007200D01*
X36089160Y-199600804D02*
X35346303Y-199600804D01*
X35717731Y-199600804D02*
X35717731Y-198300804D01*
X35717731Y-198300804D02*
X35593922Y-198486519D01*
X35593922Y-198486519D02*
X35470112Y-198610328D01*
X35470112Y-198610328D02*
X35346303Y-198672233D01*
X85346303Y-198424614D02*
X85408207Y-198362709D01*
X85408207Y-198362709D02*
X85532017Y-198300804D01*
X85532017Y-198300804D02*
X85841541Y-198300804D01*
X85841541Y-198300804D02*
X85965350Y-198362709D01*
X85965350Y-198362709D02*
X86027255Y-198424614D01*
X86027255Y-198424614D02*
X86089160Y-198548423D01*
X86089160Y-198548423D02*
X86089160Y-198672233D01*
X86089160Y-198672233D02*
X86027255Y-198857947D01*
X86027255Y-198857947D02*
X85284398Y-199600804D01*
X85284398Y-199600804D02*
X86089160Y-199600804D01*
X135284398Y-198300804D02*
X136089160Y-198300804D01*
X136089160Y-198300804D02*
X135655826Y-198796042D01*
X135655826Y-198796042D02*
X135841541Y-198796042D01*
X135841541Y-198796042D02*
X135965350Y-198857947D01*
X135965350Y-198857947D02*
X136027255Y-198919852D01*
X136027255Y-198919852D02*
X136089160Y-199043661D01*
X136089160Y-199043661D02*
X136089160Y-199353185D01*
X136089160Y-199353185D02*
X136027255Y-199476995D01*
X136027255Y-199476995D02*
X135965350Y-199538900D01*
X135965350Y-199538900D02*
X135841541Y-199600804D01*
X135841541Y-199600804D02*
X135470112Y-199600804D01*
X135470112Y-199600804D02*
X135346303Y-199538900D01*
X135346303Y-199538900D02*
X135284398Y-199476995D01*
X185965350Y-198734138D02*
X185965350Y-199600804D01*
X185655826Y-198238900D02*
X185346303Y-199167471D01*
X185346303Y-199167471D02*
X186151064Y-199167471D01*
X236027255Y-198300804D02*
X235408207Y-198300804D01*
X235408207Y-198300804D02*
X235346303Y-198919852D01*
X235346303Y-198919852D02*
X235408207Y-198857947D01*
X235408207Y-198857947D02*
X235532017Y-198796042D01*
X235532017Y-198796042D02*
X235841541Y-198796042D01*
X235841541Y-198796042D02*
X235965350Y-198857947D01*
X235965350Y-198857947D02*
X236027255Y-198919852D01*
X236027255Y-198919852D02*
X236089160Y-199043661D01*
X236089160Y-199043661D02*
X236089160Y-199353185D01*
X236089160Y-199353185D02*
X236027255Y-199476995D01*
X236027255Y-199476995D02*
X235965350Y-199538900D01*
X235965350Y-199538900D02*
X235841541Y-199600804D01*
X235841541Y-199600804D02*
X235532017Y-199600804D01*
X235532017Y-199600804D02*
X235408207Y-199538900D01*
X235408207Y-199538900D02*
X235346303Y-199476995D01*
X285965350Y-198300804D02*
X285717731Y-198300804D01*
X285717731Y-198300804D02*
X285593922Y-198362709D01*
X285593922Y-198362709D02*
X285532017Y-198424614D01*
X285532017Y-198424614D02*
X285408207Y-198610328D01*
X285408207Y-198610328D02*
X285346303Y-198857947D01*
X285346303Y-198857947D02*
X285346303Y-199353185D01*
X285346303Y-199353185D02*
X285408207Y-199476995D01*
X285408207Y-199476995D02*
X285470112Y-199538900D01*
X285470112Y-199538900D02*
X285593922Y-199600804D01*
X285593922Y-199600804D02*
X285841541Y-199600804D01*
X285841541Y-199600804D02*
X285965350Y-199538900D01*
X285965350Y-199538900D02*
X286027255Y-199476995D01*
X286027255Y-199476995D02*
X286089160Y-199353185D01*
X286089160Y-199353185D02*
X286089160Y-199043661D01*
X286089160Y-199043661D02*
X286027255Y-198919852D01*
X286027255Y-198919852D02*
X285965350Y-198857947D01*
X285965350Y-198857947D02*
X285841541Y-198796042D01*
X285841541Y-198796042D02*
X285593922Y-198796042D01*
X285593922Y-198796042D02*
X285470112Y-198857947D01*
X285470112Y-198857947D02*
X285408207Y-198919852D01*
X285408207Y-198919852D02*
X285346303Y-199043661D01*
X10000000Y-60000000D02*
X12000000Y-60000000D01*
X10000000Y-110000000D02*
X12000000Y-110000000D01*
X10000000Y-160000000D02*
X12000000Y-160000000D01*
X10690476Y-35222176D02*
X11309523Y-35222176D01*
X10566666Y-35593604D02*
X10999999Y-34293604D01*
X10999999Y-34293604D02*
X11433333Y-35593604D01*
X11092857Y-84912652D02*
X11278571Y-84974557D01*
X11278571Y-84974557D02*
X11340476Y-85036461D01*
X11340476Y-85036461D02*
X11402380Y-85160271D01*
X11402380Y-85160271D02*
X11402380Y-85345985D01*
X11402380Y-85345985D02*
X11340476Y-85469795D01*
X11340476Y-85469795D02*
X11278571Y-85531700D01*
X11278571Y-85531700D02*
X11154761Y-85593604D01*
X11154761Y-85593604D02*
X10659523Y-85593604D01*
X10659523Y-85593604D02*
X10659523Y-84293604D01*
X10659523Y-84293604D02*
X11092857Y-84293604D01*
X11092857Y-84293604D02*
X11216666Y-84355509D01*
X11216666Y-84355509D02*
X11278571Y-84417414D01*
X11278571Y-84417414D02*
X11340476Y-84541223D01*
X11340476Y-84541223D02*
X11340476Y-84665033D01*
X11340476Y-84665033D02*
X11278571Y-84788842D01*
X11278571Y-84788842D02*
X11216666Y-84850747D01*
X11216666Y-84850747D02*
X11092857Y-84912652D01*
X11092857Y-84912652D02*
X10659523Y-84912652D01*
X11402380Y-135469795D02*
X11340476Y-135531700D01*
X11340476Y-135531700D02*
X11154761Y-135593604D01*
X11154761Y-135593604D02*
X11030952Y-135593604D01*
X11030952Y-135593604D02*
X10845238Y-135531700D01*
X10845238Y-135531700D02*
X10721428Y-135407890D01*
X10721428Y-135407890D02*
X10659523Y-135284080D01*
X10659523Y-135284080D02*
X10597619Y-135036461D01*
X10597619Y-135036461D02*
X10597619Y-134850747D01*
X10597619Y-134850747D02*
X10659523Y-134603128D01*
X10659523Y-134603128D02*
X10721428Y-134479319D01*
X10721428Y-134479319D02*
X10845238Y-134355509D01*
X10845238Y-134355509D02*
X11030952Y-134293604D01*
X11030952Y-134293604D02*
X11154761Y-134293604D01*
X11154761Y-134293604D02*
X11340476Y-134355509D01*
X11340476Y-134355509D02*
X11402380Y-134417414D01*
X10659523Y-185593604D02*
X10659523Y-184293604D01*
X10659523Y-184293604D02*
X10969047Y-184293604D01*
X10969047Y-184293604D02*
X11154761Y-184355509D01*
X11154761Y-184355509D02*
X11278571Y-184479319D01*
X11278571Y-184479319D02*
X11340476Y-184603128D01*
X11340476Y-184603128D02*
X11402380Y-184850747D01*
X11402380Y-184850747D02*
X11402380Y-185036461D01*
X11402380Y-185036461D02*
X11340476Y-185284080D01*
X11340476Y-185284080D02*
X11278571Y-185407890D01*
X11278571Y-185407890D02*
X11154761Y-185531700D01*
X11154761Y-185531700D02*
X10969047Y-185593604D01*
X10969047Y-185593604D02*
X10659523Y-185593604D01*
X287002200Y-60000000D02*
X285002200Y-60000000D01*
X287002200Y-110000000D02*
X285002200Y-110000000D01*
X287002200Y-160000000D02*
X285002200Y-160000000D01*
X285692676Y-35222176D02*
X286311723Y-35222176D01*
X285568866Y-35593604D02*
X286002199Y-34293604D01*
X286002199Y-34293604D02*
X286435533Y-35593604D01*
X286095057Y-84912652D02*
X286280771Y-84974557D01*
X286280771Y-84974557D02*
X286342676Y-85036461D01*
X286342676Y-85036461D02*
X286404580Y-85160271D01*
X286404580Y-85160271D02*
X286404580Y-85345985D01*
X286404580Y-85345985D02*
X286342676Y-85469795D01*
X286342676Y-85469795D02*
X286280771Y-85531700D01*
X286280771Y-85531700D02*
X286156961Y-85593604D01*
X286156961Y-85593604D02*
X285661723Y-85593604D01*
X285661723Y-85593604D02*
X285661723Y-84293604D01*
X285661723Y-84293604D02*
X286095057Y-84293604D01*
X286095057Y-84293604D02*
X286218866Y-84355509D01*
X286218866Y-84355509D02*
X286280771Y-84417414D01*
X286280771Y-84417414D02*
X286342676Y-84541223D01*
X286342676Y-84541223D02*
X286342676Y-84665033D01*
X286342676Y-84665033D02*
X286280771Y-84788842D01*
X286280771Y-84788842D02*
X286218866Y-84850747D01*
X286218866Y-84850747D02*
X286095057Y-84912652D01*
X286095057Y-84912652D02*
X285661723Y-84912652D01*
X286404580Y-135469795D02*
X286342676Y-135531700D01*
X286342676Y-135531700D02*
X286156961Y-135593604D01*
X286156961Y-135593604D02*
X286033152Y-135593604D01*
X286033152Y-135593604D02*
X285847438Y-135531700D01*
X285847438Y-135531700D02*
X285723628Y-135407890D01*
X285723628Y-135407890D02*
X285661723Y-135284080D01*
X285661723Y-135284080D02*
X285599819Y-135036461D01*
X285599819Y-135036461D02*
X285599819Y-134850747D01*
X285599819Y-134850747D02*
X285661723Y-134603128D01*
X285661723Y-134603128D02*
X285723628Y-134479319D01*
X285723628Y-134479319D02*
X285847438Y-134355509D01*
X285847438Y-134355509D02*
X286033152Y-134293604D01*
X286033152Y-134293604D02*
X286156961Y-134293604D01*
X286156961Y-134293604D02*
X286342676Y-134355509D01*
X286342676Y-134355509D02*
X286404580Y-134417414D01*
X285661723Y-185593604D02*
X285661723Y-184293604D01*
X285661723Y-184293604D02*
X285971247Y-184293604D01*
X285971247Y-184293604D02*
X286156961Y-184355509D01*
X286156961Y-184355509D02*
X286280771Y-184479319D01*
X286280771Y-184479319D02*
X286342676Y-184603128D01*
X286342676Y-184603128D02*
X286404580Y-184850747D01*
X286404580Y-184850747D02*
X286404580Y-185036461D01*
X286404580Y-185036461D02*
X286342676Y-185284080D01*
X286342676Y-185284080D02*
X286280771Y-185407890D01*
X286280771Y-185407890D02*
X286156961Y-185531700D01*
X286156961Y-185531700D02*
X285971247Y-185593604D01*
X285971247Y-185593604D02*
X285661723Y-185593604D01*
X200458026Y-193793328D02*
X200458026Y-192293328D01*
X200458026Y-192293328D02*
X200815169Y-192293328D01*
X200815169Y-192293328D02*
X201029455Y-192364757D01*
X201029455Y-192364757D02*
X201172312Y-192507614D01*
X201172312Y-192507614D02*
X201243741Y-192650471D01*
X201243741Y-192650471D02*
X201315169Y-192936185D01*
X201315169Y-192936185D02*
X201315169Y-193150471D01*
X201315169Y-193150471D02*
X201243741Y-193436185D01*
X201243741Y-193436185D02*
X201172312Y-193579042D01*
X201172312Y-193579042D02*
X201029455Y-193721900D01*
X201029455Y-193721900D02*
X200815169Y-193793328D01*
X200815169Y-193793328D02*
X200458026Y-193793328D01*
X202600884Y-193793328D02*
X202600884Y-193007614D01*
X202600884Y-193007614D02*
X202529455Y-192864757D01*
X202529455Y-192864757D02*
X202386598Y-192793328D01*
X202386598Y-192793328D02*
X202100884Y-192793328D01*
X202100884Y-192793328D02*
X201958026Y-192864757D01*
X202600884Y-193721900D02*
X202458026Y-193793328D01*
X202458026Y-193793328D02*
X202100884Y-193793328D01*
X202100884Y-193793328D02*
X201958026Y-193721900D01*
X201958026Y-193721900D02*
X201886598Y-193579042D01*
X201886598Y-193579042D02*
X201886598Y-193436185D01*
X201886598Y-193436185D02*
X201958026Y-193293328D01*
X201958026Y-193293328D02*
X202100884Y-193221900D01*
X202100884Y-193221900D02*
X202458026Y-193221900D01*
X202458026Y-193221900D02*
X202600884Y-193150471D01*
X203100884Y-192793328D02*
X203672312Y-192793328D01*
X203315169Y-192293328D02*
X203315169Y-193579042D01*
X203315169Y-193579042D02*
X203386598Y-193721900D01*
X203386598Y-193721900D02*
X203529455Y-193793328D01*
X203529455Y-193793328D02*
X203672312Y-193793328D01*
X204743741Y-193721900D02*
X204600884Y-193793328D01*
X204600884Y-193793328D02*
X204315170Y-193793328D01*
X204315170Y-193793328D02*
X204172312Y-193721900D01*
X204172312Y-193721900D02*
X204100884Y-193579042D01*
X204100884Y-193579042D02*
X204100884Y-193007614D01*
X204100884Y-193007614D02*
X204172312Y-192864757D01*
X204172312Y-192864757D02*
X204315170Y-192793328D01*
X204315170Y-192793328D02*
X204600884Y-192793328D01*
X204600884Y-192793328D02*
X204743741Y-192864757D01*
X204743741Y-192864757D02*
X204815170Y-193007614D01*
X204815170Y-193007614D02*
X204815170Y-193150471D01*
X204815170Y-193150471D02*
X204100884Y-193293328D01*
X205458026Y-193650471D02*
X205529455Y-193721900D01*
X205529455Y-193721900D02*
X205458026Y-193793328D01*
X205458026Y-193793328D02*
X205386598Y-193721900D01*
X205386598Y-193721900D02*
X205458026Y-193650471D01*
X205458026Y-193650471D02*
X205458026Y-193793328D01*
X205458026Y-192864757D02*
X205529455Y-192936185D01*
X205529455Y-192936185D02*
X205458026Y-193007614D01*
X205458026Y-193007614D02*
X205386598Y-192936185D01*
X205386598Y-192936185D02*
X205458026Y-192864757D01*
X205458026Y-192864757D02*
X205458026Y-193007614D01*
X177002200Y-194507200D02*
X285002200Y-194507200D01*
X178458026Y-196593328D02*
X178458026Y-195093328D01*
X179315169Y-196593328D02*
X178672312Y-195736185D01*
X179315169Y-195093328D02*
X178458026Y-195950471D01*
X179958026Y-196593328D02*
X179958026Y-195593328D01*
X179958026Y-195093328D02*
X179886598Y-195164757D01*
X179886598Y-195164757D02*
X179958026Y-195236185D01*
X179958026Y-195236185D02*
X180029455Y-195164757D01*
X180029455Y-195164757D02*
X179958026Y-195093328D01*
X179958026Y-195093328D02*
X179958026Y-195236185D01*
X181529455Y-196450471D02*
X181458027Y-196521900D01*
X181458027Y-196521900D02*
X181243741Y-196593328D01*
X181243741Y-196593328D02*
X181100884Y-196593328D01*
X181100884Y-196593328D02*
X180886598Y-196521900D01*
X180886598Y-196521900D02*
X180743741Y-196379042D01*
X180743741Y-196379042D02*
X180672312Y-196236185D01*
X180672312Y-196236185D02*
X180600884Y-195950471D01*
X180600884Y-195950471D02*
X180600884Y-195736185D01*
X180600884Y-195736185D02*
X180672312Y-195450471D01*
X180672312Y-195450471D02*
X180743741Y-195307614D01*
X180743741Y-195307614D02*
X180886598Y-195164757D01*
X180886598Y-195164757D02*
X181100884Y-195093328D01*
X181100884Y-195093328D02*
X181243741Y-195093328D01*
X181243741Y-195093328D02*
X181458027Y-195164757D01*
X181458027Y-195164757D02*
X181529455Y-195236185D01*
X182815170Y-196593328D02*
X182815170Y-195807614D01*
X182815170Y-195807614D02*
X182743741Y-195664757D01*
X182743741Y-195664757D02*
X182600884Y-195593328D01*
X182600884Y-195593328D02*
X182315170Y-195593328D01*
X182315170Y-195593328D02*
X182172312Y-195664757D01*
X182815170Y-196521900D02*
X182672312Y-196593328D01*
X182672312Y-196593328D02*
X182315170Y-196593328D01*
X182315170Y-196593328D02*
X182172312Y-196521900D01*
X182172312Y-196521900D02*
X182100884Y-196379042D01*
X182100884Y-196379042D02*
X182100884Y-196236185D01*
X182100884Y-196236185D02*
X182172312Y-196093328D01*
X182172312Y-196093328D02*
X182315170Y-196021900D01*
X182315170Y-196021900D02*
X182672312Y-196021900D01*
X182672312Y-196021900D02*
X182815170Y-195950471D01*
X184172313Y-196593328D02*
X184172313Y-195093328D01*
X184172313Y-196521900D02*
X184029455Y-196593328D01*
X184029455Y-196593328D02*
X183743741Y-196593328D01*
X183743741Y-196593328D02*
X183600884Y-196521900D01*
X183600884Y-196521900D02*
X183529455Y-196450471D01*
X183529455Y-196450471D02*
X183458027Y-196307614D01*
X183458027Y-196307614D02*
X183458027Y-195879042D01*
X183458027Y-195879042D02*
X183529455Y-195736185D01*
X183529455Y-195736185D02*
X183600884Y-195664757D01*
X183600884Y-195664757D02*
X183743741Y-195593328D01*
X183743741Y-195593328D02*
X184029455Y-195593328D01*
X184029455Y-195593328D02*
X184172313Y-195664757D01*
X186029455Y-195807614D02*
X186529455Y-195807614D01*
X186743741Y-196593328D02*
X186029455Y-196593328D01*
X186029455Y-196593328D02*
X186029455Y-195093328D01*
X186029455Y-195093328D02*
X186743741Y-195093328D01*
X187386598Y-196450471D02*
X187458027Y-196521900D01*
X187458027Y-196521900D02*
X187386598Y-196593328D01*
X187386598Y-196593328D02*
X187315170Y-196521900D01*
X187315170Y-196521900D02*
X187386598Y-196450471D01*
X187386598Y-196450471D02*
X187386598Y-196593328D01*
X188100884Y-196593328D02*
X188100884Y-195093328D01*
X188100884Y-195093328D02*
X188458027Y-195093328D01*
X188458027Y-195093328D02*
X188672313Y-195164757D01*
X188672313Y-195164757D02*
X188815170Y-195307614D01*
X188815170Y-195307614D02*
X188886599Y-195450471D01*
X188886599Y-195450471D02*
X188958027Y-195736185D01*
X188958027Y-195736185D02*
X188958027Y-195950471D01*
X188958027Y-195950471D02*
X188886599Y-196236185D01*
X188886599Y-196236185D02*
X188815170Y-196379042D01*
X188815170Y-196379042D02*
X188672313Y-196521900D01*
X188672313Y-196521900D02*
X188458027Y-196593328D01*
X188458027Y-196593328D02*
X188100884Y-196593328D01*
X189600884Y-196450471D02*
X189672313Y-196521900D01*
X189672313Y-196521900D02*
X189600884Y-196593328D01*
X189600884Y-196593328D02*
X189529456Y-196521900D01*
X189529456Y-196521900D02*
X189600884Y-196450471D01*
X189600884Y-196450471D02*
X189600884Y-196593328D01*
X190243742Y-196164757D02*
X190958028Y-196164757D01*
X190100885Y-196593328D02*
X190600885Y-195093328D01*
X190600885Y-195093328D02*
X191100885Y-196593328D01*
X191600884Y-196450471D02*
X191672313Y-196521900D01*
X191672313Y-196521900D02*
X191600884Y-196593328D01*
X191600884Y-196593328D02*
X191529456Y-196521900D01*
X191529456Y-196521900D02*
X191600884Y-196450471D01*
X191600884Y-196450471D02*
X191600884Y-196593328D01*
X194243742Y-196593328D02*
X193386599Y-196593328D01*
X193815170Y-196593328D02*
X193815170Y-195093328D01*
X193815170Y-195093328D02*
X193672313Y-195307614D01*
X193672313Y-195307614D02*
X193529456Y-195450471D01*
X193529456Y-195450471D02*
X193386599Y-195521900D01*
X195172313Y-195093328D02*
X195315170Y-195093328D01*
X195315170Y-195093328D02*
X195458027Y-195164757D01*
X195458027Y-195164757D02*
X195529456Y-195236185D01*
X195529456Y-195236185D02*
X195600884Y-195379042D01*
X195600884Y-195379042D02*
X195672313Y-195664757D01*
X195672313Y-195664757D02*
X195672313Y-196021900D01*
X195672313Y-196021900D02*
X195600884Y-196307614D01*
X195600884Y-196307614D02*
X195529456Y-196450471D01*
X195529456Y-196450471D02*
X195458027Y-196521900D01*
X195458027Y-196521900D02*
X195315170Y-196593328D01*
X195315170Y-196593328D02*
X195172313Y-196593328D01*
X195172313Y-196593328D02*
X195029456Y-196521900D01*
X195029456Y-196521900D02*
X194958027Y-196450471D01*
X194958027Y-196450471D02*
X194886598Y-196307614D01*
X194886598Y-196307614D02*
X194815170Y-196021900D01*
X194815170Y-196021900D02*
X194815170Y-195664757D01*
X194815170Y-195664757D02*
X194886598Y-195379042D01*
X194886598Y-195379042D02*
X194958027Y-195236185D01*
X194958027Y-195236185D02*
X195029456Y-195164757D01*
X195029456Y-195164757D02*
X195172313Y-195093328D01*
X196315169Y-196450471D02*
X196386598Y-196521900D01*
X196386598Y-196521900D02*
X196315169Y-196593328D01*
X196315169Y-196593328D02*
X196243741Y-196521900D01*
X196243741Y-196521900D02*
X196315169Y-196450471D01*
X196315169Y-196450471D02*
X196315169Y-196593328D01*
X197315170Y-195093328D02*
X197458027Y-195093328D01*
X197458027Y-195093328D02*
X197600884Y-195164757D01*
X197600884Y-195164757D02*
X197672313Y-195236185D01*
X197672313Y-195236185D02*
X197743741Y-195379042D01*
X197743741Y-195379042D02*
X197815170Y-195664757D01*
X197815170Y-195664757D02*
X197815170Y-196021900D01*
X197815170Y-196021900D02*
X197743741Y-196307614D01*
X197743741Y-196307614D02*
X197672313Y-196450471D01*
X197672313Y-196450471D02*
X197600884Y-196521900D01*
X197600884Y-196521900D02*
X197458027Y-196593328D01*
X197458027Y-196593328D02*
X197315170Y-196593328D01*
X197315170Y-196593328D02*
X197172313Y-196521900D01*
X197172313Y-196521900D02*
X197100884Y-196450471D01*
X197100884Y-196450471D02*
X197029455Y-196307614D01*
X197029455Y-196307614D02*
X196958027Y-196021900D01*
X196958027Y-196021900D02*
X196958027Y-195664757D01*
X196958027Y-195664757D02*
X197029455Y-195379042D01*
X197029455Y-195379042D02*
X197100884Y-195236185D01*
X197100884Y-195236185D02*
X197172313Y-195164757D01*
X197172313Y-195164757D02*
X197315170Y-195093328D01*
X198458026Y-196450471D02*
X198529455Y-196521900D01*
X198529455Y-196521900D02*
X198458026Y-196593328D01*
X198458026Y-196593328D02*
X198386598Y-196521900D01*
X198386598Y-196521900D02*
X198458026Y-196450471D01*
X198458026Y-196450471D02*
X198458026Y-196593328D01*
X199958027Y-196593328D02*
X199100884Y-196593328D01*
X199529455Y-196593328D02*
X199529455Y-195093328D01*
X199529455Y-195093328D02*
X199386598Y-195307614D01*
X199386598Y-195307614D02*
X199243741Y-195450471D01*
X199243741Y-195450471D02*
X199100884Y-195521900D01*
X177002200Y-191507200D02*
X285002200Y-191507200D01*
D11*
X264413853Y-193785528D02*
X263913853Y-193071242D01*
X263556710Y-193785528D02*
X263556710Y-192285528D01*
X263556710Y-192285528D02*
X264128139Y-192285528D01*
X264128139Y-192285528D02*
X264270996Y-192356957D01*
X264270996Y-192356957D02*
X264342425Y-192428385D01*
X264342425Y-192428385D02*
X264413853Y-192571242D01*
X264413853Y-192571242D02*
X264413853Y-192785528D01*
X264413853Y-192785528D02*
X264342425Y-192928385D01*
X264342425Y-192928385D02*
X264270996Y-192999814D01*
X264270996Y-192999814D02*
X264128139Y-193071242D01*
X264128139Y-193071242D02*
X263556710Y-193071242D01*
X265628139Y-193714100D02*
X265485282Y-193785528D01*
X265485282Y-193785528D02*
X265199568Y-193785528D01*
X265199568Y-193785528D02*
X265056710Y-193714100D01*
X265056710Y-193714100D02*
X264985282Y-193571242D01*
X264985282Y-193571242D02*
X264985282Y-192999814D01*
X264985282Y-192999814D02*
X265056710Y-192856957D01*
X265056710Y-192856957D02*
X265199568Y-192785528D01*
X265199568Y-192785528D02*
X265485282Y-192785528D01*
X265485282Y-192785528D02*
X265628139Y-192856957D01*
X265628139Y-192856957D02*
X265699568Y-192999814D01*
X265699568Y-192999814D02*
X265699568Y-193142671D01*
X265699568Y-193142671D02*
X264985282Y-193285528D01*
X266199567Y-192785528D02*
X266556710Y-193785528D01*
X266556710Y-193785528D02*
X266913853Y-192785528D01*
X267485281Y-193642671D02*
X267556710Y-193714100D01*
X267556710Y-193714100D02*
X267485281Y-193785528D01*
X267485281Y-193785528D02*
X267413853Y-193714100D01*
X267413853Y-193714100D02*
X267485281Y-193642671D01*
X267485281Y-193642671D02*
X267485281Y-193785528D01*
X267485281Y-192856957D02*
X267556710Y-192928385D01*
X267556710Y-192928385D02*
X267485281Y-192999814D01*
X267485281Y-192999814D02*
X267413853Y-192928385D01*
X267413853Y-192928385D02*
X267485281Y-192856957D01*
X267485281Y-192856957D02*
X267485281Y-192999814D01*
D10*
X178386598Y-193721900D02*
X178600884Y-193793328D01*
X178600884Y-193793328D02*
X178958026Y-193793328D01*
X178958026Y-193793328D02*
X179100884Y-193721900D01*
X179100884Y-193721900D02*
X179172312Y-193650471D01*
X179172312Y-193650471D02*
X179243741Y-193507614D01*
X179243741Y-193507614D02*
X179243741Y-193364757D01*
X179243741Y-193364757D02*
X179172312Y-193221900D01*
X179172312Y-193221900D02*
X179100884Y-193150471D01*
X179100884Y-193150471D02*
X178958026Y-193079042D01*
X178958026Y-193079042D02*
X178672312Y-193007614D01*
X178672312Y-193007614D02*
X178529455Y-192936185D01*
X178529455Y-192936185D02*
X178458026Y-192864757D01*
X178458026Y-192864757D02*
X178386598Y-192721900D01*
X178386598Y-192721900D02*
X178386598Y-192579042D01*
X178386598Y-192579042D02*
X178458026Y-192436185D01*
X178458026Y-192436185D02*
X178529455Y-192364757D01*
X178529455Y-192364757D02*
X178672312Y-192293328D01*
X178672312Y-192293328D02*
X179029455Y-192293328D01*
X179029455Y-192293328D02*
X179243741Y-192364757D01*
X179886597Y-193793328D02*
X179886597Y-192793328D01*
X179886597Y-192293328D02*
X179815169Y-192364757D01*
X179815169Y-192364757D02*
X179886597Y-192436185D01*
X179886597Y-192436185D02*
X179958026Y-192364757D01*
X179958026Y-192364757D02*
X179886597Y-192293328D01*
X179886597Y-192293328D02*
X179886597Y-192436185D01*
X180458026Y-192793328D02*
X181243741Y-192793328D01*
X181243741Y-192793328D02*
X180458026Y-193793328D01*
X180458026Y-193793328D02*
X181243741Y-193793328D01*
X182386598Y-193721900D02*
X182243741Y-193793328D01*
X182243741Y-193793328D02*
X181958027Y-193793328D01*
X181958027Y-193793328D02*
X181815169Y-193721900D01*
X181815169Y-193721900D02*
X181743741Y-193579042D01*
X181743741Y-193579042D02*
X181743741Y-193007614D01*
X181743741Y-193007614D02*
X181815169Y-192864757D01*
X181815169Y-192864757D02*
X181958027Y-192793328D01*
X181958027Y-192793328D02*
X182243741Y-192793328D01*
X182243741Y-192793328D02*
X182386598Y-192864757D01*
X182386598Y-192864757D02*
X182458027Y-193007614D01*
X182458027Y-193007614D02*
X182458027Y-193150471D01*
X182458027Y-193150471D02*
X181743741Y-193293328D01*
X183100883Y-193650471D02*
X183172312Y-193721900D01*
X183172312Y-193721900D02*
X183100883Y-193793328D01*
X183100883Y-193793328D02*
X183029455Y-193721900D01*
X183029455Y-193721900D02*
X183100883Y-193650471D01*
X183100883Y-193650471D02*
X183100883Y-193793328D01*
X183100883Y-192864757D02*
X183172312Y-192936185D01*
X183172312Y-192936185D02*
X183100883Y-193007614D01*
X183100883Y-193007614D02*
X183029455Y-192936185D01*
X183029455Y-192936185D02*
X183100883Y-192864757D01*
X183100883Y-192864757D02*
X183100883Y-193007614D01*
X184886598Y-193364757D02*
X185600884Y-193364757D01*
X184743741Y-193793328D02*
X185243741Y-192293328D01*
X185243741Y-192293328D02*
X185743741Y-193793328D01*
X186886598Y-192793328D02*
X186886598Y-193793328D01*
X186529455Y-192221900D02*
X186172312Y-193293328D01*
X186172312Y-193293328D02*
X187100883Y-193293328D01*
X263458026Y-196593328D02*
X263458026Y-195093328D01*
X264815170Y-196593328D02*
X264815170Y-195093328D01*
X264815170Y-196521900D02*
X264672312Y-196593328D01*
X264672312Y-196593328D02*
X264386598Y-196593328D01*
X264386598Y-196593328D02*
X264243741Y-196521900D01*
X264243741Y-196521900D02*
X264172312Y-196450471D01*
X264172312Y-196450471D02*
X264100884Y-196307614D01*
X264100884Y-196307614D02*
X264100884Y-195879042D01*
X264100884Y-195879042D02*
X264172312Y-195736185D01*
X264172312Y-195736185D02*
X264243741Y-195664757D01*
X264243741Y-195664757D02*
X264386598Y-195593328D01*
X264386598Y-195593328D02*
X264672312Y-195593328D01*
X264672312Y-195593328D02*
X264815170Y-195664757D01*
X265529455Y-196450471D02*
X265600884Y-196521900D01*
X265600884Y-196521900D02*
X265529455Y-196593328D01*
X265529455Y-196593328D02*
X265458027Y-196521900D01*
X265458027Y-196521900D02*
X265529455Y-196450471D01*
X265529455Y-196450471D02*
X265529455Y-196593328D01*
X265529455Y-195664757D02*
X265600884Y-195736185D01*
X265600884Y-195736185D02*
X265529455Y-195807614D01*
X265529455Y-195807614D02*
X265458027Y-195736185D01*
X265458027Y-195736185D02*
X265529455Y-195664757D01*
X265529455Y-195664757D02*
X265529455Y-195807614D01*
X268172313Y-196593328D02*
X267315170Y-196593328D01*
X267743741Y-196593328D02*
X267743741Y-195093328D01*
X267743741Y-195093328D02*
X267600884Y-195307614D01*
X267600884Y-195307614D02*
X267458027Y-195450471D01*
X267458027Y-195450471D02*
X267315170Y-195521900D01*
X268672312Y-195093328D02*
X269600884Y-195093328D01*
X269600884Y-195093328D02*
X269100884Y-195664757D01*
X269100884Y-195664757D02*
X269315169Y-195664757D01*
X269315169Y-195664757D02*
X269458027Y-195736185D01*
X269458027Y-195736185D02*
X269529455Y-195807614D01*
X269529455Y-195807614D02*
X269600884Y-195950471D01*
X269600884Y-195950471D02*
X269600884Y-196307614D01*
X269600884Y-196307614D02*
X269529455Y-196450471D01*
X269529455Y-196450471D02*
X269458027Y-196521900D01*
X269458027Y-196521900D02*
X269315169Y-196593328D01*
X269315169Y-196593328D02*
X268886598Y-196593328D01*
X268886598Y-196593328D02*
X268743741Y-196521900D01*
X268743741Y-196521900D02*
X268672312Y-196450471D01*
X271315169Y-195021900D02*
X270029455Y-196950471D01*
X272600884Y-196593328D02*
X271743741Y-196593328D01*
X272172312Y-196593328D02*
X272172312Y-195093328D01*
X272172312Y-195093328D02*
X272029455Y-195307614D01*
X272029455Y-195307614D02*
X271886598Y-195450471D01*
X271886598Y-195450471D02*
X271743741Y-195521900D01*
X273886598Y-195593328D02*
X273886598Y-196593328D01*
X273529455Y-195021900D02*
X273172312Y-196093328D01*
X273172312Y-196093328D02*
X274100883Y-196093328D01*
X177002200Y-187507200D02*
X285002200Y-187507200D01*
D12*
X178693928Y-188211638D02*
X179836785Y-188211638D01*
X179015357Y-190211638D02*
X179265357Y-188211638D01*
X180253452Y-190211638D02*
X180420119Y-188878304D01*
X180503452Y-188211638D02*
X180396309Y-188306876D01*
X180396309Y-188306876D02*
X180479643Y-188402114D01*
X180479643Y-188402114D02*
X180586786Y-188306876D01*
X180586786Y-188306876D02*
X180503452Y-188211638D01*
X180503452Y-188211638D02*
X180479643Y-188402114D01*
X181086786Y-188878304D02*
X181848690Y-188878304D01*
X181455833Y-188211638D02*
X181241548Y-189925923D01*
X181241548Y-189925923D02*
X181312976Y-190116400D01*
X181312976Y-190116400D02*
X181491548Y-190211638D01*
X181491548Y-190211638D02*
X181682024Y-190211638D01*
X182634405Y-190211638D02*
X182455833Y-190116400D01*
X182455833Y-190116400D02*
X182384405Y-189925923D01*
X182384405Y-189925923D02*
X182598690Y-188211638D01*
X184170119Y-190116400D02*
X183967738Y-190211638D01*
X183967738Y-190211638D02*
X183586785Y-190211638D01*
X183586785Y-190211638D02*
X183408214Y-190116400D01*
X183408214Y-190116400D02*
X183336785Y-189925923D01*
X183336785Y-189925923D02*
X183432024Y-189164019D01*
X183432024Y-189164019D02*
X183551071Y-188973542D01*
X183551071Y-188973542D02*
X183753452Y-188878304D01*
X183753452Y-188878304D02*
X184134404Y-188878304D01*
X184134404Y-188878304D02*
X184312976Y-188973542D01*
X184312976Y-188973542D02*
X184384404Y-189164019D01*
X184384404Y-189164019D02*
X184360595Y-189354495D01*
X184360595Y-189354495D02*
X183384404Y-189544971D01*
X185134405Y-190021161D02*
X185217738Y-190116400D01*
X185217738Y-190116400D02*
X185110595Y-190211638D01*
X185110595Y-190211638D02*
X185027262Y-190116400D01*
X185027262Y-190116400D02*
X185134405Y-190021161D01*
X185134405Y-190021161D02*
X185110595Y-190211638D01*
X185265357Y-188973542D02*
X185348690Y-189068780D01*
X185348690Y-189068780D02*
X185241548Y-189164019D01*
X185241548Y-189164019D02*
X185158214Y-189068780D01*
X185158214Y-189068780D02*
X185265357Y-188973542D01*
X185265357Y-188973542D02*
X185241548Y-189164019D01*
D10*
X178958026Y-185607614D02*
X178458026Y-185607614D01*
X178458026Y-186393328D02*
X178458026Y-184893328D01*
X178458026Y-184893328D02*
X179172312Y-184893328D01*
X179743740Y-186393328D02*
X179743740Y-185393328D01*
X179743740Y-184893328D02*
X179672312Y-184964757D01*
X179672312Y-184964757D02*
X179743740Y-185036185D01*
X179743740Y-185036185D02*
X179815169Y-184964757D01*
X179815169Y-184964757D02*
X179743740Y-184893328D01*
X179743740Y-184893328D02*
X179743740Y-185036185D01*
X180672312Y-186393328D02*
X180529455Y-186321900D01*
X180529455Y-186321900D02*
X180458026Y-186179042D01*
X180458026Y-186179042D02*
X180458026Y-184893328D01*
X181815169Y-186321900D02*
X181672312Y-186393328D01*
X181672312Y-186393328D02*
X181386598Y-186393328D01*
X181386598Y-186393328D02*
X181243740Y-186321900D01*
X181243740Y-186321900D02*
X181172312Y-186179042D01*
X181172312Y-186179042D02*
X181172312Y-185607614D01*
X181172312Y-185607614D02*
X181243740Y-185464757D01*
X181243740Y-185464757D02*
X181386598Y-185393328D01*
X181386598Y-185393328D02*
X181672312Y-185393328D01*
X181672312Y-185393328D02*
X181815169Y-185464757D01*
X181815169Y-185464757D02*
X181886598Y-185607614D01*
X181886598Y-185607614D02*
X181886598Y-185750471D01*
X181886598Y-185750471D02*
X181172312Y-185893328D01*
X182529454Y-186250471D02*
X182600883Y-186321900D01*
X182600883Y-186321900D02*
X182529454Y-186393328D01*
X182529454Y-186393328D02*
X182458026Y-186321900D01*
X182458026Y-186321900D02*
X182529454Y-186250471D01*
X182529454Y-186250471D02*
X182529454Y-186393328D01*
X182529454Y-185464757D02*
X182600883Y-185536185D01*
X182600883Y-185536185D02*
X182529454Y-185607614D01*
X182529454Y-185607614D02*
X182458026Y-185536185D01*
X182458026Y-185536185D02*
X182529454Y-185464757D01*
X182529454Y-185464757D02*
X182529454Y-185607614D01*
X184243740Y-186393328D02*
X185029455Y-185393328D01*
X184243740Y-185393328D02*
X185029455Y-186393328D01*
X185815169Y-186393328D02*
X185672312Y-186321900D01*
X185672312Y-186321900D02*
X185600883Y-186179042D01*
X185600883Y-186179042D02*
X185600883Y-184893328D01*
X186243740Y-185393328D02*
X187029455Y-185393328D01*
X187029455Y-185393328D02*
X186243740Y-186393328D01*
X186243740Y-186393328D02*
X187029455Y-186393328D01*
X188243741Y-186393328D02*
X188243741Y-184893328D01*
X188243741Y-186321900D02*
X188100883Y-186393328D01*
X188100883Y-186393328D02*
X187815169Y-186393328D01*
X187815169Y-186393328D02*
X187672312Y-186321900D01*
X187672312Y-186321900D02*
X187600883Y-186250471D01*
X187600883Y-186250471D02*
X187529455Y-186107614D01*
X187529455Y-186107614D02*
X187529455Y-185679042D01*
X187529455Y-185679042D02*
X187600883Y-185536185D01*
X187600883Y-185536185D02*
X187672312Y-185464757D01*
X187672312Y-185464757D02*
X187815169Y-185393328D01*
X187815169Y-185393328D02*
X188100883Y-185393328D01*
X188100883Y-185393328D02*
X188243741Y-185464757D01*
X188600884Y-186536185D02*
X189743741Y-186536185D01*
X189958026Y-186393328D02*
X190743741Y-185393328D01*
X189958026Y-185393328D02*
X190743741Y-186393328D01*
X191886598Y-186321900D02*
X191743741Y-186393328D01*
X191743741Y-186393328D02*
X191458027Y-186393328D01*
X191458027Y-186393328D02*
X191315169Y-186321900D01*
X191315169Y-186321900D02*
X191243741Y-186179042D01*
X191243741Y-186179042D02*
X191243741Y-185607614D01*
X191243741Y-185607614D02*
X191315169Y-185464757D01*
X191315169Y-185464757D02*
X191458027Y-185393328D01*
X191458027Y-185393328D02*
X191743741Y-185393328D01*
X191743741Y-185393328D02*
X191886598Y-185464757D01*
X191886598Y-185464757D02*
X191958027Y-185607614D01*
X191958027Y-185607614D02*
X191958027Y-185750471D01*
X191958027Y-185750471D02*
X191243741Y-185893328D01*
X192600883Y-185393328D02*
X192600883Y-186393328D01*
X192600883Y-185536185D02*
X192672312Y-185464757D01*
X192672312Y-185464757D02*
X192815169Y-185393328D01*
X192815169Y-185393328D02*
X193029455Y-185393328D01*
X193029455Y-185393328D02*
X193172312Y-185464757D01*
X193172312Y-185464757D02*
X193243741Y-185607614D01*
X193243741Y-185607614D02*
X193243741Y-186393328D01*
X194172312Y-186393328D02*
X194029455Y-186321900D01*
X194029455Y-186321900D02*
X193958026Y-186250471D01*
X193958026Y-186250471D02*
X193886598Y-186107614D01*
X193886598Y-186107614D02*
X193886598Y-185679042D01*
X193886598Y-185679042D02*
X193958026Y-185536185D01*
X193958026Y-185536185D02*
X194029455Y-185464757D01*
X194029455Y-185464757D02*
X194172312Y-185393328D01*
X194172312Y-185393328D02*
X194386598Y-185393328D01*
X194386598Y-185393328D02*
X194529455Y-185464757D01*
X194529455Y-185464757D02*
X194600884Y-185536185D01*
X194600884Y-185536185D02*
X194672312Y-185679042D01*
X194672312Y-185679042D02*
X194672312Y-186107614D01*
X194672312Y-186107614D02*
X194600884Y-186250471D01*
X194600884Y-186250471D02*
X194529455Y-186321900D01*
X194529455Y-186321900D02*
X194386598Y-186393328D01*
X194386598Y-186393328D02*
X194172312Y-186393328D01*
X195315169Y-185393328D02*
X195315169Y-186393328D01*
X195315169Y-185536185D02*
X195386598Y-185464757D01*
X195386598Y-185464757D02*
X195529455Y-185393328D01*
X195529455Y-185393328D02*
X195743741Y-185393328D01*
X195743741Y-185393328D02*
X195886598Y-185464757D01*
X195886598Y-185464757D02*
X195958027Y-185607614D01*
X195958027Y-185607614D02*
X195958027Y-186393328D01*
X196672312Y-185393328D02*
X196672312Y-186393328D01*
X196672312Y-185536185D02*
X196743741Y-185464757D01*
X196743741Y-185464757D02*
X196886598Y-185393328D01*
X196886598Y-185393328D02*
X197100884Y-185393328D01*
X197100884Y-185393328D02*
X197243741Y-185464757D01*
X197243741Y-185464757D02*
X197315170Y-185607614D01*
X197315170Y-185607614D02*
X197315170Y-186393328D01*
X197815170Y-185393328D02*
X198386598Y-185393328D01*
X198029455Y-184893328D02*
X198029455Y-186179042D01*
X198029455Y-186179042D02*
X198100884Y-186321900D01*
X198100884Y-186321900D02*
X198243741Y-186393328D01*
X198243741Y-186393328D02*
X198386598Y-186393328D01*
X198529456Y-186536185D02*
X199672313Y-186536185D01*
X200672313Y-186393328D02*
X200672313Y-185607614D01*
X200672313Y-185607614D02*
X200600884Y-185464757D01*
X200600884Y-185464757D02*
X200458027Y-185393328D01*
X200458027Y-185393328D02*
X200172313Y-185393328D01*
X200172313Y-185393328D02*
X200029455Y-185464757D01*
X200672313Y-186321900D02*
X200529455Y-186393328D01*
X200529455Y-186393328D02*
X200172313Y-186393328D01*
X200172313Y-186393328D02*
X200029455Y-186321900D01*
X200029455Y-186321900D02*
X199958027Y-186179042D01*
X199958027Y-186179042D02*
X199958027Y-186036185D01*
X199958027Y-186036185D02*
X200029455Y-185893328D01*
X200029455Y-185893328D02*
X200172313Y-185821900D01*
X200172313Y-185821900D02*
X200529455Y-185821900D01*
X200529455Y-185821900D02*
X200672313Y-185750471D01*
X201386598Y-186393328D02*
X201386598Y-185393328D01*
X201386598Y-185536185D02*
X201458027Y-185464757D01*
X201458027Y-185464757D02*
X201600884Y-185393328D01*
X201600884Y-185393328D02*
X201815170Y-185393328D01*
X201815170Y-185393328D02*
X201958027Y-185464757D01*
X201958027Y-185464757D02*
X202029456Y-185607614D01*
X202029456Y-185607614D02*
X202029456Y-186393328D01*
X202029456Y-185607614D02*
X202100884Y-185464757D01*
X202100884Y-185464757D02*
X202243741Y-185393328D01*
X202243741Y-185393328D02*
X202458027Y-185393328D01*
X202458027Y-185393328D02*
X202600884Y-185464757D01*
X202600884Y-185464757D02*
X202672313Y-185607614D01*
X202672313Y-185607614D02*
X202672313Y-186393328D01*
X203386598Y-185393328D02*
X203386598Y-186893328D01*
X203386598Y-185464757D02*
X203529456Y-185393328D01*
X203529456Y-185393328D02*
X203815170Y-185393328D01*
X203815170Y-185393328D02*
X203958027Y-185464757D01*
X203958027Y-185464757D02*
X204029456Y-185536185D01*
X204029456Y-185536185D02*
X204100884Y-185679042D01*
X204100884Y-185679042D02*
X204100884Y-186107614D01*
X204100884Y-186107614D02*
X204029456Y-186250471D01*
X204029456Y-186250471D02*
X203958027Y-186321900D01*
X203958027Y-186321900D02*
X203815170Y-186393328D01*
X203815170Y-186393328D02*
X203529456Y-186393328D01*
X203529456Y-186393328D02*
X203386598Y-186321900D01*
X204958027Y-186393328D02*
X204815170Y-186321900D01*
X204815170Y-186321900D02*
X204743741Y-186179042D01*
X204743741Y-186179042D02*
X204743741Y-184893328D01*
X205529455Y-186393328D02*
X205529455Y-185393328D01*
X205529455Y-184893328D02*
X205458027Y-184964757D01*
X205458027Y-184964757D02*
X205529455Y-185036185D01*
X205529455Y-185036185D02*
X205600884Y-184964757D01*
X205600884Y-184964757D02*
X205529455Y-184893328D01*
X205529455Y-184893328D02*
X205529455Y-185036185D01*
X206029456Y-185393328D02*
X206600884Y-185393328D01*
X206243741Y-186393328D02*
X206243741Y-185107614D01*
X206243741Y-185107614D02*
X206315170Y-184964757D01*
X206315170Y-184964757D02*
X206458027Y-184893328D01*
X206458027Y-184893328D02*
X206600884Y-184893328D01*
X207100884Y-186393328D02*
X207100884Y-185393328D01*
X207100884Y-184893328D02*
X207029456Y-184964757D01*
X207029456Y-184964757D02*
X207100884Y-185036185D01*
X207100884Y-185036185D02*
X207172313Y-184964757D01*
X207172313Y-184964757D02*
X207100884Y-184893328D01*
X207100884Y-184893328D02*
X207100884Y-185036185D01*
X208386599Y-186321900D02*
X208243742Y-186393328D01*
X208243742Y-186393328D02*
X207958028Y-186393328D01*
X207958028Y-186393328D02*
X207815170Y-186321900D01*
X207815170Y-186321900D02*
X207743742Y-186179042D01*
X207743742Y-186179042D02*
X207743742Y-185607614D01*
X207743742Y-185607614D02*
X207815170Y-185464757D01*
X207815170Y-185464757D02*
X207958028Y-185393328D01*
X207958028Y-185393328D02*
X208243742Y-185393328D01*
X208243742Y-185393328D02*
X208386599Y-185464757D01*
X208386599Y-185464757D02*
X208458028Y-185607614D01*
X208458028Y-185607614D02*
X208458028Y-185750471D01*
X208458028Y-185750471D02*
X207743742Y-185893328D01*
X209100884Y-186393328D02*
X209100884Y-185393328D01*
X209100884Y-185679042D02*
X209172313Y-185536185D01*
X209172313Y-185536185D02*
X209243742Y-185464757D01*
X209243742Y-185464757D02*
X209386599Y-185393328D01*
X209386599Y-185393328D02*
X209529456Y-185393328D01*
X209672313Y-186536185D02*
X210815170Y-186536185D01*
X210958027Y-185393328D02*
X211529455Y-185393328D01*
X211172312Y-184893328D02*
X211172312Y-186179042D01*
X211172312Y-186179042D02*
X211243741Y-186321900D01*
X211243741Y-186321900D02*
X211386598Y-186393328D01*
X211386598Y-186393328D02*
X211529455Y-186393328D01*
X212600884Y-186321900D02*
X212458027Y-186393328D01*
X212458027Y-186393328D02*
X212172313Y-186393328D01*
X212172313Y-186393328D02*
X212029455Y-186321900D01*
X212029455Y-186321900D02*
X211958027Y-186179042D01*
X211958027Y-186179042D02*
X211958027Y-185607614D01*
X211958027Y-185607614D02*
X212029455Y-185464757D01*
X212029455Y-185464757D02*
X212172313Y-185393328D01*
X212172313Y-185393328D02*
X212458027Y-185393328D01*
X212458027Y-185393328D02*
X212600884Y-185464757D01*
X212600884Y-185464757D02*
X212672313Y-185607614D01*
X212672313Y-185607614D02*
X212672313Y-185750471D01*
X212672313Y-185750471D02*
X211958027Y-185893328D01*
X213243741Y-186321900D02*
X213386598Y-186393328D01*
X213386598Y-186393328D02*
X213672312Y-186393328D01*
X213672312Y-186393328D02*
X213815169Y-186321900D01*
X213815169Y-186321900D02*
X213886598Y-186179042D01*
X213886598Y-186179042D02*
X213886598Y-186107614D01*
X213886598Y-186107614D02*
X213815169Y-185964757D01*
X213815169Y-185964757D02*
X213672312Y-185893328D01*
X213672312Y-185893328D02*
X213458027Y-185893328D01*
X213458027Y-185893328D02*
X213315169Y-185821900D01*
X213315169Y-185821900D02*
X213243741Y-185679042D01*
X213243741Y-185679042D02*
X213243741Y-185607614D01*
X213243741Y-185607614D02*
X213315169Y-185464757D01*
X213315169Y-185464757D02*
X213458027Y-185393328D01*
X213458027Y-185393328D02*
X213672312Y-185393328D01*
X213672312Y-185393328D02*
X213815169Y-185464757D01*
X214315170Y-185393328D02*
X214886598Y-185393328D01*
X214529455Y-184893328D02*
X214529455Y-186179042D01*
X214529455Y-186179042D02*
X214600884Y-186321900D01*
X214600884Y-186321900D02*
X214743741Y-186393328D01*
X214743741Y-186393328D02*
X214886598Y-186393328D01*
X215386598Y-186250471D02*
X215458027Y-186321900D01*
X215458027Y-186321900D02*
X215386598Y-186393328D01*
X215386598Y-186393328D02*
X215315170Y-186321900D01*
X215315170Y-186321900D02*
X215386598Y-186250471D01*
X215386598Y-186250471D02*
X215386598Y-186393328D01*
X216100884Y-186393328D02*
X216100884Y-184893328D01*
X216243742Y-185821900D02*
X216672313Y-186393328D01*
X216672313Y-185393328D02*
X216100884Y-185964757D01*
X217315170Y-186393328D02*
X217315170Y-185393328D01*
X217315170Y-184893328D02*
X217243742Y-184964757D01*
X217243742Y-184964757D02*
X217315170Y-185036185D01*
X217315170Y-185036185D02*
X217386599Y-184964757D01*
X217386599Y-184964757D02*
X217315170Y-184893328D01*
X217315170Y-184893328D02*
X217315170Y-185036185D01*
X218672314Y-186321900D02*
X218529456Y-186393328D01*
X218529456Y-186393328D02*
X218243742Y-186393328D01*
X218243742Y-186393328D02*
X218100885Y-186321900D01*
X218100885Y-186321900D02*
X218029456Y-186250471D01*
X218029456Y-186250471D02*
X217958028Y-186107614D01*
X217958028Y-186107614D02*
X217958028Y-185679042D01*
X217958028Y-185679042D02*
X218029456Y-185536185D01*
X218029456Y-185536185D02*
X218100885Y-185464757D01*
X218100885Y-185464757D02*
X218243742Y-185393328D01*
X218243742Y-185393328D02*
X218529456Y-185393328D01*
X218529456Y-185393328D02*
X218672314Y-185464757D01*
X219958028Y-186393328D02*
X219958028Y-185607614D01*
X219958028Y-185607614D02*
X219886599Y-185464757D01*
X219886599Y-185464757D02*
X219743742Y-185393328D01*
X219743742Y-185393328D02*
X219458028Y-185393328D01*
X219458028Y-185393328D02*
X219315170Y-185464757D01*
X219958028Y-186321900D02*
X219815170Y-186393328D01*
X219815170Y-186393328D02*
X219458028Y-186393328D01*
X219458028Y-186393328D02*
X219315170Y-186321900D01*
X219315170Y-186321900D02*
X219243742Y-186179042D01*
X219243742Y-186179042D02*
X219243742Y-186036185D01*
X219243742Y-186036185D02*
X219315170Y-185893328D01*
X219315170Y-185893328D02*
X219458028Y-185821900D01*
X219458028Y-185821900D02*
X219815170Y-185821900D01*
X219815170Y-185821900D02*
X219958028Y-185750471D01*
X221315171Y-186393328D02*
X221315171Y-184893328D01*
X221315171Y-186321900D02*
X221172313Y-186393328D01*
X221172313Y-186393328D02*
X220886599Y-186393328D01*
X220886599Y-186393328D02*
X220743742Y-186321900D01*
X220743742Y-186321900D02*
X220672313Y-186250471D01*
X220672313Y-186250471D02*
X220600885Y-186107614D01*
X220600885Y-186107614D02*
X220600885Y-185679042D01*
X220600885Y-185679042D02*
X220672313Y-185536185D01*
X220672313Y-185536185D02*
X220743742Y-185464757D01*
X220743742Y-185464757D02*
X220886599Y-185393328D01*
X220886599Y-185393328D02*
X221172313Y-185393328D01*
X221172313Y-185393328D02*
X221315171Y-185464757D01*
X221672314Y-186536185D02*
X222815171Y-186536185D01*
X223172313Y-185393328D02*
X223172313Y-186893328D01*
X223172313Y-185464757D02*
X223315171Y-185393328D01*
X223315171Y-185393328D02*
X223600885Y-185393328D01*
X223600885Y-185393328D02*
X223743742Y-185464757D01*
X223743742Y-185464757D02*
X223815171Y-185536185D01*
X223815171Y-185536185D02*
X223886599Y-185679042D01*
X223886599Y-185679042D02*
X223886599Y-186107614D01*
X223886599Y-186107614D02*
X223815171Y-186250471D01*
X223815171Y-186250471D02*
X223743742Y-186321900D01*
X223743742Y-186321900D02*
X223600885Y-186393328D01*
X223600885Y-186393328D02*
X223315171Y-186393328D01*
X223315171Y-186393328D02*
X223172313Y-186321900D01*
X225172314Y-186321900D02*
X225029456Y-186393328D01*
X225029456Y-186393328D02*
X224743742Y-186393328D01*
X224743742Y-186393328D02*
X224600885Y-186321900D01*
X224600885Y-186321900D02*
X224529456Y-186250471D01*
X224529456Y-186250471D02*
X224458028Y-186107614D01*
X224458028Y-186107614D02*
X224458028Y-185679042D01*
X224458028Y-185679042D02*
X224529456Y-185536185D01*
X224529456Y-185536185D02*
X224600885Y-185464757D01*
X224600885Y-185464757D02*
X224743742Y-185393328D01*
X224743742Y-185393328D02*
X225029456Y-185393328D01*
X225029456Y-185393328D02*
X225172314Y-185464757D01*
X225815170Y-186393328D02*
X225815170Y-184893328D01*
X225815170Y-185464757D02*
X225958028Y-185393328D01*
X225958028Y-185393328D02*
X226243742Y-185393328D01*
X226243742Y-185393328D02*
X226386599Y-185464757D01*
X226386599Y-185464757D02*
X226458028Y-185536185D01*
X226458028Y-185536185D02*
X226529456Y-185679042D01*
X226529456Y-185679042D02*
X226529456Y-186107614D01*
X226529456Y-186107614D02*
X226458028Y-186250471D01*
X226458028Y-186250471D02*
X226386599Y-186321900D01*
X226386599Y-186321900D02*
X226243742Y-186393328D01*
X226243742Y-186393328D02*
X225958028Y-186393328D01*
X225958028Y-186393328D02*
X225815170Y-186321900D01*
X177002200Y-181507200D02*
X285002200Y-181507200D01*
X178386598Y-183621900D02*
X178600884Y-183693328D01*
X178600884Y-183693328D02*
X178958026Y-183693328D01*
X178958026Y-183693328D02*
X179100884Y-183621900D01*
X179100884Y-183621900D02*
X179172312Y-183550471D01*
X179172312Y-183550471D02*
X179243741Y-183407614D01*
X179243741Y-183407614D02*
X179243741Y-183264757D01*
X179243741Y-183264757D02*
X179172312Y-183121900D01*
X179172312Y-183121900D02*
X179100884Y-183050471D01*
X179100884Y-183050471D02*
X178958026Y-182979042D01*
X178958026Y-182979042D02*
X178672312Y-182907614D01*
X178672312Y-182907614D02*
X178529455Y-182836185D01*
X178529455Y-182836185D02*
X178458026Y-182764757D01*
X178458026Y-182764757D02*
X178386598Y-182621900D01*
X178386598Y-182621900D02*
X178386598Y-182479042D01*
X178386598Y-182479042D02*
X178458026Y-182336185D01*
X178458026Y-182336185D02*
X178529455Y-182264757D01*
X178529455Y-182264757D02*
X178672312Y-182193328D01*
X178672312Y-182193328D02*
X179029455Y-182193328D01*
X179029455Y-182193328D02*
X179243741Y-182264757D01*
X179886597Y-183693328D02*
X179886597Y-182193328D01*
X180529455Y-183693328D02*
X180529455Y-182907614D01*
X180529455Y-182907614D02*
X180458026Y-182764757D01*
X180458026Y-182764757D02*
X180315169Y-182693328D01*
X180315169Y-182693328D02*
X180100883Y-182693328D01*
X180100883Y-182693328D02*
X179958026Y-182764757D01*
X179958026Y-182764757D02*
X179886597Y-182836185D01*
X181815169Y-183621900D02*
X181672312Y-183693328D01*
X181672312Y-183693328D02*
X181386598Y-183693328D01*
X181386598Y-183693328D02*
X181243740Y-183621900D01*
X181243740Y-183621900D02*
X181172312Y-183479042D01*
X181172312Y-183479042D02*
X181172312Y-182907614D01*
X181172312Y-182907614D02*
X181243740Y-182764757D01*
X181243740Y-182764757D02*
X181386598Y-182693328D01*
X181386598Y-182693328D02*
X181672312Y-182693328D01*
X181672312Y-182693328D02*
X181815169Y-182764757D01*
X181815169Y-182764757D02*
X181886598Y-182907614D01*
X181886598Y-182907614D02*
X181886598Y-183050471D01*
X181886598Y-183050471D02*
X181172312Y-183193328D01*
X183100883Y-183621900D02*
X182958026Y-183693328D01*
X182958026Y-183693328D02*
X182672312Y-183693328D01*
X182672312Y-183693328D02*
X182529454Y-183621900D01*
X182529454Y-183621900D02*
X182458026Y-183479042D01*
X182458026Y-183479042D02*
X182458026Y-182907614D01*
X182458026Y-182907614D02*
X182529454Y-182764757D01*
X182529454Y-182764757D02*
X182672312Y-182693328D01*
X182672312Y-182693328D02*
X182958026Y-182693328D01*
X182958026Y-182693328D02*
X183100883Y-182764757D01*
X183100883Y-182764757D02*
X183172312Y-182907614D01*
X183172312Y-182907614D02*
X183172312Y-183050471D01*
X183172312Y-183050471D02*
X182458026Y-183193328D01*
X183600883Y-182693328D02*
X184172311Y-182693328D01*
X183815168Y-182193328D02*
X183815168Y-183479042D01*
X183815168Y-183479042D02*
X183886597Y-183621900D01*
X183886597Y-183621900D02*
X184029454Y-183693328D01*
X184029454Y-183693328D02*
X184172311Y-183693328D01*
X184672311Y-183550471D02*
X184743740Y-183621900D01*
X184743740Y-183621900D02*
X184672311Y-183693328D01*
X184672311Y-183693328D02*
X184600883Y-183621900D01*
X184600883Y-183621900D02*
X184672311Y-183550471D01*
X184672311Y-183550471D02*
X184672311Y-183693328D01*
X184672311Y-182764757D02*
X184743740Y-182836185D01*
X184743740Y-182836185D02*
X184672311Y-182907614D01*
X184672311Y-182907614D02*
X184600883Y-182836185D01*
X184600883Y-182836185D02*
X184672311Y-182764757D01*
X184672311Y-182764757D02*
X184672311Y-182907614D01*
X197002200Y-191507200D02*
X197002200Y-194507200D01*
X261002200Y-191507200D02*
X261002200Y-198007200D01*
X76747023Y-77109580D02*
X76699404Y-77157200D01*
X76699404Y-77157200D02*
X76556547Y-77204819D01*
X76556547Y-77204819D02*
X76461309Y-77204819D01*
X76461309Y-77204819D02*
X76318452Y-77157200D01*
X76318452Y-77157200D02*
X76223214Y-77061961D01*
X76223214Y-77061961D02*
X76175595Y-76966723D01*
X76175595Y-76966723D02*
X76127976Y-76776247D01*
X76127976Y-76776247D02*
X76127976Y-76633390D01*
X76127976Y-76633390D02*
X76175595Y-76442914D01*
X76175595Y-76442914D02*
X76223214Y-76347676D01*
X76223214Y-76347676D02*
X76318452Y-76252438D01*
X76318452Y-76252438D02*
X76461309Y-76204819D01*
X76461309Y-76204819D02*
X76556547Y-76204819D01*
X76556547Y-76204819D02*
X76699404Y-76252438D01*
X76699404Y-76252438D02*
X76747023Y-76300057D01*
X77318452Y-77204819D02*
X77223214Y-77157200D01*
X77223214Y-77157200D02*
X77175595Y-77109580D01*
X77175595Y-77109580D02*
X77127976Y-77014342D01*
X77127976Y-77014342D02*
X77127976Y-76728628D01*
X77127976Y-76728628D02*
X77175595Y-76633390D01*
X77175595Y-76633390D02*
X77223214Y-76585771D01*
X77223214Y-76585771D02*
X77318452Y-76538152D01*
X77318452Y-76538152D02*
X77461309Y-76538152D01*
X77461309Y-76538152D02*
X77556547Y-76585771D01*
X77556547Y-76585771D02*
X77604166Y-76633390D01*
X77604166Y-76633390D02*
X77651785Y-76728628D01*
X77651785Y-76728628D02*
X77651785Y-77014342D01*
X77651785Y-77014342D02*
X77604166Y-77109580D01*
X77604166Y-77109580D02*
X77556547Y-77157200D01*
X77556547Y-77157200D02*
X77461309Y-77204819D01*
X77461309Y-77204819D02*
X77318452Y-77204819D01*
X78080357Y-76538152D02*
X78080357Y-77204819D01*
X78080357Y-76633390D02*
X78127976Y-76585771D01*
X78127976Y-76585771D02*
X78223214Y-76538152D01*
X78223214Y-76538152D02*
X78366071Y-76538152D01*
X78366071Y-76538152D02*
X78461309Y-76585771D01*
X78461309Y-76585771D02*
X78508928Y-76681009D01*
X78508928Y-76681009D02*
X78508928Y-77204819D01*
X78985119Y-76538152D02*
X78985119Y-77204819D01*
X78985119Y-76633390D02*
X79032738Y-76585771D01*
X79032738Y-76585771D02*
X79127976Y-76538152D01*
X79127976Y-76538152D02*
X79270833Y-76538152D01*
X79270833Y-76538152D02*
X79366071Y-76585771D01*
X79366071Y-76585771D02*
X79413690Y-76681009D01*
X79413690Y-76681009D02*
X79413690Y-77204819D01*
X79651786Y-77300057D02*
X80413690Y-77300057D01*
X81223214Y-77109580D02*
X81175595Y-77157200D01*
X81175595Y-77157200D02*
X81032738Y-77204819D01*
X81032738Y-77204819D02*
X80937500Y-77204819D01*
X80937500Y-77204819D02*
X80794643Y-77157200D01*
X80794643Y-77157200D02*
X80699405Y-77061961D01*
X80699405Y-77061961D02*
X80651786Y-76966723D01*
X80651786Y-76966723D02*
X80604167Y-76776247D01*
X80604167Y-76776247D02*
X80604167Y-76633390D01*
X80604167Y-76633390D02*
X80651786Y-76442914D01*
X80651786Y-76442914D02*
X80699405Y-76347676D01*
X80699405Y-76347676D02*
X80794643Y-76252438D01*
X80794643Y-76252438D02*
X80937500Y-76204819D01*
X80937500Y-76204819D02*
X81032738Y-76204819D01*
X81032738Y-76204819D02*
X81175595Y-76252438D01*
X81175595Y-76252438D02*
X81223214Y-76300057D01*
X81794643Y-77204819D02*
X81699405Y-77157200D01*
X81699405Y-77157200D02*
X81651786Y-77109580D01*
X81651786Y-77109580D02*
X81604167Y-77014342D01*
X81604167Y-77014342D02*
X81604167Y-76728628D01*
X81604167Y-76728628D02*
X81651786Y-76633390D01*
X81651786Y-76633390D02*
X81699405Y-76585771D01*
X81699405Y-76585771D02*
X81794643Y-76538152D01*
X81794643Y-76538152D02*
X81937500Y-76538152D01*
X81937500Y-76538152D02*
X82032738Y-76585771D01*
X82032738Y-76585771D02*
X82080357Y-76633390D01*
X82080357Y-76633390D02*
X82127976Y-76728628D01*
X82127976Y-76728628D02*
X82127976Y-77014342D01*
X82127976Y-77014342D02*
X82080357Y-77109580D01*
X82080357Y-77109580D02*
X82032738Y-77157200D01*
X82032738Y-77157200D02*
X81937500Y-77204819D01*
X81937500Y-77204819D02*
X81794643Y-77204819D01*
X82985119Y-77204819D02*
X82985119Y-76681009D01*
X82985119Y-76681009D02*
X82937500Y-76585771D01*
X82937500Y-76585771D02*
X82842262Y-76538152D01*
X82842262Y-76538152D02*
X82651786Y-76538152D01*
X82651786Y-76538152D02*
X82556548Y-76585771D01*
X82985119Y-77157200D02*
X82889881Y-77204819D01*
X82889881Y-77204819D02*
X82651786Y-77204819D01*
X82651786Y-77204819D02*
X82556548Y-77157200D01*
X82556548Y-77157200D02*
X82508929Y-77061961D01*
X82508929Y-77061961D02*
X82508929Y-76966723D01*
X82508929Y-76966723D02*
X82556548Y-76871485D01*
X82556548Y-76871485D02*
X82651786Y-76823866D01*
X82651786Y-76823866D02*
X82889881Y-76823866D01*
X82889881Y-76823866D02*
X82985119Y-76776247D01*
X83366072Y-77204819D02*
X83889881Y-76538152D01*
X83366072Y-76538152D02*
X83889881Y-77204819D01*
X84270834Y-77204819D02*
X84270834Y-76538152D01*
X84270834Y-76204819D02*
X84223215Y-76252438D01*
X84223215Y-76252438D02*
X84270834Y-76300057D01*
X84270834Y-76300057D02*
X84318453Y-76252438D01*
X84318453Y-76252438D02*
X84270834Y-76204819D01*
X84270834Y-76204819D02*
X84270834Y-76300057D01*
X85175595Y-77204819D02*
X85175595Y-76681009D01*
X85175595Y-76681009D02*
X85127976Y-76585771D01*
X85127976Y-76585771D02*
X85032738Y-76538152D01*
X85032738Y-76538152D02*
X84842262Y-76538152D01*
X84842262Y-76538152D02*
X84747024Y-76585771D01*
X85175595Y-77157200D02*
X85080357Y-77204819D01*
X85080357Y-77204819D02*
X84842262Y-77204819D01*
X84842262Y-77204819D02*
X84747024Y-77157200D01*
X84747024Y-77157200D02*
X84699405Y-77061961D01*
X84699405Y-77061961D02*
X84699405Y-76966723D01*
X84699405Y-76966723D02*
X84747024Y-76871485D01*
X84747024Y-76871485D02*
X84842262Y-76823866D01*
X84842262Y-76823866D02*
X85080357Y-76823866D01*
X85080357Y-76823866D02*
X85175595Y-76776247D01*
X85794643Y-77204819D02*
X85699405Y-77157200D01*
X85699405Y-77157200D02*
X85651786Y-77061961D01*
X85651786Y-77061961D02*
X85651786Y-76204819D01*
X80182319Y-71083333D02*
X80896604Y-71083333D01*
X80896604Y-71083333D02*
X81039461Y-71130952D01*
X81039461Y-71130952D02*
X81134700Y-71226190D01*
X81134700Y-71226190D02*
X81182319Y-71369047D01*
X81182319Y-71369047D02*
X81182319Y-71464285D01*
X81182319Y-70083333D02*
X81182319Y-70654761D01*
X81182319Y-70369047D02*
X80182319Y-70369047D01*
X80182319Y-70369047D02*
X80325176Y-70464285D01*
X80325176Y-70464285D02*
X80420414Y-70559523D01*
X80420414Y-70559523D02*
X80468033Y-70654761D01*
X59750057Y-101189404D02*
X59702438Y-101141785D01*
X59702438Y-101141785D02*
X59654819Y-101046547D01*
X59654819Y-101046547D02*
X59654819Y-100808452D01*
X59654819Y-100808452D02*
X59702438Y-100713214D01*
X59702438Y-100713214D02*
X59750057Y-100665595D01*
X59750057Y-100665595D02*
X59845295Y-100617976D01*
X59845295Y-100617976D02*
X59940533Y-100617976D01*
X59940533Y-100617976D02*
X60083390Y-100665595D01*
X60083390Y-100665595D02*
X60654819Y-101237023D01*
X60654819Y-101237023D02*
X60654819Y-100617976D01*
X59654819Y-100284642D02*
X59654819Y-99617976D01*
X59654819Y-99617976D02*
X60654819Y-100046547D01*
X60654819Y-98665595D02*
X60178628Y-98998928D01*
X60654819Y-99237023D02*
X59654819Y-99237023D01*
X59654819Y-99237023D02*
X59654819Y-98856071D01*
X59654819Y-98856071D02*
X59702438Y-98760833D01*
X59702438Y-98760833D02*
X59750057Y-98713214D01*
X59750057Y-98713214D02*
X59845295Y-98665595D01*
X59845295Y-98665595D02*
X59988152Y-98665595D01*
X59988152Y-98665595D02*
X60083390Y-98713214D01*
X60083390Y-98713214D02*
X60131009Y-98760833D01*
X60131009Y-98760833D02*
X60178628Y-98856071D01*
X60178628Y-98856071D02*
X60178628Y-99237023D01*
D13*
X61981927Y-99994166D02*
X61791451Y-100127499D01*
X61981927Y-100222737D02*
X61581927Y-100222737D01*
X61581927Y-100222737D02*
X61581927Y-100070356D01*
X61581927Y-100070356D02*
X61600975Y-100032261D01*
X61600975Y-100032261D02*
X61620022Y-100013214D01*
X61620022Y-100013214D02*
X61658118Y-99994166D01*
X61658118Y-99994166D02*
X61715260Y-99994166D01*
X61715260Y-99994166D02*
X61753356Y-100013214D01*
X61753356Y-100013214D02*
X61772403Y-100032261D01*
X61772403Y-100032261D02*
X61791451Y-100070356D01*
X61791451Y-100070356D02*
X61791451Y-100222737D01*
X61581927Y-99651309D02*
X61581927Y-99727499D01*
X61581927Y-99727499D02*
X61600975Y-99765595D01*
X61600975Y-99765595D02*
X61620022Y-99784642D01*
X61620022Y-99784642D02*
X61677165Y-99822737D01*
X61677165Y-99822737D02*
X61753356Y-99841785D01*
X61753356Y-99841785D02*
X61905737Y-99841785D01*
X61905737Y-99841785D02*
X61943832Y-99822737D01*
X61943832Y-99822737D02*
X61962880Y-99803690D01*
X61962880Y-99803690D02*
X61981927Y-99765595D01*
X61981927Y-99765595D02*
X61981927Y-99689404D01*
X61981927Y-99689404D02*
X61962880Y-99651309D01*
X61962880Y-99651309D02*
X61943832Y-99632261D01*
X61943832Y-99632261D02*
X61905737Y-99613214D01*
X61905737Y-99613214D02*
X61810499Y-99613214D01*
X61810499Y-99613214D02*
X61772403Y-99632261D01*
X61772403Y-99632261D02*
X61753356Y-99651309D01*
X61753356Y-99651309D02*
X61734308Y-99689404D01*
X61734308Y-99689404D02*
X61734308Y-99765595D01*
X61734308Y-99765595D02*
X61753356Y-99803690D01*
X61753356Y-99803690D02*
X61772403Y-99822737D01*
X61772403Y-99822737D02*
X61810499Y-99841785D01*
D10*
X54280952Y-97454819D02*
X53709524Y-97454819D01*
X53995238Y-97454819D02*
X53995238Y-96454819D01*
X53995238Y-96454819D02*
X53900000Y-96597676D01*
X53900000Y-96597676D02*
X53804762Y-96692914D01*
X53804762Y-96692914D02*
X53709524Y-96740533D01*
X54900000Y-96454819D02*
X54995238Y-96454819D01*
X54995238Y-96454819D02*
X55090476Y-96502438D01*
X55090476Y-96502438D02*
X55138095Y-96550057D01*
X55138095Y-96550057D02*
X55185714Y-96645295D01*
X55185714Y-96645295D02*
X55233333Y-96835771D01*
X55233333Y-96835771D02*
X55233333Y-97073866D01*
X55233333Y-97073866D02*
X55185714Y-97264342D01*
X55185714Y-97264342D02*
X55138095Y-97359580D01*
X55138095Y-97359580D02*
X55090476Y-97407200D01*
X55090476Y-97407200D02*
X54995238Y-97454819D01*
X54995238Y-97454819D02*
X54900000Y-97454819D01*
X54900000Y-97454819D02*
X54804762Y-97407200D01*
X54804762Y-97407200D02*
X54757143Y-97359580D01*
X54757143Y-97359580D02*
X54709524Y-97264342D01*
X54709524Y-97264342D02*
X54661905Y-97073866D01*
X54661905Y-97073866D02*
X54661905Y-96835771D01*
X54661905Y-96835771D02*
X54709524Y-96645295D01*
X54709524Y-96645295D02*
X54757143Y-96550057D01*
X54757143Y-96550057D02*
X54804762Y-96502438D01*
X54804762Y-96502438D02*
X54900000Y-96454819D01*
X55852381Y-96454819D02*
X55947619Y-96454819D01*
X55947619Y-96454819D02*
X56042857Y-96502438D01*
X56042857Y-96502438D02*
X56090476Y-96550057D01*
X56090476Y-96550057D02*
X56138095Y-96645295D01*
X56138095Y-96645295D02*
X56185714Y-96835771D01*
X56185714Y-96835771D02*
X56185714Y-97073866D01*
X56185714Y-97073866D02*
X56138095Y-97264342D01*
X56138095Y-97264342D02*
X56090476Y-97359580D01*
X56090476Y-97359580D02*
X56042857Y-97407200D01*
X56042857Y-97407200D02*
X55947619Y-97454819D01*
X55947619Y-97454819D02*
X55852381Y-97454819D01*
X55852381Y-97454819D02*
X55757143Y-97407200D01*
X55757143Y-97407200D02*
X55709524Y-97359580D01*
X55709524Y-97359580D02*
X55661905Y-97264342D01*
X55661905Y-97264342D02*
X55614286Y-97073866D01*
X55614286Y-97073866D02*
X55614286Y-96835771D01*
X55614286Y-96835771D02*
X55661905Y-96645295D01*
X55661905Y-96645295D02*
X55709524Y-96550057D01*
X55709524Y-96550057D02*
X55757143Y-96502438D01*
X55757143Y-96502438D02*
X55852381Y-96454819D01*
X56614286Y-96788152D02*
X56614286Y-97454819D01*
X56614286Y-96883390D02*
X56661905Y-96835771D01*
X56661905Y-96835771D02*
X56757143Y-96788152D01*
X56757143Y-96788152D02*
X56900000Y-96788152D01*
X56900000Y-96788152D02*
X56995238Y-96835771D01*
X56995238Y-96835771D02*
X57042857Y-96931009D01*
X57042857Y-96931009D02*
X57042857Y-97454819D01*
D13*
X58940832Y-97363832D02*
X58921784Y-97382880D01*
X58921784Y-97382880D02*
X58864642Y-97401927D01*
X58864642Y-97401927D02*
X58826546Y-97401927D01*
X58826546Y-97401927D02*
X58769403Y-97382880D01*
X58769403Y-97382880D02*
X58731308Y-97344784D01*
X58731308Y-97344784D02*
X58712261Y-97306689D01*
X58712261Y-97306689D02*
X58693213Y-97230499D01*
X58693213Y-97230499D02*
X58693213Y-97173356D01*
X58693213Y-97173356D02*
X58712261Y-97097165D01*
X58712261Y-97097165D02*
X58731308Y-97059070D01*
X58731308Y-97059070D02*
X58769403Y-97020975D01*
X58769403Y-97020975D02*
X58826546Y-97001927D01*
X58826546Y-97001927D02*
X58864642Y-97001927D01*
X58864642Y-97001927D02*
X58921784Y-97020975D01*
X58921784Y-97020975D02*
X58940832Y-97040022D01*
X59169403Y-97173356D02*
X59131308Y-97154308D01*
X59131308Y-97154308D02*
X59112261Y-97135260D01*
X59112261Y-97135260D02*
X59093213Y-97097165D01*
X59093213Y-97097165D02*
X59093213Y-97078118D01*
X59093213Y-97078118D02*
X59112261Y-97040022D01*
X59112261Y-97040022D02*
X59131308Y-97020975D01*
X59131308Y-97020975D02*
X59169403Y-97001927D01*
X59169403Y-97001927D02*
X59245594Y-97001927D01*
X59245594Y-97001927D02*
X59283689Y-97020975D01*
X59283689Y-97020975D02*
X59302737Y-97040022D01*
X59302737Y-97040022D02*
X59321784Y-97078118D01*
X59321784Y-97078118D02*
X59321784Y-97097165D01*
X59321784Y-97097165D02*
X59302737Y-97135260D01*
X59302737Y-97135260D02*
X59283689Y-97154308D01*
X59283689Y-97154308D02*
X59245594Y-97173356D01*
X59245594Y-97173356D02*
X59169403Y-97173356D01*
X59169403Y-97173356D02*
X59131308Y-97192403D01*
X59131308Y-97192403D02*
X59112261Y-97211451D01*
X59112261Y-97211451D02*
X59093213Y-97249546D01*
X59093213Y-97249546D02*
X59093213Y-97325737D01*
X59093213Y-97325737D02*
X59112261Y-97363832D01*
X59112261Y-97363832D02*
X59131308Y-97382880D01*
X59131308Y-97382880D02*
X59169403Y-97401927D01*
X59169403Y-97401927D02*
X59245594Y-97401927D01*
X59245594Y-97401927D02*
X59283689Y-97382880D01*
X59283689Y-97382880D02*
X59302737Y-97363832D01*
X59302737Y-97363832D02*
X59321784Y-97325737D01*
X59321784Y-97325737D02*
X59321784Y-97249546D01*
X59321784Y-97249546D02*
X59302737Y-97211451D01*
X59302737Y-97211451D02*
X59283689Y-97192403D01*
X59283689Y-97192403D02*
X59245594Y-97173356D01*
D10*
X68761904Y-100454819D02*
X68285714Y-100454819D01*
X68285714Y-100454819D02*
X68238095Y-100931009D01*
X68238095Y-100931009D02*
X68285714Y-100883390D01*
X68285714Y-100883390D02*
X68380952Y-100835771D01*
X68380952Y-100835771D02*
X68619047Y-100835771D01*
X68619047Y-100835771D02*
X68714285Y-100883390D01*
X68714285Y-100883390D02*
X68761904Y-100931009D01*
X68761904Y-100931009D02*
X68809523Y-101026247D01*
X68809523Y-101026247D02*
X68809523Y-101264342D01*
X68809523Y-101264342D02*
X68761904Y-101359580D01*
X68761904Y-101359580D02*
X68714285Y-101407200D01*
X68714285Y-101407200D02*
X68619047Y-101454819D01*
X68619047Y-101454819D02*
X68380952Y-101454819D01*
X68380952Y-101454819D02*
X68285714Y-101407200D01*
X68285714Y-101407200D02*
X68238095Y-101359580D01*
X69761904Y-101454819D02*
X69190476Y-101454819D01*
X69476190Y-101454819D02*
X69476190Y-100454819D01*
X69476190Y-100454819D02*
X69380952Y-100597676D01*
X69380952Y-100597676D02*
X69285714Y-100692914D01*
X69285714Y-100692914D02*
X69190476Y-100740533D01*
D13*
X65933333Y-100931927D02*
X65800000Y-100741451D01*
X65704762Y-100931927D02*
X65704762Y-100531927D01*
X65704762Y-100531927D02*
X65857143Y-100531927D01*
X65857143Y-100531927D02*
X65895238Y-100550975D01*
X65895238Y-100550975D02*
X65914285Y-100570022D01*
X65914285Y-100570022D02*
X65933333Y-100608118D01*
X65933333Y-100608118D02*
X65933333Y-100665260D01*
X65933333Y-100665260D02*
X65914285Y-100703356D01*
X65914285Y-100703356D02*
X65895238Y-100722403D01*
X65895238Y-100722403D02*
X65857143Y-100741451D01*
X65857143Y-100741451D02*
X65704762Y-100741451D01*
X66295238Y-100531927D02*
X66104762Y-100531927D01*
X66104762Y-100531927D02*
X66085714Y-100722403D01*
X66085714Y-100722403D02*
X66104762Y-100703356D01*
X66104762Y-100703356D02*
X66142857Y-100684308D01*
X66142857Y-100684308D02*
X66238095Y-100684308D01*
X66238095Y-100684308D02*
X66276190Y-100703356D01*
X66276190Y-100703356D02*
X66295238Y-100722403D01*
X66295238Y-100722403D02*
X66314285Y-100760499D01*
X66314285Y-100760499D02*
X66314285Y-100855737D01*
X66314285Y-100855737D02*
X66295238Y-100893832D01*
X66295238Y-100893832D02*
X66276190Y-100912880D01*
X66276190Y-100912880D02*
X66238095Y-100931927D01*
X66238095Y-100931927D02*
X66142857Y-100931927D01*
X66142857Y-100931927D02*
X66104762Y-100912880D01*
X66104762Y-100912880D02*
X66085714Y-100893832D01*
D10*
X68528571Y-98754819D02*
X68719047Y-98754819D01*
X68719047Y-98754819D02*
X68814285Y-98802438D01*
X68814285Y-98802438D02*
X68909523Y-98897676D01*
X68909523Y-98897676D02*
X68957142Y-99088152D01*
X68957142Y-99088152D02*
X68957142Y-99421485D01*
X68957142Y-99421485D02*
X68909523Y-99611961D01*
X68909523Y-99611961D02*
X68814285Y-99707200D01*
X68814285Y-99707200D02*
X68719047Y-99754819D01*
X68719047Y-99754819D02*
X68528571Y-99754819D01*
X68528571Y-99754819D02*
X68433333Y-99707200D01*
X68433333Y-99707200D02*
X68338095Y-99611961D01*
X68338095Y-99611961D02*
X68290476Y-99421485D01*
X68290476Y-99421485D02*
X68290476Y-99088152D01*
X68290476Y-99088152D02*
X68338095Y-98897676D01*
X68338095Y-98897676D02*
X68433333Y-98802438D01*
X68433333Y-98802438D02*
X68528571Y-98754819D01*
X69385714Y-99754819D02*
X69385714Y-98754819D01*
X69385714Y-98754819D02*
X69766666Y-98754819D01*
X69766666Y-98754819D02*
X69861904Y-98802438D01*
X69861904Y-98802438D02*
X69909523Y-98850057D01*
X69909523Y-98850057D02*
X69957142Y-98945295D01*
X69957142Y-98945295D02*
X69957142Y-99088152D01*
X69957142Y-99088152D02*
X69909523Y-99183390D01*
X69909523Y-99183390D02*
X69861904Y-99231009D01*
X69861904Y-99231009D02*
X69766666Y-99278628D01*
X69766666Y-99278628D02*
X69385714Y-99278628D01*
X70385714Y-99231009D02*
X70719047Y-99231009D01*
X70861904Y-99754819D02*
X70385714Y-99754819D01*
X70385714Y-99754819D02*
X70385714Y-98754819D01*
X70385714Y-98754819D02*
X70861904Y-98754819D01*
X71290476Y-99754819D02*
X71290476Y-98754819D01*
X71290476Y-98754819D02*
X71861904Y-99754819D01*
X71861904Y-99754819D02*
X71861904Y-98754819D01*
D13*
X65965833Y-99371927D02*
X65832500Y-99181451D01*
X65737262Y-99371927D02*
X65737262Y-98971927D01*
X65737262Y-98971927D02*
X65889643Y-98971927D01*
X65889643Y-98971927D02*
X65927738Y-98990975D01*
X65927738Y-98990975D02*
X65946785Y-99010022D01*
X65946785Y-99010022D02*
X65965833Y-99048118D01*
X65965833Y-99048118D02*
X65965833Y-99105260D01*
X65965833Y-99105260D02*
X65946785Y-99143356D01*
X65946785Y-99143356D02*
X65927738Y-99162403D01*
X65927738Y-99162403D02*
X65889643Y-99181451D01*
X65889643Y-99181451D02*
X65737262Y-99181451D01*
X66099166Y-98971927D02*
X66365833Y-98971927D01*
X66365833Y-98971927D02*
X66194404Y-99371927D01*
X65647262Y-99171926D02*
X66455831Y-99171926D01*
D10*
X62614285Y-107554819D02*
X62804761Y-107554819D01*
X62804761Y-107554819D02*
X62899999Y-107602438D01*
X62899999Y-107602438D02*
X62995237Y-107697676D01*
X62995237Y-107697676D02*
X63042856Y-107888152D01*
X63042856Y-107888152D02*
X63042856Y-108221485D01*
X63042856Y-108221485D02*
X62995237Y-108411961D01*
X62995237Y-108411961D02*
X62899999Y-108507200D01*
X62899999Y-108507200D02*
X62804761Y-108554819D01*
X62804761Y-108554819D02*
X62614285Y-108554819D01*
X62614285Y-108554819D02*
X62519047Y-108507200D01*
X62519047Y-108507200D02*
X62423809Y-108411961D01*
X62423809Y-108411961D02*
X62376190Y-108221485D01*
X62376190Y-108221485D02*
X62376190Y-107888152D01*
X62376190Y-107888152D02*
X62423809Y-107697676D01*
X62423809Y-107697676D02*
X62519047Y-107602438D01*
X62519047Y-107602438D02*
X62614285Y-107554819D01*
X63471428Y-108554819D02*
X63471428Y-107554819D01*
X63471428Y-107554819D02*
X63852380Y-107554819D01*
X63852380Y-107554819D02*
X63947618Y-107602438D01*
X63947618Y-107602438D02*
X63995237Y-107650057D01*
X63995237Y-107650057D02*
X64042856Y-107745295D01*
X64042856Y-107745295D02*
X64042856Y-107888152D01*
X64042856Y-107888152D02*
X63995237Y-107983390D01*
X63995237Y-107983390D02*
X63947618Y-108031009D01*
X63947618Y-108031009D02*
X63852380Y-108078628D01*
X63852380Y-108078628D02*
X63471428Y-108078628D01*
X64423809Y-108269104D02*
X64899999Y-108269104D01*
X64328571Y-108554819D02*
X64661904Y-107554819D01*
X64661904Y-107554819D02*
X64995237Y-108554819D01*
X65471428Y-107983390D02*
X65376190Y-107935771D01*
X65376190Y-107935771D02*
X65328571Y-107888152D01*
X65328571Y-107888152D02*
X65280952Y-107792914D01*
X65280952Y-107792914D02*
X65280952Y-107745295D01*
X65280952Y-107745295D02*
X65328571Y-107650057D01*
X65328571Y-107650057D02*
X65376190Y-107602438D01*
X65376190Y-107602438D02*
X65471428Y-107554819D01*
X65471428Y-107554819D02*
X65661904Y-107554819D01*
X65661904Y-107554819D02*
X65757142Y-107602438D01*
X65757142Y-107602438D02*
X65804761Y-107650057D01*
X65804761Y-107650057D02*
X65852380Y-107745295D01*
X65852380Y-107745295D02*
X65852380Y-107792914D01*
X65852380Y-107792914D02*
X65804761Y-107888152D01*
X65804761Y-107888152D02*
X65757142Y-107935771D01*
X65757142Y-107935771D02*
X65661904Y-107983390D01*
X65661904Y-107983390D02*
X65471428Y-107983390D01*
X65471428Y-107983390D02*
X65376190Y-108031009D01*
X65376190Y-108031009D02*
X65328571Y-108078628D01*
X65328571Y-108078628D02*
X65280952Y-108173866D01*
X65280952Y-108173866D02*
X65280952Y-108364342D01*
X65280952Y-108364342D02*
X65328571Y-108459580D01*
X65328571Y-108459580D02*
X65376190Y-108507200D01*
X65376190Y-108507200D02*
X65471428Y-108554819D01*
X65471428Y-108554819D02*
X65661904Y-108554819D01*
X65661904Y-108554819D02*
X65757142Y-108507200D01*
X65757142Y-108507200D02*
X65804761Y-108459580D01*
X65804761Y-108459580D02*
X65852380Y-108364342D01*
X65852380Y-108364342D02*
X65852380Y-108173866D01*
X65852380Y-108173866D02*
X65804761Y-108078628D01*
X65804761Y-108078628D02*
X65757142Y-108031009D01*
X65757142Y-108031009D02*
X65661904Y-107983390D01*
X66709523Y-107888152D02*
X66709523Y-108554819D01*
X66471428Y-107507200D02*
X66233333Y-108221485D01*
X66233333Y-108221485D02*
X66852380Y-108221485D01*
X67138095Y-107554819D02*
X67804761Y-107554819D01*
X67804761Y-107554819D02*
X67376190Y-108554819D01*
X68090476Y-108554819D02*
X68614285Y-107888152D01*
X68090476Y-107888152D02*
X68614285Y-108554819D01*
X68995238Y-108554819D02*
X68995238Y-107554819D01*
X68995238Y-107554819D02*
X69233333Y-107554819D01*
X69233333Y-107554819D02*
X69376190Y-107602438D01*
X69376190Y-107602438D02*
X69471428Y-107697676D01*
X69471428Y-107697676D02*
X69519047Y-107792914D01*
X69519047Y-107792914D02*
X69566666Y-107983390D01*
X69566666Y-107983390D02*
X69566666Y-108126247D01*
X69566666Y-108126247D02*
X69519047Y-108316723D01*
X69519047Y-108316723D02*
X69471428Y-108411961D01*
X69471428Y-108411961D02*
X69376190Y-108507200D01*
X69376190Y-108507200D02*
X69233333Y-108554819D01*
X69233333Y-108554819D02*
X68995238Y-108554819D01*
X70328571Y-108031009D02*
X70471428Y-108078628D01*
X70471428Y-108078628D02*
X70519047Y-108126247D01*
X70519047Y-108126247D02*
X70566666Y-108221485D01*
X70566666Y-108221485D02*
X70566666Y-108364342D01*
X70566666Y-108364342D02*
X70519047Y-108459580D01*
X70519047Y-108459580D02*
X70471428Y-108507200D01*
X70471428Y-108507200D02*
X70376190Y-108554819D01*
X70376190Y-108554819D02*
X69995238Y-108554819D01*
X69995238Y-108554819D02*
X69995238Y-107554819D01*
X69995238Y-107554819D02*
X70328571Y-107554819D01*
X70328571Y-107554819D02*
X70423809Y-107602438D01*
X70423809Y-107602438D02*
X70471428Y-107650057D01*
X70471428Y-107650057D02*
X70519047Y-107745295D01*
X70519047Y-107745295D02*
X70519047Y-107840533D01*
X70519047Y-107840533D02*
X70471428Y-107935771D01*
X70471428Y-107935771D02*
X70423809Y-107983390D01*
X70423809Y-107983390D02*
X70328571Y-108031009D01*
X70328571Y-108031009D02*
X69995238Y-108031009D01*
X70852381Y-107554819D02*
X71185714Y-108554819D01*
X71185714Y-108554819D02*
X71519047Y-107554819D01*
D14*
X61879865Y-105698572D02*
X62462722Y-105698572D01*
X62462722Y-105698572D02*
X62531294Y-105664286D01*
X62531294Y-105664286D02*
X62565580Y-105630001D01*
X62565580Y-105630001D02*
X62599865Y-105561429D01*
X62599865Y-105561429D02*
X62599865Y-105424286D01*
X62599865Y-105424286D02*
X62565580Y-105355715D01*
X62565580Y-105355715D02*
X62531294Y-105321429D01*
X62531294Y-105321429D02*
X62462722Y-105287143D01*
X62462722Y-105287143D02*
X61879865Y-105287143D01*
X62599865Y-104567143D02*
X62599865Y-104978572D01*
X62599865Y-104772857D02*
X61879865Y-104772857D01*
X61879865Y-104772857D02*
X61982722Y-104841429D01*
X61982722Y-104841429D02*
X62051294Y-104910000D01*
X62051294Y-104910000D02*
X62085580Y-104978572D01*
D10*
X68861904Y-106154819D02*
X68385714Y-106154819D01*
X68385714Y-106154819D02*
X68338095Y-106631009D01*
X68338095Y-106631009D02*
X68385714Y-106583390D01*
X68385714Y-106583390D02*
X68480952Y-106535771D01*
X68480952Y-106535771D02*
X68719047Y-106535771D01*
X68719047Y-106535771D02*
X68814285Y-106583390D01*
X68814285Y-106583390D02*
X68861904Y-106631009D01*
X68861904Y-106631009D02*
X68909523Y-106726247D01*
X68909523Y-106726247D02*
X68909523Y-106964342D01*
X68909523Y-106964342D02*
X68861904Y-107059580D01*
X68861904Y-107059580D02*
X68814285Y-107107200D01*
X68814285Y-107107200D02*
X68719047Y-107154819D01*
X68719047Y-107154819D02*
X68480952Y-107154819D01*
X68480952Y-107154819D02*
X68385714Y-107107200D01*
X68385714Y-107107200D02*
X68338095Y-107059580D01*
X69861904Y-107154819D02*
X69290476Y-107154819D01*
X69576190Y-107154819D02*
X69576190Y-106154819D01*
X69576190Y-106154819D02*
X69480952Y-106297676D01*
X69480952Y-106297676D02*
X69385714Y-106392914D01*
X69385714Y-106392914D02*
X69290476Y-106440533D01*
X70861904Y-107154819D02*
X70528571Y-106678628D01*
X70290476Y-107154819D02*
X70290476Y-106154819D01*
X70290476Y-106154819D02*
X70671428Y-106154819D01*
X70671428Y-106154819D02*
X70766666Y-106202438D01*
X70766666Y-106202438D02*
X70814285Y-106250057D01*
X70814285Y-106250057D02*
X70861904Y-106345295D01*
X70861904Y-106345295D02*
X70861904Y-106488152D01*
X70861904Y-106488152D02*
X70814285Y-106583390D01*
X70814285Y-106583390D02*
X70766666Y-106631009D01*
X70766666Y-106631009D02*
X70671428Y-106678628D01*
X70671428Y-106678628D02*
X70290476Y-106678628D01*
D13*
X69933333Y-105351927D02*
X69800000Y-105161451D01*
X69704762Y-105351927D02*
X69704762Y-104951927D01*
X69704762Y-104951927D02*
X69857143Y-104951927D01*
X69857143Y-104951927D02*
X69895238Y-104970975D01*
X69895238Y-104970975D02*
X69914285Y-104990022D01*
X69914285Y-104990022D02*
X69933333Y-105028118D01*
X69933333Y-105028118D02*
X69933333Y-105085260D01*
X69933333Y-105085260D02*
X69914285Y-105123356D01*
X69914285Y-105123356D02*
X69895238Y-105142403D01*
X69895238Y-105142403D02*
X69857143Y-105161451D01*
X69857143Y-105161451D02*
X69704762Y-105161451D01*
X70276190Y-105085260D02*
X70276190Y-105351927D01*
X70180952Y-104932880D02*
X70085714Y-105218594D01*
X70085714Y-105218594D02*
X70333333Y-105218594D01*
D10*
X53754820Y-69080357D02*
X53754820Y-69651785D01*
X53754820Y-69366071D02*
X52754820Y-69366071D01*
X52754820Y-69366071D02*
X52897677Y-69461309D01*
X52897677Y-69461309D02*
X52992915Y-69556547D01*
X52992915Y-69556547D02*
X53040534Y-69651785D01*
X52754820Y-68461309D02*
X52754820Y-68366071D01*
X52754820Y-68366071D02*
X52802439Y-68270833D01*
X52802439Y-68270833D02*
X52850058Y-68223214D01*
X52850058Y-68223214D02*
X52945296Y-68175595D01*
X52945296Y-68175595D02*
X53135772Y-68127976D01*
X53135772Y-68127976D02*
X53373867Y-68127976D01*
X53373867Y-68127976D02*
X53564343Y-68175595D01*
X53564343Y-68175595D02*
X53659581Y-68223214D01*
X53659581Y-68223214D02*
X53707201Y-68270833D01*
X53707201Y-68270833D02*
X53754820Y-68366071D01*
X53754820Y-68366071D02*
X53754820Y-68461309D01*
X53754820Y-68461309D02*
X53707201Y-68556547D01*
X53707201Y-68556547D02*
X53659581Y-68604166D01*
X53659581Y-68604166D02*
X53564343Y-68651785D01*
X53564343Y-68651785D02*
X53373867Y-68699404D01*
X53373867Y-68699404D02*
X53135772Y-68699404D01*
X53135772Y-68699404D02*
X52945296Y-68651785D01*
X52945296Y-68651785D02*
X52850058Y-68604166D01*
X52850058Y-68604166D02*
X52802439Y-68556547D01*
X52802439Y-68556547D02*
X52754820Y-68461309D01*
X53088153Y-67270833D02*
X53754820Y-67270833D01*
X53088153Y-67699404D02*
X53611962Y-67699404D01*
X53611962Y-67699404D02*
X53707201Y-67651785D01*
X53707201Y-67651785D02*
X53754820Y-67556547D01*
X53754820Y-67556547D02*
X53754820Y-67413690D01*
X53754820Y-67413690D02*
X53707201Y-67318452D01*
X53707201Y-67318452D02*
X53659581Y-67270833D01*
D15*
X51287664Y-68570832D02*
X51325760Y-68608928D01*
X51325760Y-68608928D02*
X51363855Y-68723213D01*
X51363855Y-68723213D02*
X51363855Y-68799404D01*
X51363855Y-68799404D02*
X51325760Y-68913690D01*
X51325760Y-68913690D02*
X51249569Y-68989880D01*
X51249569Y-68989880D02*
X51173379Y-69027975D01*
X51173379Y-69027975D02*
X51020998Y-69066071D01*
X51020998Y-69066071D02*
X50906712Y-69066071D01*
X50906712Y-69066071D02*
X50754331Y-69027975D01*
X50754331Y-69027975D02*
X50678140Y-68989880D01*
X50678140Y-68989880D02*
X50601950Y-68913690D01*
X50601950Y-68913690D02*
X50563855Y-68799404D01*
X50563855Y-68799404D02*
X50563855Y-68723213D01*
X50563855Y-68723213D02*
X50601950Y-68608928D01*
X50601950Y-68608928D02*
X50640045Y-68570832D01*
X51363855Y-68189880D02*
X51363855Y-68037499D01*
X51363855Y-68037499D02*
X51325760Y-67961309D01*
X51325760Y-67961309D02*
X51287664Y-67923213D01*
X51287664Y-67923213D02*
X51173379Y-67847023D01*
X51173379Y-67847023D02*
X51020998Y-67808928D01*
X51020998Y-67808928D02*
X50716236Y-67808928D01*
X50716236Y-67808928D02*
X50640045Y-67847023D01*
X50640045Y-67847023D02*
X50601950Y-67885118D01*
X50601950Y-67885118D02*
X50563855Y-67961309D01*
X50563855Y-67961309D02*
X50563855Y-68113690D01*
X50563855Y-68113690D02*
X50601950Y-68189880D01*
X50601950Y-68189880D02*
X50640045Y-68227975D01*
X50640045Y-68227975D02*
X50716236Y-68266071D01*
X50716236Y-68266071D02*
X50906712Y-68266071D01*
X50906712Y-68266071D02*
X50982902Y-68227975D01*
X50982902Y-68227975D02*
X51020998Y-68189880D01*
X51020998Y-68189880D02*
X51059093Y-68113690D01*
X51059093Y-68113690D02*
X51059093Y-67961309D01*
X51059093Y-67961309D02*
X51020998Y-67885118D01*
X51020998Y-67885118D02*
X50982902Y-67847023D01*
X50982902Y-67847023D02*
X50906712Y-67808928D01*
D10*
X51614285Y-93254819D02*
X51804761Y-93254819D01*
X51804761Y-93254819D02*
X51899999Y-93302438D01*
X51899999Y-93302438D02*
X51995237Y-93397676D01*
X51995237Y-93397676D02*
X52042856Y-93588152D01*
X52042856Y-93588152D02*
X52042856Y-93921485D01*
X52042856Y-93921485D02*
X51995237Y-94111961D01*
X51995237Y-94111961D02*
X51899999Y-94207200D01*
X51899999Y-94207200D02*
X51804761Y-94254819D01*
X51804761Y-94254819D02*
X51614285Y-94254819D01*
X51614285Y-94254819D02*
X51519047Y-94207200D01*
X51519047Y-94207200D02*
X51423809Y-94111961D01*
X51423809Y-94111961D02*
X51376190Y-93921485D01*
X51376190Y-93921485D02*
X51376190Y-93588152D01*
X51376190Y-93588152D02*
X51423809Y-93397676D01*
X51423809Y-93397676D02*
X51519047Y-93302438D01*
X51519047Y-93302438D02*
X51614285Y-93254819D01*
X52471428Y-94254819D02*
X52471428Y-93254819D01*
X52471428Y-93254819D02*
X52852380Y-93254819D01*
X52852380Y-93254819D02*
X52947618Y-93302438D01*
X52947618Y-93302438D02*
X52995237Y-93350057D01*
X52995237Y-93350057D02*
X53042856Y-93445295D01*
X53042856Y-93445295D02*
X53042856Y-93588152D01*
X53042856Y-93588152D02*
X52995237Y-93683390D01*
X52995237Y-93683390D02*
X52947618Y-93731009D01*
X52947618Y-93731009D02*
X52852380Y-93778628D01*
X52852380Y-93778628D02*
X52471428Y-93778628D01*
X53423809Y-93969104D02*
X53899999Y-93969104D01*
X53328571Y-94254819D02*
X53661904Y-93254819D01*
X53661904Y-93254819D02*
X53995237Y-94254819D01*
X54757142Y-93254819D02*
X54566666Y-93254819D01*
X54566666Y-93254819D02*
X54471428Y-93302438D01*
X54471428Y-93302438D02*
X54423809Y-93350057D01*
X54423809Y-93350057D02*
X54328571Y-93492914D01*
X54328571Y-93492914D02*
X54280952Y-93683390D01*
X54280952Y-93683390D02*
X54280952Y-94064342D01*
X54280952Y-94064342D02*
X54328571Y-94159580D01*
X54328571Y-94159580D02*
X54376190Y-94207200D01*
X54376190Y-94207200D02*
X54471428Y-94254819D01*
X54471428Y-94254819D02*
X54661904Y-94254819D01*
X54661904Y-94254819D02*
X54757142Y-94207200D01*
X54757142Y-94207200D02*
X54804761Y-94159580D01*
X54804761Y-94159580D02*
X54852380Y-94064342D01*
X54852380Y-94064342D02*
X54852380Y-93826247D01*
X54852380Y-93826247D02*
X54804761Y-93731009D01*
X54804761Y-93731009D02*
X54757142Y-93683390D01*
X54757142Y-93683390D02*
X54661904Y-93635771D01*
X54661904Y-93635771D02*
X54471428Y-93635771D01*
X54471428Y-93635771D02*
X54376190Y-93683390D01*
X54376190Y-93683390D02*
X54328571Y-93731009D01*
X54328571Y-93731009D02*
X54280952Y-93826247D01*
X55328571Y-94254819D02*
X55519047Y-94254819D01*
X55519047Y-94254819D02*
X55614285Y-94207200D01*
X55614285Y-94207200D02*
X55661904Y-94159580D01*
X55661904Y-94159580D02*
X55757142Y-94016723D01*
X55757142Y-94016723D02*
X55804761Y-93826247D01*
X55804761Y-93826247D02*
X55804761Y-93445295D01*
X55804761Y-93445295D02*
X55757142Y-93350057D01*
X55757142Y-93350057D02*
X55709523Y-93302438D01*
X55709523Y-93302438D02*
X55614285Y-93254819D01*
X55614285Y-93254819D02*
X55423809Y-93254819D01*
X55423809Y-93254819D02*
X55328571Y-93302438D01*
X55328571Y-93302438D02*
X55280952Y-93350057D01*
X55280952Y-93350057D02*
X55233333Y-93445295D01*
X55233333Y-93445295D02*
X55233333Y-93683390D01*
X55233333Y-93683390D02*
X55280952Y-93778628D01*
X55280952Y-93778628D02*
X55328571Y-93826247D01*
X55328571Y-93826247D02*
X55423809Y-93873866D01*
X55423809Y-93873866D02*
X55614285Y-93873866D01*
X55614285Y-93873866D02*
X55709523Y-93826247D01*
X55709523Y-93826247D02*
X55757142Y-93778628D01*
X55757142Y-93778628D02*
X55804761Y-93683390D01*
X56185714Y-93350057D02*
X56233333Y-93302438D01*
X56233333Y-93302438D02*
X56328571Y-93254819D01*
X56328571Y-93254819D02*
X56566666Y-93254819D01*
X56566666Y-93254819D02*
X56661904Y-93302438D01*
X56661904Y-93302438D02*
X56709523Y-93350057D01*
X56709523Y-93350057D02*
X56757142Y-93445295D01*
X56757142Y-93445295D02*
X56757142Y-93540533D01*
X56757142Y-93540533D02*
X56709523Y-93683390D01*
X56709523Y-93683390D02*
X56138095Y-94254819D01*
X56138095Y-94254819D02*
X56757142Y-94254819D01*
X57090476Y-94254819D02*
X57614285Y-93588152D01*
X57090476Y-93588152D02*
X57614285Y-94254819D01*
X57995238Y-94254819D02*
X57995238Y-93254819D01*
X57995238Y-93254819D02*
X58233333Y-93254819D01*
X58233333Y-93254819D02*
X58376190Y-93302438D01*
X58376190Y-93302438D02*
X58471428Y-93397676D01*
X58471428Y-93397676D02*
X58519047Y-93492914D01*
X58519047Y-93492914D02*
X58566666Y-93683390D01*
X58566666Y-93683390D02*
X58566666Y-93826247D01*
X58566666Y-93826247D02*
X58519047Y-94016723D01*
X58519047Y-94016723D02*
X58471428Y-94111961D01*
X58471428Y-94111961D02*
X58376190Y-94207200D01*
X58376190Y-94207200D02*
X58233333Y-94254819D01*
X58233333Y-94254819D02*
X57995238Y-94254819D01*
X59328571Y-93731009D02*
X59471428Y-93778628D01*
X59471428Y-93778628D02*
X59519047Y-93826247D01*
X59519047Y-93826247D02*
X59566666Y-93921485D01*
X59566666Y-93921485D02*
X59566666Y-94064342D01*
X59566666Y-94064342D02*
X59519047Y-94159580D01*
X59519047Y-94159580D02*
X59471428Y-94207200D01*
X59471428Y-94207200D02*
X59376190Y-94254819D01*
X59376190Y-94254819D02*
X58995238Y-94254819D01*
X58995238Y-94254819D02*
X58995238Y-93254819D01*
X58995238Y-93254819D02*
X59328571Y-93254819D01*
X59328571Y-93254819D02*
X59423809Y-93302438D01*
X59423809Y-93302438D02*
X59471428Y-93350057D01*
X59471428Y-93350057D02*
X59519047Y-93445295D01*
X59519047Y-93445295D02*
X59519047Y-93540533D01*
X59519047Y-93540533D02*
X59471428Y-93635771D01*
X59471428Y-93635771D02*
X59423809Y-93683390D01*
X59423809Y-93683390D02*
X59328571Y-93731009D01*
X59328571Y-93731009D02*
X58995238Y-93731009D01*
X59852381Y-93254819D02*
X60185714Y-94254819D01*
X60185714Y-94254819D02*
X60519047Y-93254819D01*
D14*
X62644865Y-97098572D02*
X63227722Y-97098572D01*
X63227722Y-97098572D02*
X63296294Y-97064286D01*
X63296294Y-97064286D02*
X63330580Y-97030001D01*
X63330580Y-97030001D02*
X63364865Y-96961429D01*
X63364865Y-96961429D02*
X63364865Y-96824286D01*
X63364865Y-96824286D02*
X63330580Y-96755715D01*
X63330580Y-96755715D02*
X63296294Y-96721429D01*
X63296294Y-96721429D02*
X63227722Y-96687143D01*
X63227722Y-96687143D02*
X62644865Y-96687143D01*
X62644865Y-96412857D02*
X62644865Y-95967143D01*
X62644865Y-95967143D02*
X62919151Y-96207143D01*
X62919151Y-96207143D02*
X62919151Y-96104286D01*
X62919151Y-96104286D02*
X62953437Y-96035715D01*
X62953437Y-96035715D02*
X62987722Y-96001429D01*
X62987722Y-96001429D02*
X63056294Y-95967143D01*
X63056294Y-95967143D02*
X63227722Y-95967143D01*
X63227722Y-95967143D02*
X63296294Y-96001429D01*
X63296294Y-96001429D02*
X63330580Y-96035715D01*
X63330580Y-96035715D02*
X63364865Y-96104286D01*
X63364865Y-96104286D02*
X63364865Y-96310000D01*
X63364865Y-96310000D02*
X63330580Y-96378572D01*
X63330580Y-96378572D02*
X63296294Y-96412857D01*
D10*
X68080952Y-94454819D02*
X67509524Y-94454819D01*
X67795238Y-94454819D02*
X67795238Y-93454819D01*
X67795238Y-93454819D02*
X67700000Y-93597676D01*
X67700000Y-93597676D02*
X67604762Y-93692914D01*
X67604762Y-93692914D02*
X67509524Y-93740533D01*
X68700000Y-93454819D02*
X68795238Y-93454819D01*
X68795238Y-93454819D02*
X68890476Y-93502438D01*
X68890476Y-93502438D02*
X68938095Y-93550057D01*
X68938095Y-93550057D02*
X68985714Y-93645295D01*
X68985714Y-93645295D02*
X69033333Y-93835771D01*
X69033333Y-93835771D02*
X69033333Y-94073866D01*
X69033333Y-94073866D02*
X68985714Y-94264342D01*
X68985714Y-94264342D02*
X68938095Y-94359580D01*
X68938095Y-94359580D02*
X68890476Y-94407200D01*
X68890476Y-94407200D02*
X68795238Y-94454819D01*
X68795238Y-94454819D02*
X68700000Y-94454819D01*
X68700000Y-94454819D02*
X68604762Y-94407200D01*
X68604762Y-94407200D02*
X68557143Y-94359580D01*
X68557143Y-94359580D02*
X68509524Y-94264342D01*
X68509524Y-94264342D02*
X68461905Y-94073866D01*
X68461905Y-94073866D02*
X68461905Y-93835771D01*
X68461905Y-93835771D02*
X68509524Y-93645295D01*
X68509524Y-93645295D02*
X68557143Y-93550057D01*
X68557143Y-93550057D02*
X68604762Y-93502438D01*
X68604762Y-93502438D02*
X68700000Y-93454819D01*
X69652381Y-93454819D02*
X69747619Y-93454819D01*
X69747619Y-93454819D02*
X69842857Y-93502438D01*
X69842857Y-93502438D02*
X69890476Y-93550057D01*
X69890476Y-93550057D02*
X69938095Y-93645295D01*
X69938095Y-93645295D02*
X69985714Y-93835771D01*
X69985714Y-93835771D02*
X69985714Y-94073866D01*
X69985714Y-94073866D02*
X69938095Y-94264342D01*
X69938095Y-94264342D02*
X69890476Y-94359580D01*
X69890476Y-94359580D02*
X69842857Y-94407200D01*
X69842857Y-94407200D02*
X69747619Y-94454819D01*
X69747619Y-94454819D02*
X69652381Y-94454819D01*
X69652381Y-94454819D02*
X69557143Y-94407200D01*
X69557143Y-94407200D02*
X69509524Y-94359580D01*
X69509524Y-94359580D02*
X69461905Y-94264342D01*
X69461905Y-94264342D02*
X69414286Y-94073866D01*
X69414286Y-94073866D02*
X69414286Y-93835771D01*
X69414286Y-93835771D02*
X69461905Y-93645295D01*
X69461905Y-93645295D02*
X69509524Y-93550057D01*
X69509524Y-93550057D02*
X69557143Y-93502438D01*
X69557143Y-93502438D02*
X69652381Y-93454819D01*
X70414286Y-93788152D02*
X70414286Y-94454819D01*
X70414286Y-93883390D02*
X70461905Y-93835771D01*
X70461905Y-93835771D02*
X70557143Y-93788152D01*
X70557143Y-93788152D02*
X70700000Y-93788152D01*
X70700000Y-93788152D02*
X70795238Y-93835771D01*
X70795238Y-93835771D02*
X70842857Y-93931009D01*
X70842857Y-93931009D02*
X70842857Y-94454819D01*
D13*
X65470833Y-94143832D02*
X65451785Y-94162880D01*
X65451785Y-94162880D02*
X65394643Y-94181927D01*
X65394643Y-94181927D02*
X65356547Y-94181927D01*
X65356547Y-94181927D02*
X65299404Y-94162880D01*
X65299404Y-94162880D02*
X65261309Y-94124784D01*
X65261309Y-94124784D02*
X65242262Y-94086689D01*
X65242262Y-94086689D02*
X65223214Y-94010499D01*
X65223214Y-94010499D02*
X65223214Y-93953356D01*
X65223214Y-93953356D02*
X65242262Y-93877165D01*
X65242262Y-93877165D02*
X65261309Y-93839070D01*
X65261309Y-93839070D02*
X65299404Y-93800975D01*
X65299404Y-93800975D02*
X65356547Y-93781927D01*
X65356547Y-93781927D02*
X65394643Y-93781927D01*
X65394643Y-93781927D02*
X65451785Y-93800975D01*
X65451785Y-93800975D02*
X65470833Y-93820022D01*
X65832738Y-93781927D02*
X65642262Y-93781927D01*
X65642262Y-93781927D02*
X65623214Y-93972403D01*
X65623214Y-93972403D02*
X65642262Y-93953356D01*
X65642262Y-93953356D02*
X65680357Y-93934308D01*
X65680357Y-93934308D02*
X65775595Y-93934308D01*
X65775595Y-93934308D02*
X65813690Y-93953356D01*
X65813690Y-93953356D02*
X65832738Y-93972403D01*
X65832738Y-93972403D02*
X65851785Y-94010499D01*
X65851785Y-94010499D02*
X65851785Y-94105737D01*
X65851785Y-94105737D02*
X65832738Y-94143832D01*
X65832738Y-94143832D02*
X65813690Y-94162880D01*
X65813690Y-94162880D02*
X65775595Y-94181927D01*
X65775595Y-94181927D02*
X65680357Y-94181927D01*
X65680357Y-94181927D02*
X65642262Y-94162880D01*
X65642262Y-94162880D02*
X65623214Y-94143832D01*
D10*
X68833333Y-95954819D02*
X68261905Y-95954819D01*
X68547619Y-95954819D02*
X68547619Y-94954819D01*
X68547619Y-94954819D02*
X68452381Y-95097676D01*
X68452381Y-95097676D02*
X68357143Y-95192914D01*
X68357143Y-95192914D02*
X68261905Y-95240533D01*
X69261905Y-95288152D02*
X69261905Y-95954819D01*
X69261905Y-95383390D02*
X69309524Y-95335771D01*
X69309524Y-95335771D02*
X69404762Y-95288152D01*
X69404762Y-95288152D02*
X69547619Y-95288152D01*
X69547619Y-95288152D02*
X69642857Y-95335771D01*
X69642857Y-95335771D02*
X69690476Y-95431009D01*
X69690476Y-95431009D02*
X69690476Y-95954819D01*
D16*
X66565833Y-95589765D02*
X66553929Y-95601670D01*
X66553929Y-95601670D02*
X66518214Y-95613574D01*
X66518214Y-95613574D02*
X66494405Y-95613574D01*
X66494405Y-95613574D02*
X66458691Y-95601670D01*
X66458691Y-95601670D02*
X66434881Y-95577860D01*
X66434881Y-95577860D02*
X66422976Y-95554050D01*
X66422976Y-95554050D02*
X66411072Y-95506431D01*
X66411072Y-95506431D02*
X66411072Y-95470717D01*
X66411072Y-95470717D02*
X66422976Y-95423098D01*
X66422976Y-95423098D02*
X66434881Y-95399289D01*
X66434881Y-95399289D02*
X66458691Y-95375479D01*
X66458691Y-95375479D02*
X66494405Y-95363574D01*
X66494405Y-95363574D02*
X66518214Y-95363574D01*
X66518214Y-95363574D02*
X66553929Y-95375479D01*
X66553929Y-95375479D02*
X66565833Y-95387384D01*
X66780119Y-95363574D02*
X66732500Y-95363574D01*
X66732500Y-95363574D02*
X66708691Y-95375479D01*
X66708691Y-95375479D02*
X66696786Y-95387384D01*
X66696786Y-95387384D02*
X66672976Y-95423098D01*
X66672976Y-95423098D02*
X66661072Y-95470717D01*
X66661072Y-95470717D02*
X66661072Y-95565955D01*
X66661072Y-95565955D02*
X66672976Y-95589765D01*
X66672976Y-95589765D02*
X66684881Y-95601670D01*
X66684881Y-95601670D02*
X66708691Y-95613574D01*
X66708691Y-95613574D02*
X66756310Y-95613574D01*
X66756310Y-95613574D02*
X66780119Y-95601670D01*
X66780119Y-95601670D02*
X66792024Y-95589765D01*
X66792024Y-95589765D02*
X66803929Y-95565955D01*
X66803929Y-95565955D02*
X66803929Y-95506431D01*
X66803929Y-95506431D02*
X66792024Y-95482622D01*
X66792024Y-95482622D02*
X66780119Y-95470717D01*
X66780119Y-95470717D02*
X66756310Y-95458812D01*
X66756310Y-95458812D02*
X66708691Y-95458812D01*
X66708691Y-95458812D02*
X66684881Y-95470717D01*
X66684881Y-95470717D02*
X66672976Y-95482622D01*
X66672976Y-95482622D02*
X66661072Y-95506431D01*
D10*
X63050057Y-99961904D02*
X63002438Y-99914285D01*
X63002438Y-99914285D02*
X62954819Y-99819047D01*
X62954819Y-99819047D02*
X62954819Y-99580952D01*
X62954819Y-99580952D02*
X63002438Y-99485714D01*
X63002438Y-99485714D02*
X63050057Y-99438095D01*
X63050057Y-99438095D02*
X63145295Y-99390476D01*
X63145295Y-99390476D02*
X63240533Y-99390476D01*
X63240533Y-99390476D02*
X63383390Y-99438095D01*
X63383390Y-99438095D02*
X63954819Y-100009523D01*
X63954819Y-100009523D02*
X63954819Y-99390476D01*
X62954819Y-99057142D02*
X62954819Y-98390476D01*
X62954819Y-98390476D02*
X63954819Y-98819047D01*
X63954819Y-97438095D02*
X63478628Y-97771428D01*
X63954819Y-98009523D02*
X62954819Y-98009523D01*
X62954819Y-98009523D02*
X62954819Y-97628571D01*
X62954819Y-97628571D02*
X63002438Y-97533333D01*
X63002438Y-97533333D02*
X63050057Y-97485714D01*
X63050057Y-97485714D02*
X63145295Y-97438095D01*
X63145295Y-97438095D02*
X63288152Y-97438095D01*
X63288152Y-97438095D02*
X63383390Y-97485714D01*
X63383390Y-97485714D02*
X63431009Y-97533333D01*
X63431009Y-97533333D02*
X63478628Y-97628571D01*
X63478628Y-97628571D02*
X63478628Y-98009523D01*
D13*
X63594427Y-101816666D02*
X63403951Y-101949999D01*
X63594427Y-102045237D02*
X63194427Y-102045237D01*
X63194427Y-102045237D02*
X63194427Y-101892856D01*
X63194427Y-101892856D02*
X63213475Y-101854761D01*
X63213475Y-101854761D02*
X63232522Y-101835714D01*
X63232522Y-101835714D02*
X63270618Y-101816666D01*
X63270618Y-101816666D02*
X63327760Y-101816666D01*
X63327760Y-101816666D02*
X63365856Y-101835714D01*
X63365856Y-101835714D02*
X63384903Y-101854761D01*
X63384903Y-101854761D02*
X63403951Y-101892856D01*
X63403951Y-101892856D02*
X63403951Y-102045237D01*
X63594427Y-101435714D02*
X63594427Y-101664285D01*
X63594427Y-101549999D02*
X63194427Y-101549999D01*
X63194427Y-101549999D02*
X63251570Y-101588095D01*
X63251570Y-101588095D02*
X63289665Y-101626190D01*
X63289665Y-101626190D02*
X63308713Y-101664285D01*
D10*
X76747023Y-96359580D02*
X76699404Y-96407200D01*
X76699404Y-96407200D02*
X76556547Y-96454819D01*
X76556547Y-96454819D02*
X76461309Y-96454819D01*
X76461309Y-96454819D02*
X76318452Y-96407200D01*
X76318452Y-96407200D02*
X76223214Y-96311961D01*
X76223214Y-96311961D02*
X76175595Y-96216723D01*
X76175595Y-96216723D02*
X76127976Y-96026247D01*
X76127976Y-96026247D02*
X76127976Y-95883390D01*
X76127976Y-95883390D02*
X76175595Y-95692914D01*
X76175595Y-95692914D02*
X76223214Y-95597676D01*
X76223214Y-95597676D02*
X76318452Y-95502438D01*
X76318452Y-95502438D02*
X76461309Y-95454819D01*
X76461309Y-95454819D02*
X76556547Y-95454819D01*
X76556547Y-95454819D02*
X76699404Y-95502438D01*
X76699404Y-95502438D02*
X76747023Y-95550057D01*
X77318452Y-96454819D02*
X77223214Y-96407200D01*
X77223214Y-96407200D02*
X77175595Y-96359580D01*
X77175595Y-96359580D02*
X77127976Y-96264342D01*
X77127976Y-96264342D02*
X77127976Y-95978628D01*
X77127976Y-95978628D02*
X77175595Y-95883390D01*
X77175595Y-95883390D02*
X77223214Y-95835771D01*
X77223214Y-95835771D02*
X77318452Y-95788152D01*
X77318452Y-95788152D02*
X77461309Y-95788152D01*
X77461309Y-95788152D02*
X77556547Y-95835771D01*
X77556547Y-95835771D02*
X77604166Y-95883390D01*
X77604166Y-95883390D02*
X77651785Y-95978628D01*
X77651785Y-95978628D02*
X77651785Y-96264342D01*
X77651785Y-96264342D02*
X77604166Y-96359580D01*
X77604166Y-96359580D02*
X77556547Y-96407200D01*
X77556547Y-96407200D02*
X77461309Y-96454819D01*
X77461309Y-96454819D02*
X77318452Y-96454819D01*
X78080357Y-95788152D02*
X78080357Y-96454819D01*
X78080357Y-95883390D02*
X78127976Y-95835771D01*
X78127976Y-95835771D02*
X78223214Y-95788152D01*
X78223214Y-95788152D02*
X78366071Y-95788152D01*
X78366071Y-95788152D02*
X78461309Y-95835771D01*
X78461309Y-95835771D02*
X78508928Y-95931009D01*
X78508928Y-95931009D02*
X78508928Y-96454819D01*
X78985119Y-95788152D02*
X78985119Y-96454819D01*
X78985119Y-95883390D02*
X79032738Y-95835771D01*
X79032738Y-95835771D02*
X79127976Y-95788152D01*
X79127976Y-95788152D02*
X79270833Y-95788152D01*
X79270833Y-95788152D02*
X79366071Y-95835771D01*
X79366071Y-95835771D02*
X79413690Y-95931009D01*
X79413690Y-95931009D02*
X79413690Y-96454819D01*
X79651786Y-96550057D02*
X80413690Y-96550057D01*
X81223214Y-96359580D02*
X81175595Y-96407200D01*
X81175595Y-96407200D02*
X81032738Y-96454819D01*
X81032738Y-96454819D02*
X80937500Y-96454819D01*
X80937500Y-96454819D02*
X80794643Y-96407200D01*
X80794643Y-96407200D02*
X80699405Y-96311961D01*
X80699405Y-96311961D02*
X80651786Y-96216723D01*
X80651786Y-96216723D02*
X80604167Y-96026247D01*
X80604167Y-96026247D02*
X80604167Y-95883390D01*
X80604167Y-95883390D02*
X80651786Y-95692914D01*
X80651786Y-95692914D02*
X80699405Y-95597676D01*
X80699405Y-95597676D02*
X80794643Y-95502438D01*
X80794643Y-95502438D02*
X80937500Y-95454819D01*
X80937500Y-95454819D02*
X81032738Y-95454819D01*
X81032738Y-95454819D02*
X81175595Y-95502438D01*
X81175595Y-95502438D02*
X81223214Y-95550057D01*
X81794643Y-96454819D02*
X81699405Y-96407200D01*
X81699405Y-96407200D02*
X81651786Y-96359580D01*
X81651786Y-96359580D02*
X81604167Y-96264342D01*
X81604167Y-96264342D02*
X81604167Y-95978628D01*
X81604167Y-95978628D02*
X81651786Y-95883390D01*
X81651786Y-95883390D02*
X81699405Y-95835771D01*
X81699405Y-95835771D02*
X81794643Y-95788152D01*
X81794643Y-95788152D02*
X81937500Y-95788152D01*
X81937500Y-95788152D02*
X82032738Y-95835771D01*
X82032738Y-95835771D02*
X82080357Y-95883390D01*
X82080357Y-95883390D02*
X82127976Y-95978628D01*
X82127976Y-95978628D02*
X82127976Y-96264342D01*
X82127976Y-96264342D02*
X82080357Y-96359580D01*
X82080357Y-96359580D02*
X82032738Y-96407200D01*
X82032738Y-96407200D02*
X81937500Y-96454819D01*
X81937500Y-96454819D02*
X81794643Y-96454819D01*
X82985119Y-96454819D02*
X82985119Y-95931009D01*
X82985119Y-95931009D02*
X82937500Y-95835771D01*
X82937500Y-95835771D02*
X82842262Y-95788152D01*
X82842262Y-95788152D02*
X82651786Y-95788152D01*
X82651786Y-95788152D02*
X82556548Y-95835771D01*
X82985119Y-96407200D02*
X82889881Y-96454819D01*
X82889881Y-96454819D02*
X82651786Y-96454819D01*
X82651786Y-96454819D02*
X82556548Y-96407200D01*
X82556548Y-96407200D02*
X82508929Y-96311961D01*
X82508929Y-96311961D02*
X82508929Y-96216723D01*
X82508929Y-96216723D02*
X82556548Y-96121485D01*
X82556548Y-96121485D02*
X82651786Y-96073866D01*
X82651786Y-96073866D02*
X82889881Y-96073866D01*
X82889881Y-96073866D02*
X82985119Y-96026247D01*
X83366072Y-96454819D02*
X83889881Y-95788152D01*
X83366072Y-95788152D02*
X83889881Y-96454819D01*
X84270834Y-96454819D02*
X84270834Y-95788152D01*
X84270834Y-95454819D02*
X84223215Y-95502438D01*
X84223215Y-95502438D02*
X84270834Y-95550057D01*
X84270834Y-95550057D02*
X84318453Y-95502438D01*
X84318453Y-95502438D02*
X84270834Y-95454819D01*
X84270834Y-95454819D02*
X84270834Y-95550057D01*
X85175595Y-96454819D02*
X85175595Y-95931009D01*
X85175595Y-95931009D02*
X85127976Y-95835771D01*
X85127976Y-95835771D02*
X85032738Y-95788152D01*
X85032738Y-95788152D02*
X84842262Y-95788152D01*
X84842262Y-95788152D02*
X84747024Y-95835771D01*
X85175595Y-96407200D02*
X85080357Y-96454819D01*
X85080357Y-96454819D02*
X84842262Y-96454819D01*
X84842262Y-96454819D02*
X84747024Y-96407200D01*
X84747024Y-96407200D02*
X84699405Y-96311961D01*
X84699405Y-96311961D02*
X84699405Y-96216723D01*
X84699405Y-96216723D02*
X84747024Y-96121485D01*
X84747024Y-96121485D02*
X84842262Y-96073866D01*
X84842262Y-96073866D02*
X85080357Y-96073866D01*
X85080357Y-96073866D02*
X85175595Y-96026247D01*
X85794643Y-96454819D02*
X85699405Y-96407200D01*
X85699405Y-96407200D02*
X85651786Y-96311961D01*
X85651786Y-96311961D02*
X85651786Y-95454819D01*
X80182319Y-90333333D02*
X80896604Y-90333333D01*
X80896604Y-90333333D02*
X81039461Y-90380952D01*
X81039461Y-90380952D02*
X81134700Y-90476190D01*
X81134700Y-90476190D02*
X81182319Y-90619047D01*
X81182319Y-90619047D02*
X81182319Y-90714285D01*
X80182319Y-89952380D02*
X80182319Y-89333333D01*
X80182319Y-89333333D02*
X80563271Y-89666666D01*
X80563271Y-89666666D02*
X80563271Y-89523809D01*
X80563271Y-89523809D02*
X80610890Y-89428571D01*
X80610890Y-89428571D02*
X80658509Y-89380952D01*
X80658509Y-89380952D02*
X80753747Y-89333333D01*
X80753747Y-89333333D02*
X80991842Y-89333333D01*
X80991842Y-89333333D02*
X81087080Y-89380952D01*
X81087080Y-89380952D02*
X81134700Y-89428571D01*
X81134700Y-89428571D02*
X81182319Y-89523809D01*
X81182319Y-89523809D02*
X81182319Y-89809523D01*
X81182319Y-89809523D02*
X81134700Y-89904761D01*
X81134700Y-89904761D02*
X81087080Y-89952380D01*
X76747023Y-116359580D02*
X76699404Y-116407200D01*
X76699404Y-116407200D02*
X76556547Y-116454819D01*
X76556547Y-116454819D02*
X76461309Y-116454819D01*
X76461309Y-116454819D02*
X76318452Y-116407200D01*
X76318452Y-116407200D02*
X76223214Y-116311961D01*
X76223214Y-116311961D02*
X76175595Y-116216723D01*
X76175595Y-116216723D02*
X76127976Y-116026247D01*
X76127976Y-116026247D02*
X76127976Y-115883390D01*
X76127976Y-115883390D02*
X76175595Y-115692914D01*
X76175595Y-115692914D02*
X76223214Y-115597676D01*
X76223214Y-115597676D02*
X76318452Y-115502438D01*
X76318452Y-115502438D02*
X76461309Y-115454819D01*
X76461309Y-115454819D02*
X76556547Y-115454819D01*
X76556547Y-115454819D02*
X76699404Y-115502438D01*
X76699404Y-115502438D02*
X76747023Y-115550057D01*
X77318452Y-116454819D02*
X77223214Y-116407200D01*
X77223214Y-116407200D02*
X77175595Y-116359580D01*
X77175595Y-116359580D02*
X77127976Y-116264342D01*
X77127976Y-116264342D02*
X77127976Y-115978628D01*
X77127976Y-115978628D02*
X77175595Y-115883390D01*
X77175595Y-115883390D02*
X77223214Y-115835771D01*
X77223214Y-115835771D02*
X77318452Y-115788152D01*
X77318452Y-115788152D02*
X77461309Y-115788152D01*
X77461309Y-115788152D02*
X77556547Y-115835771D01*
X77556547Y-115835771D02*
X77604166Y-115883390D01*
X77604166Y-115883390D02*
X77651785Y-115978628D01*
X77651785Y-115978628D02*
X77651785Y-116264342D01*
X77651785Y-116264342D02*
X77604166Y-116359580D01*
X77604166Y-116359580D02*
X77556547Y-116407200D01*
X77556547Y-116407200D02*
X77461309Y-116454819D01*
X77461309Y-116454819D02*
X77318452Y-116454819D01*
X78080357Y-115788152D02*
X78080357Y-116454819D01*
X78080357Y-115883390D02*
X78127976Y-115835771D01*
X78127976Y-115835771D02*
X78223214Y-115788152D01*
X78223214Y-115788152D02*
X78366071Y-115788152D01*
X78366071Y-115788152D02*
X78461309Y-115835771D01*
X78461309Y-115835771D02*
X78508928Y-115931009D01*
X78508928Y-115931009D02*
X78508928Y-116454819D01*
X78985119Y-115788152D02*
X78985119Y-116454819D01*
X78985119Y-115883390D02*
X79032738Y-115835771D01*
X79032738Y-115835771D02*
X79127976Y-115788152D01*
X79127976Y-115788152D02*
X79270833Y-115788152D01*
X79270833Y-115788152D02*
X79366071Y-115835771D01*
X79366071Y-115835771D02*
X79413690Y-115931009D01*
X79413690Y-115931009D02*
X79413690Y-116454819D01*
X79651786Y-116550057D02*
X80413690Y-116550057D01*
X81223214Y-116359580D02*
X81175595Y-116407200D01*
X81175595Y-116407200D02*
X81032738Y-116454819D01*
X81032738Y-116454819D02*
X80937500Y-116454819D01*
X80937500Y-116454819D02*
X80794643Y-116407200D01*
X80794643Y-116407200D02*
X80699405Y-116311961D01*
X80699405Y-116311961D02*
X80651786Y-116216723D01*
X80651786Y-116216723D02*
X80604167Y-116026247D01*
X80604167Y-116026247D02*
X80604167Y-115883390D01*
X80604167Y-115883390D02*
X80651786Y-115692914D01*
X80651786Y-115692914D02*
X80699405Y-115597676D01*
X80699405Y-115597676D02*
X80794643Y-115502438D01*
X80794643Y-115502438D02*
X80937500Y-115454819D01*
X80937500Y-115454819D02*
X81032738Y-115454819D01*
X81032738Y-115454819D02*
X81175595Y-115502438D01*
X81175595Y-115502438D02*
X81223214Y-115550057D01*
X81794643Y-116454819D02*
X81699405Y-116407200D01*
X81699405Y-116407200D02*
X81651786Y-116359580D01*
X81651786Y-116359580D02*
X81604167Y-116264342D01*
X81604167Y-116264342D02*
X81604167Y-115978628D01*
X81604167Y-115978628D02*
X81651786Y-115883390D01*
X81651786Y-115883390D02*
X81699405Y-115835771D01*
X81699405Y-115835771D02*
X81794643Y-115788152D01*
X81794643Y-115788152D02*
X81937500Y-115788152D01*
X81937500Y-115788152D02*
X82032738Y-115835771D01*
X82032738Y-115835771D02*
X82080357Y-115883390D01*
X82080357Y-115883390D02*
X82127976Y-115978628D01*
X82127976Y-115978628D02*
X82127976Y-116264342D01*
X82127976Y-116264342D02*
X82080357Y-116359580D01*
X82080357Y-116359580D02*
X82032738Y-116407200D01*
X82032738Y-116407200D02*
X81937500Y-116454819D01*
X81937500Y-116454819D02*
X81794643Y-116454819D01*
X82985119Y-116454819D02*
X82985119Y-115931009D01*
X82985119Y-115931009D02*
X82937500Y-115835771D01*
X82937500Y-115835771D02*
X82842262Y-115788152D01*
X82842262Y-115788152D02*
X82651786Y-115788152D01*
X82651786Y-115788152D02*
X82556548Y-115835771D01*
X82985119Y-116407200D02*
X82889881Y-116454819D01*
X82889881Y-116454819D02*
X82651786Y-116454819D01*
X82651786Y-116454819D02*
X82556548Y-116407200D01*
X82556548Y-116407200D02*
X82508929Y-116311961D01*
X82508929Y-116311961D02*
X82508929Y-116216723D01*
X82508929Y-116216723D02*
X82556548Y-116121485D01*
X82556548Y-116121485D02*
X82651786Y-116073866D01*
X82651786Y-116073866D02*
X82889881Y-116073866D01*
X82889881Y-116073866D02*
X82985119Y-116026247D01*
X83366072Y-116454819D02*
X83889881Y-115788152D01*
X83366072Y-115788152D02*
X83889881Y-116454819D01*
X84270834Y-116454819D02*
X84270834Y-115788152D01*
X84270834Y-115454819D02*
X84223215Y-115502438D01*
X84223215Y-115502438D02*
X84270834Y-115550057D01*
X84270834Y-115550057D02*
X84318453Y-115502438D01*
X84318453Y-115502438D02*
X84270834Y-115454819D01*
X84270834Y-115454819D02*
X84270834Y-115550057D01*
X85175595Y-116454819D02*
X85175595Y-115931009D01*
X85175595Y-115931009D02*
X85127976Y-115835771D01*
X85127976Y-115835771D02*
X85032738Y-115788152D01*
X85032738Y-115788152D02*
X84842262Y-115788152D01*
X84842262Y-115788152D02*
X84747024Y-115835771D01*
X85175595Y-116407200D02*
X85080357Y-116454819D01*
X85080357Y-116454819D02*
X84842262Y-116454819D01*
X84842262Y-116454819D02*
X84747024Y-116407200D01*
X84747024Y-116407200D02*
X84699405Y-116311961D01*
X84699405Y-116311961D02*
X84699405Y-116216723D01*
X84699405Y-116216723D02*
X84747024Y-116121485D01*
X84747024Y-116121485D02*
X84842262Y-116073866D01*
X84842262Y-116073866D02*
X85080357Y-116073866D01*
X85080357Y-116073866D02*
X85175595Y-116026247D01*
X85794643Y-116454819D02*
X85699405Y-116407200D01*
X85699405Y-116407200D02*
X85651786Y-116311961D01*
X85651786Y-116311961D02*
X85651786Y-115454819D01*
X80182319Y-110333333D02*
X80896604Y-110333333D01*
X80896604Y-110333333D02*
X81039461Y-110380952D01*
X81039461Y-110380952D02*
X81134700Y-110476190D01*
X81134700Y-110476190D02*
X81182319Y-110619047D01*
X81182319Y-110619047D02*
X81182319Y-110714285D01*
X80277557Y-109904761D02*
X80229938Y-109857142D01*
X80229938Y-109857142D02*
X80182319Y-109761904D01*
X80182319Y-109761904D02*
X80182319Y-109523809D01*
X80182319Y-109523809D02*
X80229938Y-109428571D01*
X80229938Y-109428571D02*
X80277557Y-109380952D01*
X80277557Y-109380952D02*
X80372795Y-109333333D01*
X80372795Y-109333333D02*
X80468033Y-109333333D01*
X80468033Y-109333333D02*
X80610890Y-109380952D01*
X80610890Y-109380952D02*
X81182319Y-109952380D01*
X81182319Y-109952380D02*
X81182319Y-109333333D01*
X68633333Y-105654819D02*
X68061905Y-105654819D01*
X68347619Y-105654819D02*
X68347619Y-104654819D01*
X68347619Y-104654819D02*
X68252381Y-104797676D01*
X68252381Y-104797676D02*
X68157143Y-104892914D01*
X68157143Y-104892914D02*
X68061905Y-104940533D01*
X69061905Y-104988152D02*
X69061905Y-105654819D01*
X69061905Y-105083390D02*
X69109524Y-105035771D01*
X69109524Y-105035771D02*
X69204762Y-104988152D01*
X69204762Y-104988152D02*
X69347619Y-104988152D01*
X69347619Y-104988152D02*
X69442857Y-105035771D01*
X69442857Y-105035771D02*
X69490476Y-105131009D01*
X69490476Y-105131009D02*
X69490476Y-105654819D01*
D16*
X69403333Y-103879765D02*
X69391429Y-103891670D01*
X69391429Y-103891670D02*
X69355714Y-103903574D01*
X69355714Y-103903574D02*
X69331905Y-103903574D01*
X69331905Y-103903574D02*
X69296191Y-103891670D01*
X69296191Y-103891670D02*
X69272381Y-103867860D01*
X69272381Y-103867860D02*
X69260476Y-103844050D01*
X69260476Y-103844050D02*
X69248572Y-103796431D01*
X69248572Y-103796431D02*
X69248572Y-103760717D01*
X69248572Y-103760717D02*
X69260476Y-103713098D01*
X69260476Y-103713098D02*
X69272381Y-103689289D01*
X69272381Y-103689289D02*
X69296191Y-103665479D01*
X69296191Y-103665479D02*
X69331905Y-103653574D01*
X69331905Y-103653574D02*
X69355714Y-103653574D01*
X69355714Y-103653574D02*
X69391429Y-103665479D01*
X69391429Y-103665479D02*
X69403333Y-103677384D01*
X69486667Y-103653574D02*
X69641429Y-103653574D01*
X69641429Y-103653574D02*
X69558095Y-103748812D01*
X69558095Y-103748812D02*
X69593810Y-103748812D01*
X69593810Y-103748812D02*
X69617619Y-103760717D01*
X69617619Y-103760717D02*
X69629524Y-103772622D01*
X69629524Y-103772622D02*
X69641429Y-103796431D01*
X69641429Y-103796431D02*
X69641429Y-103855955D01*
X69641429Y-103855955D02*
X69629524Y-103879765D01*
X69629524Y-103879765D02*
X69617619Y-103891670D01*
X69617619Y-103891670D02*
X69593810Y-103903574D01*
X69593810Y-103903574D02*
X69522381Y-103903574D01*
X69522381Y-103903574D02*
X69498572Y-103891670D01*
X69498572Y-103891670D02*
X69486667Y-103879765D01*
D10*
X62774819Y-93565595D02*
X62774819Y-94041785D01*
X62774819Y-94041785D02*
X63251009Y-94089404D01*
X63251009Y-94089404D02*
X63203390Y-94041785D01*
X63203390Y-94041785D02*
X63155771Y-93946547D01*
X63155771Y-93946547D02*
X63155771Y-93708452D01*
X63155771Y-93708452D02*
X63203390Y-93613214D01*
X63203390Y-93613214D02*
X63251009Y-93565595D01*
X63251009Y-93565595D02*
X63346247Y-93517976D01*
X63346247Y-93517976D02*
X63584342Y-93517976D01*
X63584342Y-93517976D02*
X63679580Y-93565595D01*
X63679580Y-93565595D02*
X63727200Y-93613214D01*
X63727200Y-93613214D02*
X63774819Y-93708452D01*
X63774819Y-93708452D02*
X63774819Y-93946547D01*
X63774819Y-93946547D02*
X63727200Y-94041785D01*
X63727200Y-94041785D02*
X63679580Y-94089404D01*
X63774819Y-92565595D02*
X63774819Y-93137023D01*
X63774819Y-92851309D02*
X62774819Y-92851309D01*
X62774819Y-92851309D02*
X62917676Y-92946547D01*
X62917676Y-92946547D02*
X63012914Y-93041785D01*
X63012914Y-93041785D02*
X63060533Y-93137023D01*
X63774819Y-91565595D02*
X63298628Y-91898928D01*
X63774819Y-92137023D02*
X62774819Y-92137023D01*
X62774819Y-92137023D02*
X62774819Y-91756071D01*
X62774819Y-91756071D02*
X62822438Y-91660833D01*
X62822438Y-91660833D02*
X62870057Y-91613214D01*
X62870057Y-91613214D02*
X62965295Y-91565595D01*
X62965295Y-91565595D02*
X63108152Y-91565595D01*
X63108152Y-91565595D02*
X63203390Y-91613214D01*
X63203390Y-91613214D02*
X63251009Y-91660833D01*
X63251009Y-91660833D02*
X63298628Y-91756071D01*
X63298628Y-91756071D02*
X63298628Y-92137023D01*
D13*
X62071927Y-92894166D02*
X61881451Y-93027499D01*
X62071927Y-93122737D02*
X61671927Y-93122737D01*
X61671927Y-93122737D02*
X61671927Y-92970356D01*
X61671927Y-92970356D02*
X61690975Y-92932261D01*
X61690975Y-92932261D02*
X61710022Y-92913214D01*
X61710022Y-92913214D02*
X61748118Y-92894166D01*
X61748118Y-92894166D02*
X61805260Y-92894166D01*
X61805260Y-92894166D02*
X61843356Y-92913214D01*
X61843356Y-92913214D02*
X61862403Y-92932261D01*
X61862403Y-92932261D02*
X61881451Y-92970356D01*
X61881451Y-92970356D02*
X61881451Y-93122737D01*
X62071927Y-92703690D02*
X62071927Y-92627499D01*
X62071927Y-92627499D02*
X62052880Y-92589404D01*
X62052880Y-92589404D02*
X62033832Y-92570356D01*
X62033832Y-92570356D02*
X61976689Y-92532261D01*
X61976689Y-92532261D02*
X61900499Y-92513214D01*
X61900499Y-92513214D02*
X61748118Y-92513214D01*
X61748118Y-92513214D02*
X61710022Y-92532261D01*
X61710022Y-92532261D02*
X61690975Y-92551309D01*
X61690975Y-92551309D02*
X61671927Y-92589404D01*
X61671927Y-92589404D02*
X61671927Y-92665595D01*
X61671927Y-92665595D02*
X61690975Y-92703690D01*
X61690975Y-92703690D02*
X61710022Y-92722737D01*
X61710022Y-92722737D02*
X61748118Y-92741785D01*
X61748118Y-92741785D02*
X61843356Y-92741785D01*
X61843356Y-92741785D02*
X61881451Y-92722737D01*
X61881451Y-92722737D02*
X61900499Y-92703690D01*
X61900499Y-92703690D02*
X61919546Y-92665595D01*
X61919546Y-92665595D02*
X61919546Y-92589404D01*
X61919546Y-92589404D02*
X61900499Y-92551309D01*
X61900499Y-92551309D02*
X61881451Y-92532261D01*
X61881451Y-92532261D02*
X61843356Y-92513214D01*
D10*
X68830952Y-104154819D02*
X68259524Y-104154819D01*
X68545238Y-104154819D02*
X68545238Y-103154819D01*
X68545238Y-103154819D02*
X68450000Y-103297676D01*
X68450000Y-103297676D02*
X68354762Y-103392914D01*
X68354762Y-103392914D02*
X68259524Y-103440533D01*
X69450000Y-103154819D02*
X69545238Y-103154819D01*
X69545238Y-103154819D02*
X69640476Y-103202438D01*
X69640476Y-103202438D02*
X69688095Y-103250057D01*
X69688095Y-103250057D02*
X69735714Y-103345295D01*
X69735714Y-103345295D02*
X69783333Y-103535771D01*
X69783333Y-103535771D02*
X69783333Y-103773866D01*
X69783333Y-103773866D02*
X69735714Y-103964342D01*
X69735714Y-103964342D02*
X69688095Y-104059580D01*
X69688095Y-104059580D02*
X69640476Y-104107200D01*
X69640476Y-104107200D02*
X69545238Y-104154819D01*
X69545238Y-104154819D02*
X69450000Y-104154819D01*
X69450000Y-104154819D02*
X69354762Y-104107200D01*
X69354762Y-104107200D02*
X69307143Y-104059580D01*
X69307143Y-104059580D02*
X69259524Y-103964342D01*
X69259524Y-103964342D02*
X69211905Y-103773866D01*
X69211905Y-103773866D02*
X69211905Y-103535771D01*
X69211905Y-103535771D02*
X69259524Y-103345295D01*
X69259524Y-103345295D02*
X69307143Y-103250057D01*
X69307143Y-103250057D02*
X69354762Y-103202438D01*
X69354762Y-103202438D02*
X69450000Y-103154819D01*
X70402381Y-103154819D02*
X70497619Y-103154819D01*
X70497619Y-103154819D02*
X70592857Y-103202438D01*
X70592857Y-103202438D02*
X70640476Y-103250057D01*
X70640476Y-103250057D02*
X70688095Y-103345295D01*
X70688095Y-103345295D02*
X70735714Y-103535771D01*
X70735714Y-103535771D02*
X70735714Y-103773866D01*
X70735714Y-103773866D02*
X70688095Y-103964342D01*
X70688095Y-103964342D02*
X70640476Y-104059580D01*
X70640476Y-104059580D02*
X70592857Y-104107200D01*
X70592857Y-104107200D02*
X70497619Y-104154819D01*
X70497619Y-104154819D02*
X70402381Y-104154819D01*
X70402381Y-104154819D02*
X70307143Y-104107200D01*
X70307143Y-104107200D02*
X70259524Y-104059580D01*
X70259524Y-104059580D02*
X70211905Y-103964342D01*
X70211905Y-103964342D02*
X70164286Y-103773866D01*
X70164286Y-103773866D02*
X70164286Y-103535771D01*
X70164286Y-103535771D02*
X70211905Y-103345295D01*
X70211905Y-103345295D02*
X70259524Y-103250057D01*
X70259524Y-103250057D02*
X70307143Y-103202438D01*
X70307143Y-103202438D02*
X70402381Y-103154819D01*
X71164286Y-103488152D02*
X71164286Y-104154819D01*
X71164286Y-103583390D02*
X71211905Y-103535771D01*
X71211905Y-103535771D02*
X71307143Y-103488152D01*
X71307143Y-103488152D02*
X71450000Y-103488152D01*
X71450000Y-103488152D02*
X71545238Y-103535771D01*
X71545238Y-103535771D02*
X71592857Y-103631009D01*
X71592857Y-103631009D02*
X71592857Y-104154819D01*
D13*
X66115833Y-103773832D02*
X66096785Y-103792880D01*
X66096785Y-103792880D02*
X66039643Y-103811927D01*
X66039643Y-103811927D02*
X66001547Y-103811927D01*
X66001547Y-103811927D02*
X65944404Y-103792880D01*
X65944404Y-103792880D02*
X65906309Y-103754784D01*
X65906309Y-103754784D02*
X65887262Y-103716689D01*
X65887262Y-103716689D02*
X65868214Y-103640499D01*
X65868214Y-103640499D02*
X65868214Y-103583356D01*
X65868214Y-103583356D02*
X65887262Y-103507165D01*
X65887262Y-103507165D02*
X65906309Y-103469070D01*
X65906309Y-103469070D02*
X65944404Y-103430975D01*
X65944404Y-103430975D02*
X66001547Y-103411927D01*
X66001547Y-103411927D02*
X66039643Y-103411927D01*
X66039643Y-103411927D02*
X66096785Y-103430975D01*
X66096785Y-103430975D02*
X66115833Y-103450022D01*
X66458690Y-103545260D02*
X66458690Y-103811927D01*
X66363452Y-103392880D02*
X66268214Y-103678594D01*
X66268214Y-103678594D02*
X66515833Y-103678594D01*
D10*
X54438095Y-102350057D02*
X54485714Y-102302438D01*
X54485714Y-102302438D02*
X54580952Y-102254819D01*
X54580952Y-102254819D02*
X54819047Y-102254819D01*
X54819047Y-102254819D02*
X54914285Y-102302438D01*
X54914285Y-102302438D02*
X54961904Y-102350057D01*
X54961904Y-102350057D02*
X55009523Y-102445295D01*
X55009523Y-102445295D02*
X55009523Y-102540533D01*
X55009523Y-102540533D02*
X54961904Y-102683390D01*
X54961904Y-102683390D02*
X54390476Y-103254819D01*
X54390476Y-103254819D02*
X55009523Y-103254819D01*
X55342857Y-102254819D02*
X56009523Y-102254819D01*
X56009523Y-102254819D02*
X55580952Y-103254819D01*
X56961904Y-103254819D02*
X56628571Y-102778628D01*
X56390476Y-103254819D02*
X56390476Y-102254819D01*
X56390476Y-102254819D02*
X56771428Y-102254819D01*
X56771428Y-102254819D02*
X56866666Y-102302438D01*
X56866666Y-102302438D02*
X56914285Y-102350057D01*
X56914285Y-102350057D02*
X56961904Y-102445295D01*
X56961904Y-102445295D02*
X56961904Y-102588152D01*
X56961904Y-102588152D02*
X56914285Y-102683390D01*
X56914285Y-102683390D02*
X56866666Y-102731009D01*
X56866666Y-102731009D02*
X56771428Y-102778628D01*
X56771428Y-102778628D02*
X56390476Y-102778628D01*
D13*
X60618333Y-101191927D02*
X60485000Y-101001451D01*
X60389762Y-101191927D02*
X60389762Y-100791927D01*
X60389762Y-100791927D02*
X60542143Y-100791927D01*
X60542143Y-100791927D02*
X60580238Y-100810975D01*
X60580238Y-100810975D02*
X60599285Y-100830022D01*
X60599285Y-100830022D02*
X60618333Y-100868118D01*
X60618333Y-100868118D02*
X60618333Y-100925260D01*
X60618333Y-100925260D02*
X60599285Y-100963356D01*
X60599285Y-100963356D02*
X60580238Y-100982403D01*
X60580238Y-100982403D02*
X60542143Y-101001451D01*
X60542143Y-101001451D02*
X60389762Y-101001451D01*
X60770714Y-100830022D02*
X60789762Y-100810975D01*
X60789762Y-100810975D02*
X60827857Y-100791927D01*
X60827857Y-100791927D02*
X60923095Y-100791927D01*
X60923095Y-100791927D02*
X60961190Y-100810975D01*
X60961190Y-100810975D02*
X60980238Y-100830022D01*
X60980238Y-100830022D02*
X60999285Y-100868118D01*
X60999285Y-100868118D02*
X60999285Y-100906213D01*
X60999285Y-100906213D02*
X60980238Y-100963356D01*
X60980238Y-100963356D02*
X60751666Y-101191927D01*
X60751666Y-101191927D02*
X60999285Y-101191927D01*
D10*
X56933333Y-96054819D02*
X56361905Y-96054819D01*
X56647619Y-96054819D02*
X56647619Y-95054819D01*
X56647619Y-95054819D02*
X56552381Y-95197676D01*
X56552381Y-95197676D02*
X56457143Y-95292914D01*
X56457143Y-95292914D02*
X56361905Y-95340533D01*
X57361905Y-95388152D02*
X57361905Y-96054819D01*
X57361905Y-95483390D02*
X57409524Y-95435771D01*
X57409524Y-95435771D02*
X57504762Y-95388152D01*
X57504762Y-95388152D02*
X57647619Y-95388152D01*
X57647619Y-95388152D02*
X57742857Y-95435771D01*
X57742857Y-95435771D02*
X57790476Y-95531009D01*
X57790476Y-95531009D02*
X57790476Y-96054819D01*
D16*
X59440833Y-95939765D02*
X59428929Y-95951670D01*
X59428929Y-95951670D02*
X59393214Y-95963574D01*
X59393214Y-95963574D02*
X59369405Y-95963574D01*
X59369405Y-95963574D02*
X59333691Y-95951670D01*
X59333691Y-95951670D02*
X59309881Y-95927860D01*
X59309881Y-95927860D02*
X59297976Y-95904050D01*
X59297976Y-95904050D02*
X59286072Y-95856431D01*
X59286072Y-95856431D02*
X59286072Y-95820717D01*
X59286072Y-95820717D02*
X59297976Y-95773098D01*
X59297976Y-95773098D02*
X59309881Y-95749289D01*
X59309881Y-95749289D02*
X59333691Y-95725479D01*
X59333691Y-95725479D02*
X59369405Y-95713574D01*
X59369405Y-95713574D02*
X59393214Y-95713574D01*
X59393214Y-95713574D02*
X59428929Y-95725479D01*
X59428929Y-95725479D02*
X59440833Y-95737384D01*
X59524167Y-95713574D02*
X59690833Y-95713574D01*
X59690833Y-95713574D02*
X59583691Y-95963574D01*
D10*
X56133333Y-105954819D02*
X55561905Y-105954819D01*
X55847619Y-105954819D02*
X55847619Y-104954819D01*
X55847619Y-104954819D02*
X55752381Y-105097676D01*
X55752381Y-105097676D02*
X55657143Y-105192914D01*
X55657143Y-105192914D02*
X55561905Y-105240533D01*
X56561905Y-105288152D02*
X56561905Y-105954819D01*
X56561905Y-105383390D02*
X56609524Y-105335771D01*
X56609524Y-105335771D02*
X56704762Y-105288152D01*
X56704762Y-105288152D02*
X56847619Y-105288152D01*
X56847619Y-105288152D02*
X56942857Y-105335771D01*
X56942857Y-105335771D02*
X56990476Y-105431009D01*
X56990476Y-105431009D02*
X56990476Y-105954819D01*
D16*
X58890833Y-105789765D02*
X58878929Y-105801670D01*
X58878929Y-105801670D02*
X58843214Y-105813574D01*
X58843214Y-105813574D02*
X58819405Y-105813574D01*
X58819405Y-105813574D02*
X58783691Y-105801670D01*
X58783691Y-105801670D02*
X58759881Y-105777860D01*
X58759881Y-105777860D02*
X58747976Y-105754050D01*
X58747976Y-105754050D02*
X58736072Y-105706431D01*
X58736072Y-105706431D02*
X58736072Y-105670717D01*
X58736072Y-105670717D02*
X58747976Y-105623098D01*
X58747976Y-105623098D02*
X58759881Y-105599289D01*
X58759881Y-105599289D02*
X58783691Y-105575479D01*
X58783691Y-105575479D02*
X58819405Y-105563574D01*
X58819405Y-105563574D02*
X58843214Y-105563574D01*
X58843214Y-105563574D02*
X58878929Y-105575479D01*
X58878929Y-105575479D02*
X58890833Y-105587384D01*
X59128929Y-105813574D02*
X58986072Y-105813574D01*
X59057500Y-105813574D02*
X59057500Y-105563574D01*
X59057500Y-105563574D02*
X59033691Y-105599289D01*
X59033691Y-105599289D02*
X59009881Y-105623098D01*
X59009881Y-105623098D02*
X58986072Y-105635003D01*
D10*
X55580952Y-108154819D02*
X55009524Y-108154819D01*
X55295238Y-108154819D02*
X55295238Y-107154819D01*
X55295238Y-107154819D02*
X55200000Y-107297676D01*
X55200000Y-107297676D02*
X55104762Y-107392914D01*
X55104762Y-107392914D02*
X55009524Y-107440533D01*
X56200000Y-107154819D02*
X56295238Y-107154819D01*
X56295238Y-107154819D02*
X56390476Y-107202438D01*
X56390476Y-107202438D02*
X56438095Y-107250057D01*
X56438095Y-107250057D02*
X56485714Y-107345295D01*
X56485714Y-107345295D02*
X56533333Y-107535771D01*
X56533333Y-107535771D02*
X56533333Y-107773866D01*
X56533333Y-107773866D02*
X56485714Y-107964342D01*
X56485714Y-107964342D02*
X56438095Y-108059580D01*
X56438095Y-108059580D02*
X56390476Y-108107200D01*
X56390476Y-108107200D02*
X56295238Y-108154819D01*
X56295238Y-108154819D02*
X56200000Y-108154819D01*
X56200000Y-108154819D02*
X56104762Y-108107200D01*
X56104762Y-108107200D02*
X56057143Y-108059580D01*
X56057143Y-108059580D02*
X56009524Y-107964342D01*
X56009524Y-107964342D02*
X55961905Y-107773866D01*
X55961905Y-107773866D02*
X55961905Y-107535771D01*
X55961905Y-107535771D02*
X56009524Y-107345295D01*
X56009524Y-107345295D02*
X56057143Y-107250057D01*
X56057143Y-107250057D02*
X56104762Y-107202438D01*
X56104762Y-107202438D02*
X56200000Y-107154819D01*
X57152381Y-107154819D02*
X57247619Y-107154819D01*
X57247619Y-107154819D02*
X57342857Y-107202438D01*
X57342857Y-107202438D02*
X57390476Y-107250057D01*
X57390476Y-107250057D02*
X57438095Y-107345295D01*
X57438095Y-107345295D02*
X57485714Y-107535771D01*
X57485714Y-107535771D02*
X57485714Y-107773866D01*
X57485714Y-107773866D02*
X57438095Y-107964342D01*
X57438095Y-107964342D02*
X57390476Y-108059580D01*
X57390476Y-108059580D02*
X57342857Y-108107200D01*
X57342857Y-108107200D02*
X57247619Y-108154819D01*
X57247619Y-108154819D02*
X57152381Y-108154819D01*
X57152381Y-108154819D02*
X57057143Y-108107200D01*
X57057143Y-108107200D02*
X57009524Y-108059580D01*
X57009524Y-108059580D02*
X56961905Y-107964342D01*
X56961905Y-107964342D02*
X56914286Y-107773866D01*
X56914286Y-107773866D02*
X56914286Y-107535771D01*
X56914286Y-107535771D02*
X56961905Y-107345295D01*
X56961905Y-107345295D02*
X57009524Y-107250057D01*
X57009524Y-107250057D02*
X57057143Y-107202438D01*
X57057143Y-107202438D02*
X57152381Y-107154819D01*
X57914286Y-107488152D02*
X57914286Y-108154819D01*
X57914286Y-107583390D02*
X57961905Y-107535771D01*
X57961905Y-107535771D02*
X58057143Y-107488152D01*
X58057143Y-107488152D02*
X58200000Y-107488152D01*
X58200000Y-107488152D02*
X58295238Y-107535771D01*
X58295238Y-107535771D02*
X58342857Y-107631009D01*
X58342857Y-107631009D02*
X58342857Y-108154819D01*
D13*
X60093333Y-107883832D02*
X60074285Y-107902880D01*
X60074285Y-107902880D02*
X60017143Y-107921927D01*
X60017143Y-107921927D02*
X59979047Y-107921927D01*
X59979047Y-107921927D02*
X59921904Y-107902880D01*
X59921904Y-107902880D02*
X59883809Y-107864784D01*
X59883809Y-107864784D02*
X59864762Y-107826689D01*
X59864762Y-107826689D02*
X59845714Y-107750499D01*
X59845714Y-107750499D02*
X59845714Y-107693356D01*
X59845714Y-107693356D02*
X59864762Y-107617165D01*
X59864762Y-107617165D02*
X59883809Y-107579070D01*
X59883809Y-107579070D02*
X59921904Y-107540975D01*
X59921904Y-107540975D02*
X59979047Y-107521927D01*
X59979047Y-107521927D02*
X60017143Y-107521927D01*
X60017143Y-107521927D02*
X60074285Y-107540975D01*
X60074285Y-107540975D02*
X60093333Y-107560022D01*
X60245714Y-107560022D02*
X60264762Y-107540975D01*
X60264762Y-107540975D02*
X60302857Y-107521927D01*
X60302857Y-107521927D02*
X60398095Y-107521927D01*
X60398095Y-107521927D02*
X60436190Y-107540975D01*
X60436190Y-107540975D02*
X60455238Y-107560022D01*
X60455238Y-107560022D02*
X60474285Y-107598118D01*
X60474285Y-107598118D02*
X60474285Y-107636213D01*
X60474285Y-107636213D02*
X60455238Y-107693356D01*
X60455238Y-107693356D02*
X60226666Y-107921927D01*
X60226666Y-107921927D02*
X60474285Y-107921927D01*
D10*
X53754820Y-84080357D02*
X53754820Y-84651785D01*
X53754820Y-84366071D02*
X52754820Y-84366071D01*
X52754820Y-84366071D02*
X52897677Y-84461309D01*
X52897677Y-84461309D02*
X52992915Y-84556547D01*
X52992915Y-84556547D02*
X53040534Y-84651785D01*
X52754820Y-83461309D02*
X52754820Y-83366071D01*
X52754820Y-83366071D02*
X52802439Y-83270833D01*
X52802439Y-83270833D02*
X52850058Y-83223214D01*
X52850058Y-83223214D02*
X52945296Y-83175595D01*
X52945296Y-83175595D02*
X53135772Y-83127976D01*
X53135772Y-83127976D02*
X53373867Y-83127976D01*
X53373867Y-83127976D02*
X53564343Y-83175595D01*
X53564343Y-83175595D02*
X53659581Y-83223214D01*
X53659581Y-83223214D02*
X53707201Y-83270833D01*
X53707201Y-83270833D02*
X53754820Y-83366071D01*
X53754820Y-83366071D02*
X53754820Y-83461309D01*
X53754820Y-83461309D02*
X53707201Y-83556547D01*
X53707201Y-83556547D02*
X53659581Y-83604166D01*
X53659581Y-83604166D02*
X53564343Y-83651785D01*
X53564343Y-83651785D02*
X53373867Y-83699404D01*
X53373867Y-83699404D02*
X53135772Y-83699404D01*
X53135772Y-83699404D02*
X52945296Y-83651785D01*
X52945296Y-83651785D02*
X52850058Y-83604166D01*
X52850058Y-83604166D02*
X52802439Y-83556547D01*
X52802439Y-83556547D02*
X52754820Y-83461309D01*
X53088153Y-82270833D02*
X53754820Y-82270833D01*
X53088153Y-82699404D02*
X53611962Y-82699404D01*
X53611962Y-82699404D02*
X53707201Y-82651785D01*
X53707201Y-82651785D02*
X53754820Y-82556547D01*
X53754820Y-82556547D02*
X53754820Y-82413690D01*
X53754820Y-82413690D02*
X53707201Y-82318452D01*
X53707201Y-82318452D02*
X53659581Y-82270833D01*
D15*
X51287664Y-83951785D02*
X51325760Y-83989881D01*
X51325760Y-83989881D02*
X51363855Y-84104166D01*
X51363855Y-84104166D02*
X51363855Y-84180357D01*
X51363855Y-84180357D02*
X51325760Y-84294643D01*
X51325760Y-84294643D02*
X51249569Y-84370833D01*
X51249569Y-84370833D02*
X51173379Y-84408928D01*
X51173379Y-84408928D02*
X51020998Y-84447024D01*
X51020998Y-84447024D02*
X50906712Y-84447024D01*
X50906712Y-84447024D02*
X50754331Y-84408928D01*
X50754331Y-84408928D02*
X50678140Y-84370833D01*
X50678140Y-84370833D02*
X50601950Y-84294643D01*
X50601950Y-84294643D02*
X50563855Y-84180357D01*
X50563855Y-84180357D02*
X50563855Y-84104166D01*
X50563855Y-84104166D02*
X50601950Y-83989881D01*
X50601950Y-83989881D02*
X50640045Y-83951785D01*
X51363855Y-83189881D02*
X51363855Y-83647024D01*
X51363855Y-83418452D02*
X50563855Y-83418452D01*
X50563855Y-83418452D02*
X50678140Y-83494643D01*
X50678140Y-83494643D02*
X50754331Y-83570833D01*
X50754331Y-83570833D02*
X50792426Y-83647024D01*
X50563855Y-82694642D02*
X50563855Y-82618452D01*
X50563855Y-82618452D02*
X50601950Y-82542261D01*
X50601950Y-82542261D02*
X50640045Y-82504166D01*
X50640045Y-82504166D02*
X50716236Y-82466071D01*
X50716236Y-82466071D02*
X50868617Y-82427976D01*
X50868617Y-82427976D02*
X51059093Y-82427976D01*
X51059093Y-82427976D02*
X51211474Y-82466071D01*
X51211474Y-82466071D02*
X51287664Y-82504166D01*
X51287664Y-82504166D02*
X51325760Y-82542261D01*
X51325760Y-82542261D02*
X51363855Y-82618452D01*
X51363855Y-82618452D02*
X51363855Y-82694642D01*
X51363855Y-82694642D02*
X51325760Y-82770833D01*
X51325760Y-82770833D02*
X51287664Y-82808928D01*
X51287664Y-82808928D02*
X51211474Y-82847023D01*
X51211474Y-82847023D02*
X51059093Y-82885119D01*
X51059093Y-82885119D02*
X50868617Y-82885119D01*
X50868617Y-82885119D02*
X50716236Y-82847023D01*
X50716236Y-82847023D02*
X50640045Y-82808928D01*
X50640045Y-82808928D02*
X50601950Y-82770833D01*
X50601950Y-82770833D02*
X50563855Y-82694642D01*
D10*
X47187200Y-84073096D02*
X47234819Y-83930239D01*
X47234819Y-83930239D02*
X47234819Y-83692144D01*
X47234819Y-83692144D02*
X47187200Y-83596906D01*
X47187200Y-83596906D02*
X47139580Y-83549287D01*
X47139580Y-83549287D02*
X47044342Y-83501668D01*
X47044342Y-83501668D02*
X46949104Y-83501668D01*
X46949104Y-83501668D02*
X46853866Y-83549287D01*
X46853866Y-83549287D02*
X46806247Y-83596906D01*
X46806247Y-83596906D02*
X46758628Y-83692144D01*
X46758628Y-83692144D02*
X46711009Y-83882620D01*
X46711009Y-83882620D02*
X46663390Y-83977858D01*
X46663390Y-83977858D02*
X46615771Y-84025477D01*
X46615771Y-84025477D02*
X46520533Y-84073096D01*
X46520533Y-84073096D02*
X46425295Y-84073096D01*
X46425295Y-84073096D02*
X46330057Y-84025477D01*
X46330057Y-84025477D02*
X46282438Y-83977858D01*
X46282438Y-83977858D02*
X46234819Y-83882620D01*
X46234819Y-83882620D02*
X46234819Y-83644525D01*
X46234819Y-83644525D02*
X46282438Y-83501668D01*
X47187200Y-82644525D02*
X47234819Y-82739763D01*
X47234819Y-82739763D02*
X47234819Y-82930239D01*
X47234819Y-82930239D02*
X47187200Y-83025477D01*
X47187200Y-83025477D02*
X47139580Y-83073096D01*
X47139580Y-83073096D02*
X47044342Y-83120715D01*
X47044342Y-83120715D02*
X46758628Y-83120715D01*
X46758628Y-83120715D02*
X46663390Y-83073096D01*
X46663390Y-83073096D02*
X46615771Y-83025477D01*
X46615771Y-83025477D02*
X46568152Y-82930239D01*
X46568152Y-82930239D02*
X46568152Y-82739763D01*
X46568152Y-82739763D02*
X46615771Y-82644525D01*
X47234819Y-82215953D02*
X46568152Y-82215953D01*
X46758628Y-82215953D02*
X46663390Y-82168334D01*
X46663390Y-82168334D02*
X46615771Y-82120715D01*
X46615771Y-82120715D02*
X46568152Y-82025477D01*
X46568152Y-82025477D02*
X46568152Y-81930239D01*
X47187200Y-81215953D02*
X47234819Y-81311191D01*
X47234819Y-81311191D02*
X47234819Y-81501667D01*
X47234819Y-81501667D02*
X47187200Y-81596905D01*
X47187200Y-81596905D02*
X47091961Y-81644524D01*
X47091961Y-81644524D02*
X46711009Y-81644524D01*
X46711009Y-81644524D02*
X46615771Y-81596905D01*
X46615771Y-81596905D02*
X46568152Y-81501667D01*
X46568152Y-81501667D02*
X46568152Y-81311191D01*
X46568152Y-81311191D02*
X46615771Y-81215953D01*
X46615771Y-81215953D02*
X46711009Y-81168334D01*
X46711009Y-81168334D02*
X46806247Y-81168334D01*
X46806247Y-81168334D02*
X46901485Y-81644524D01*
X46568152Y-80835000D02*
X47234819Y-80644524D01*
X47234819Y-80644524D02*
X46758628Y-80454048D01*
X46758628Y-80454048D02*
X47234819Y-80263572D01*
X47234819Y-80263572D02*
X46568152Y-80073096D01*
X47330057Y-79930239D02*
X47330057Y-79168334D01*
X46234819Y-79073095D02*
X46234819Y-78501667D01*
X47234819Y-78787381D02*
X46234819Y-78787381D01*
X47187200Y-77787381D02*
X47234819Y-77882619D01*
X47234819Y-77882619D02*
X47234819Y-78073095D01*
X47234819Y-78073095D02*
X47187200Y-78168333D01*
X47187200Y-78168333D02*
X47091961Y-78215952D01*
X47091961Y-78215952D02*
X46711009Y-78215952D01*
X46711009Y-78215952D02*
X46615771Y-78168333D01*
X46615771Y-78168333D02*
X46568152Y-78073095D01*
X46568152Y-78073095D02*
X46568152Y-77882619D01*
X46568152Y-77882619D02*
X46615771Y-77787381D01*
X46615771Y-77787381D02*
X46711009Y-77739762D01*
X46711009Y-77739762D02*
X46806247Y-77739762D01*
X46806247Y-77739762D02*
X46901485Y-78215952D01*
X47234819Y-77311190D02*
X46568152Y-77311190D01*
X46758628Y-77311190D02*
X46663390Y-77263571D01*
X46663390Y-77263571D02*
X46615771Y-77215952D01*
X46615771Y-77215952D02*
X46568152Y-77120714D01*
X46568152Y-77120714D02*
X46568152Y-77025476D01*
X47234819Y-76692142D02*
X46568152Y-76692142D01*
X46663390Y-76692142D02*
X46615771Y-76644523D01*
X46615771Y-76644523D02*
X46568152Y-76549285D01*
X46568152Y-76549285D02*
X46568152Y-76406428D01*
X46568152Y-76406428D02*
X46615771Y-76311190D01*
X46615771Y-76311190D02*
X46711009Y-76263571D01*
X46711009Y-76263571D02*
X47234819Y-76263571D01*
X46711009Y-76263571D02*
X46615771Y-76215952D01*
X46615771Y-76215952D02*
X46568152Y-76120714D01*
X46568152Y-76120714D02*
X46568152Y-75977857D01*
X46568152Y-75977857D02*
X46615771Y-75882618D01*
X46615771Y-75882618D02*
X46711009Y-75834999D01*
X46711009Y-75834999D02*
X47234819Y-75834999D01*
X47234819Y-75358809D02*
X46568152Y-75358809D01*
X46234819Y-75358809D02*
X46282438Y-75406428D01*
X46282438Y-75406428D02*
X46330057Y-75358809D01*
X46330057Y-75358809D02*
X46282438Y-75311190D01*
X46282438Y-75311190D02*
X46234819Y-75358809D01*
X46234819Y-75358809D02*
X46330057Y-75358809D01*
X46568152Y-74882619D02*
X47234819Y-74882619D01*
X46663390Y-74882619D02*
X46615771Y-74835000D01*
X46615771Y-74835000D02*
X46568152Y-74739762D01*
X46568152Y-74739762D02*
X46568152Y-74596905D01*
X46568152Y-74596905D02*
X46615771Y-74501667D01*
X46615771Y-74501667D02*
X46711009Y-74454048D01*
X46711009Y-74454048D02*
X47234819Y-74454048D01*
X47234819Y-73549286D02*
X46711009Y-73549286D01*
X46711009Y-73549286D02*
X46615771Y-73596905D01*
X46615771Y-73596905D02*
X46568152Y-73692143D01*
X46568152Y-73692143D02*
X46568152Y-73882619D01*
X46568152Y-73882619D02*
X46615771Y-73977857D01*
X47187200Y-73549286D02*
X47234819Y-73644524D01*
X47234819Y-73644524D02*
X47234819Y-73882619D01*
X47234819Y-73882619D02*
X47187200Y-73977857D01*
X47187200Y-73977857D02*
X47091961Y-74025476D01*
X47091961Y-74025476D02*
X46996723Y-74025476D01*
X46996723Y-74025476D02*
X46901485Y-73977857D01*
X46901485Y-73977857D02*
X46853866Y-73882619D01*
X46853866Y-73882619D02*
X46853866Y-73644524D01*
X46853866Y-73644524D02*
X46806247Y-73549286D01*
X47234819Y-72930238D02*
X47187200Y-73025476D01*
X47187200Y-73025476D02*
X47091961Y-73073095D01*
X47091961Y-73073095D02*
X46234819Y-73073095D01*
X47330057Y-72787381D02*
X47330057Y-72025476D01*
X46234819Y-71596904D02*
X46234819Y-71501666D01*
X46234819Y-71501666D02*
X46282438Y-71406428D01*
X46282438Y-71406428D02*
X46330057Y-71358809D01*
X46330057Y-71358809D02*
X46425295Y-71311190D01*
X46425295Y-71311190D02*
X46615771Y-71263571D01*
X46615771Y-71263571D02*
X46853866Y-71263571D01*
X46853866Y-71263571D02*
X47044342Y-71311190D01*
X47044342Y-71311190D02*
X47139580Y-71358809D01*
X47139580Y-71358809D02*
X47187200Y-71406428D01*
X47187200Y-71406428D02*
X47234819Y-71501666D01*
X47234819Y-71501666D02*
X47234819Y-71596904D01*
X47234819Y-71596904D02*
X47187200Y-71692142D01*
X47187200Y-71692142D02*
X47139580Y-71739761D01*
X47139580Y-71739761D02*
X47044342Y-71787380D01*
X47044342Y-71787380D02*
X46853866Y-71834999D01*
X46853866Y-71834999D02*
X46615771Y-71834999D01*
X46615771Y-71834999D02*
X46425295Y-71787380D01*
X46425295Y-71787380D02*
X46330057Y-71739761D01*
X46330057Y-71739761D02*
X46282438Y-71692142D01*
X46282438Y-71692142D02*
X46234819Y-71596904D01*
X47234819Y-70311190D02*
X47234819Y-70882618D01*
X47234819Y-70596904D02*
X46234819Y-70596904D01*
X46234819Y-70596904D02*
X46377676Y-70692142D01*
X46377676Y-70692142D02*
X46472914Y-70787380D01*
X46472914Y-70787380D02*
X46520533Y-70882618D01*
X47234819Y-69977856D02*
X46568152Y-69454047D01*
X46568152Y-69977856D02*
X47234819Y-69454047D01*
X46234819Y-68882618D02*
X46234819Y-68787380D01*
X46234819Y-68787380D02*
X46282438Y-68692142D01*
X46282438Y-68692142D02*
X46330057Y-68644523D01*
X46330057Y-68644523D02*
X46425295Y-68596904D01*
X46425295Y-68596904D02*
X46615771Y-68549285D01*
X46615771Y-68549285D02*
X46853866Y-68549285D01*
X46853866Y-68549285D02*
X47044342Y-68596904D01*
X47044342Y-68596904D02*
X47139580Y-68644523D01*
X47139580Y-68644523D02*
X47187200Y-68692142D01*
X47187200Y-68692142D02*
X47234819Y-68787380D01*
X47234819Y-68787380D02*
X47234819Y-68882618D01*
X47234819Y-68882618D02*
X47187200Y-68977856D01*
X47187200Y-68977856D02*
X47139580Y-69025475D01*
X47139580Y-69025475D02*
X47044342Y-69073094D01*
X47044342Y-69073094D02*
X46853866Y-69120713D01*
X46853866Y-69120713D02*
X46615771Y-69120713D01*
X46615771Y-69120713D02*
X46425295Y-69073094D01*
X46425295Y-69073094D02*
X46330057Y-69025475D01*
X46330057Y-69025475D02*
X46282438Y-68977856D01*
X46282438Y-68977856D02*
X46234819Y-68882618D01*
X46234819Y-68215951D02*
X46234819Y-67596904D01*
X46234819Y-67596904D02*
X46615771Y-67930237D01*
X46615771Y-67930237D02*
X46615771Y-67787380D01*
X46615771Y-67787380D02*
X46663390Y-67692142D01*
X46663390Y-67692142D02*
X46711009Y-67644523D01*
X46711009Y-67644523D02*
X46806247Y-67596904D01*
X46806247Y-67596904D02*
X47044342Y-67596904D01*
X47044342Y-67596904D02*
X47139580Y-67644523D01*
X47139580Y-67644523D02*
X47187200Y-67692142D01*
X47187200Y-67692142D02*
X47234819Y-67787380D01*
X47234819Y-67787380D02*
X47234819Y-68073094D01*
X47234819Y-68073094D02*
X47187200Y-68168332D01*
X47187200Y-68168332D02*
X47139580Y-68215951D01*
X48454819Y-76168334D02*
X49169104Y-76168334D01*
X49169104Y-76168334D02*
X49311961Y-76215953D01*
X49311961Y-76215953D02*
X49407200Y-76311191D01*
X49407200Y-76311191D02*
X49454819Y-76454048D01*
X49454819Y-76454048D02*
X49454819Y-76549286D01*
X48788152Y-75263572D02*
X49454819Y-75263572D01*
X48407200Y-75501667D02*
X49121485Y-75739762D01*
X49121485Y-75739762D02*
X49121485Y-75120715D01*
%TO.C,J1*%
D17*
X74027500Y-65670000D02*
X74027500Y-66940000D01*
X74027500Y-65670000D02*
X80382500Y-65670000D01*
X74027500Y-66940000D02*
X78477500Y-66940000D01*
X74027500Y-74560000D02*
X74027500Y-75830000D01*
X74027500Y-75830000D02*
X80382500Y-75830000D01*
X78477500Y-66940000D02*
X78477500Y-74560000D01*
X78477500Y-70000000D02*
X79477500Y-70750000D01*
X78477500Y-74560000D02*
X74027500Y-74560000D01*
X79477500Y-70750000D02*
X78477500Y-71500000D01*
X80382500Y-66940000D02*
X80382500Y-65670000D01*
X80382500Y-66940000D02*
X89907500Y-66940000D01*
X80382500Y-75830000D02*
X80382500Y-74560000D01*
X89907500Y-66940000D02*
X89907500Y-74560000D01*
X89907500Y-74560000D02*
X80382500Y-74560000D01*
%TO.C,R6*%
X62212500Y-100727500D02*
X61387500Y-100727500D01*
X61387500Y-99127500D01*
X62212500Y-99127500D01*
X62212500Y-100727500D01*
%TO.C,C8*%
X59807499Y-97620000D02*
X58207499Y-97620000D01*
X58207499Y-96820000D01*
X59807499Y-96820000D01*
X59807499Y-97620000D01*
%TO.C,R5*%
X65200000Y-100337500D02*
X66800000Y-100337500D01*
X66800000Y-101162500D01*
X65200000Y-101162500D01*
X65200000Y-100337500D01*
%TO.C,R7*%
X65232500Y-98777500D02*
X66832500Y-98777500D01*
X66832500Y-99602500D01*
X65232500Y-99602500D01*
X65232500Y-98777500D01*
%TO.C,U1*%
X63072500Y-106200002D02*
X62672500Y-106600001D01*
X61472500Y-106600001D01*
X61472500Y-103700001D01*
X63072500Y-103700001D01*
X63072500Y-106200002D01*
%TO.C,R4*%
X67032500Y-106942500D02*
X65432500Y-106942500D01*
X65432500Y-106117500D01*
X67032500Y-106117500D01*
X67032500Y-106942500D01*
%TO.C,C9*%
X52250000Y-70037500D02*
X49750000Y-70037500D01*
X49750000Y-66837500D01*
X52250000Y-66837500D01*
X52250000Y-70037500D01*
%TO.C,U3*%
X63837500Y-98000001D02*
X62237500Y-98000001D01*
X62237500Y-95500000D01*
X62637500Y-95100001D01*
X63837500Y-95100001D01*
X63837500Y-98000001D01*
%TO.C,C5*%
X64737500Y-93600000D02*
X66337500Y-93600000D01*
X66337500Y-94400000D01*
X64737500Y-94400000D01*
X64737500Y-93600000D01*
%TO.C,C6*%
X66107500Y-95250000D02*
X67107500Y-95250000D01*
X67107500Y-95750000D01*
X66107500Y-95750000D01*
X66107500Y-95250000D01*
%TO.C,R1*%
X63825000Y-102550000D02*
X63000000Y-102550000D01*
X63000000Y-100950000D01*
X63825000Y-100950000D01*
X63825000Y-102550000D01*
%TO.C,J3*%
X74027500Y-84920000D02*
X74027500Y-86190000D01*
X74027500Y-84920000D02*
X80382500Y-84920000D01*
X74027500Y-86190000D02*
X78477500Y-86190000D01*
X74027500Y-93810000D02*
X74027500Y-95080000D01*
X74027500Y-95080000D02*
X80382500Y-95080000D01*
X78477500Y-86190000D02*
X78477500Y-93810000D01*
X78477500Y-89250000D02*
X79477500Y-90000000D01*
X78477500Y-93810000D02*
X74027500Y-93810000D01*
X79477500Y-90000000D02*
X78477500Y-90750000D01*
X80382500Y-86190000D02*
X80382500Y-84920000D01*
X80382500Y-86190000D02*
X89907500Y-86190000D01*
X80382500Y-95080000D02*
X80382500Y-93810000D01*
X89907500Y-86190000D02*
X89907500Y-93810000D01*
X89907500Y-93810000D02*
X80382500Y-93810000D01*
%TO.C,J2*%
X74027500Y-104920000D02*
X74027500Y-106190000D01*
X74027500Y-104920000D02*
X80382500Y-104920000D01*
X74027500Y-106190000D02*
X78477500Y-106190000D01*
X74027500Y-113810000D02*
X74027500Y-115080000D01*
X74027500Y-115080000D02*
X80382500Y-115080000D01*
X78477500Y-106190000D02*
X78477500Y-113810000D01*
X78477500Y-109250000D02*
X79477500Y-110000000D01*
X78477500Y-113810000D02*
X74027500Y-113810000D01*
X79477500Y-110000000D02*
X78477500Y-110750000D01*
X80382500Y-106190000D02*
X80382500Y-104920000D01*
X80382500Y-106190000D02*
X89907500Y-106190000D01*
X80382500Y-115080000D02*
X80382500Y-113810000D01*
X89907500Y-106190000D02*
X89907500Y-113810000D01*
X89907500Y-113810000D02*
X80382500Y-113810000D01*
%TO.C,C3*%
X65177500Y-104900000D02*
X66177500Y-104900000D01*
X66177500Y-105400000D01*
X65177500Y-105400000D01*
X65177500Y-104900000D01*
%TO.C,R9*%
X62302500Y-93627500D02*
X61477500Y-93627500D01*
X61477500Y-92027500D01*
X62302500Y-92027500D01*
X62302500Y-93627500D01*
%TO.C,C4*%
X65382500Y-103230000D02*
X66982500Y-103230000D01*
X66982500Y-104030000D01*
X65382500Y-104030000D01*
X65382500Y-103230000D01*
%TO.C,R2*%
X59747500Y-103172500D02*
X58147500Y-103172500D01*
X58147500Y-102347500D01*
X59747500Y-102347500D01*
X59747500Y-103172500D01*
%TO.C,C7*%
X59982500Y-96100000D02*
X58982500Y-96100000D01*
X58982500Y-95600000D01*
X59982500Y-95600000D01*
X59982500Y-96100000D01*
%TO.C,C1*%
X59432500Y-105950000D02*
X58432500Y-105950000D01*
X58432500Y-105450000D01*
X59432500Y-105450000D01*
X59432500Y-105950000D01*
%TO.C,C2*%
X60960000Y-108140000D02*
X59360000Y-108140000D01*
X59360000Y-107340000D01*
X60960000Y-107340000D01*
X60960000Y-108140000D01*
%TO.C,C10*%
X52250000Y-85037500D02*
X49750000Y-85037500D01*
X49750000Y-81837500D01*
X52250000Y-81837500D01*
X52250000Y-85037500D01*
%TO.C,J4*%
X47900000Y-72295001D02*
X48400000Y-71795001D01*
X47900000Y-79875002D02*
X47900000Y-72295001D01*
X48400000Y-71795001D02*
X48400000Y-79875001D01*
X48400000Y-71795001D02*
X54100000Y-71795001D01*
X51700000Y-74129001D02*
X50166000Y-72595001D01*
X51700000Y-76669001D02*
X50165999Y-75135001D01*
X51700000Y-79209001D02*
X50166000Y-77675001D01*
X51834000Y-73995001D02*
X50300000Y-72461001D01*
X51834000Y-76535001D02*
X50300000Y-75001001D01*
X51834000Y-79075001D02*
X50300000Y-77541001D01*
X53700000Y-71795001D02*
X53700000Y-79875001D01*
X54100000Y-71795001D02*
X54100000Y-79875002D01*
X54100000Y-79875002D02*
X47900000Y-79875002D01*
X52099999Y-73295001D02*
G75*
G02*
X49900001Y-73295001I-1099999J0D01*
G01*
X49900001Y-73295001D02*
G75*
G02*
X52099999Y-73295001I1099999J0D01*
G01*
X52100000Y-75835001D02*
G75*
G02*
X49900000Y-75835001I-1100000J0D01*
G01*
X49900000Y-75835001D02*
G75*
G02*
X52100000Y-75835001I1100000J0D01*
G01*
X52100001Y-78375000D02*
G75*
G02*
X49899999Y-78375000I-1100001J0D01*
G01*
X49899999Y-78375000D02*
G75*
G02*
X52100001Y-78375000I1100001J0D01*
G01*
%TD*%
X64337500Y-98415000D02*
X67727500Y-99965000D01*
X67727500Y-98415000D02*
X64337500Y-99965000D01*
M02*
