%TF.GenerationSoftware,KiCad,Pcbnew,10.0.1*%
%TF.CreationDate,2026-06-08T13:26:14+01:00*%
%TF.ProjectId,xlzd_xenonnt_amplifier_test,786c7a64-5f78-4656-9e6f-6e6e745f616d,rev?*%
%TF.SameCoordinates,Original*%
%TF.FileFunction,Copper,L2,Inr*%
%TF.FilePolarity,Positive*%
%FSLAX46Y46*%
G04 Gerber Fmt 4.6, Leading zero omitted, Abs format (unit mm)*
G04 Created by KiCad (PCBNEW 10.0.1) date 2026-06-08 13:26:14*
%MOMM*%
%LPD*%
G01*
G04 APERTURE LIST*
G04 Aperture macros list*
%AMRoundRect*
0 Rectangle with rounded corners*
0 $1 Rounding radius*
0 $2 $3 $4 $5 $6 $7 $8 $9 X,Y pos of 4 corners*
0 Add a 4 corners polygon primitive as box body*
4,1,4,$2,$3,$4,$5,$6,$7,$8,$9,$2,$3,0*
0 Add four circle primitives for the rounded corners*
1,1,$1+$1,$2,$3*
1,1,$1+$1,$4,$5*
1,1,$1+$1,$6,$7*
1,1,$1+$1,$8,$9*
0 Add four rect primitives between the rounded corners*
20,1,$1+$1,$2,$3,$4,$5,0*
20,1,$1+$1,$4,$5,$6,$7,0*
20,1,$1+$1,$6,$7,$8,$9,0*
20,1,$1+$1,$8,$9,$2,$3,0*%
G04 Aperture macros list end*
%ADD10C,0.150000*%
%ADD11C,0.300000*%
%ADD12C,0.400000*%
%TA.AperFunction,ComponentPad*%
%ADD13RoundRect,0.249999X-0.850001X0.850001X-0.850001X-0.850001X0.850001X-0.850001X0.850001X0.850001X0*%
%TD*%
%TA.AperFunction,ComponentPad*%
%ADD14C,2.200000*%
%TD*%
%TA.AperFunction,ViaPad*%
%ADD15C,0.800000*%
%TD*%
G04 APERTURE END LIST*
D10*
X177002200Y-166007200D02*
X285002200Y-166007200D01*
X285002200Y-198007200D01*
X177002200Y-198007200D01*
X177002200Y-166007200D01*
X10000000Y-10000000D02*
X287002200Y-10000000D01*
X287002200Y-200007200D01*
X10000000Y-200007200D01*
X10000000Y-10000000D01*
X12000000Y-12000000D02*
X285002200Y-12000000D01*
X285002200Y-198007200D01*
X12000000Y-198007200D01*
X12000000Y-12000000D01*
X60000000Y-12000000D02*
X60000000Y-10000000D01*
X110000000Y-12000000D02*
X110000000Y-10000000D01*
X160000000Y-12000000D02*
X160000000Y-10000000D01*
X210000000Y-12000000D02*
X210000000Y-10000000D01*
X260000000Y-12000000D02*
X260000000Y-10000000D01*
X36089160Y-11593604D02*
X35346303Y-11593604D01*
X35717731Y-11593604D02*
X35717731Y-10293604D01*
X35717731Y-10293604D02*
X35593922Y-10479319D01*
X35593922Y-10479319D02*
X35470112Y-10603128D01*
X35470112Y-10603128D02*
X35346303Y-10665033D01*
X85346303Y-10417414D02*
X85408207Y-10355509D01*
X85408207Y-10355509D02*
X85532017Y-10293604D01*
X85532017Y-10293604D02*
X85841541Y-10293604D01*
X85841541Y-10293604D02*
X85965350Y-10355509D01*
X85965350Y-10355509D02*
X86027255Y-10417414D01*
X86027255Y-10417414D02*
X86089160Y-10541223D01*
X86089160Y-10541223D02*
X86089160Y-10665033D01*
X86089160Y-10665033D02*
X86027255Y-10850747D01*
X86027255Y-10850747D02*
X85284398Y-11593604D01*
X85284398Y-11593604D02*
X86089160Y-11593604D01*
X135284398Y-10293604D02*
X136089160Y-10293604D01*
X136089160Y-10293604D02*
X135655826Y-10788842D01*
X135655826Y-10788842D02*
X135841541Y-10788842D01*
X135841541Y-10788842D02*
X135965350Y-10850747D01*
X135965350Y-10850747D02*
X136027255Y-10912652D01*
X136027255Y-10912652D02*
X136089160Y-11036461D01*
X136089160Y-11036461D02*
X136089160Y-11345985D01*
X136089160Y-11345985D02*
X136027255Y-11469795D01*
X136027255Y-11469795D02*
X135965350Y-11531700D01*
X135965350Y-11531700D02*
X135841541Y-11593604D01*
X135841541Y-11593604D02*
X135470112Y-11593604D01*
X135470112Y-11593604D02*
X135346303Y-11531700D01*
X135346303Y-11531700D02*
X135284398Y-11469795D01*
X185965350Y-10726938D02*
X185965350Y-11593604D01*
X185655826Y-10231700D02*
X185346303Y-11160271D01*
X185346303Y-11160271D02*
X186151064Y-11160271D01*
X236027255Y-10293604D02*
X235408207Y-10293604D01*
X235408207Y-10293604D02*
X235346303Y-10912652D01*
X235346303Y-10912652D02*
X235408207Y-10850747D01*
X235408207Y-10850747D02*
X235532017Y-10788842D01*
X235532017Y-10788842D02*
X235841541Y-10788842D01*
X235841541Y-10788842D02*
X235965350Y-10850747D01*
X235965350Y-10850747D02*
X236027255Y-10912652D01*
X236027255Y-10912652D02*
X236089160Y-11036461D01*
X236089160Y-11036461D02*
X236089160Y-11345985D01*
X236089160Y-11345985D02*
X236027255Y-11469795D01*
X236027255Y-11469795D02*
X235965350Y-11531700D01*
X235965350Y-11531700D02*
X235841541Y-11593604D01*
X235841541Y-11593604D02*
X235532017Y-11593604D01*
X235532017Y-11593604D02*
X235408207Y-11531700D01*
X235408207Y-11531700D02*
X235346303Y-11469795D01*
X285965350Y-10293604D02*
X285717731Y-10293604D01*
X285717731Y-10293604D02*
X285593922Y-10355509D01*
X285593922Y-10355509D02*
X285532017Y-10417414D01*
X285532017Y-10417414D02*
X285408207Y-10603128D01*
X285408207Y-10603128D02*
X285346303Y-10850747D01*
X285346303Y-10850747D02*
X285346303Y-11345985D01*
X285346303Y-11345985D02*
X285408207Y-11469795D01*
X285408207Y-11469795D02*
X285470112Y-11531700D01*
X285470112Y-11531700D02*
X285593922Y-11593604D01*
X285593922Y-11593604D02*
X285841541Y-11593604D01*
X285841541Y-11593604D02*
X285965350Y-11531700D01*
X285965350Y-11531700D02*
X286027255Y-11469795D01*
X286027255Y-11469795D02*
X286089160Y-11345985D01*
X286089160Y-11345985D02*
X286089160Y-11036461D01*
X286089160Y-11036461D02*
X286027255Y-10912652D01*
X286027255Y-10912652D02*
X285965350Y-10850747D01*
X285965350Y-10850747D02*
X285841541Y-10788842D01*
X285841541Y-10788842D02*
X285593922Y-10788842D01*
X285593922Y-10788842D02*
X285470112Y-10850747D01*
X285470112Y-10850747D02*
X285408207Y-10912652D01*
X285408207Y-10912652D02*
X285346303Y-11036461D01*
X60000000Y-198007200D02*
X60000000Y-200007200D01*
X110000000Y-198007200D02*
X110000000Y-200007200D01*
X160000000Y-198007200D02*
X160000000Y-200007200D01*
X210000000Y-198007200D02*
X210000000Y-200007200D01*
X260000000Y-198007200D02*
X260000000Y-200007200D01*
X36089160Y-199600804D02*
X35346303Y-199600804D01*
X35717731Y-199600804D02*
X35717731Y-198300804D01*
X35717731Y-198300804D02*
X35593922Y-198486519D01*
X35593922Y-198486519D02*
X35470112Y-198610328D01*
X35470112Y-198610328D02*
X35346303Y-198672233D01*
X85346303Y-198424614D02*
X85408207Y-198362709D01*
X85408207Y-198362709D02*
X85532017Y-198300804D01*
X85532017Y-198300804D02*
X85841541Y-198300804D01*
X85841541Y-198300804D02*
X85965350Y-198362709D01*
X85965350Y-198362709D02*
X86027255Y-198424614D01*
X86027255Y-198424614D02*
X86089160Y-198548423D01*
X86089160Y-198548423D02*
X86089160Y-198672233D01*
X86089160Y-198672233D02*
X86027255Y-198857947D01*
X86027255Y-198857947D02*
X85284398Y-199600804D01*
X85284398Y-199600804D02*
X86089160Y-199600804D01*
X135284398Y-198300804D02*
X136089160Y-198300804D01*
X136089160Y-198300804D02*
X135655826Y-198796042D01*
X135655826Y-198796042D02*
X135841541Y-198796042D01*
X135841541Y-198796042D02*
X135965350Y-198857947D01*
X135965350Y-198857947D02*
X136027255Y-198919852D01*
X136027255Y-198919852D02*
X136089160Y-199043661D01*
X136089160Y-199043661D02*
X136089160Y-199353185D01*
X136089160Y-199353185D02*
X136027255Y-199476995D01*
X136027255Y-199476995D02*
X135965350Y-199538900D01*
X135965350Y-199538900D02*
X135841541Y-199600804D01*
X135841541Y-199600804D02*
X135470112Y-199600804D01*
X135470112Y-199600804D02*
X135346303Y-199538900D01*
X135346303Y-199538900D02*
X135284398Y-199476995D01*
X185965350Y-198734138D02*
X185965350Y-199600804D01*
X185655826Y-198238900D02*
X185346303Y-199167471D01*
X185346303Y-199167471D02*
X186151064Y-199167471D01*
X236027255Y-198300804D02*
X235408207Y-198300804D01*
X235408207Y-198300804D02*
X235346303Y-198919852D01*
X235346303Y-198919852D02*
X235408207Y-198857947D01*
X235408207Y-198857947D02*
X235532017Y-198796042D01*
X235532017Y-198796042D02*
X235841541Y-198796042D01*
X235841541Y-198796042D02*
X235965350Y-198857947D01*
X235965350Y-198857947D02*
X236027255Y-198919852D01*
X236027255Y-198919852D02*
X236089160Y-199043661D01*
X236089160Y-199043661D02*
X236089160Y-199353185D01*
X236089160Y-199353185D02*
X236027255Y-199476995D01*
X236027255Y-199476995D02*
X235965350Y-199538900D01*
X235965350Y-199538900D02*
X235841541Y-199600804D01*
X235841541Y-199600804D02*
X235532017Y-199600804D01*
X235532017Y-199600804D02*
X235408207Y-199538900D01*
X235408207Y-199538900D02*
X235346303Y-199476995D01*
X285965350Y-198300804D02*
X285717731Y-198300804D01*
X285717731Y-198300804D02*
X285593922Y-198362709D01*
X285593922Y-198362709D02*
X285532017Y-198424614D01*
X285532017Y-198424614D02*
X285408207Y-198610328D01*
X285408207Y-198610328D02*
X285346303Y-198857947D01*
X285346303Y-198857947D02*
X285346303Y-199353185D01*
X285346303Y-199353185D02*
X285408207Y-199476995D01*
X285408207Y-199476995D02*
X285470112Y-199538900D01*
X285470112Y-199538900D02*
X285593922Y-199600804D01*
X285593922Y-199600804D02*
X285841541Y-199600804D01*
X285841541Y-199600804D02*
X285965350Y-199538900D01*
X285965350Y-199538900D02*
X286027255Y-199476995D01*
X286027255Y-199476995D02*
X286089160Y-199353185D01*
X286089160Y-199353185D02*
X286089160Y-199043661D01*
X286089160Y-199043661D02*
X286027255Y-198919852D01*
X286027255Y-198919852D02*
X285965350Y-198857947D01*
X285965350Y-198857947D02*
X285841541Y-198796042D01*
X285841541Y-198796042D02*
X285593922Y-198796042D01*
X285593922Y-198796042D02*
X285470112Y-198857947D01*
X285470112Y-198857947D02*
X285408207Y-198919852D01*
X285408207Y-198919852D02*
X285346303Y-199043661D01*
X10000000Y-60000000D02*
X12000000Y-60000000D01*
X10000000Y-110000000D02*
X12000000Y-110000000D01*
X10000000Y-160000000D02*
X12000000Y-160000000D01*
X10690476Y-35222176D02*
X11309523Y-35222176D01*
X10566666Y-35593604D02*
X10999999Y-34293604D01*
X10999999Y-34293604D02*
X11433333Y-35593604D01*
X11092857Y-84912652D02*
X11278571Y-84974557D01*
X11278571Y-84974557D02*
X11340476Y-85036461D01*
X11340476Y-85036461D02*
X11402380Y-85160271D01*
X11402380Y-85160271D02*
X11402380Y-85345985D01*
X11402380Y-85345985D02*
X11340476Y-85469795D01*
X11340476Y-85469795D02*
X11278571Y-85531700D01*
X11278571Y-85531700D02*
X11154761Y-85593604D01*
X11154761Y-85593604D02*
X10659523Y-85593604D01*
X10659523Y-85593604D02*
X10659523Y-84293604D01*
X10659523Y-84293604D02*
X11092857Y-84293604D01*
X11092857Y-84293604D02*
X11216666Y-84355509D01*
X11216666Y-84355509D02*
X11278571Y-84417414D01*
X11278571Y-84417414D02*
X11340476Y-84541223D01*
X11340476Y-84541223D02*
X11340476Y-84665033D01*
X11340476Y-84665033D02*
X11278571Y-84788842D01*
X11278571Y-84788842D02*
X11216666Y-84850747D01*
X11216666Y-84850747D02*
X11092857Y-84912652D01*
X11092857Y-84912652D02*
X10659523Y-84912652D01*
X11402380Y-135469795D02*
X11340476Y-135531700D01*
X11340476Y-135531700D02*
X11154761Y-135593604D01*
X11154761Y-135593604D02*
X11030952Y-135593604D01*
X11030952Y-135593604D02*
X10845238Y-135531700D01*
X10845238Y-135531700D02*
X10721428Y-135407890D01*
X10721428Y-135407890D02*
X10659523Y-135284080D01*
X10659523Y-135284080D02*
X10597619Y-135036461D01*
X10597619Y-135036461D02*
X10597619Y-134850747D01*
X10597619Y-134850747D02*
X10659523Y-134603128D01*
X10659523Y-134603128D02*
X10721428Y-134479319D01*
X10721428Y-134479319D02*
X10845238Y-134355509D01*
X10845238Y-134355509D02*
X11030952Y-134293604D01*
X11030952Y-134293604D02*
X11154761Y-134293604D01*
X11154761Y-134293604D02*
X11340476Y-134355509D01*
X11340476Y-134355509D02*
X11402380Y-134417414D01*
X10659523Y-185593604D02*
X10659523Y-184293604D01*
X10659523Y-184293604D02*
X10969047Y-184293604D01*
X10969047Y-184293604D02*
X11154761Y-184355509D01*
X11154761Y-184355509D02*
X11278571Y-184479319D01*
X11278571Y-184479319D02*
X11340476Y-184603128D01*
X11340476Y-184603128D02*
X11402380Y-184850747D01*
X11402380Y-184850747D02*
X11402380Y-185036461D01*
X11402380Y-185036461D02*
X11340476Y-185284080D01*
X11340476Y-185284080D02*
X11278571Y-185407890D01*
X11278571Y-185407890D02*
X11154761Y-185531700D01*
X11154761Y-185531700D02*
X10969047Y-185593604D01*
X10969047Y-185593604D02*
X10659523Y-185593604D01*
X287002200Y-60000000D02*
X285002200Y-60000000D01*
X287002200Y-110000000D02*
X285002200Y-110000000D01*
X287002200Y-160000000D02*
X285002200Y-160000000D01*
X285692676Y-35222176D02*
X286311723Y-35222176D01*
X285568866Y-35593604D02*
X286002199Y-34293604D01*
X286002199Y-34293604D02*
X286435533Y-35593604D01*
X286095057Y-84912652D02*
X286280771Y-84974557D01*
X286280771Y-84974557D02*
X286342676Y-85036461D01*
X286342676Y-85036461D02*
X286404580Y-85160271D01*
X286404580Y-85160271D02*
X286404580Y-85345985D01*
X286404580Y-85345985D02*
X286342676Y-85469795D01*
X286342676Y-85469795D02*
X286280771Y-85531700D01*
X286280771Y-85531700D02*
X286156961Y-85593604D01*
X286156961Y-85593604D02*
X285661723Y-85593604D01*
X285661723Y-85593604D02*
X285661723Y-84293604D01*
X285661723Y-84293604D02*
X286095057Y-84293604D01*
X286095057Y-84293604D02*
X286218866Y-84355509D01*
X286218866Y-84355509D02*
X286280771Y-84417414D01*
X286280771Y-84417414D02*
X286342676Y-84541223D01*
X286342676Y-84541223D02*
X286342676Y-84665033D01*
X286342676Y-84665033D02*
X286280771Y-84788842D01*
X286280771Y-84788842D02*
X286218866Y-84850747D01*
X286218866Y-84850747D02*
X286095057Y-84912652D01*
X286095057Y-84912652D02*
X285661723Y-84912652D01*
X286404580Y-135469795D02*
X286342676Y-135531700D01*
X286342676Y-135531700D02*
X286156961Y-135593604D01*
X286156961Y-135593604D02*
X286033152Y-135593604D01*
X286033152Y-135593604D02*
X285847438Y-135531700D01*
X285847438Y-135531700D02*
X285723628Y-135407890D01*
X285723628Y-135407890D02*
X285661723Y-135284080D01*
X285661723Y-135284080D02*
X285599819Y-135036461D01*
X285599819Y-135036461D02*
X285599819Y-134850747D01*
X285599819Y-134850747D02*
X285661723Y-134603128D01*
X285661723Y-134603128D02*
X285723628Y-134479319D01*
X285723628Y-134479319D02*
X285847438Y-134355509D01*
X285847438Y-134355509D02*
X286033152Y-134293604D01*
X286033152Y-134293604D02*
X286156961Y-134293604D01*
X286156961Y-134293604D02*
X286342676Y-134355509D01*
X286342676Y-134355509D02*
X286404580Y-134417414D01*
X285661723Y-185593604D02*
X285661723Y-184293604D01*
X285661723Y-184293604D02*
X285971247Y-184293604D01*
X285971247Y-184293604D02*
X286156961Y-184355509D01*
X286156961Y-184355509D02*
X286280771Y-184479319D01*
X286280771Y-184479319D02*
X286342676Y-184603128D01*
X286342676Y-184603128D02*
X286404580Y-184850747D01*
X286404580Y-184850747D02*
X286404580Y-185036461D01*
X286404580Y-185036461D02*
X286342676Y-185284080D01*
X286342676Y-185284080D02*
X286280771Y-185407890D01*
X286280771Y-185407890D02*
X286156961Y-185531700D01*
X286156961Y-185531700D02*
X285971247Y-185593604D01*
X285971247Y-185593604D02*
X285661723Y-185593604D01*
X200458026Y-193793328D02*
X200458026Y-192293328D01*
X200458026Y-192293328D02*
X200815169Y-192293328D01*
X200815169Y-192293328D02*
X201029455Y-192364757D01*
X201029455Y-192364757D02*
X201172312Y-192507614D01*
X201172312Y-192507614D02*
X201243741Y-192650471D01*
X201243741Y-192650471D02*
X201315169Y-192936185D01*
X201315169Y-192936185D02*
X201315169Y-193150471D01*
X201315169Y-193150471D02*
X201243741Y-193436185D01*
X201243741Y-193436185D02*
X201172312Y-193579042D01*
X201172312Y-193579042D02*
X201029455Y-193721900D01*
X201029455Y-193721900D02*
X200815169Y-193793328D01*
X200815169Y-193793328D02*
X200458026Y-193793328D01*
X202600884Y-193793328D02*
X202600884Y-193007614D01*
X202600884Y-193007614D02*
X202529455Y-192864757D01*
X202529455Y-192864757D02*
X202386598Y-192793328D01*
X202386598Y-192793328D02*
X202100884Y-192793328D01*
X202100884Y-192793328D02*
X201958026Y-192864757D01*
X202600884Y-193721900D02*
X202458026Y-193793328D01*
X202458026Y-193793328D02*
X202100884Y-193793328D01*
X202100884Y-193793328D02*
X201958026Y-193721900D01*
X201958026Y-193721900D02*
X201886598Y-193579042D01*
X201886598Y-193579042D02*
X201886598Y-193436185D01*
X201886598Y-193436185D02*
X201958026Y-193293328D01*
X201958026Y-193293328D02*
X202100884Y-193221900D01*
X202100884Y-193221900D02*
X202458026Y-193221900D01*
X202458026Y-193221900D02*
X202600884Y-193150471D01*
X203100884Y-192793328D02*
X203672312Y-192793328D01*
X203315169Y-192293328D02*
X203315169Y-193579042D01*
X203315169Y-193579042D02*
X203386598Y-193721900D01*
X203386598Y-193721900D02*
X203529455Y-193793328D01*
X203529455Y-193793328D02*
X203672312Y-193793328D01*
X204743741Y-193721900D02*
X204600884Y-193793328D01*
X204600884Y-193793328D02*
X204315170Y-193793328D01*
X204315170Y-193793328D02*
X204172312Y-193721900D01*
X204172312Y-193721900D02*
X204100884Y-193579042D01*
X204100884Y-193579042D02*
X204100884Y-193007614D01*
X204100884Y-193007614D02*
X204172312Y-192864757D01*
X204172312Y-192864757D02*
X204315170Y-192793328D01*
X204315170Y-192793328D02*
X204600884Y-192793328D01*
X204600884Y-192793328D02*
X204743741Y-192864757D01*
X204743741Y-192864757D02*
X204815170Y-193007614D01*
X204815170Y-193007614D02*
X204815170Y-193150471D01*
X204815170Y-193150471D02*
X204100884Y-193293328D01*
X205458026Y-193650471D02*
X205529455Y-193721900D01*
X205529455Y-193721900D02*
X205458026Y-193793328D01*
X205458026Y-193793328D02*
X205386598Y-193721900D01*
X205386598Y-193721900D02*
X205458026Y-193650471D01*
X205458026Y-193650471D02*
X205458026Y-193793328D01*
X205458026Y-192864757D02*
X205529455Y-192936185D01*
X205529455Y-192936185D02*
X205458026Y-193007614D01*
X205458026Y-193007614D02*
X205386598Y-192936185D01*
X205386598Y-192936185D02*
X205458026Y-192864757D01*
X205458026Y-192864757D02*
X205458026Y-193007614D01*
X177002200Y-194507200D02*
X285002200Y-194507200D01*
X178458026Y-196593328D02*
X178458026Y-195093328D01*
X179315169Y-196593328D02*
X178672312Y-195736185D01*
X179315169Y-195093328D02*
X178458026Y-195950471D01*
X179958026Y-196593328D02*
X179958026Y-195593328D01*
X179958026Y-195093328D02*
X179886598Y-195164757D01*
X179886598Y-195164757D02*
X179958026Y-195236185D01*
X179958026Y-195236185D02*
X180029455Y-195164757D01*
X180029455Y-195164757D02*
X179958026Y-195093328D01*
X179958026Y-195093328D02*
X179958026Y-195236185D01*
X181529455Y-196450471D02*
X181458027Y-196521900D01*
X181458027Y-196521900D02*
X181243741Y-196593328D01*
X181243741Y-196593328D02*
X181100884Y-196593328D01*
X181100884Y-196593328D02*
X180886598Y-196521900D01*
X180886598Y-196521900D02*
X180743741Y-196379042D01*
X180743741Y-196379042D02*
X180672312Y-196236185D01*
X180672312Y-196236185D02*
X180600884Y-195950471D01*
X180600884Y-195950471D02*
X180600884Y-195736185D01*
X180600884Y-195736185D02*
X180672312Y-195450471D01*
X180672312Y-195450471D02*
X180743741Y-195307614D01*
X180743741Y-195307614D02*
X180886598Y-195164757D01*
X180886598Y-195164757D02*
X181100884Y-195093328D01*
X181100884Y-195093328D02*
X181243741Y-195093328D01*
X181243741Y-195093328D02*
X181458027Y-195164757D01*
X181458027Y-195164757D02*
X181529455Y-195236185D01*
X182815170Y-196593328D02*
X182815170Y-195807614D01*
X182815170Y-195807614D02*
X182743741Y-195664757D01*
X182743741Y-195664757D02*
X182600884Y-195593328D01*
X182600884Y-195593328D02*
X182315170Y-195593328D01*
X182315170Y-195593328D02*
X182172312Y-195664757D01*
X182815170Y-196521900D02*
X182672312Y-196593328D01*
X182672312Y-196593328D02*
X182315170Y-196593328D01*
X182315170Y-196593328D02*
X182172312Y-196521900D01*
X182172312Y-196521900D02*
X182100884Y-196379042D01*
X182100884Y-196379042D02*
X182100884Y-196236185D01*
X182100884Y-196236185D02*
X182172312Y-196093328D01*
X182172312Y-196093328D02*
X182315170Y-196021900D01*
X182315170Y-196021900D02*
X182672312Y-196021900D01*
X182672312Y-196021900D02*
X182815170Y-195950471D01*
X184172313Y-196593328D02*
X184172313Y-195093328D01*
X184172313Y-196521900D02*
X184029455Y-196593328D01*
X184029455Y-196593328D02*
X183743741Y-196593328D01*
X183743741Y-196593328D02*
X183600884Y-196521900D01*
X183600884Y-196521900D02*
X183529455Y-196450471D01*
X183529455Y-196450471D02*
X183458027Y-196307614D01*
X183458027Y-196307614D02*
X183458027Y-195879042D01*
X183458027Y-195879042D02*
X183529455Y-195736185D01*
X183529455Y-195736185D02*
X183600884Y-195664757D01*
X183600884Y-195664757D02*
X183743741Y-195593328D01*
X183743741Y-195593328D02*
X184029455Y-195593328D01*
X184029455Y-195593328D02*
X184172313Y-195664757D01*
X186029455Y-195807614D02*
X186529455Y-195807614D01*
X186743741Y-196593328D02*
X186029455Y-196593328D01*
X186029455Y-196593328D02*
X186029455Y-195093328D01*
X186029455Y-195093328D02*
X186743741Y-195093328D01*
X187386598Y-196450471D02*
X187458027Y-196521900D01*
X187458027Y-196521900D02*
X187386598Y-196593328D01*
X187386598Y-196593328D02*
X187315170Y-196521900D01*
X187315170Y-196521900D02*
X187386598Y-196450471D01*
X187386598Y-196450471D02*
X187386598Y-196593328D01*
X188100884Y-196593328D02*
X188100884Y-195093328D01*
X188100884Y-195093328D02*
X188458027Y-195093328D01*
X188458027Y-195093328D02*
X188672313Y-195164757D01*
X188672313Y-195164757D02*
X188815170Y-195307614D01*
X188815170Y-195307614D02*
X188886599Y-195450471D01*
X188886599Y-195450471D02*
X188958027Y-195736185D01*
X188958027Y-195736185D02*
X188958027Y-195950471D01*
X188958027Y-195950471D02*
X188886599Y-196236185D01*
X188886599Y-196236185D02*
X188815170Y-196379042D01*
X188815170Y-196379042D02*
X188672313Y-196521900D01*
X188672313Y-196521900D02*
X188458027Y-196593328D01*
X188458027Y-196593328D02*
X188100884Y-196593328D01*
X189600884Y-196450471D02*
X189672313Y-196521900D01*
X189672313Y-196521900D02*
X189600884Y-196593328D01*
X189600884Y-196593328D02*
X189529456Y-196521900D01*
X189529456Y-196521900D02*
X189600884Y-196450471D01*
X189600884Y-196450471D02*
X189600884Y-196593328D01*
X190243742Y-196164757D02*
X190958028Y-196164757D01*
X190100885Y-196593328D02*
X190600885Y-195093328D01*
X190600885Y-195093328D02*
X191100885Y-196593328D01*
X191600884Y-196450471D02*
X191672313Y-196521900D01*
X191672313Y-196521900D02*
X191600884Y-196593328D01*
X191600884Y-196593328D02*
X191529456Y-196521900D01*
X191529456Y-196521900D02*
X191600884Y-196450471D01*
X191600884Y-196450471D02*
X191600884Y-196593328D01*
X194243742Y-196593328D02*
X193386599Y-196593328D01*
X193815170Y-196593328D02*
X193815170Y-195093328D01*
X193815170Y-195093328D02*
X193672313Y-195307614D01*
X193672313Y-195307614D02*
X193529456Y-195450471D01*
X193529456Y-195450471D02*
X193386599Y-195521900D01*
X195172313Y-195093328D02*
X195315170Y-195093328D01*
X195315170Y-195093328D02*
X195458027Y-195164757D01*
X195458027Y-195164757D02*
X195529456Y-195236185D01*
X195529456Y-195236185D02*
X195600884Y-195379042D01*
X195600884Y-195379042D02*
X195672313Y-195664757D01*
X195672313Y-195664757D02*
X195672313Y-196021900D01*
X195672313Y-196021900D02*
X195600884Y-196307614D01*
X195600884Y-196307614D02*
X195529456Y-196450471D01*
X195529456Y-196450471D02*
X195458027Y-196521900D01*
X195458027Y-196521900D02*
X195315170Y-196593328D01*
X195315170Y-196593328D02*
X195172313Y-196593328D01*
X195172313Y-196593328D02*
X195029456Y-196521900D01*
X195029456Y-196521900D02*
X194958027Y-196450471D01*
X194958027Y-196450471D02*
X194886598Y-196307614D01*
X194886598Y-196307614D02*
X194815170Y-196021900D01*
X194815170Y-196021900D02*
X194815170Y-195664757D01*
X194815170Y-195664757D02*
X194886598Y-195379042D01*
X194886598Y-195379042D02*
X194958027Y-195236185D01*
X194958027Y-195236185D02*
X195029456Y-195164757D01*
X195029456Y-195164757D02*
X195172313Y-195093328D01*
X196315169Y-196450471D02*
X196386598Y-196521900D01*
X196386598Y-196521900D02*
X196315169Y-196593328D01*
X196315169Y-196593328D02*
X196243741Y-196521900D01*
X196243741Y-196521900D02*
X196315169Y-196450471D01*
X196315169Y-196450471D02*
X196315169Y-196593328D01*
X197315170Y-195093328D02*
X197458027Y-195093328D01*
X197458027Y-195093328D02*
X197600884Y-195164757D01*
X197600884Y-195164757D02*
X197672313Y-195236185D01*
X197672313Y-195236185D02*
X197743741Y-195379042D01*
X197743741Y-195379042D02*
X197815170Y-195664757D01*
X197815170Y-195664757D02*
X197815170Y-196021900D01*
X197815170Y-196021900D02*
X197743741Y-196307614D01*
X197743741Y-196307614D02*
X197672313Y-196450471D01*
X197672313Y-196450471D02*
X197600884Y-196521900D01*
X197600884Y-196521900D02*
X197458027Y-196593328D01*
X197458027Y-196593328D02*
X197315170Y-196593328D01*
X197315170Y-196593328D02*
X197172313Y-196521900D01*
X197172313Y-196521900D02*
X197100884Y-196450471D01*
X197100884Y-196450471D02*
X197029455Y-196307614D01*
X197029455Y-196307614D02*
X196958027Y-196021900D01*
X196958027Y-196021900D02*
X196958027Y-195664757D01*
X196958027Y-195664757D02*
X197029455Y-195379042D01*
X197029455Y-195379042D02*
X197100884Y-195236185D01*
X197100884Y-195236185D02*
X197172313Y-195164757D01*
X197172313Y-195164757D02*
X197315170Y-195093328D01*
X198458026Y-196450471D02*
X198529455Y-196521900D01*
X198529455Y-196521900D02*
X198458026Y-196593328D01*
X198458026Y-196593328D02*
X198386598Y-196521900D01*
X198386598Y-196521900D02*
X198458026Y-196450471D01*
X198458026Y-196450471D02*
X198458026Y-196593328D01*
X199958027Y-196593328D02*
X199100884Y-196593328D01*
X199529455Y-196593328D02*
X199529455Y-195093328D01*
X199529455Y-195093328D02*
X199386598Y-195307614D01*
X199386598Y-195307614D02*
X199243741Y-195450471D01*
X199243741Y-195450471D02*
X199100884Y-195521900D01*
X177002200Y-191507200D02*
X285002200Y-191507200D01*
D11*
X264413853Y-193785528D02*
X263913853Y-193071242D01*
X263556710Y-193785528D02*
X263556710Y-192285528D01*
X263556710Y-192285528D02*
X264128139Y-192285528D01*
X264128139Y-192285528D02*
X264270996Y-192356957D01*
X264270996Y-192356957D02*
X264342425Y-192428385D01*
X264342425Y-192428385D02*
X264413853Y-192571242D01*
X264413853Y-192571242D02*
X264413853Y-192785528D01*
X264413853Y-192785528D02*
X264342425Y-192928385D01*
X264342425Y-192928385D02*
X264270996Y-192999814D01*
X264270996Y-192999814D02*
X264128139Y-193071242D01*
X264128139Y-193071242D02*
X263556710Y-193071242D01*
X265628139Y-193714100D02*
X265485282Y-193785528D01*
X265485282Y-193785528D02*
X265199568Y-193785528D01*
X265199568Y-193785528D02*
X265056710Y-193714100D01*
X265056710Y-193714100D02*
X264985282Y-193571242D01*
X264985282Y-193571242D02*
X264985282Y-192999814D01*
X264985282Y-192999814D02*
X265056710Y-192856957D01*
X265056710Y-192856957D02*
X265199568Y-192785528D01*
X265199568Y-192785528D02*
X265485282Y-192785528D01*
X265485282Y-192785528D02*
X265628139Y-192856957D01*
X265628139Y-192856957D02*
X265699568Y-192999814D01*
X265699568Y-192999814D02*
X265699568Y-193142671D01*
X265699568Y-193142671D02*
X264985282Y-193285528D01*
X266199567Y-192785528D02*
X266556710Y-193785528D01*
X266556710Y-193785528D02*
X266913853Y-192785528D01*
X267485281Y-193642671D02*
X267556710Y-193714100D01*
X267556710Y-193714100D02*
X267485281Y-193785528D01*
X267485281Y-193785528D02*
X267413853Y-193714100D01*
X267413853Y-193714100D02*
X267485281Y-193642671D01*
X267485281Y-193642671D02*
X267485281Y-193785528D01*
X267485281Y-192856957D02*
X267556710Y-192928385D01*
X267556710Y-192928385D02*
X267485281Y-192999814D01*
X267485281Y-192999814D02*
X267413853Y-192928385D01*
X267413853Y-192928385D02*
X267485281Y-192856957D01*
X267485281Y-192856957D02*
X267485281Y-192999814D01*
D10*
X178386598Y-193721900D02*
X178600884Y-193793328D01*
X178600884Y-193793328D02*
X178958026Y-193793328D01*
X178958026Y-193793328D02*
X179100884Y-193721900D01*
X179100884Y-193721900D02*
X179172312Y-193650471D01*
X179172312Y-193650471D02*
X179243741Y-193507614D01*
X179243741Y-193507614D02*
X179243741Y-193364757D01*
X179243741Y-193364757D02*
X179172312Y-193221900D01*
X179172312Y-193221900D02*
X179100884Y-193150471D01*
X179100884Y-193150471D02*
X178958026Y-193079042D01*
X178958026Y-193079042D02*
X178672312Y-193007614D01*
X178672312Y-193007614D02*
X178529455Y-192936185D01*
X178529455Y-192936185D02*
X178458026Y-192864757D01*
X178458026Y-192864757D02*
X178386598Y-192721900D01*
X178386598Y-192721900D02*
X178386598Y-192579042D01*
X178386598Y-192579042D02*
X178458026Y-192436185D01*
X178458026Y-192436185D02*
X178529455Y-192364757D01*
X178529455Y-192364757D02*
X178672312Y-192293328D01*
X178672312Y-192293328D02*
X179029455Y-192293328D01*
X179029455Y-192293328D02*
X179243741Y-192364757D01*
X179886597Y-193793328D02*
X179886597Y-192793328D01*
X179886597Y-192293328D02*
X179815169Y-192364757D01*
X179815169Y-192364757D02*
X179886597Y-192436185D01*
X179886597Y-192436185D02*
X179958026Y-192364757D01*
X179958026Y-192364757D02*
X179886597Y-192293328D01*
X179886597Y-192293328D02*
X179886597Y-192436185D01*
X180458026Y-192793328D02*
X181243741Y-192793328D01*
X181243741Y-192793328D02*
X180458026Y-193793328D01*
X180458026Y-193793328D02*
X181243741Y-193793328D01*
X182386598Y-193721900D02*
X182243741Y-193793328D01*
X182243741Y-193793328D02*
X181958027Y-193793328D01*
X181958027Y-193793328D02*
X181815169Y-193721900D01*
X181815169Y-193721900D02*
X181743741Y-193579042D01*
X181743741Y-193579042D02*
X181743741Y-193007614D01*
X181743741Y-193007614D02*
X181815169Y-192864757D01*
X181815169Y-192864757D02*
X181958027Y-192793328D01*
X181958027Y-192793328D02*
X182243741Y-192793328D01*
X182243741Y-192793328D02*
X182386598Y-192864757D01*
X182386598Y-192864757D02*
X182458027Y-193007614D01*
X182458027Y-193007614D02*
X182458027Y-193150471D01*
X182458027Y-193150471D02*
X181743741Y-193293328D01*
X183100883Y-193650471D02*
X183172312Y-193721900D01*
X183172312Y-193721900D02*
X183100883Y-193793328D01*
X183100883Y-193793328D02*
X183029455Y-193721900D01*
X183029455Y-193721900D02*
X183100883Y-193650471D01*
X183100883Y-193650471D02*
X183100883Y-193793328D01*
X183100883Y-192864757D02*
X183172312Y-192936185D01*
X183172312Y-192936185D02*
X183100883Y-193007614D01*
X183100883Y-193007614D02*
X183029455Y-192936185D01*
X183029455Y-192936185D02*
X183100883Y-192864757D01*
X183100883Y-192864757D02*
X183100883Y-193007614D01*
X184886598Y-193364757D02*
X185600884Y-193364757D01*
X184743741Y-193793328D02*
X185243741Y-192293328D01*
X185243741Y-192293328D02*
X185743741Y-193793328D01*
X186886598Y-192793328D02*
X186886598Y-193793328D01*
X186529455Y-192221900D02*
X186172312Y-193293328D01*
X186172312Y-193293328D02*
X187100883Y-193293328D01*
X263458026Y-196593328D02*
X263458026Y-195093328D01*
X264815170Y-196593328D02*
X264815170Y-195093328D01*
X264815170Y-196521900D02*
X264672312Y-196593328D01*
X264672312Y-196593328D02*
X264386598Y-196593328D01*
X264386598Y-196593328D02*
X264243741Y-196521900D01*
X264243741Y-196521900D02*
X264172312Y-196450471D01*
X264172312Y-196450471D02*
X264100884Y-196307614D01*
X264100884Y-196307614D02*
X264100884Y-195879042D01*
X264100884Y-195879042D02*
X264172312Y-195736185D01*
X264172312Y-195736185D02*
X264243741Y-195664757D01*
X264243741Y-195664757D02*
X264386598Y-195593328D01*
X264386598Y-195593328D02*
X264672312Y-195593328D01*
X264672312Y-195593328D02*
X264815170Y-195664757D01*
X265529455Y-196450471D02*
X265600884Y-196521900D01*
X265600884Y-196521900D02*
X265529455Y-196593328D01*
X265529455Y-196593328D02*
X265458027Y-196521900D01*
X265458027Y-196521900D02*
X265529455Y-196450471D01*
X265529455Y-196450471D02*
X265529455Y-196593328D01*
X265529455Y-195664757D02*
X265600884Y-195736185D01*
X265600884Y-195736185D02*
X265529455Y-195807614D01*
X265529455Y-195807614D02*
X265458027Y-195736185D01*
X265458027Y-195736185D02*
X265529455Y-195664757D01*
X265529455Y-195664757D02*
X265529455Y-195807614D01*
X267315170Y-195236185D02*
X267386598Y-195164757D01*
X267386598Y-195164757D02*
X267529456Y-195093328D01*
X267529456Y-195093328D02*
X267886598Y-195093328D01*
X267886598Y-195093328D02*
X268029456Y-195164757D01*
X268029456Y-195164757D02*
X268100884Y-195236185D01*
X268100884Y-195236185D02*
X268172313Y-195379042D01*
X268172313Y-195379042D02*
X268172313Y-195521900D01*
X268172313Y-195521900D02*
X268100884Y-195736185D01*
X268100884Y-195736185D02*
X267243741Y-196593328D01*
X267243741Y-196593328D02*
X268172313Y-196593328D01*
X269886598Y-195021900D02*
X268600884Y-196950471D01*
X271172313Y-196593328D02*
X270315170Y-196593328D01*
X270743741Y-196593328D02*
X270743741Y-195093328D01*
X270743741Y-195093328D02*
X270600884Y-195307614D01*
X270600884Y-195307614D02*
X270458027Y-195450471D01*
X270458027Y-195450471D02*
X270315170Y-195521900D01*
X271743741Y-195236185D02*
X271815169Y-195164757D01*
X271815169Y-195164757D02*
X271958027Y-195093328D01*
X271958027Y-195093328D02*
X272315169Y-195093328D01*
X272315169Y-195093328D02*
X272458027Y-195164757D01*
X272458027Y-195164757D02*
X272529455Y-195236185D01*
X272529455Y-195236185D02*
X272600884Y-195379042D01*
X272600884Y-195379042D02*
X272600884Y-195521900D01*
X272600884Y-195521900D02*
X272529455Y-195736185D01*
X272529455Y-195736185D02*
X271672312Y-196593328D01*
X271672312Y-196593328D02*
X272600884Y-196593328D01*
X177002200Y-187507200D02*
X285002200Y-187507200D01*
D12*
X178693928Y-188211638D02*
X179836785Y-188211638D01*
X179015357Y-190211638D02*
X179265357Y-188211638D01*
X180253452Y-190211638D02*
X180420119Y-188878304D01*
X180503452Y-188211638D02*
X180396309Y-188306876D01*
X180396309Y-188306876D02*
X180479643Y-188402114D01*
X180479643Y-188402114D02*
X180586786Y-188306876D01*
X180586786Y-188306876D02*
X180503452Y-188211638D01*
X180503452Y-188211638D02*
X180479643Y-188402114D01*
X181086786Y-188878304D02*
X181848690Y-188878304D01*
X181455833Y-188211638D02*
X181241548Y-189925923D01*
X181241548Y-189925923D02*
X181312976Y-190116400D01*
X181312976Y-190116400D02*
X181491548Y-190211638D01*
X181491548Y-190211638D02*
X181682024Y-190211638D01*
X182634405Y-190211638D02*
X182455833Y-190116400D01*
X182455833Y-190116400D02*
X182384405Y-189925923D01*
X182384405Y-189925923D02*
X182598690Y-188211638D01*
X184170119Y-190116400D02*
X183967738Y-190211638D01*
X183967738Y-190211638D02*
X183586785Y-190211638D01*
X183586785Y-190211638D02*
X183408214Y-190116400D01*
X183408214Y-190116400D02*
X183336785Y-189925923D01*
X183336785Y-189925923D02*
X183432024Y-189164019D01*
X183432024Y-189164019D02*
X183551071Y-188973542D01*
X183551071Y-188973542D02*
X183753452Y-188878304D01*
X183753452Y-188878304D02*
X184134404Y-188878304D01*
X184134404Y-188878304D02*
X184312976Y-188973542D01*
X184312976Y-188973542D02*
X184384404Y-189164019D01*
X184384404Y-189164019D02*
X184360595Y-189354495D01*
X184360595Y-189354495D02*
X183384404Y-189544971D01*
X185134405Y-190021161D02*
X185217738Y-190116400D01*
X185217738Y-190116400D02*
X185110595Y-190211638D01*
X185110595Y-190211638D02*
X185027262Y-190116400D01*
X185027262Y-190116400D02*
X185134405Y-190021161D01*
X185134405Y-190021161D02*
X185110595Y-190211638D01*
X185265357Y-188973542D02*
X185348690Y-189068780D01*
X185348690Y-189068780D02*
X185241548Y-189164019D01*
X185241548Y-189164019D02*
X185158214Y-189068780D01*
X185158214Y-189068780D02*
X185265357Y-188973542D01*
X185265357Y-188973542D02*
X185241548Y-189164019D01*
D10*
X178958026Y-185607614D02*
X178458026Y-185607614D01*
X178458026Y-186393328D02*
X178458026Y-184893328D01*
X178458026Y-184893328D02*
X179172312Y-184893328D01*
X179743740Y-186393328D02*
X179743740Y-185393328D01*
X179743740Y-184893328D02*
X179672312Y-184964757D01*
X179672312Y-184964757D02*
X179743740Y-185036185D01*
X179743740Y-185036185D02*
X179815169Y-184964757D01*
X179815169Y-184964757D02*
X179743740Y-184893328D01*
X179743740Y-184893328D02*
X179743740Y-185036185D01*
X180672312Y-186393328D02*
X180529455Y-186321900D01*
X180529455Y-186321900D02*
X180458026Y-186179042D01*
X180458026Y-186179042D02*
X180458026Y-184893328D01*
X181815169Y-186321900D02*
X181672312Y-186393328D01*
X181672312Y-186393328D02*
X181386598Y-186393328D01*
X181386598Y-186393328D02*
X181243740Y-186321900D01*
X181243740Y-186321900D02*
X181172312Y-186179042D01*
X181172312Y-186179042D02*
X181172312Y-185607614D01*
X181172312Y-185607614D02*
X181243740Y-185464757D01*
X181243740Y-185464757D02*
X181386598Y-185393328D01*
X181386598Y-185393328D02*
X181672312Y-185393328D01*
X181672312Y-185393328D02*
X181815169Y-185464757D01*
X181815169Y-185464757D02*
X181886598Y-185607614D01*
X181886598Y-185607614D02*
X181886598Y-185750471D01*
X181886598Y-185750471D02*
X181172312Y-185893328D01*
X182529454Y-186250471D02*
X182600883Y-186321900D01*
X182600883Y-186321900D02*
X182529454Y-186393328D01*
X182529454Y-186393328D02*
X182458026Y-186321900D01*
X182458026Y-186321900D02*
X182529454Y-186250471D01*
X182529454Y-186250471D02*
X182529454Y-186393328D01*
X182529454Y-185464757D02*
X182600883Y-185536185D01*
X182600883Y-185536185D02*
X182529454Y-185607614D01*
X182529454Y-185607614D02*
X182458026Y-185536185D01*
X182458026Y-185536185D02*
X182529454Y-185464757D01*
X182529454Y-185464757D02*
X182529454Y-185607614D01*
X184243740Y-186393328D02*
X185029455Y-185393328D01*
X184243740Y-185393328D02*
X185029455Y-186393328D01*
X185815169Y-186393328D02*
X185672312Y-186321900D01*
X185672312Y-186321900D02*
X185600883Y-186179042D01*
X185600883Y-186179042D02*
X185600883Y-184893328D01*
X186243740Y-185393328D02*
X187029455Y-185393328D01*
X187029455Y-185393328D02*
X186243740Y-186393328D01*
X186243740Y-186393328D02*
X187029455Y-186393328D01*
X188243741Y-186393328D02*
X188243741Y-184893328D01*
X188243741Y-186321900D02*
X188100883Y-186393328D01*
X188100883Y-186393328D02*
X187815169Y-186393328D01*
X187815169Y-186393328D02*
X187672312Y-186321900D01*
X187672312Y-186321900D02*
X187600883Y-186250471D01*
X187600883Y-186250471D02*
X187529455Y-186107614D01*
X187529455Y-186107614D02*
X187529455Y-185679042D01*
X187529455Y-185679042D02*
X187600883Y-185536185D01*
X187600883Y-185536185D02*
X187672312Y-185464757D01*
X187672312Y-185464757D02*
X187815169Y-185393328D01*
X187815169Y-185393328D02*
X188100883Y-185393328D01*
X188100883Y-185393328D02*
X188243741Y-185464757D01*
X188600884Y-186536185D02*
X189743741Y-186536185D01*
X189958026Y-186393328D02*
X190743741Y-185393328D01*
X189958026Y-185393328D02*
X190743741Y-186393328D01*
X191886598Y-186321900D02*
X191743741Y-186393328D01*
X191743741Y-186393328D02*
X191458027Y-186393328D01*
X191458027Y-186393328D02*
X191315169Y-186321900D01*
X191315169Y-186321900D02*
X191243741Y-186179042D01*
X191243741Y-186179042D02*
X191243741Y-185607614D01*
X191243741Y-185607614D02*
X191315169Y-185464757D01*
X191315169Y-185464757D02*
X191458027Y-185393328D01*
X191458027Y-185393328D02*
X191743741Y-185393328D01*
X191743741Y-185393328D02*
X191886598Y-185464757D01*
X191886598Y-185464757D02*
X191958027Y-185607614D01*
X191958027Y-185607614D02*
X191958027Y-185750471D01*
X191958027Y-185750471D02*
X191243741Y-185893328D01*
X192600883Y-185393328D02*
X192600883Y-186393328D01*
X192600883Y-185536185D02*
X192672312Y-185464757D01*
X192672312Y-185464757D02*
X192815169Y-185393328D01*
X192815169Y-185393328D02*
X193029455Y-185393328D01*
X193029455Y-185393328D02*
X193172312Y-185464757D01*
X193172312Y-185464757D02*
X193243741Y-185607614D01*
X193243741Y-185607614D02*
X193243741Y-186393328D01*
X194172312Y-186393328D02*
X194029455Y-186321900D01*
X194029455Y-186321900D02*
X193958026Y-186250471D01*
X193958026Y-186250471D02*
X193886598Y-186107614D01*
X193886598Y-186107614D02*
X193886598Y-185679042D01*
X193886598Y-185679042D02*
X193958026Y-185536185D01*
X193958026Y-185536185D02*
X194029455Y-185464757D01*
X194029455Y-185464757D02*
X194172312Y-185393328D01*
X194172312Y-185393328D02*
X194386598Y-185393328D01*
X194386598Y-185393328D02*
X194529455Y-185464757D01*
X194529455Y-185464757D02*
X194600884Y-185536185D01*
X194600884Y-185536185D02*
X194672312Y-185679042D01*
X194672312Y-185679042D02*
X194672312Y-186107614D01*
X194672312Y-186107614D02*
X194600884Y-186250471D01*
X194600884Y-186250471D02*
X194529455Y-186321900D01*
X194529455Y-186321900D02*
X194386598Y-186393328D01*
X194386598Y-186393328D02*
X194172312Y-186393328D01*
X195315169Y-185393328D02*
X195315169Y-186393328D01*
X195315169Y-185536185D02*
X195386598Y-185464757D01*
X195386598Y-185464757D02*
X195529455Y-185393328D01*
X195529455Y-185393328D02*
X195743741Y-185393328D01*
X195743741Y-185393328D02*
X195886598Y-185464757D01*
X195886598Y-185464757D02*
X195958027Y-185607614D01*
X195958027Y-185607614D02*
X195958027Y-186393328D01*
X196672312Y-185393328D02*
X196672312Y-186393328D01*
X196672312Y-185536185D02*
X196743741Y-185464757D01*
X196743741Y-185464757D02*
X196886598Y-185393328D01*
X196886598Y-185393328D02*
X197100884Y-185393328D01*
X197100884Y-185393328D02*
X197243741Y-185464757D01*
X197243741Y-185464757D02*
X197315170Y-185607614D01*
X197315170Y-185607614D02*
X197315170Y-186393328D01*
X197815170Y-185393328D02*
X198386598Y-185393328D01*
X198029455Y-184893328D02*
X198029455Y-186179042D01*
X198029455Y-186179042D02*
X198100884Y-186321900D01*
X198100884Y-186321900D02*
X198243741Y-186393328D01*
X198243741Y-186393328D02*
X198386598Y-186393328D01*
X198529456Y-186536185D02*
X199672313Y-186536185D01*
X200672313Y-186393328D02*
X200672313Y-185607614D01*
X200672313Y-185607614D02*
X200600884Y-185464757D01*
X200600884Y-185464757D02*
X200458027Y-185393328D01*
X200458027Y-185393328D02*
X200172313Y-185393328D01*
X200172313Y-185393328D02*
X200029455Y-185464757D01*
X200672313Y-186321900D02*
X200529455Y-186393328D01*
X200529455Y-186393328D02*
X200172313Y-186393328D01*
X200172313Y-186393328D02*
X200029455Y-186321900D01*
X200029455Y-186321900D02*
X199958027Y-186179042D01*
X199958027Y-186179042D02*
X199958027Y-186036185D01*
X199958027Y-186036185D02*
X200029455Y-185893328D01*
X200029455Y-185893328D02*
X200172313Y-185821900D01*
X200172313Y-185821900D02*
X200529455Y-185821900D01*
X200529455Y-185821900D02*
X200672313Y-185750471D01*
X201386598Y-186393328D02*
X201386598Y-185393328D01*
X201386598Y-185536185D02*
X201458027Y-185464757D01*
X201458027Y-185464757D02*
X201600884Y-185393328D01*
X201600884Y-185393328D02*
X201815170Y-185393328D01*
X201815170Y-185393328D02*
X201958027Y-185464757D01*
X201958027Y-185464757D02*
X202029456Y-185607614D01*
X202029456Y-185607614D02*
X202029456Y-186393328D01*
X202029456Y-185607614D02*
X202100884Y-185464757D01*
X202100884Y-185464757D02*
X202243741Y-185393328D01*
X202243741Y-185393328D02*
X202458027Y-185393328D01*
X202458027Y-185393328D02*
X202600884Y-185464757D01*
X202600884Y-185464757D02*
X202672313Y-185607614D01*
X202672313Y-185607614D02*
X202672313Y-186393328D01*
X203386598Y-185393328D02*
X203386598Y-186893328D01*
X203386598Y-185464757D02*
X203529456Y-185393328D01*
X203529456Y-185393328D02*
X203815170Y-185393328D01*
X203815170Y-185393328D02*
X203958027Y-185464757D01*
X203958027Y-185464757D02*
X204029456Y-185536185D01*
X204029456Y-185536185D02*
X204100884Y-185679042D01*
X204100884Y-185679042D02*
X204100884Y-186107614D01*
X204100884Y-186107614D02*
X204029456Y-186250471D01*
X204029456Y-186250471D02*
X203958027Y-186321900D01*
X203958027Y-186321900D02*
X203815170Y-186393328D01*
X203815170Y-186393328D02*
X203529456Y-186393328D01*
X203529456Y-186393328D02*
X203386598Y-186321900D01*
X204958027Y-186393328D02*
X204815170Y-186321900D01*
X204815170Y-186321900D02*
X204743741Y-186179042D01*
X204743741Y-186179042D02*
X204743741Y-184893328D01*
X205529455Y-186393328D02*
X205529455Y-185393328D01*
X205529455Y-184893328D02*
X205458027Y-184964757D01*
X205458027Y-184964757D02*
X205529455Y-185036185D01*
X205529455Y-185036185D02*
X205600884Y-184964757D01*
X205600884Y-184964757D02*
X205529455Y-184893328D01*
X205529455Y-184893328D02*
X205529455Y-185036185D01*
X206029456Y-185393328D02*
X206600884Y-185393328D01*
X206243741Y-186393328D02*
X206243741Y-185107614D01*
X206243741Y-185107614D02*
X206315170Y-184964757D01*
X206315170Y-184964757D02*
X206458027Y-184893328D01*
X206458027Y-184893328D02*
X206600884Y-184893328D01*
X207100884Y-186393328D02*
X207100884Y-185393328D01*
X207100884Y-184893328D02*
X207029456Y-184964757D01*
X207029456Y-184964757D02*
X207100884Y-185036185D01*
X207100884Y-185036185D02*
X207172313Y-184964757D01*
X207172313Y-184964757D02*
X207100884Y-184893328D01*
X207100884Y-184893328D02*
X207100884Y-185036185D01*
X208386599Y-186321900D02*
X208243742Y-186393328D01*
X208243742Y-186393328D02*
X207958028Y-186393328D01*
X207958028Y-186393328D02*
X207815170Y-186321900D01*
X207815170Y-186321900D02*
X207743742Y-186179042D01*
X207743742Y-186179042D02*
X207743742Y-185607614D01*
X207743742Y-185607614D02*
X207815170Y-185464757D01*
X207815170Y-185464757D02*
X207958028Y-185393328D01*
X207958028Y-185393328D02*
X208243742Y-185393328D01*
X208243742Y-185393328D02*
X208386599Y-185464757D01*
X208386599Y-185464757D02*
X208458028Y-185607614D01*
X208458028Y-185607614D02*
X208458028Y-185750471D01*
X208458028Y-185750471D02*
X207743742Y-185893328D01*
X209100884Y-186393328D02*
X209100884Y-185393328D01*
X209100884Y-185679042D02*
X209172313Y-185536185D01*
X209172313Y-185536185D02*
X209243742Y-185464757D01*
X209243742Y-185464757D02*
X209386599Y-185393328D01*
X209386599Y-185393328D02*
X209529456Y-185393328D01*
X209672313Y-186536185D02*
X210815170Y-186536185D01*
X210958027Y-185393328D02*
X211529455Y-185393328D01*
X211172312Y-184893328D02*
X211172312Y-186179042D01*
X211172312Y-186179042D02*
X211243741Y-186321900D01*
X211243741Y-186321900D02*
X211386598Y-186393328D01*
X211386598Y-186393328D02*
X211529455Y-186393328D01*
X212600884Y-186321900D02*
X212458027Y-186393328D01*
X212458027Y-186393328D02*
X212172313Y-186393328D01*
X212172313Y-186393328D02*
X212029455Y-186321900D01*
X212029455Y-186321900D02*
X211958027Y-186179042D01*
X211958027Y-186179042D02*
X211958027Y-185607614D01*
X211958027Y-185607614D02*
X212029455Y-185464757D01*
X212029455Y-185464757D02*
X212172313Y-185393328D01*
X212172313Y-185393328D02*
X212458027Y-185393328D01*
X212458027Y-185393328D02*
X212600884Y-185464757D01*
X212600884Y-185464757D02*
X212672313Y-185607614D01*
X212672313Y-185607614D02*
X212672313Y-185750471D01*
X212672313Y-185750471D02*
X211958027Y-185893328D01*
X213243741Y-186321900D02*
X213386598Y-186393328D01*
X213386598Y-186393328D02*
X213672312Y-186393328D01*
X213672312Y-186393328D02*
X213815169Y-186321900D01*
X213815169Y-186321900D02*
X213886598Y-186179042D01*
X213886598Y-186179042D02*
X213886598Y-186107614D01*
X213886598Y-186107614D02*
X213815169Y-185964757D01*
X213815169Y-185964757D02*
X213672312Y-185893328D01*
X213672312Y-185893328D02*
X213458027Y-185893328D01*
X213458027Y-185893328D02*
X213315169Y-185821900D01*
X213315169Y-185821900D02*
X213243741Y-185679042D01*
X213243741Y-185679042D02*
X213243741Y-185607614D01*
X213243741Y-185607614D02*
X213315169Y-185464757D01*
X213315169Y-185464757D02*
X213458027Y-185393328D01*
X213458027Y-185393328D02*
X213672312Y-185393328D01*
X213672312Y-185393328D02*
X213815169Y-185464757D01*
X214315170Y-185393328D02*
X214886598Y-185393328D01*
X214529455Y-184893328D02*
X214529455Y-186179042D01*
X214529455Y-186179042D02*
X214600884Y-186321900D01*
X214600884Y-186321900D02*
X214743741Y-186393328D01*
X214743741Y-186393328D02*
X214886598Y-186393328D01*
X215386598Y-186250471D02*
X215458027Y-186321900D01*
X215458027Y-186321900D02*
X215386598Y-186393328D01*
X215386598Y-186393328D02*
X215315170Y-186321900D01*
X215315170Y-186321900D02*
X215386598Y-186250471D01*
X215386598Y-186250471D02*
X215386598Y-186393328D01*
X216100884Y-186393328D02*
X216100884Y-184893328D01*
X216243742Y-185821900D02*
X216672313Y-186393328D01*
X216672313Y-185393328D02*
X216100884Y-185964757D01*
X217315170Y-186393328D02*
X217315170Y-185393328D01*
X217315170Y-184893328D02*
X217243742Y-184964757D01*
X217243742Y-184964757D02*
X217315170Y-185036185D01*
X217315170Y-185036185D02*
X217386599Y-184964757D01*
X217386599Y-184964757D02*
X217315170Y-184893328D01*
X217315170Y-184893328D02*
X217315170Y-185036185D01*
X218672314Y-186321900D02*
X218529456Y-186393328D01*
X218529456Y-186393328D02*
X218243742Y-186393328D01*
X218243742Y-186393328D02*
X218100885Y-186321900D01*
X218100885Y-186321900D02*
X218029456Y-186250471D01*
X218029456Y-186250471D02*
X217958028Y-186107614D01*
X217958028Y-186107614D02*
X217958028Y-185679042D01*
X217958028Y-185679042D02*
X218029456Y-185536185D01*
X218029456Y-185536185D02*
X218100885Y-185464757D01*
X218100885Y-185464757D02*
X218243742Y-185393328D01*
X218243742Y-185393328D02*
X218529456Y-185393328D01*
X218529456Y-185393328D02*
X218672314Y-185464757D01*
X219958028Y-186393328D02*
X219958028Y-185607614D01*
X219958028Y-185607614D02*
X219886599Y-185464757D01*
X219886599Y-185464757D02*
X219743742Y-185393328D01*
X219743742Y-185393328D02*
X219458028Y-185393328D01*
X219458028Y-185393328D02*
X219315170Y-185464757D01*
X219958028Y-186321900D02*
X219815170Y-186393328D01*
X219815170Y-186393328D02*
X219458028Y-186393328D01*
X219458028Y-186393328D02*
X219315170Y-186321900D01*
X219315170Y-186321900D02*
X219243742Y-186179042D01*
X219243742Y-186179042D02*
X219243742Y-186036185D01*
X219243742Y-186036185D02*
X219315170Y-185893328D01*
X219315170Y-185893328D02*
X219458028Y-185821900D01*
X219458028Y-185821900D02*
X219815170Y-185821900D01*
X219815170Y-185821900D02*
X219958028Y-185750471D01*
X221315171Y-186393328D02*
X221315171Y-184893328D01*
X221315171Y-186321900D02*
X221172313Y-186393328D01*
X221172313Y-186393328D02*
X220886599Y-186393328D01*
X220886599Y-186393328D02*
X220743742Y-186321900D01*
X220743742Y-186321900D02*
X220672313Y-186250471D01*
X220672313Y-186250471D02*
X220600885Y-186107614D01*
X220600885Y-186107614D02*
X220600885Y-185679042D01*
X220600885Y-185679042D02*
X220672313Y-185536185D01*
X220672313Y-185536185D02*
X220743742Y-185464757D01*
X220743742Y-185464757D02*
X220886599Y-185393328D01*
X220886599Y-185393328D02*
X221172313Y-185393328D01*
X221172313Y-185393328D02*
X221315171Y-185464757D01*
X221672314Y-186536185D02*
X222815171Y-186536185D01*
X223172313Y-185393328D02*
X223172313Y-186893328D01*
X223172313Y-185464757D02*
X223315171Y-185393328D01*
X223315171Y-185393328D02*
X223600885Y-185393328D01*
X223600885Y-185393328D02*
X223743742Y-185464757D01*
X223743742Y-185464757D02*
X223815171Y-185536185D01*
X223815171Y-185536185D02*
X223886599Y-185679042D01*
X223886599Y-185679042D02*
X223886599Y-186107614D01*
X223886599Y-186107614D02*
X223815171Y-186250471D01*
X223815171Y-186250471D02*
X223743742Y-186321900D01*
X223743742Y-186321900D02*
X223600885Y-186393328D01*
X223600885Y-186393328D02*
X223315171Y-186393328D01*
X223315171Y-186393328D02*
X223172313Y-186321900D01*
X225172314Y-186321900D02*
X225029456Y-186393328D01*
X225029456Y-186393328D02*
X224743742Y-186393328D01*
X224743742Y-186393328D02*
X224600885Y-186321900D01*
X224600885Y-186321900D02*
X224529456Y-186250471D01*
X224529456Y-186250471D02*
X224458028Y-186107614D01*
X224458028Y-186107614D02*
X224458028Y-185679042D01*
X224458028Y-185679042D02*
X224529456Y-185536185D01*
X224529456Y-185536185D02*
X224600885Y-185464757D01*
X224600885Y-185464757D02*
X224743742Y-185393328D01*
X224743742Y-185393328D02*
X225029456Y-185393328D01*
X225029456Y-185393328D02*
X225172314Y-185464757D01*
X225815170Y-186393328D02*
X225815170Y-184893328D01*
X225815170Y-185464757D02*
X225958028Y-185393328D01*
X225958028Y-185393328D02*
X226243742Y-185393328D01*
X226243742Y-185393328D02*
X226386599Y-185464757D01*
X226386599Y-185464757D02*
X226458028Y-185536185D01*
X226458028Y-185536185D02*
X226529456Y-185679042D01*
X226529456Y-185679042D02*
X226529456Y-186107614D01*
X226529456Y-186107614D02*
X226458028Y-186250471D01*
X226458028Y-186250471D02*
X226386599Y-186321900D01*
X226386599Y-186321900D02*
X226243742Y-186393328D01*
X226243742Y-186393328D02*
X225958028Y-186393328D01*
X225958028Y-186393328D02*
X225815170Y-186321900D01*
X177002200Y-181507200D02*
X285002200Y-181507200D01*
X178386598Y-183621900D02*
X178600884Y-183693328D01*
X178600884Y-183693328D02*
X178958026Y-183693328D01*
X178958026Y-183693328D02*
X179100884Y-183621900D01*
X179100884Y-183621900D02*
X179172312Y-183550471D01*
X179172312Y-183550471D02*
X179243741Y-183407614D01*
X179243741Y-183407614D02*
X179243741Y-183264757D01*
X179243741Y-183264757D02*
X179172312Y-183121900D01*
X179172312Y-183121900D02*
X179100884Y-183050471D01*
X179100884Y-183050471D02*
X178958026Y-182979042D01*
X178958026Y-182979042D02*
X178672312Y-182907614D01*
X178672312Y-182907614D02*
X178529455Y-182836185D01*
X178529455Y-182836185D02*
X178458026Y-182764757D01*
X178458026Y-182764757D02*
X178386598Y-182621900D01*
X178386598Y-182621900D02*
X178386598Y-182479042D01*
X178386598Y-182479042D02*
X178458026Y-182336185D01*
X178458026Y-182336185D02*
X178529455Y-182264757D01*
X178529455Y-182264757D02*
X178672312Y-182193328D01*
X178672312Y-182193328D02*
X179029455Y-182193328D01*
X179029455Y-182193328D02*
X179243741Y-182264757D01*
X179886597Y-183693328D02*
X179886597Y-182193328D01*
X180529455Y-183693328D02*
X180529455Y-182907614D01*
X180529455Y-182907614D02*
X180458026Y-182764757D01*
X180458026Y-182764757D02*
X180315169Y-182693328D01*
X180315169Y-182693328D02*
X180100883Y-182693328D01*
X180100883Y-182693328D02*
X179958026Y-182764757D01*
X179958026Y-182764757D02*
X179886597Y-182836185D01*
X181815169Y-183621900D02*
X181672312Y-183693328D01*
X181672312Y-183693328D02*
X181386598Y-183693328D01*
X181386598Y-183693328D02*
X181243740Y-183621900D01*
X181243740Y-183621900D02*
X181172312Y-183479042D01*
X181172312Y-183479042D02*
X181172312Y-182907614D01*
X181172312Y-182907614D02*
X181243740Y-182764757D01*
X181243740Y-182764757D02*
X181386598Y-182693328D01*
X181386598Y-182693328D02*
X181672312Y-182693328D01*
X181672312Y-182693328D02*
X181815169Y-182764757D01*
X181815169Y-182764757D02*
X181886598Y-182907614D01*
X181886598Y-182907614D02*
X181886598Y-183050471D01*
X181886598Y-183050471D02*
X181172312Y-183193328D01*
X183100883Y-183621900D02*
X182958026Y-183693328D01*
X182958026Y-183693328D02*
X182672312Y-183693328D01*
X182672312Y-183693328D02*
X182529454Y-183621900D01*
X182529454Y-183621900D02*
X182458026Y-183479042D01*
X182458026Y-183479042D02*
X182458026Y-182907614D01*
X182458026Y-182907614D02*
X182529454Y-182764757D01*
X182529454Y-182764757D02*
X182672312Y-182693328D01*
X182672312Y-182693328D02*
X182958026Y-182693328D01*
X182958026Y-182693328D02*
X183100883Y-182764757D01*
X183100883Y-182764757D02*
X183172312Y-182907614D01*
X183172312Y-182907614D02*
X183172312Y-183050471D01*
X183172312Y-183050471D02*
X182458026Y-183193328D01*
X183600883Y-182693328D02*
X184172311Y-182693328D01*
X183815168Y-182193328D02*
X183815168Y-183479042D01*
X183815168Y-183479042D02*
X183886597Y-183621900D01*
X183886597Y-183621900D02*
X184029454Y-183693328D01*
X184029454Y-183693328D02*
X184172311Y-183693328D01*
X184672311Y-183550471D02*
X184743740Y-183621900D01*
X184743740Y-183621900D02*
X184672311Y-183693328D01*
X184672311Y-183693328D02*
X184600883Y-183621900D01*
X184600883Y-183621900D02*
X184672311Y-183550471D01*
X184672311Y-183550471D02*
X184672311Y-183693328D01*
X184672311Y-182764757D02*
X184743740Y-182836185D01*
X184743740Y-182836185D02*
X184672311Y-182907614D01*
X184672311Y-182907614D02*
X184600883Y-182836185D01*
X184600883Y-182836185D02*
X184672311Y-182764757D01*
X184672311Y-182764757D02*
X184672311Y-182907614D01*
X197002200Y-191507200D02*
X197002200Y-194507200D01*
X261002200Y-191507200D02*
X261002200Y-198007200D01*
D13*
%TO.N,VCC*%
%TO.C,J4*%
X51000000Y-73295001D03*
D14*
%TO.N,GND*%
X51000000Y-75835001D03*
%TO.N,VEE*%
X51000000Y-78375000D03*
%TD*%
D15*
%TO.N,GND*%
X68050000Y-95510000D03*
X51000000Y-65390000D03*
X72900000Y-105800000D03*
X58000000Y-103940000D03*
X72600000Y-85800000D03*
X72200000Y-75000000D03*
X58150000Y-98230000D03*
X67930000Y-100680000D03*
X51030000Y-86340000D03*
X73100000Y-114300000D03*
X58920000Y-94940000D03*
X72500000Y-66500000D03*
X67530000Y-94020000D03*
X67950000Y-99180000D03*
X58220000Y-107700000D03*
X67100000Y-105130000D03*
X68140000Y-103650000D03*
X72600000Y-94300000D03*
X57500000Y-105700000D03*
%TO.N,VEE*%
X60750001Y-96550001D03*
X65360000Y-102650000D03*
X64340000Y-105150000D03*
X60050000Y-95010000D03*
X59860000Y-98260000D03*
%TO.N,Net-(U3--)*%
X64160000Y-98270000D03*
%TO.N,Net-(R3-Pad2)*%
X63410000Y-106910000D03*
%TO.N,Net-(U1--)*%
X61020000Y-103280000D03*
%TO.N,VCC*%
X61135000Y-106880000D03*
X59500000Y-104840000D03*
X64175000Y-94880000D03*
X65220000Y-95600002D03*
%TO.N,Net-(R8-Pad2)*%
X61870000Y-94730000D03*
%TD*%
%TA.AperFunction,Conductor*%
%TO.N,GND*%
G36*
X78442539Y-62520185D02*
G01*
X78488294Y-62572989D01*
X78499500Y-62624500D01*
X78499500Y-121375500D01*
X78479815Y-121442539D01*
X78427011Y-121488294D01*
X78375500Y-121499500D01*
X45624500Y-121499500D01*
X45557461Y-121479815D01*
X45511706Y-121427011D01*
X45500500Y-121375500D01*
X45500500Y-106791304D01*
X60234500Y-106791304D01*
X60234500Y-106968695D01*
X60269103Y-107142658D01*
X60269106Y-107142667D01*
X60336983Y-107306540D01*
X60336990Y-107306553D01*
X60435535Y-107454034D01*
X60435538Y-107454038D01*
X60560961Y-107579461D01*
X60560965Y-107579464D01*
X60708446Y-107678009D01*
X60708459Y-107678016D01*
X60780880Y-107708013D01*
X60872334Y-107745894D01*
X60872336Y-107745894D01*
X60872341Y-107745896D01*
X61046304Y-107780499D01*
X61046307Y-107780500D01*
X61046309Y-107780500D01*
X61223693Y-107780500D01*
X61223694Y-107780499D01*
X61281682Y-107768964D01*
X61397658Y-107745896D01*
X61397661Y-107745894D01*
X61397666Y-107745894D01*
X61561547Y-107678013D01*
X61709035Y-107579464D01*
X61834464Y-107454035D01*
X61933013Y-107306547D01*
X62000894Y-107142666D01*
X62035500Y-106968691D01*
X62035500Y-106821304D01*
X62509500Y-106821304D01*
X62509500Y-106998695D01*
X62544103Y-107172658D01*
X62544106Y-107172667D01*
X62611983Y-107336540D01*
X62611990Y-107336553D01*
X62710535Y-107484034D01*
X62710538Y-107484038D01*
X62835961Y-107609461D01*
X62835965Y-107609464D01*
X62983446Y-107708009D01*
X62983459Y-107708016D01*
X63106363Y-107758923D01*
X63147334Y-107775894D01*
X63147336Y-107775894D01*
X63147341Y-107775896D01*
X63321304Y-107810499D01*
X63321307Y-107810500D01*
X63321309Y-107810500D01*
X63498693Y-107810500D01*
X63498694Y-107810499D01*
X63556682Y-107798964D01*
X63672658Y-107775896D01*
X63672661Y-107775894D01*
X63672666Y-107775894D01*
X63836547Y-107708013D01*
X63984035Y-107609464D01*
X64109464Y-107484035D01*
X64208013Y-107336547D01*
X64275894Y-107172666D01*
X64281862Y-107142667D01*
X64310499Y-106998695D01*
X64310500Y-106998693D01*
X64310500Y-106821306D01*
X64310499Y-106821304D01*
X64275896Y-106647341D01*
X64275893Y-106647332D01*
X64208016Y-106483459D01*
X64208009Y-106483446D01*
X64109464Y-106335965D01*
X64109461Y-106335961D01*
X64006943Y-106233443D01*
X63973458Y-106172120D01*
X63978442Y-106102428D01*
X64020314Y-106046495D01*
X64085778Y-106022078D01*
X64118813Y-106024144D01*
X64166496Y-106033629D01*
X64251306Y-106050500D01*
X64251309Y-106050500D01*
X64428693Y-106050500D01*
X64428694Y-106050499D01*
X64486682Y-106038964D01*
X64602658Y-106015896D01*
X64602661Y-106015894D01*
X64602666Y-106015894D01*
X64766547Y-105948013D01*
X64914035Y-105849464D01*
X65039464Y-105724035D01*
X65138013Y-105576547D01*
X65205894Y-105412666D01*
X65240500Y-105238691D01*
X65240500Y-105061309D01*
X65240500Y-105061306D01*
X65240499Y-105061304D01*
X65205896Y-104887341D01*
X65205893Y-104887332D01*
X65138016Y-104723459D01*
X65138009Y-104723446D01*
X65039464Y-104575965D01*
X65039461Y-104575961D01*
X64914038Y-104450538D01*
X64914034Y-104450535D01*
X64766553Y-104351990D01*
X64766540Y-104351983D01*
X64602667Y-104284106D01*
X64602658Y-104284103D01*
X64428694Y-104249500D01*
X64428691Y-104249500D01*
X64251309Y-104249500D01*
X64251306Y-104249500D01*
X64077341Y-104284103D01*
X64077332Y-104284106D01*
X63913459Y-104351983D01*
X63913446Y-104351990D01*
X63765965Y-104450535D01*
X63765961Y-104450538D01*
X63640538Y-104575961D01*
X63640535Y-104575965D01*
X63541990Y-104723446D01*
X63541983Y-104723459D01*
X63474106Y-104887332D01*
X63474103Y-104887341D01*
X63439500Y-105061304D01*
X63439500Y-105238695D01*
X63474103Y-105412658D01*
X63474106Y-105412667D01*
X63541983Y-105576540D01*
X63541990Y-105576553D01*
X63640535Y-105724034D01*
X63640538Y-105724038D01*
X63743056Y-105826556D01*
X63776541Y-105887879D01*
X63771557Y-105957571D01*
X63729685Y-106013504D01*
X63664221Y-106037921D01*
X63631184Y-106035854D01*
X63498694Y-106009500D01*
X63498691Y-106009500D01*
X63321309Y-106009500D01*
X63321306Y-106009500D01*
X63147341Y-106044103D01*
X63147332Y-106044106D01*
X62983459Y-106111983D01*
X62983446Y-106111990D01*
X62835965Y-106210535D01*
X62835961Y-106210538D01*
X62710538Y-106335961D01*
X62710535Y-106335965D01*
X62611990Y-106483446D01*
X62611983Y-106483459D01*
X62544106Y-106647332D01*
X62544103Y-106647341D01*
X62509500Y-106821304D01*
X62035500Y-106821304D01*
X62035500Y-106791309D01*
X62035500Y-106791306D01*
X62035499Y-106791304D01*
X62000896Y-106617341D01*
X62000893Y-106617332D01*
X61933016Y-106453459D01*
X61933009Y-106453446D01*
X61834464Y-106305965D01*
X61834461Y-106305961D01*
X61709038Y-106180538D01*
X61709034Y-106180535D01*
X61561553Y-106081990D01*
X61561540Y-106081983D01*
X61397667Y-106014106D01*
X61397658Y-106014103D01*
X61223694Y-105979500D01*
X61223691Y-105979500D01*
X61046309Y-105979500D01*
X61046306Y-105979500D01*
X60872341Y-106014103D01*
X60872332Y-106014106D01*
X60708459Y-106081983D01*
X60708446Y-106081990D01*
X60560965Y-106180535D01*
X60560961Y-106180538D01*
X60435538Y-106305961D01*
X60435535Y-106305965D01*
X60336990Y-106453446D01*
X60336983Y-106453459D01*
X60269106Y-106617332D01*
X60269103Y-106617341D01*
X60234500Y-106791304D01*
X45500500Y-106791304D01*
X45500500Y-104751304D01*
X58599500Y-104751304D01*
X58599500Y-104928695D01*
X58634103Y-105102658D01*
X58634106Y-105102667D01*
X58701983Y-105266540D01*
X58701990Y-105266553D01*
X58800535Y-105414034D01*
X58800538Y-105414038D01*
X58925961Y-105539461D01*
X58925965Y-105539464D01*
X59073446Y-105638009D01*
X59073459Y-105638016D01*
X59196363Y-105688923D01*
X59237334Y-105705894D01*
X59237336Y-105705894D01*
X59237341Y-105705896D01*
X59411304Y-105740499D01*
X59411307Y-105740500D01*
X59411309Y-105740500D01*
X59588693Y-105740500D01*
X59588694Y-105740499D01*
X59671471Y-105724034D01*
X59762658Y-105705896D01*
X59762661Y-105705894D01*
X59762666Y-105705894D01*
X59926547Y-105638013D01*
X60074035Y-105539464D01*
X60199464Y-105414035D01*
X60298013Y-105266547D01*
X60365894Y-105102666D01*
X60374121Y-105061309D01*
X60400499Y-104928695D01*
X60400500Y-104928693D01*
X60400500Y-104751306D01*
X60400499Y-104751304D01*
X60365896Y-104577341D01*
X60365893Y-104577332D01*
X60298016Y-104413459D01*
X60298009Y-104413446D01*
X60199464Y-104265965D01*
X60199461Y-104265961D01*
X60074038Y-104140538D01*
X60074034Y-104140535D01*
X59926553Y-104041990D01*
X59926540Y-104041983D01*
X59762667Y-103974106D01*
X59762658Y-103974103D01*
X59588694Y-103939500D01*
X59588691Y-103939500D01*
X59411309Y-103939500D01*
X59411306Y-103939500D01*
X59237341Y-103974103D01*
X59237332Y-103974106D01*
X59073459Y-104041983D01*
X59073446Y-104041990D01*
X58925965Y-104140535D01*
X58925961Y-104140538D01*
X58800538Y-104265961D01*
X58800535Y-104265965D01*
X58701990Y-104413446D01*
X58701983Y-104413459D01*
X58634106Y-104577332D01*
X58634103Y-104577341D01*
X58599500Y-104751304D01*
X45500500Y-104751304D01*
X45500500Y-103191304D01*
X60119500Y-103191304D01*
X60119500Y-103368695D01*
X60154103Y-103542658D01*
X60154106Y-103542667D01*
X60221983Y-103706540D01*
X60221990Y-103706553D01*
X60320535Y-103854034D01*
X60320538Y-103854038D01*
X60445961Y-103979461D01*
X60445965Y-103979464D01*
X60593446Y-104078009D01*
X60593459Y-104078016D01*
X60716363Y-104128923D01*
X60757334Y-104145894D01*
X60757336Y-104145894D01*
X60757341Y-104145896D01*
X60931304Y-104180499D01*
X60931307Y-104180500D01*
X60931309Y-104180500D01*
X61108693Y-104180500D01*
X61108694Y-104180499D01*
X61166682Y-104168964D01*
X61282658Y-104145896D01*
X61282661Y-104145894D01*
X61282666Y-104145894D01*
X61446547Y-104078013D01*
X61594035Y-103979464D01*
X61719464Y-103854035D01*
X61818013Y-103706547D01*
X61885894Y-103542666D01*
X61891220Y-103515894D01*
X61920499Y-103368695D01*
X61920500Y-103368693D01*
X61920500Y-103191306D01*
X61920499Y-103191304D01*
X61885896Y-103017341D01*
X61885893Y-103017332D01*
X61818016Y-102853459D01*
X61818009Y-102853446D01*
X61719464Y-102705965D01*
X61719461Y-102705961D01*
X61594038Y-102580538D01*
X61594034Y-102580535D01*
X61565253Y-102561304D01*
X64459500Y-102561304D01*
X64459500Y-102738695D01*
X64494103Y-102912658D01*
X64494106Y-102912667D01*
X64561983Y-103076540D01*
X64561990Y-103076553D01*
X64660535Y-103224034D01*
X64660538Y-103224038D01*
X64785961Y-103349461D01*
X64785965Y-103349464D01*
X64933446Y-103448009D01*
X64933459Y-103448016D01*
X65056363Y-103498923D01*
X65097334Y-103515894D01*
X65097336Y-103515894D01*
X65097341Y-103515896D01*
X65271304Y-103550499D01*
X65271307Y-103550500D01*
X65271309Y-103550500D01*
X65448693Y-103550500D01*
X65448694Y-103550499D01*
X65506682Y-103538964D01*
X65622658Y-103515896D01*
X65622661Y-103515894D01*
X65622666Y-103515894D01*
X65786547Y-103448013D01*
X65934035Y-103349464D01*
X66059464Y-103224035D01*
X66158013Y-103076547D01*
X66225894Y-102912666D01*
X66260500Y-102738691D01*
X66260500Y-102561309D01*
X66260500Y-102561306D01*
X66260499Y-102561304D01*
X66225896Y-102387341D01*
X66225893Y-102387332D01*
X66158016Y-102223459D01*
X66158009Y-102223446D01*
X66059464Y-102075965D01*
X66059461Y-102075961D01*
X65934038Y-101950538D01*
X65934034Y-101950535D01*
X65786553Y-101851990D01*
X65786540Y-101851983D01*
X65622667Y-101784106D01*
X65622658Y-101784103D01*
X65448694Y-101749500D01*
X65448691Y-101749500D01*
X65271309Y-101749500D01*
X65271306Y-101749500D01*
X65097341Y-101784103D01*
X65097332Y-101784106D01*
X64933459Y-101851983D01*
X64933446Y-101851990D01*
X64785965Y-101950535D01*
X64785961Y-101950538D01*
X64660538Y-102075961D01*
X64660535Y-102075965D01*
X64561990Y-102223446D01*
X64561983Y-102223459D01*
X64494106Y-102387332D01*
X64494103Y-102387341D01*
X64459500Y-102561304D01*
X61565253Y-102561304D01*
X61446553Y-102481990D01*
X61446540Y-102481983D01*
X61282667Y-102414106D01*
X61282658Y-102414103D01*
X61108694Y-102379500D01*
X61108691Y-102379500D01*
X60931309Y-102379500D01*
X60931306Y-102379500D01*
X60757341Y-102414103D01*
X60757332Y-102414106D01*
X60593459Y-102481983D01*
X60593446Y-102481990D01*
X60445965Y-102580535D01*
X60445961Y-102580538D01*
X60320538Y-102705961D01*
X60320535Y-102705965D01*
X60221990Y-102853446D01*
X60221983Y-102853459D01*
X60154106Y-103017332D01*
X60154103Y-103017341D01*
X60119500Y-103191304D01*
X45500500Y-103191304D01*
X45500500Y-98171304D01*
X58959500Y-98171304D01*
X58959500Y-98348695D01*
X58994103Y-98522658D01*
X58994106Y-98522667D01*
X59061983Y-98686540D01*
X59061990Y-98686553D01*
X59160535Y-98834034D01*
X59160538Y-98834038D01*
X59285961Y-98959461D01*
X59285965Y-98959464D01*
X59433446Y-99058009D01*
X59433459Y-99058016D01*
X59556363Y-99108923D01*
X59597334Y-99125894D01*
X59597336Y-99125894D01*
X59597341Y-99125896D01*
X59771304Y-99160499D01*
X59771307Y-99160500D01*
X59771309Y-99160500D01*
X59948693Y-99160500D01*
X59948694Y-99160499D01*
X60006682Y-99148964D01*
X60122658Y-99125896D01*
X60122661Y-99125894D01*
X60122666Y-99125894D01*
X60286547Y-99058013D01*
X60434035Y-98959464D01*
X60559464Y-98834035D01*
X60658013Y-98686547D01*
X60725894Y-98522666D01*
X60760500Y-98348691D01*
X60760500Y-98181304D01*
X63259500Y-98181304D01*
X63259500Y-98358695D01*
X63294103Y-98532658D01*
X63294106Y-98532667D01*
X63361983Y-98696540D01*
X63361990Y-98696553D01*
X63460535Y-98844034D01*
X63460538Y-98844038D01*
X63585961Y-98969461D01*
X63585965Y-98969464D01*
X63733446Y-99068009D01*
X63733459Y-99068016D01*
X63856363Y-99118923D01*
X63897334Y-99135894D01*
X63897336Y-99135894D01*
X63897341Y-99135896D01*
X64071304Y-99170499D01*
X64071307Y-99170500D01*
X64071309Y-99170500D01*
X64248693Y-99170500D01*
X64248694Y-99170499D01*
X64306682Y-99158964D01*
X64422658Y-99135896D01*
X64422661Y-99135894D01*
X64422666Y-99135894D01*
X64586547Y-99068013D01*
X64734035Y-98969464D01*
X64859464Y-98844035D01*
X64958013Y-98696547D01*
X65025894Y-98532666D01*
X65027884Y-98522666D01*
X65060499Y-98358695D01*
X65060500Y-98358693D01*
X65060500Y-98181306D01*
X65060499Y-98181304D01*
X65025896Y-98007341D01*
X65025893Y-98007332D01*
X64958016Y-97843459D01*
X64958009Y-97843446D01*
X64859464Y-97695965D01*
X64859461Y-97695961D01*
X64734038Y-97570538D01*
X64734034Y-97570535D01*
X64586553Y-97471990D01*
X64586540Y-97471983D01*
X64422667Y-97404106D01*
X64422658Y-97404103D01*
X64248694Y-97369500D01*
X64248691Y-97369500D01*
X64071309Y-97369500D01*
X64071306Y-97369500D01*
X63897341Y-97404103D01*
X63897332Y-97404106D01*
X63733459Y-97471983D01*
X63733446Y-97471990D01*
X63585965Y-97570535D01*
X63585961Y-97570538D01*
X63460538Y-97695961D01*
X63460535Y-97695965D01*
X63361990Y-97843446D01*
X63361983Y-97843459D01*
X63294106Y-98007332D01*
X63294103Y-98007341D01*
X63259500Y-98181304D01*
X60760500Y-98181304D01*
X60760500Y-98171309D01*
X60760500Y-98171306D01*
X60760499Y-98171304D01*
X60725896Y-97997341D01*
X60725893Y-97997332D01*
X60658016Y-97833459D01*
X60658009Y-97833446D01*
X60559464Y-97685965D01*
X60559461Y-97685961D01*
X60529292Y-97655792D01*
X60495807Y-97594469D01*
X60500791Y-97524777D01*
X60542663Y-97468844D01*
X60608127Y-97444427D01*
X60641166Y-97446494D01*
X60661309Y-97450501D01*
X60661310Y-97450501D01*
X60838694Y-97450501D01*
X60838695Y-97450500D01*
X60896683Y-97438965D01*
X61012659Y-97415897D01*
X61012662Y-97415895D01*
X61012667Y-97415895D01*
X61176548Y-97348014D01*
X61324036Y-97249465D01*
X61449465Y-97124036D01*
X61548014Y-96976548D01*
X61615895Y-96812667D01*
X61650501Y-96638692D01*
X61650501Y-96461310D01*
X61650501Y-96461307D01*
X61650500Y-96461305D01*
X61615897Y-96287342D01*
X61615894Y-96287333D01*
X61548017Y-96123460D01*
X61548010Y-96123447D01*
X61449465Y-95975966D01*
X61449462Y-95975962D01*
X61324039Y-95850539D01*
X61324035Y-95850536D01*
X61176554Y-95751991D01*
X61176541Y-95751984D01*
X61012668Y-95684107D01*
X61012660Y-95684105D01*
X60903334Y-95662358D01*
X60841423Y-95629973D01*
X60806849Y-95569257D01*
X60810590Y-95499487D01*
X60815138Y-95488350D01*
X60819150Y-95479742D01*
X60848013Y-95436547D01*
X60915894Y-95272666D01*
X60916051Y-95271873D01*
X60918714Y-95266162D01*
X60940082Y-95241887D01*
X60960381Y-95216698D01*
X60963032Y-95215815D01*
X60964880Y-95213717D01*
X60995985Y-95204847D01*
X61026675Y-95194632D01*
X61029383Y-95195323D01*
X61032071Y-95194557D01*
X61063022Y-95203908D01*
X61094374Y-95211910D01*
X61096652Y-95214069D01*
X61098955Y-95214765D01*
X61105573Y-95222524D01*
X61134204Y-95249661D01*
X61170538Y-95304038D01*
X61295961Y-95429461D01*
X61295965Y-95429464D01*
X61443446Y-95528009D01*
X61443459Y-95528016D01*
X61543026Y-95569257D01*
X61607334Y-95595894D01*
X61607336Y-95595894D01*
X61607341Y-95595896D01*
X61781304Y-95630499D01*
X61781307Y-95630500D01*
X61781309Y-95630500D01*
X61958693Y-95630500D01*
X61958694Y-95630499D01*
X62016682Y-95618964D01*
X62132658Y-95595896D01*
X62132661Y-95595894D01*
X62132666Y-95595894D01*
X62296547Y-95528013D01*
X62444035Y-95429464D01*
X62569464Y-95304035D01*
X62668013Y-95156547D01*
X62735894Y-94992666D01*
X62770500Y-94818691D01*
X62770500Y-94791304D01*
X63274500Y-94791304D01*
X63274500Y-94968695D01*
X63309103Y-95142658D01*
X63309106Y-95142667D01*
X63376983Y-95306540D01*
X63376990Y-95306553D01*
X63475535Y-95454034D01*
X63475538Y-95454038D01*
X63600961Y-95579461D01*
X63600965Y-95579464D01*
X63748446Y-95678009D01*
X63748459Y-95678016D01*
X63824376Y-95709461D01*
X63912334Y-95745894D01*
X63912336Y-95745894D01*
X63912341Y-95745896D01*
X64086304Y-95780499D01*
X64086307Y-95780500D01*
X64237217Y-95780500D01*
X64304256Y-95800185D01*
X64350011Y-95852989D01*
X64351778Y-95857048D01*
X64421983Y-96026542D01*
X64421990Y-96026555D01*
X64520535Y-96174036D01*
X64520538Y-96174040D01*
X64645961Y-96299463D01*
X64645965Y-96299466D01*
X64793446Y-96398011D01*
X64793459Y-96398018D01*
X64916363Y-96448925D01*
X64957334Y-96465896D01*
X64957336Y-96465896D01*
X64957341Y-96465898D01*
X65131304Y-96500501D01*
X65131307Y-96500502D01*
X65131309Y-96500502D01*
X65308693Y-96500502D01*
X65308694Y-96500501D01*
X65366682Y-96488966D01*
X65482658Y-96465898D01*
X65482661Y-96465896D01*
X65482666Y-96465896D01*
X65646547Y-96398015D01*
X65794035Y-96299466D01*
X65919464Y-96174037D01*
X66018013Y-96026549D01*
X66085894Y-95862668D01*
X66087820Y-95852989D01*
X66120499Y-95688697D01*
X66120500Y-95688695D01*
X66120500Y-95511308D01*
X66120499Y-95511306D01*
X66085896Y-95337343D01*
X66085893Y-95337334D01*
X66018016Y-95173461D01*
X66018009Y-95173448D01*
X65919464Y-95025967D01*
X65919461Y-95025963D01*
X65794038Y-94900540D01*
X65794034Y-94900537D01*
X65646553Y-94801992D01*
X65646540Y-94801985D01*
X65482667Y-94734108D01*
X65482658Y-94734105D01*
X65308694Y-94699502D01*
X65308691Y-94699502D01*
X65157783Y-94699502D01*
X65090744Y-94679817D01*
X65044989Y-94627013D01*
X65043222Y-94622954D01*
X64973016Y-94453459D01*
X64973009Y-94453446D01*
X64874464Y-94305965D01*
X64874461Y-94305961D01*
X64749038Y-94180538D01*
X64749034Y-94180535D01*
X64601553Y-94081990D01*
X64601540Y-94081983D01*
X64437667Y-94014106D01*
X64437658Y-94014103D01*
X64263694Y-93979500D01*
X64263691Y-93979500D01*
X64086309Y-93979500D01*
X64086306Y-93979500D01*
X63912341Y-94014103D01*
X63912332Y-94014106D01*
X63748459Y-94081983D01*
X63748446Y-94081990D01*
X63600965Y-94180535D01*
X63600961Y-94180538D01*
X63475538Y-94305961D01*
X63475535Y-94305965D01*
X63376990Y-94453446D01*
X63376983Y-94453459D01*
X63309106Y-94617332D01*
X63309103Y-94617341D01*
X63274500Y-94791304D01*
X62770500Y-94791304D01*
X62770500Y-94641309D01*
X62770500Y-94641306D01*
X62770499Y-94641304D01*
X62735896Y-94467341D01*
X62735893Y-94467332D01*
X62668016Y-94303459D01*
X62668009Y-94303446D01*
X62569464Y-94155965D01*
X62569461Y-94155961D01*
X62444038Y-94030538D01*
X62444034Y-94030535D01*
X62296553Y-93931990D01*
X62296540Y-93931983D01*
X62132667Y-93864106D01*
X62132658Y-93864103D01*
X61958694Y-93829500D01*
X61958691Y-93829500D01*
X61781309Y-93829500D01*
X61781306Y-93829500D01*
X61607341Y-93864103D01*
X61607332Y-93864106D01*
X61443459Y-93931983D01*
X61443446Y-93931990D01*
X61295965Y-94030535D01*
X61295961Y-94030538D01*
X61170538Y-94155961D01*
X61170535Y-94155965D01*
X61071990Y-94303446D01*
X61071983Y-94303459D01*
X61003458Y-94468898D01*
X60959618Y-94523302D01*
X60893324Y-94545367D01*
X60825624Y-94528088D01*
X60785795Y-94490337D01*
X60749464Y-94435965D01*
X60749461Y-94435961D01*
X60624038Y-94310538D01*
X60624034Y-94310535D01*
X60476553Y-94211990D01*
X60476540Y-94211983D01*
X60312667Y-94144106D01*
X60312658Y-94144103D01*
X60138694Y-94109500D01*
X60138691Y-94109500D01*
X59961309Y-94109500D01*
X59961306Y-94109500D01*
X59787341Y-94144103D01*
X59787332Y-94144106D01*
X59623459Y-94211983D01*
X59623446Y-94211990D01*
X59475965Y-94310535D01*
X59475961Y-94310538D01*
X59350538Y-94435961D01*
X59350535Y-94435965D01*
X59251990Y-94583446D01*
X59251983Y-94583459D01*
X59184106Y-94747332D01*
X59184103Y-94747341D01*
X59149500Y-94921304D01*
X59149500Y-95098695D01*
X59184103Y-95272658D01*
X59184106Y-95272667D01*
X59251983Y-95436540D01*
X59251990Y-95436553D01*
X59350535Y-95584034D01*
X59350538Y-95584038D01*
X59475961Y-95709461D01*
X59475965Y-95709464D01*
X59623446Y-95808009D01*
X59623459Y-95808016D01*
X59726114Y-95850536D01*
X59787334Y-95875894D01*
X59787336Y-95875894D01*
X59787341Y-95875896D01*
X59896665Y-95897642D01*
X59958576Y-95930027D01*
X59993150Y-95990743D01*
X59989411Y-96060512D01*
X59975577Y-96088148D01*
X59951993Y-96123444D01*
X59951984Y-96123460D01*
X59884107Y-96287333D01*
X59884104Y-96287342D01*
X59849501Y-96461305D01*
X59849501Y-96638696D01*
X59884104Y-96812659D01*
X59884107Y-96812668D01*
X59951984Y-96976541D01*
X59951991Y-96976554D01*
X60050536Y-97124035D01*
X60050539Y-97124039D01*
X60080708Y-97154208D01*
X60114193Y-97215531D01*
X60109209Y-97285223D01*
X60067337Y-97341156D01*
X60001873Y-97365573D01*
X59968838Y-97363507D01*
X59948692Y-97359500D01*
X59948691Y-97359500D01*
X59771309Y-97359500D01*
X59771306Y-97359500D01*
X59597341Y-97394103D01*
X59597332Y-97394106D01*
X59433459Y-97461983D01*
X59433446Y-97461990D01*
X59285965Y-97560535D01*
X59285961Y-97560538D01*
X59160538Y-97685961D01*
X59160535Y-97685965D01*
X59061990Y-97833446D01*
X59061983Y-97833459D01*
X58994106Y-97997332D01*
X58994103Y-97997341D01*
X58959500Y-98171304D01*
X45500500Y-98171304D01*
X45500500Y-73216154D01*
X47659500Y-73216154D01*
X47659500Y-73373847D01*
X47690261Y-73528490D01*
X47690264Y-73528502D01*
X47750602Y-73674173D01*
X47750609Y-73674186D01*
X47838210Y-73805289D01*
X47838213Y-73805293D01*
X47949707Y-73916787D01*
X47949711Y-73916790D01*
X48080814Y-74004391D01*
X48080827Y-74004398D01*
X48226498Y-74064736D01*
X48226503Y-74064738D01*
X48381153Y-74095500D01*
X48381156Y-74095501D01*
X48381158Y-74095501D01*
X48538844Y-74095501D01*
X48538845Y-74095500D01*
X48693497Y-74064738D01*
X48839179Y-74004395D01*
X48970289Y-73916790D01*
X49081789Y-73805290D01*
X49169394Y-73674180D01*
X49172398Y-73669685D01*
X49226010Y-73624880D01*
X49295335Y-73616173D01*
X49358363Y-73646327D01*
X49395082Y-73705771D01*
X49399500Y-73738576D01*
X49399500Y-74195018D01*
X49410000Y-74297797D01*
X49465185Y-74464333D01*
X49465187Y-74464338D01*
X49557289Y-74613658D01*
X49686451Y-74742820D01*
X49684117Y-74745153D01*
X49716065Y-74790196D01*
X49719257Y-74859993D01*
X49699126Y-74903416D01*
X49631559Y-74996414D01*
X49517219Y-75220816D01*
X49439397Y-75460330D01*
X49434008Y-75494354D01*
X49404077Y-75557488D01*
X49344765Y-75594418D01*
X49274902Y-75593419D01*
X49216671Y-75554808D01*
X49196974Y-75522406D01*
X49169397Y-75455828D01*
X49169390Y-75455815D01*
X49081789Y-75324712D01*
X49081786Y-75324708D01*
X48970292Y-75213214D01*
X48970288Y-75213211D01*
X48839185Y-75125610D01*
X48839172Y-75125603D01*
X48693501Y-75065265D01*
X48693489Y-75065262D01*
X48538845Y-75034501D01*
X48538842Y-75034501D01*
X48381158Y-75034501D01*
X48381155Y-75034501D01*
X48226510Y-75065262D01*
X48226498Y-75065265D01*
X48080827Y-75125603D01*
X48080814Y-75125610D01*
X47949711Y-75213211D01*
X47949707Y-75213214D01*
X47838213Y-75324708D01*
X47838210Y-75324712D01*
X47750609Y-75455815D01*
X47750602Y-75455828D01*
X47690264Y-75601499D01*
X47690261Y-75601511D01*
X47659500Y-75756154D01*
X47659500Y-75913847D01*
X47690261Y-76068490D01*
X47690264Y-76068502D01*
X47750602Y-76214173D01*
X47750609Y-76214186D01*
X47838210Y-76345289D01*
X47838213Y-76345293D01*
X47949707Y-76456787D01*
X47949711Y-76456790D01*
X48080814Y-76544391D01*
X48080827Y-76544398D01*
X48226498Y-76604736D01*
X48226503Y-76604738D01*
X48381153Y-76635500D01*
X48381156Y-76635501D01*
X48381158Y-76635501D01*
X48538844Y-76635501D01*
X48538845Y-76635500D01*
X48693497Y-76604738D01*
X48839179Y-76544395D01*
X48970289Y-76456790D01*
X49081789Y-76345290D01*
X49169394Y-76214180D01*
X49196974Y-76147593D01*
X49240814Y-76093192D01*
X49307108Y-76071126D01*
X49374807Y-76088404D01*
X49422418Y-76139541D01*
X49434008Y-76175647D01*
X49439397Y-76209671D01*
X49517219Y-76449185D01*
X49631557Y-76673584D01*
X49705748Y-76775698D01*
X49705748Y-76775699D01*
X50476212Y-76005234D01*
X50487482Y-76047293D01*
X50559890Y-76172709D01*
X50662292Y-76275111D01*
X50787708Y-76347519D01*
X50829765Y-76358788D01*
X50218406Y-76970146D01*
X50187025Y-76992947D01*
X50161152Y-77006131D01*
X49957350Y-77154201D01*
X49957345Y-77154205D01*
X49779205Y-77332345D01*
X49779201Y-77332350D01*
X49631132Y-77536151D01*
X49516760Y-77760616D01*
X49438910Y-78000211D01*
X49433642Y-78033472D01*
X49403711Y-78096606D01*
X49344398Y-78133536D01*
X49274536Y-78132536D01*
X49216304Y-78093925D01*
X49196610Y-78061528D01*
X49169394Y-77995822D01*
X49169392Y-77995819D01*
X49169390Y-77995815D01*
X49081789Y-77864712D01*
X49081786Y-77864708D01*
X48970292Y-77753214D01*
X48970288Y-77753211D01*
X48839185Y-77665610D01*
X48839172Y-77665603D01*
X48693501Y-77605265D01*
X48693489Y-77605262D01*
X48538845Y-77574501D01*
X48538842Y-77574501D01*
X48381158Y-77574501D01*
X48381155Y-77574501D01*
X48226510Y-77605262D01*
X48226498Y-77605265D01*
X48080827Y-77665603D01*
X48080814Y-77665610D01*
X47949711Y-77753211D01*
X47949707Y-77753214D01*
X47838213Y-77864708D01*
X47838210Y-77864712D01*
X47750609Y-77995815D01*
X47750602Y-77995828D01*
X47690264Y-78141499D01*
X47690261Y-78141511D01*
X47659500Y-78296154D01*
X47659500Y-78453847D01*
X47690261Y-78608490D01*
X47690264Y-78608502D01*
X47750602Y-78754173D01*
X47750609Y-78754186D01*
X47838210Y-78885289D01*
X47838213Y-78885293D01*
X47949707Y-78996787D01*
X47949711Y-78996790D01*
X48080814Y-79084391D01*
X48080827Y-79084398D01*
X48226498Y-79144736D01*
X48226503Y-79144738D01*
X48381153Y-79175500D01*
X48381156Y-79175501D01*
X48381158Y-79175501D01*
X48538844Y-79175501D01*
X48538845Y-79175500D01*
X48693497Y-79144738D01*
X48839179Y-79084395D01*
X48970289Y-78996790D01*
X49081789Y-78885290D01*
X49169394Y-78754180D01*
X49169395Y-78754177D01*
X49169397Y-78754174D01*
X49196609Y-78688477D01*
X49240449Y-78634073D01*
X49306743Y-78612008D01*
X49374443Y-78629287D01*
X49422053Y-78680424D01*
X49433643Y-78716531D01*
X49438910Y-78749785D01*
X49516760Y-78989383D01*
X49631132Y-79213848D01*
X49779201Y-79417649D01*
X49779205Y-79417654D01*
X49957345Y-79595794D01*
X49957350Y-79595798D01*
X50135117Y-79724952D01*
X50161155Y-79743870D01*
X50304184Y-79816747D01*
X50385616Y-79858239D01*
X50385618Y-79858239D01*
X50385621Y-79858241D01*
X50625215Y-79936090D01*
X50874038Y-79975500D01*
X50874039Y-79975500D01*
X51125961Y-79975500D01*
X51125962Y-79975500D01*
X51374785Y-79936090D01*
X51614379Y-79858241D01*
X51838845Y-79743870D01*
X52042656Y-79595793D01*
X52220793Y-79417656D01*
X52368870Y-79213845D01*
X52483241Y-78989379D01*
X52561090Y-78749785D01*
X52600500Y-78500962D01*
X52600500Y-78249038D01*
X52561090Y-78000215D01*
X52483241Y-77760621D01*
X52483239Y-77760618D01*
X52483239Y-77760616D01*
X52441747Y-77679184D01*
X52368870Y-77536155D01*
X52349952Y-77510117D01*
X52220798Y-77332350D01*
X52220794Y-77332345D01*
X52042654Y-77154205D01*
X52042649Y-77154201D01*
X51838846Y-77006130D01*
X51812977Y-76992949D01*
X51781592Y-76970146D01*
X51170234Y-76358788D01*
X51212292Y-76347519D01*
X51337708Y-76275111D01*
X51440110Y-76172709D01*
X51512518Y-76047293D01*
X51523787Y-76005235D01*
X52294250Y-76775699D01*
X52294250Y-76775698D01*
X52368442Y-76673582D01*
X52368446Y-76673576D01*
X52482780Y-76449185D01*
X52560602Y-76209670D01*
X52600000Y-75960929D01*
X52600000Y-75709072D01*
X52560602Y-75460331D01*
X52482780Y-75220816D01*
X52368442Y-74996417D01*
X52300873Y-74903417D01*
X52277393Y-74837611D01*
X52293218Y-74769557D01*
X52315082Y-74744353D01*
X52313549Y-74742820D01*
X52318656Y-74737713D01*
X52442712Y-74613657D01*
X52534814Y-74464336D01*
X52589999Y-74297799D01*
X52600500Y-74195011D01*
X52600500Y-72394991D01*
X52589999Y-72292203D01*
X52534814Y-72125666D01*
X52442712Y-71976345D01*
X52318656Y-71852289D01*
X52169335Y-71760187D01*
X52002798Y-71705002D01*
X52002796Y-71705001D01*
X51900017Y-71694501D01*
X51900010Y-71694501D01*
X50099990Y-71694501D01*
X50099982Y-71694501D01*
X49997203Y-71705001D01*
X49997202Y-71705002D01*
X49914669Y-71732350D01*
X49830667Y-71760186D01*
X49830662Y-71760188D01*
X49681342Y-71852290D01*
X49557289Y-71976343D01*
X49465187Y-72125663D01*
X49465186Y-72125666D01*
X49410001Y-72292203D01*
X49410001Y-72292204D01*
X49410000Y-72292204D01*
X49399500Y-72394983D01*
X49399500Y-72851425D01*
X49379815Y-72918464D01*
X49327011Y-72964219D01*
X49257853Y-72974163D01*
X49194297Y-72945138D01*
X49172398Y-72920316D01*
X49081789Y-72784712D01*
X49081786Y-72784708D01*
X48970292Y-72673214D01*
X48970288Y-72673211D01*
X48839185Y-72585610D01*
X48839172Y-72585603D01*
X48693501Y-72525265D01*
X48693489Y-72525262D01*
X48538845Y-72494501D01*
X48538842Y-72494501D01*
X48381158Y-72494501D01*
X48381155Y-72494501D01*
X48226510Y-72525262D01*
X48226498Y-72525265D01*
X48080827Y-72585603D01*
X48080814Y-72585610D01*
X47949711Y-72673211D01*
X47949707Y-72673214D01*
X47838213Y-72784708D01*
X47838210Y-72784712D01*
X47750609Y-72915815D01*
X47750602Y-72915828D01*
X47690264Y-73061499D01*
X47690261Y-73061511D01*
X47659500Y-73216154D01*
X45500500Y-73216154D01*
X45500500Y-62624500D01*
X45520185Y-62557461D01*
X45572989Y-62511706D01*
X45624500Y-62500500D01*
X78375500Y-62500500D01*
X78442539Y-62520185D01*
G37*
%TD.AperFunction*%
%TD*%
M02*
